<?xml version="1.0" encoding="UTF-8" standalone="no"?>
<svg xmlns="http://www.w3.org/2000/svg" id="svg47" viewBox="0 0 2007.153 1080" height="1080" width="1889.084" version="1.0">
  <g transform="matrix(1.1938 0 0 1.1938 1730.18 -880.019)" id="g1003">
    <g id="g979">
      <path id="path2" d="m 20,820 h 40 v 40 H 20 Z" fill="#fcbba1"/>
      <path id="path4" d="m 20,870 h 40 v 40 H 20 Z" fill="#fc9272"/>
      <path id="path6" d="m 20,920 h 40 v 40 H 20 Z" fill="#fb6a4a"/>
      <path id="path8" d="m 20,970 h 40 v 40 H 20 Z" fill="#de2d26"/>
      <path id="path10" d="m 20,770 h 40 v 40 H 20 Z" fill="#fee5d9"/>
      <path id="path12" d="m 20,1020 h 40 v 40 H 20 Z" fill="#a50f15"/>
    </g>
    <g font-size="30" id="g971" font-family="Verdana" fill="#000">
      <text xml:space="preserve" x="70" y="1050" id="text907">
        <tspan id="tspan905" x="70" y="1050">level5</tspan>
      </text>
      <text id="text921" y="1000" x="70" xml:space="preserve">
        <tspan y="1000" x="70" id="tspan919">level4</tspan>
      </text>
      <text xml:space="preserve" x="70" y="950" id="text925">
        <tspan id="tspan923" x="70" y="950">level3</tspan>
      </text>
      <text id="text929" y="900" x="70" xml:space="preserve">
        <tspan y="900" x="70" id="tspan927">level2</tspan>
      </text>
      <text xml:space="preserve" x="70" y="850" id="text933">
        <tspan id="tspan931" x="70" y="850">level1</tspan>
      </text>
      <text id="text937" y="800" x="70" xml:space="preserve">
        <tspan y="800" x="70" id="tspan935">level0</tspan>
      </text>
      <text xml:space="preserve" x="20" y="750" id="text941">
        <tspan id="tspan939" x="20" y="750">Date</tspan>
      </text>
    </g>
  </g>
  <g id="g45" transform="matrix(3.0865 0 0 3.08077 -47.676 -60.428)" stroke="#000" stroke-width=".5">
    <path d="m 247.697,139.616 0.7,2.333 2.55,0.047 0.171,1.685 2.515,-0.618 0.65,0.088 -0.304,0.79 0.752,2.879 2.962,-0.094 2.548,1.132 -0.137,2.35 3.197,0.985 1.213,1.22 -1.407,3.065 -1.845,0.775 -2.865,1.309 2.574,2.757 0.191,3.274 -2.82,3.251 -2.657,-0.708 -0.829,-0.417 -2.009,-2.227 -1.348,1.355 -3.885,-0.522 0.057,1.646 -1.431,0.827 -2.542,1.205 -2.085,1.514 -6.231,0.734 -0.42,3.383 -0.086,0.851 -5.453,-1.022 -1.173,-1.752 2.069,-1.857 -1.96,0.163 1.52,-2.828 -3.423,-0.973 0.903,-3.929 -2.069,-0.215 -0.534,-0.371 -1.721,-1.948 0.143,-2.067 -2.226,-0.614 4.072,-2.397 -4.304,-4.216 -1.96,-0.03 1.58,-1.22 3.153,-0.892 3.516,-1.53 0.517,-0.009 0.429,1.921 3.814,-0.074 -0.404,-3.669 1.519,-1.095 2.779,0.079 6.312,-3.192 2.953,-0.347 2.768,-0.783 z" id="10"/>
    <path d="m 286.339,76.061 3.463,2.147 0.567,-1.669 1.447,0.471 2.902,2.174 0.119,0.064 1.485,1.091 0.167,1.871 2.318,-0.865 1.106,1.275 3.667,4.385 1.542,0.522 1.52,0.972 -0.487,0.317 -2.151,3.573 1.086,2.598 1.222,0.993 -0.421,3.474 1.363,1.453 -0.12,5.092 -1.377,0.122 0.321,0.888 0.305,1.505 -1.761,-0.011 -0.968,0.502 -1.011,1.284 2.125,1.576 0.017,0.401 -0.006,2.019 2.892,1.316 2.702,0.016 0.926,1.511 2.177,1.783 -0.306,3.381 1.523,0.628 3.536,-0.361 2.659,0.8 1.041,0.95 0.125,-0.141 2.364,-1.783 1.606,-0.789 0.89,1.459 1.111,0.278 0.754,1.803 -1.108,4.176 0.46,0.101 0.836,4.055 0.193,-0.315 1.393,3.458 -0.417,1.683 -2.991,3.008 1.376,1.28 -2.527,1.815 0.029,0.171 1.613,0.147 2.266,0.457 1.368,-0.094 4.008,2.376 -0.775,2.213 -0.748,1.434 -1.524,-1.098 -1.403,1.816 2.75,1.088 -2.264,0.284 0.806,3.427 -1.461,0.29 -2.045,0.828 2.583,1.302 -3.781,0.877 3.804,3.347 0.441,-0.548 2.028,2.003 0.789,-0.243 3.693,1.217 -0.296,1.305 -1.025,0.82 0.301,0.34 1.198,0.78 2.513,1.787 1.429,0.004 1.43,1.107 -0.178,1.834 -0.867,0.325 1.02,2.306 0.161,0.02 -1.017,2.038 -0.337,0.724 -0.644,1.869 -1.074,0.127 0.411,2.154 -0.473,2.568 -0.252,0.608 -0.212,0.529 -0.09,0.049 -0.106,0.518 -2.45,1.686 -0.381,0.745 -0.684,-0.822 -3.602,2.19 1.872,3.73 -1.362,1.727 -3.384,-1.111 -1.363,1.371 -2.698,3.197 -0.74,-0.748 -3.25,1.185 -1.274,0.287 -3.262,1.562 -0.317,-0.98 -3.013,1.372 -0.231,0.556 0.715,0.835 -1.126,2.446 -2.201,2.137 -1.475,2.22 0.407,3.443 3.369,1.114 1.741,0.033 1.429,3.228 -0.312,0.886 -0.154,2.02 -2.289,1.662 -0.094,-0.043 -4.647,-0.085 -0.174,0.511 0.308,0.131 -0.748,3.032 -1.14,-0.36 -0.762,-1.621 -1.9,0.442 -2.05,-1.226 -0.178,0.776 -0.628,-0.286 -0.803,0.691 -1.807,0.545 -4.58,-0.111 -3.883,-1.396 -1.174,1.546 2.28,2.103 -5.101,0.327 0.62,3.314 -1.371,1.192 -2.586,0.78 -1.521,-2.386 -2.015,-4.685 -2.499,1.67 -3.302,-3.322 -3.936,-2.754 -1.476,1.596 -0.648,2.239 -1.633,-0.271 -0.188,2.625 -0.348,-0.087 1.385,4.332 -4.366,1.767 -0.126,-0.052 -3.472,2.848 -0.263,2.059 -2.275,-1.96 -5.344,-0.427 1.533,-3.345 -3.352,1.812 -5.353,-1.457 -2.3,-0.534 -0.825,1.987 -6.287,-3.552 1.145,2.721 -2.682,-0.898 -3.002,2.734 -2.952,-0.647 0.985,-1.64 -5.676,-3.971 -0.89,-0.247 -3.752,0.785 -1.728,4.386 -3.393,-0.357 -1.447,0.121 -0.779,0.464 -2.807,-0.992 -4.639,1.02 -0.944,-1.101 1.082,-2.81 -1.264,-1.06 -2.26,0.441 -1.394,1.582 -1.355,-0.357 -0.293,3.119 -2.49,0.822 -0.371,1.617 -3.801,-0.148 -0.707,1.885 -3.951,-0.954 -0.889,-2.303 -1.974,-0.315 -1.841,2.055 -1.718,-2.447 -1.888,1.408 -2.171,1.207 -1.601,-0.771 0.718,-3.321 -3.397,-1.44 0.207,-2.393 0.751,-4.019 0.482,-0.818 0.02,-4.235 -3.398,0.054 -1.912,-0.621 2.069,-1.284 -3.915,-1.642 4.276,0.056 -3.108,-2.368 0.171,-1.538 3.779,-0.979 -4.391,0.344 -0.496,-3.491 5.428,-4.571 3.342,1.95 1.898,-3.568 2.98,-1.938 -3.354,-0.596 0.032,-0.876 1.774,-2.392 -0.966,-2.875 1.343,-0.44 -0.538,-3.807 0.897,-0.977 -0.293,-0.651 0.511,-2.711 0.058,-1.266 0.878,0.183 1.605,-0.124 -0.96,-5.497 0.931,-3.408 -2.271,0.048 -6.279,-2.445 0.731,-1.213 -0.226,-2.156 -1.461,-0.058 -0.793,-0.284 -2.049,0.813 -0.338,-0.017 -4.519,-5.953 -1.334,0.377 -3.454,0.823 -0.135,-0.035 -5.597,-3.097 -1.921,-0.084 -1.791,-1.259 3.516,-1.413 -5.532,-1.148 -0.801,-0.57 -2.905,1.163 -4.22,-0.224 1.332,-2.618 0.388,-1.335 1.501,0.206 -0.148,-1.934 -1.921,-2.348 0.484,-1.59 2.775,-1.236 0.147,0.24 1.985,0.301 0.83,-3.928 2.08,0.686 -0.289,-1.08 -0.954,-1.214 0.966,-3.39 2.244,-0.28 2.306,-2.996 1.458,-0.224 0.907,-0.1 2.914,0.392 3.057,-1.915 -0.623,-1.249 2.15,-0.848 1.16,-0.949 1.874,-2.164 0.06,2.289 2.732,0.286 4.79,-0.283 0.37,-1.666 2.217,-0.157 1.356,-1.951 0.427,-0.419 0.456,-1.133 2.556,-0.077 1.077,2.939 0.1,0.169 2.33,-0.583 0.125,-2.263 1.273,-1.59 3.205,-0.117 1.999,-1.068 1.123,-1.349 0.096,-0.011 0.715,-2.801 3.768,0.424 -0.049,-1.857 -0.887,-2.503 2.5,-1.83 4.179,0.812 2.477,0.996 1.778,0.126 2.882,0.23 1.155,0.03 0.427,0.184 2.382,-0.395 1.303,-1.613 1.714,1.477 0.983,0.05 0.46,-0.702 2.358,0.974 0.65,0.76 0.319,-0.041 2.277,-3.819 2.128,0.508 2.449,-0.145 0.583,-0.749 2.978,1.123 0.663,-0.259 0.2,-2.849 0.78,-2.575 0.21,-1.008 -1.498,-1.625 0.337,-3.787 4.72,1.755 0.643,-4.918 2.48,1.058 2.312,-2.026 -1.676,-5.409 1.367,-1.873 1.606,0.643 1.364,1.952 2.274,-2.804 0.869,2.054 4.166,-2.042 1.07,5.532 3.691,-0.894 0.873,-0.562 1.084,0.654 -0.072,-0.806 2.674,-0.259 1.476,0.989 -0.402,-1.703 2.971,-1.015 0.603,-2.716 2.796,-0.537 -0.448,-5.408 7.248,2.726 2.72,-2.46 -0.787,-2.49 3.179,-1.194 2.554,-0.83 -0.473,-2.741 0.597,-1.694 2.158,-0.242 -0.032,1.55 z m -38.642,63.555 -2.768,0.783 -2.953,0.347 -6.312,3.192 -2.779,-0.079 -1.519,1.095 0.404,3.669 -3.814,0.074 -0.429,-1.921 -0.517,0.009 -3.516,1.53 -3.153,0.892 -1.58,1.22 1.96,0.03 4.304,4.216 -4.072,2.397 2.226,0.614 -0.143,2.067 1.721,1.948 0.534,0.371 2.069,0.215 -0.903,3.929 3.423,0.973 -1.52,2.828 1.96,-0.163 -2.069,1.857 1.173,1.752 5.453,1.022 0.086,-0.851 0.42,-3.383 6.231,-0.734 2.085,-1.514 2.542,-1.205 1.431,-0.827 -0.057,-1.646 3.885,0.522 1.348,-1.355 2.009,2.227 0.829,0.417 2.657,0.708 2.82,-3.251 -0.191,-3.274 -2.574,-2.757 2.865,-1.309 1.845,-0.775 1.407,-3.065 -1.213,-1.22 -3.197,-0.985 0.137,-2.35 -2.548,-1.132 -2.962,0.094 -0.752,-2.879 0.304,-0.79 -0.65,-0.088 -2.515,0.618 -0.171,-1.685 -2.55,-0.047 -0.7,-2.333 z" id="20"/>
    <path d="m 203.523,231.404 -1.082,2.81 0.944,1.101 4.639,-1.02 2.807,0.992 0.779,-0.464 1.447,-0.121 3.393,0.357 1.728,-4.386 3.752,-0.785 0.89,0.247 5.676,3.971 -0.985,1.64 2.952,0.647 3.002,-2.734 2.682,0.898 -1.145,-2.721 6.287,3.552 0.825,-1.987 2.3,0.534 5.353,1.457 3.352,-1.812 -1.533,3.345 5.344,0.427 2.275,1.96 0.263,-2.059 3.472,-2.848 0.126,0.052 4.366,-1.767 -1.385,-4.332 0.348,0.087 0.188,-2.625 1.633,0.271 0.648,-2.239 1.476,-1.596 3.936,2.754 3.302,3.322 2.499,-1.67 2.015,4.685 1.521,2.386 2.586,-0.78 1.293,3.187 -4.07,1.349 0.73,1.087 1.524,1.557 -0.096,2.727 -0.753,1.179 1.17,0.975 -0.835,2.835 -0.864,0.736 -0.942,6.534 -1.005,2.643 -0.415,0.879 0.741,0.49 2.818,1.415 -0.301,1.837 -1.174,1.475 -0.531,0.951 2.163,1.967 -0.238,1.56 0.597,0.2 1.769,0.887 0.595,1.43 2.344,2.422 4.147,-2.198 0.221,-0.234 0.592,-0.427 1.107,0.944 2.867,2.53 1.021,0.041 2.126,0.366 -0.27,3.142 -1.859,0.36 1.713,0.866 0.579,-0.544 2.59,0.225 0.747,3.234 2.633,0.752 3.167,-2.649 3.073,1.444 2.497,0.876 -0.135,0.85 -0.134,0.929 3.037,-1.575 4.573,-0.38 1.828,9.396 0.815,-0.06 1.566,1.152 1.576,1.996 0.405,0.13 2.569,2.255 0.527,-0.486 1.408,-1.652 4.977,1.974 0.906,-0.016 0.103,-0.016 0.746,-1.414 2.474,0.608 0.158,-1.483 2.922,0.863 0.211,1.1 -1.738,0.751 0.742,0.742 1.508,1.396 2.853,2.218 -2.516,2.026 -0.198,-0.145 -2.179,-0.389 0.184,2.36 -1.37,0.42 0.457,2.339 -1.659,0.445 -0.28,2.704 -1.293,0.716 -0.758,1.317 -1.214,0.477 0.426,2.26 2.031,-1.191 1.148,0.352 0.057,0.542 -0.512,2.298 3.926,0.949 2.254,3.247 -0.545,0.537 -2.24,3.154 -1.546,2.059 -5.871,-5.251 -0.271,-0.098 -5.194,-1.074 -5.862,-4.419 -5.796,0.559 -1.782,-2.202 -2.521,5.837 -3.675,-0.938 -6.244,2.745 -0.355,-7.41 -9.01,-1.148 0.076,-2.195 -4.351,-0.942 -2.399,0.796 0.175,3.44 -2.129,3.144 0.76,7.119 0.762,3.797 -2.273,10.706 -1.354,5.19 -0.068,0.025 2.635,2.2 -2.452,2.55 -5.293,-1.7 -9.092,-1.437 -1.176,7.204 -5.981,4.667 -1.305,3.483 -0.24,10.807 -1.959,2.929 -3.759,0.103 -1.535,-4.129 -1.755,0.94 -3.111,-3.13 -3.498,3.065 -5.809,-2.052 -3.282,-4.762 -2.549,0.747 -0.063,5.872 -1.335,2.274 -4.267,-0.3 0.116,2.73 -2.949,-0.41 -2.47,3.36 -5.123,-3.277 -10.535,-2.689 -10.47,-0.684 -1.828,-4.887 -3.575,-1.796 4.152,-1.905 0.683,-2.653 -0.035,-0.513 -2.469,-0.506 -2.374,-4.094 -5.249,-1.523 -3.826,-4.236 -4.648,-4.042 -5.5,-0.614 0.263,-3.426 -7.153,-12.1 -0.881,-1.418 -5.83,0.988 -3.834,-10.043 -2.161,0.406 -2.654,-4.031 -2.841,0.406 -0.389,-6.996 2.511,-5.33 1.396,1.11 2.038,-2.618 0.113,-0.384 -0.782,-3.621 -1.796,-2.371 1.833,-0.605 -0.618,-5.792 3.601,1.289 0.166,0.551 2.858,-3.618 3.046,0.148 0.319,-1.528 -0.199,-1.857 2.735,-1.619 -0.264,-2.188 -1.963,-3.567 -0.32,0.052 3.346,-1.529 0.863,-2.054 -2.284,-0.331 -0.22,0.111 -0.865,-3.088 0.172,-0.185 2.818,0.139 0.147,-0.824 -0.728,-3.853 4.743,-2.028 0.043,-0.591 0.888,-3.194 0.545,-0.18 0.481,-2.872 -1.83,-1.05 0.451,-0.143 -1.503,-3.778 3.055,-4.519 -2.221,-2.276 0.213,-3.592 -1.898,-2.348 1.715,-3.501 1.601,0.771 2.171,-1.207 1.888,-1.408 1.718,2.447 1.841,-2.055 1.974,0.315 0.889,2.303 3.951,0.954 0.707,-1.885 3.801,0.148 0.371,-1.617 2.49,-0.822 0.293,-3.119 1.355,0.357 1.394,-1.582 2.26,-0.441 1.264,1.06 z" id="31"/>
    <path d="m 128.844,149.475 1.856,-0.023 2.205,-0.502 -0.074,2.366 3.055,-2.472 0.91,2.095 0.268,1.622 2.05,-0.362 1.638,-1.038 1.921,2.348 0.148,1.934 -1.501,-0.206 -0.388,1.335 -1.332,2.618 4.22,0.224 2.905,-1.163 0.801,0.57 5.532,1.148 -3.516,1.413 1.791,1.259 1.921,0.084 5.597,3.097 0.135,0.035 3.454,-0.823 1.334,-0.377 4.519,5.953 0.338,0.017 2.049,-0.813 0.793,0.284 1.461,0.058 0.226,2.156 -0.731,1.213 6.279,2.445 2.271,-0.048 -0.931,3.408 0.96,5.497 -1.605,0.124 -0.878,-0.183 -0.058,1.266 -0.511,2.711 0.293,0.651 -0.897,0.977 0.538,3.807 -1.343,0.44 0.966,2.875 -1.774,2.392 -0.032,0.876 3.354,0.596 -2.98,1.938 -1.898,3.568 -3.342,-1.95 -5.428,4.571 0.496,3.491 4.391,-0.344 -3.779,0.979 -0.171,1.538 3.108,2.368 -4.276,-0.056 3.915,1.642 -2.069,1.284 1.912,0.621 3.398,-0.054 -0.02,4.235 -0.482,0.818 -0.751,4.019 -0.207,2.393 3.397,1.44 -0.718,3.321 -1.715,3.501 1.898,2.348 -0.213,3.592 2.221,2.276 -3.055,4.519 1.503,3.778 -0.451,0.143 1.83,1.05 -0.481,2.872 -0.545,0.18 -0.888,3.194 -0.043,0.591 -4.743,2.028 0.728,3.853 -0.147,0.824 -2.818,-0.139 -0.172,0.185 0.865,3.088 0.22,-0.111 2.284,0.331 -0.863,2.054 -3.346,1.529 0.32,-0.052 1.963,3.567 0.264,2.188 -2.735,1.619 0.199,1.857 -0.319,1.528 -3.046,-0.148 -2.858,3.618 -0.166,-0.551 -3.601,-1.289 0.618,5.792 -1.833,0.605 1.796,2.371 0.782,3.621 -0.113,0.384 -2.038,2.618 -1.396,-1.11 -2.511,5.33 0.389,6.996 -4.309,-0.275 -0.899,4.127 -7.01,-4.763 -2.238,-2.278 -0.159,-7.244 -8.298,-10.289 -2.889,-2.486 -7.43,-0.398 -5.467,-9.374 -3.545,-2.874 -2.68,-6.634 -4.478,-2.557 -0.394,-3.105 0.097,-2.931 -7.529,-5.892 -3.467,-0.368 -3.261,-0.954 0.572,2.721 -9.695,-2.222 -4.914,-9.707 -7.134,-5.438 -2.121,-4.701 1.228,-6.916 -5.304,-2.466 -2.187,-10.592 -0.127,-1.521 -3.12,0.113 -0.282,-10.175 -3.514,-0.28 -4.228,-2.818 -3.546,-7.509 7.155,-4.587 -0.638,-3.531 5.063,-7.578 2.487,-3.964 1.092,-2.033 5.717,1.171 1.018,-2.066 3.61,-0.109 2.226,2.914 -0.806,-1.981 3.762,-0.519 -0.86,-2.03 3.911,-0.867 2.03,-0.289 4.274,-0.541 4.335,2.29 2.073,0.05 1.219,-1.416 3.709,2.136 2.983,-2.685 -0.028,-4.928 4.085,-0.612 8.182,-7.145 4.419,0.605 5.053,1.171 4.679,3.16 0.031,-7.846 4.703,-0.327 -0.328,-1.485 0.84,0.672 1.374,-1.842 -2.079,-1.066 0.545,-3.256 z" id="32"/>
    <path d="m 86.358,94.848 10.778,8.126 1.112,0.444 2.425,2.283 3.519,-0.545 0.844,-0.226 8.236,3.995 -1.461,2.192 6.687,0.392 5.514,0.299 1.372,4.044 -2.362,7.393 1.905,3.028 -1.366,1.876 2.764,3.046 -0.897,2.223 1.777,0.337 0.662,2.061 -0.383,-0.053 1.764,5.208 -1.805,-0.179 1.706,3.166 -3.104,-1.513 -2.186,1.732 0.481,0.52 3.825,0.449 2.537,4.308 -1.856,0.023 -0.545,3.256 2.079,1.066 -1.374,1.842 -0.84,-0.672 0.328,1.485 -4.703,0.327 -0.031,7.846 -4.679,-3.16 -5.053,-1.171 -4.419,-0.605 -8.182,7.145 -4.085,0.612 0.028,4.928 -2.983,2.685 -3.709,-2.136 -1.219,1.416 -2.073,-0.05 -4.335,-2.29 -4.274,0.541 -2.03,0.289 -3.911,0.867 0.86,2.03 -3.762,0.519 0.806,1.981 -2.226,-2.914 -3.61,0.109 -1.018,2.066 -5.717,-1.171 -1.434,-2.998 -5.63,-2.111 2.45,-4.978 -3.527,-3.515 -2.896,1.436 -0.659,-2.401 -7.801,-6.036 -1.442,0.9 -2.488,-3.881 -3.537,-0.079 1.489,-2.665 -2.68,-2.428 -0.585,-0.588 -3.725,-2.257 0.533,-5.266 0.613,-3.79 -4.451,-8.223 -6.178,-3.846 3.522,-2.853 1.171,-1.097 -2.914,-6.75 7.401,0.317 1.205,7.182 5.089,0.661 1.058,3.14 -1.897,-1.346 -0.706,1.783 5.094,3.952 -1.652,3.173 1.502,3.742 3.804,0.503 0.236,-3.317 -0.237,-7.156 2.459,-0.294 2.587,-6.375 1.837,-0.879 -0.108,-3.854 3.158,-0.126 1.866,-3.408 4.117,-1.378 2.27,-6.012 6.64,-1.226 5.119,-0.686 3.396,-0.498 3.126,3.004 2.773,-5.094 5.785,-2.388 0.698,1.486 0.707,1.285 1.03,-4.229 z" id="41"/>
    <path d="m 227.472,9.279 4.03,2.392 1.599,-0.928 2.621,3.192 1.404,0.49 4.528,-2.182 3.655,1.848 0.681,-3.414 -0.14,3.632 3.395,2.729 2.819,-0.912 3.171,3.424 -0.612,2.978 -3.048,6.161 2.105,1.662 6.292,-2.531 -1.593,6.64 -1.402,4.283 -2.193,2.615 -2.723,0.513 -0.603,5.406 -3.298,0.649 -4.631,-3.108 -3.156,0.714 1.413,2.733 -0.887,3.26 -1.515,-0.336 -1.016,3.222 -0.34,0.444 -0.087,2.462 -2.68,1.305 -2.01,2.736 0.918,2.058 -3.291,3.314 0.725,1.767 1.044,-0.109 0.52,5.355 4.26,6.967 2.103,4.962 3.148,2.11 1.508,3.218 -1.606,-0.643 -1.367,1.873 1.676,5.409 -2.312,2.026 -2.48,-1.058 -0.643,4.918 -4.72,-1.755 -0.337,3.787 1.498,1.625 -0.21,1.008 -0.78,2.575 -0.2,2.849 -0.663,0.259 -2.978,-1.123 -0.583,0.749 -2.449,0.145 -2.128,-0.508 -2.277,3.819 -0.319,0.041 -0.65,-0.76 -2.358,-0.974 -0.46,0.702 -0.983,-0.05 -1.714,-1.477 -1.303,1.613 -2.382,0.395 -0.427,-0.184 -1.155,-0.03 -2.882,-0.23 -1.778,-0.126 -2.477,-0.996 -4.179,-0.812 -2.5,1.83 0.887,2.503 0.049,1.857 -3.768,-0.424 -0.715,2.801 -0.096,0.011 -1.123,1.349 -1.999,1.068 -3.205,0.117 -1.273,1.59 -0.125,2.263 -2.33,0.583 -0.1,-0.169 -1.077,-2.939 -2.556,0.077 -0.456,1.133 -0.427,0.419 -1.356,1.951 -2.217,0.157 -0.37,1.666 -4.79,0.283 -2.732,-0.286 -0.06,-2.289 -1.874,2.164 -1.16,0.949 -2.15,0.848 0.623,1.249 -3.057,1.915 -2.914,-0.392 -0.907,0.1 -1.458,0.224 -2.306,2.996 -2.244,0.28 -0.966,3.39 0.954,1.214 0.289,1.08 -2.08,-0.686 -0.83,3.928 -1.985,-0.301 -0.147,-0.24 -2.775,1.236 -0.484,1.59 -1.638,1.038 -2.05,0.362 -0.268,-1.622 -0.91,-2.095 -3.055,2.472 0.074,-2.366 -2.205,0.502 -2.537,-4.308 -3.825,-0.449 -0.481,-0.52 2.186,-1.732 3.104,1.513 -1.706,-3.166 1.805,0.179 -1.764,-5.208 0.383,0.053 -0.662,-2.061 -1.777,-0.337 0.897,-2.223 -2.764,-3.046 1.366,-1.876 -1.905,-3.028 2.362,-7.393 -1.372,-4.044 -5.514,-0.299 -6.687,-0.392 1.461,-2.192 -8.236,-3.995 -0.844,0.226 -3.519,0.545 -2.425,-2.283 4.391,-3.76 2.97,-3.421 0.915,-8.156 1.917,0.469 3.158,1.029 4.566,-2.602 0.537,1.826 4.462,0.458 0.686,0.098 4.279,-10.028 1.902,-3.504 3.294,3.094 3.073,-0.841 0.241,-4.032 3.752,-1.35 0.89,-4.851 3.905,4.549 4.449,2.904 5.274,-5.099 -0.259,-2.82 2.535,-1.985 -1.264,-5.222 5.725,-1.129 1.466,0.463 5.946,-3.17 3.991,2.351 0.429,-0.47 1.555,-1.997 1.737,0.818 2.974,-1.138 4.467,1.829 5.531,-2.077 1.768,-2.025 -0.411,-5.828 3.918,0.379 4.841,-4.364 1.244,1.439 4.228,0.069 2.818,-0.297 13.693,-6.788 1.093,-4.245 8.595,-0.165 5.859,-1.535 1.324,-3.516 -0.463,-1.787 -7.974,-2.691 -0.834,-1.739 2.584,-2.493 -1.948,-0.189 -4.735,-0.637 2.234,-4.141 -0.73,-3.601 2.626,-2.221 z" id="42"/>
    <path d="m 294.951,14.31 3.234,1.4 0.289,-1.362 3.874,1.563 -0.273,2.27 1.234,0.722 2.713,0.162 0.256,-3.318 2.569,-0.993 0.519,5.188 5.683,-2.026 0.996,2.796 2.391,0.019 1.698,3.851 -1.946,2.541 0.622,6.344 3.045,4.771 0.515,0.231 4.921,3.266 0.317,8.425 2.268,0.597 4.133,-4.81 5.741,2.959 3.36,1.385 0.04,2.054 3.585,4.391 -0.945,7.375 -0.026,0.875 2.004,4.029 -1.64,2.111 3.472,3.629 -2.87,4.912 2.167,1.047 -0.182,2.28 1.229,0.928 2.646,3.985 -0.037,0.371 -4.317,1.272 -0.648,-1.264 -2.449,0.197 -0.884,1.018 -2.909,-0.366 -1.507,-3.248 -1.994,-0.971 -1.034,1.621 -2.479,1.721 0.162,2.229 0.953,1.823 -2.194,1.84 -1.141,0.5 -0.758,-0.267 -0.572,0.406 -2.135,-1.669 0.451,-2.091 -1.342,1.477 -2.428,-1.197 -1.482,-1.736 -0.347,0.518 -3.432,-1.607 0.03,0.15 -2.264,-0.527 -2.483,2.642 0.358,1.276 -4.178,-0.576 -1.956,-1.138 -2.928,-1.817 -1.52,-0.972 -1.542,-0.522 -3.667,-4.385 -1.106,-1.275 -2.318,0.865 -0.167,-1.871 -1.485,-1.091 -0.119,-0.064 -2.902,-2.174 -1.447,-0.471 -0.567,1.669 -3.463,-2.147 0.032,-1.55 -2.158,0.242 -0.597,1.694 0.473,2.741 -2.554,0.83 -3.179,1.194 0.787,2.49 -2.72,2.46 -7.248,-2.726 0.448,5.408 -2.796,0.537 -0.603,2.716 -2.971,1.015 0.402,1.703 -1.476,-0.989 -2.674,0.259 0.072,0.806 -1.084,-0.654 -0.873,0.562 -3.691,0.894 -1.07,-5.532 -4.166,2.042 -0.869,-2.054 -2.274,2.804 -1.364,-1.952 -1.508,-3.218 -3.148,-2.11 -2.103,-4.962 -4.26,-6.967 -0.52,-5.355 -1.044,0.109 -0.725,-1.767 3.291,-3.314 -0.918,-2.058 2.01,-2.736 2.68,-1.305 0.087,-2.462 0.34,-0.444 1.016,-3.222 1.515,0.336 0.887,-3.26 -1.413,-2.733 3.156,-0.714 4.631,3.108 3.298,-0.649 0.603,-5.406 2.723,-0.513 2.193,-2.615 5.768,2.283 2.664,0.265 1.266,2.784 6.638,0.293 3.454,-7.764 12.297,1.613 3.173,-1.094 1.114,-5.649 -1.568,-2.112 2.329,-2.691 -0.399,-6.392 -3.916,-1.055 3.186,-3.191 1.971,-1.723 z" id="51"/>
    <path d="m 358.613,56.182 3.829,0.358 7.131,-2.921 1.787,5.174 2.559,6.707 8.005,-2.141 4.052,0.556 1.378,3.733 1.818,4.296 -3.309,2.333 0.535,0.693 3.129,1.65 2.927,-1.685 2.71,-5.692 3.758,-1.949 5.125,4.654 3.572,-0.754 1.553,-5.697 6.062,1.507 3.904,-0.318 2.923,3.314 0.734,0.395 6.318,7.477 -3.645,2.514 0.651,3.161 -2.194,0.832 1.382,1.853 -3.839,4.324 -3.821,-0.898 -2.39,4.278 -3.307,-0.081 -0.93,0.93 -2.182,2.735 0.555,1.886 -0.935,-1.086 -1.002,0.061 -0.554,0.262 -0.844,2.43 2.537,3.699 1.554,-1.07 1.167,2.979 1.562,1.87 1.469,2.022 2.289,-2.355 5.125,0.349 0.291,4.458 2.28,3.306 2.063,0.803 2.855,0.071 7.419,10.742 4.309,3.908 0.196,7.367 2.229,4.088 -3.196,-0.609 -3.974,-2.523 -2.56,0.289 -1.457,4.297 -0.365,0.283 -0.251,0.044 -4.25,2.231 -0.771,0.36 -0.995,0.195 -3.869,2.135 -1.185,1.696 1.82,1.719 -3.889,2.419 1.611,3.143 -2.602,-0.556 -1.158,-0.681 -1.977,0.232 -0.284,0.284 -2.107,0.485 -0.515,-1.895 -1.144,1.931 -0.665,-0.541 -1.52,0.826 -1.49,-0.293 -2.878,-2.727 -0.122,0.259 -1.744,-0.372 -0.317,-0.034 -2.674,-3.168 -3.161,-0.106 -0.579,-0.468 -0.961,-3.529 -5.1,0.06 -0.098,-3.28 -0.007,-1.656 -1.631,-0.007 -0.027,-1.637 -7.169,-1.89 -2.817,1.288 0.024,2.234 -1.65,-0.007 -2.73,2.225 -2.175,-0.477 -0.879,-3.533 -3.692,-1.892 -2.918,1.788 0.041,2.595 -1.357,1.398 -1.956,-0.764 -0.967,1.119 -0.747,0.942 -1.122,-0.487 -0.17,-0.022 -2.116,-1.391 -1.011,0.804 -2.421,-0.703 -1.419,0.758 -1.371,-0.011 -0.559,-2.093 -1.032,-0.432 -1.212,1.583 -1.771,-0.182 -1.609,0.93 0.083,1.763 -0.002,0.938 -1.708,0.405 -2.514,1.391 -2.491,1.367 -1.254,-2.051 -0.108,-0.045 0.775,-2.213 -4.008,-2.376 -1.368,0.094 -2.266,-0.457 -1.613,-0.147 -0.029,-0.171 2.527,-1.815 -1.376,-1.28 2.991,-3.008 0.417,-1.683 -1.393,-3.458 -0.193,0.315 -0.836,-4.055 -0.46,-0.101 1.108,-4.176 -0.754,-1.803 -1.111,-0.278 -0.89,-1.459 -1.606,0.789 -2.364,1.783 -0.125,0.141 -1.041,-0.95 -2.659,-0.8 -3.536,0.361 -1.523,-0.628 0.306,-3.381 -2.177,-1.783 -0.926,-1.511 -2.702,-0.016 -2.892,-1.316 0.006,-2.019 -0.017,-0.401 -2.125,-1.576 1.011,-1.284 0.968,-0.502 1.761,0.011 -0.305,-1.505 -0.321,-0.888 1.377,-0.122 0.12,-5.092 -1.363,-1.453 0.421,-3.474 -1.222,-0.993 -1.086,-2.598 2.151,-3.573 0.487,-0.317 2.928,1.817 1.956,1.138 4.178,0.576 -0.358,-1.276 2.483,-2.642 2.264,0.527 -0.03,-0.15 3.432,1.607 0.347,-0.518 1.482,1.736 2.428,1.197 1.342,-1.477 -0.451,2.091 2.135,1.669 0.572,-0.406 0.758,0.267 1.141,-0.5 2.194,-1.84 -0.953,-1.823 -0.162,-2.229 2.479,-1.721 1.034,-1.621 1.994,0.971 1.507,3.248 2.909,0.366 0.884,-1.018 2.449,-0.197 0.648,1.264 4.317,-1.272 0.037,-0.371 -2.646,-3.985 -1.229,-0.928 0.182,-2.28 -2.167,-1.047 2.87,-4.912 -3.472,-3.629 1.64,-2.111 -2.004,-4.029 0.026,-0.875 0.945,-7.375 -3.585,-4.391 -0.04,-2.054 6.258,0.332 9.245,5.559 z" id="52"/>
    <path d="m 369.91,141.956 0.879,3.533 2.175,0.477 2.73,-2.225 1.65,0.007 -0.024,-2.234 2.817,-1.288 7.169,1.89 0.027,1.637 1.631,0.007 0.007,1.656 0.098,3.28 5.1,-0.06 0.961,3.529 0.579,0.468 3.161,0.106 2.674,3.168 0.317,0.034 1.744,0.372 0.122,-0.259 2.878,2.727 1.49,0.293 1.52,-0.826 0.665,0.541 1.144,-1.931 0.515,1.895 2.107,-0.485 0.284,-0.284 1.977,-0.232 1.158,0.681 2.602,0.556 -1.611,-3.143 3.889,-2.419 -1.82,-1.719 1.185,-1.696 3.869,-2.135 0.995,-0.195 0.771,-0.36 4.25,-2.231 0.251,-0.044 0.365,-0.283 1.457,-4.297 2.56,-0.289 3.974,2.523 3.196,0.609 3.096,1.51 1.394,1.879 2.261,1.29 4.22,1.712 8.386,-7.386 2.578,-6.66 3.404,-2.551 1.427,1.378 -0.031,3.719 -5.08,10.136 1.798,2.968 -2.166,1.987 1.777,4.084 -4.684,5.663 -1.822,1.875 -3.52,-0.65 0.648,2.065 1.402,5.114 2.496,4.528 0.01,2.592 0.311,2.835 0.711,1.668 -2.559,3.64 -0.134,2.237 0.334,0.846 0.424,-0.087 1.243,3.359 4.205,4.413 -0.091,1.648 -0.46,0.711 2.022,1.453 -1.214,3.341 3.09,-0.506 0.898,3.302 0.395,3.093 -1.587,2.316 0.196,0.353 0.023,0.187 -2.39,1.529 -0.271,2.623 1.331,1.284 0.835,1.03 -1.523,3.606 -0.101,0.062 -5.322,-1.053 -2.255,-1.195 -0.061,0.091 -5.861,-1.855 -1.379,1.389 -2.848,-2.095 -1.716,1.77 -1.671,-0.152 -1.275,-1.196 -0.841,0.691 -0.851,-0.595 -0.717,2.628 -0.366,0.73 0.082,1.227 -3.375,1.257 -0.173,0.116 -0.756,-0.235 -0.646,-0.966 -0.554,-0.056 -3.696,1.802 0.226,-1.216 -3.139,0.211 -0.139,1.774 -0.894,1.738 -1.374,-1.203 -1.549,-1.695 -1.687,-1.364 -0.773,-0.661 -2.231,-1.327 -1.28,-0.707 -2.308,0.067 -0.463,-0.034 -1.014,-1.14 -5.028,-5.234 -2.638,-1.322 -2.283,-0.836 -2.283,0.125 -0.629,-1.295 -0.474,-0.645 -3.51,1.188 -1.871,-3.074 -0.639,-0.926 -0.748,-0.424 -5.89,-1.427 0.042,-2.064 -0.679,-0.134 -2.897,2.9 0.103,2.34 -4.329,2.431 -0.423,0.324 -2.676,-1.718 -1.481,-0.919 -2.287,-0.943 0.713,-3.204 -0.137,-1.894 -1.171,1.202 -2.71,-2.452 -0.373,0.068 -4.411,-1.534 0.536,-1.725 -0.961,-0.601 -3.897,-0.501 -1.949,-3.165 -2.385,-0.032 -1.628,-1.13 -2.467,0.995 -0.209,-1.479 -2.89,1.06 -1.829,-0.298 -1.365,-1.773 -1.535,-1.456 -2.28,-1.164 -0.72,-0.839 -0.372,-0.255 -2.643,-2.018 0.252,-0.608 0.473,-2.568 -0.411,-2.154 1.074,-0.127 0.644,-1.869 0.337,-0.724 1.017,-2.038 -0.161,-0.02 -1.02,-2.306 0.867,-0.325 0.178,-1.834 -1.43,-1.107 -1.429,-0.004 -2.513,-1.787 -1.198,-0.78 -0.301,-0.34 1.025,-0.82 0.296,-1.305 -3.693,-1.217 -0.789,0.243 -2.028,-2.003 -0.441,0.548 -3.804,-3.347 3.781,-0.877 -2.583,-1.302 2.045,-0.828 1.461,-0.29 -0.806,-3.427 2.264,-0.284 -2.75,-1.088 1.403,-1.816 1.524,1.098 0.748,-1.434 0.108,0.045 1.254,2.051 2.491,-1.367 2.514,-1.391 1.708,-0.405 0.002,-0.938 -0.083,-1.763 1.609,-0.93 1.771,0.182 1.212,-1.583 1.032,0.432 0.559,2.093 1.371,0.011 1.419,-0.758 2.421,0.703 1.011,-0.804 2.116,1.391 0.17,0.022 1.122,0.487 0.747,-0.942 0.967,-1.119 1.956,0.764 1.357,-1.398 -0.041,-2.595 2.918,-1.788 3.692,1.892 z" id="53"/>
    <path d="m 343.488,188.678 0.72,0.839 2.28,1.164 1.535,1.456 1.365,1.773 1.829,0.298 2.89,-1.06 0.209,1.479 2.467,-0.995 1.628,1.13 2.385,0.032 1.949,3.165 3.897,0.501 0.961,0.601 -0.536,1.725 4.411,1.534 0.373,-0.068 2.71,2.452 1.171,-1.202 0.137,1.894 -0.713,3.204 2.287,0.943 1.481,0.919 2.676,1.718 0.423,-0.324 4.329,-2.431 -0.103,-2.34 2.897,-2.9 0.679,0.134 -0.042,2.064 5.89,1.427 0.748,0.424 0.639,0.926 1.871,3.074 3.51,-1.188 0.474,0.645 0.629,1.295 2.283,-0.125 2.283,0.836 2.638,1.322 5.028,5.234 1.014,1.14 0.463,0.034 2.308,-0.067 1.28,0.707 2.231,1.327 0.773,0.661 1.687,1.364 1.549,1.695 -0.258,2.711 -0.396,0.7 -1.154,0.555 0.612,1.541 1.414,0.435 2.167,1.414 -0.527,2.86 -1.273,1.433 -2.742,0.583 -1.282,-0.605 0.611,1.49 0.994,1.216 1.787,1.08 -0.977,3.638 -1.063,0.448 -0.984,-0.165 -0.654,-0.631 0.073,-2.21 -3.679,0.589 -2.073,2.407 0.027,0.496 3.914,-0.144 0.394,1.019 -1.352,1.69 -4.517,-0.138 -0.852,0.342 -1.182,2.052 0.566,1.309 -1.448,0.445 -1.578,1.297 0.23,1.031 0.546,1.076 -0.912,1.534 0.551,0.455 -1.396,1.645 1.713,0.742 0.163,0.206 3.317,1.968 0.234,0.551 -3.175,0.946 2.92,1.055 0.296,0.337 1.655,-0.728 0.44,1.202 -0.842,1.452 -0.425,0.012 -1.913,1.483 -0.198,2.715 1.949,0.652 0.993,1.957 -1.882,0.641 -1.68,0.188 -0.49,1.71 -0.828,1.469 -0.02,1.417 -0.137,1.468 3.089,0.753 0.529,1.423 -0.141,2.706 -0.951,-0.353 0.04,0.374 -3.199,1.685 1.849,2.979 -1.177,1.512 -2.19,-0.57 0.778,2.278 3.659,2.194 -0.9,1.487 -2.939,0.924 0.019,2.674 -3.865,0.906 -0.763,-0.466 -3.409,1.166 0.862,2.923 -2.136,1.163 -4.284,-0.046 -1.315,0.399 -1.36,-0.565 -1.12,-0.829 -1.467,2.483 -2.74,0.159 -2.088,-1.68 -1.112,-2.513 -2.884,0.945 0.346,1.789 -1.708,1.534 -3.258,-1.526 -0.763,4.59 -0.849,0.22 -1.608,-1.151 -1.65,0.438 -1.917,1.119 -1.82,2.184 -0.255,0.878 -3.3,0.54 -0.101,0.448 -2.534,4.576 -0.482,-0.707 -1.928,-2.336 -1.987,0.889 -2.326,-0.418 -0.332,2.467 -2.185,0.917 -1.235,-1.163 -2.011,-1.071 -1.573,1.53 -2.254,-3.247 -3.926,-0.949 0.512,-2.298 -0.057,-0.542 -1.148,-0.352 -2.031,1.191 -0.426,-2.26 1.214,-0.477 0.758,-1.317 1.293,-0.716 0.28,-2.704 1.659,-0.445 -0.457,-2.339 1.37,-0.42 -0.184,-2.36 2.179,0.389 0.198,0.145 2.516,-2.026 -2.853,-2.218 -1.508,-1.396 -0.742,-0.742 1.738,-0.751 -0.211,-1.1 -2.922,-0.863 -0.158,1.483 -2.474,-0.608 -0.746,1.414 -0.103,0.016 -0.906,0.016 -4.977,-1.974 -1.408,1.652 -0.527,0.486 -2.569,-2.255 -0.405,-0.13 -1.576,-1.996 -1.566,-1.152 -0.815,0.06 -1.828,-9.396 -4.573,0.38 -3.037,1.575 0.134,-0.929 0.135,-0.85 -2.497,-0.876 -3.073,-1.444 -3.167,2.649 -2.633,-0.752 -0.747,-3.234 -2.59,-0.225 -0.579,0.544 -1.713,-0.866 1.859,-0.36 0.27,-3.142 -2.126,-0.366 -1.021,-0.041 -2.867,-2.53 -1.107,-0.944 -0.592,0.427 -0.221,0.234 -4.147,2.198 -2.344,-2.422 -0.595,-1.43 -1.769,-0.887 -0.597,-0.2 0.238,-1.56 -2.163,-1.967 0.531,-0.951 1.174,-1.475 0.301,-1.837 -2.818,-1.415 -0.741,-0.49 0.415,-0.879 1.005,-2.643 0.942,-6.534 0.864,-0.736 0.835,-2.835 -1.17,-0.975 0.753,-1.179 0.096,-2.727 -1.524,-1.557 -0.73,-1.087 4.07,-1.349 -1.293,-3.187 1.371,-1.192 -0.62,-3.314 5.101,-0.327 -2.28,-2.103 1.174,-1.546 3.883,1.396 4.58,0.111 1.807,-0.545 0.803,-0.691 0.628,0.286 0.178,-0.776 2.05,1.226 1.9,-0.442 0.762,1.621 1.14,0.36 0.748,-3.032 -0.308,-0.131 0.174,-0.511 4.647,0.085 0.094,0.043 2.289,-1.662 0.154,-2.02 0.312,-0.886 -1.429,-3.228 -1.741,-0.033 -3.369,-1.114 -0.407,-3.443 1.475,-2.22 2.201,-2.137 1.126,-2.446 -0.715,-0.835 0.231,-0.556 3.013,-1.372 0.317,0.98 3.262,-1.562 1.274,-0.287 3.25,-1.185 0.74,0.748 2.698,-3.197 1.363,-1.371 3.384,1.111 1.362,-1.727 -1.872,-3.73 3.602,-2.19 0.684,0.822 0.381,-0.745 2.45,-1.686 0.106,-0.518 0.09,-0.049 0.212,-0.529 2.643,2.018 0.372,0.255 z" id="63"/>
    <path d="m 442.601,219.305 0.851,0.595 0.841,-0.691 1.275,1.196 1.671,0.152 1.716,-1.77 2.848,2.095 1.379,-1.389 5.861,1.855 0.061,-0.091 2.255,1.195 5.322,1.053 -1.085,3.77 -3.766,-1.106 -0.78,-0.813 0.874,3.911 -1.522,2.796 2.767,-0.064 4.611,0.815 1.937,0.551 -2.58,0.607 -2.003,4.651 0.712,0.598 0.443,3.019 0.339,2.422 0.503,0.092 2.53,2.838 -2.718,2.309 0.529,2.237 3.305,2.166 2.051,1.315 0.216,-0.284 0.901,-1.746 1.445,-0.656 0.615,-1.767 -0.129,-0.818 0.107,-0.076 2.087,-1.844 -2.341,-2.781 0.58,-1.687 -3.04,-1.445 -0.929,-1.443 4.629,-3.007 3.495,0.766 1.586,2.103 2.858,3.472 0.559,2.722 1.568,2.25 2.333,4.899 1.656,-3.231 0.583,0.506 -0.569,5.625 0.356,0.384 -1.352,0.882 2.411,1.007 3.089,1.775 2.761,0.946 1.97,1.578 -0.027,1.676 0.356,1.132 0.787,1.173 0.097,0.653 0.854,2.23 -2.636,4.004 1.553,3.2 -1.008,1.755 2.93,3.637 -1.645,2.286 3.239,0.192 1.662,-1.566 0.081,2.309 0.142,0.652 -1.247,3.897 -1.41,0.116 -2.168,0.646 -0.549,4.36 -2.732,0.096 0.656,2.589 -0.923,1.261 3.432,0.547 2.574,-1.521 4.045,-1.61 0.732,2.676 0.892,3.306 -0.736,1.956 -0.061,0.448 0.379,0.566 2.636,-0.979 0.148,1.161 0.884,-0.498 1.42,1.191 0.762,1.567 3.012,0.284 0.717,-0.242 4.168,1.198 -0.554,4.008 3.966,-0.498 3.795,4.37 3.1,-1.944 3.139,-0.661 1.018,1.948 4.395,1.309 -1.228,3.084 0.86,0.912 5.288,0.726 1.431,2.559 0.983,1.508 2.283,4.084 -6.86,4.685 -2.089,-0.997 -2.446,2.945 -0.961,-2.47 -0.773,1.341 -3.48,-3.049 -2.279,-0.682 -2.15,2.217 -1.848,1.297 -4.793,1.668 -4.174,-4.596 -1.436,0.341 -2.849,-2.435 -6.945,-2.07 -2.932,2.275 -6.504,4.807 -0.663,4.05 -0.996,1.009 -3.071,3.861 -1.653,2.208 -2.497,4.231 -6.756,16.636 -2.107,-0.837 0.204,-7.513 -2.268,-6.62 -8.789,1.195 -5.357,-0.737 -3.21,-3.042 -4.106,1.575 -0.375,-4.224 -1.455,-3.153 -8.354,-1.928 -4.158,-3.083 -0.823,1.078 -1.15,1.299 -5.587,-1.557 -1.275,1.453 -2.701,5.955 -4.084,4.732 -3.754,-1.8 -0.902,1.497 -3.063,-1.252 -3.094,-0.129 -7.336,-0.214 -4.789,-0.066 -0.502,0.067 -2.274,-0.613 -4.948,-0.885 -1.745,-1.111 -5.264,-2.472 -4.419,-3.829 0.816,-2.087 -3.139,-0.435 -1.04,-2.321 -2.31,0.551 1.105,-0.932 -2.573,-2.535 -3.586,-0.242 0.308,-2.258 -5.085,0.288 -1.758,0.73 -2.044,2.515 -4.317,-1.174 -1.99,0.7 -5.244,-4.552 -9.332,-3.042 1.546,-2.059 2.24,-3.154 0.545,-0.537 1.573,-1.53 2.011,1.071 1.235,1.163 2.185,-0.917 0.332,-2.467 2.326,0.418 1.987,-0.889 1.928,2.336 0.482,0.707 2.534,-4.576 0.101,-0.448 3.3,-0.54 0.255,-0.878 1.82,-2.184 1.917,-1.119 1.65,-0.438 1.608,1.151 0.849,-0.22 0.763,-4.59 3.258,1.526 1.708,-1.534 -0.346,-1.789 2.884,-0.945 1.112,2.513 2.088,1.68 2.74,-0.159 1.467,-2.483 1.12,0.829 1.36,0.565 1.315,-0.399 4.284,0.046 2.136,-1.163 -0.862,-2.923 3.409,-1.166 0.763,0.466 3.865,-0.906 -0.019,-2.674 2.939,-0.924 0.9,-1.487 -3.659,-2.194 -0.778,-2.278 2.19,0.57 1.177,-1.512 -1.849,-2.979 3.199,-1.685 -0.04,-0.374 0.951,0.353 0.141,-2.706 -0.529,-1.423 -3.089,-0.753 0.137,-1.468 0.02,-1.417 0.828,-1.469 0.49,-1.71 1.68,-0.188 1.882,-0.641 -0.993,-1.957 -1.949,-0.652 0.198,-2.715 1.913,-1.483 0.425,-0.012 0.842,-1.452 -0.44,-1.202 -1.655,0.728 -0.296,-0.337 -2.92,-1.055 3.175,-0.946 -0.234,-0.551 -3.317,-1.968 -0.163,-0.206 -1.713,-0.742 1.396,-1.645 -0.551,-0.455 0.912,-1.534 -0.546,-1.076 -0.23,-1.031 1.578,-1.297 1.448,-0.445 -0.566,-1.309 1.182,-2.052 0.852,-0.342 4.517,0.138 1.352,-1.69 -0.394,-1.019 -3.914,0.144 -0.027,-0.496 2.073,-2.407 3.679,-0.589 -0.073,2.21 0.654,0.631 0.984,0.165 1.063,-0.448 0.977,-3.638 -1.787,-1.08 -0.994,-1.216 -0.611,-1.49 1.282,0.605 2.742,-0.583 1.273,-1.433 0.527,-2.86 -2.167,-1.414 -1.414,-0.435 -0.612,-1.541 1.154,-0.555 0.396,-0.7 0.258,-2.711 1.374,1.203 0.894,-1.738 0.139,-1.774 3.139,-0.211 -0.226,1.216 3.696,-1.802 0.554,0.056 0.646,0.966 0.756,0.235 0.173,-0.116 3.375,-1.257 -0.082,-1.227 0.366,-0.73 0.717,-2.628 z" id="64"/>
    <path d="m 492.862,103.181 3.215,3.551 4.816,-1.298 1.881,4.682 1.87,2.097 5.6,3.435 5.528,-1.782 -0.806,6.713 1.292,2.861 1.389,-2.76 5.238,0.563 0.927,3.328 -0.404,6.363 -4.434,-1.498 -2.593,4.969 -5.944,2.663 -1.203,2.063 -3.011,2.638 1.063,3.167 -2.684,2.826 1.114,2.558 -2.197,6.624 -0.847,0.965 -2.73,3.509 -1.06,4.218 4.703,4.833 -3.762,4.282 1.274,1.538 -2.516,4.945 2.474,2.983 1.282,1.872 2.336,-1.545 1.084,-0.898 -0.144,6.15 4.58,-0.009 -10e-4,-2.595 5.652,-2.925 2.756,-1.48 2.398,2.311 -2.103,5.223 1.626,1.338 1.479,1.792 2.007,-5.362 5.049,-0.983 -2.271,-5.106 0.912,-1.103 2.408,0.084 1.521,4.827 0.604,6.167 2.926,1.115 0.436,2.929 8.407,3.526 5.822,-3.469 0.126,0.215 1.563,2.405 0.014,1.413 0.62,2.046 -0.897,4.718 -0.044,1.721 4.619,2.38 0.297,-2.037 0.104,-0.179 4.208,6.868 2.775,1.045 3.11,2.659 1.022,2.444 1.868,1.927 -2.181,2.008 2.01,2.633 1.729,-3.477 1.981,0.145 1.535,4.177 -0.319,1.756 -2.423,2.688 -1.23,-0.382 -2.597,-1.217 -0.28,-0.472 -0.474,2.896 -2.381,0.302 -1.617,2.207 -0.951,-0.04 1.404,2.661 -2.127,1.982 0.114,2.015 -1.23,0.754 -0.678,-0.067 -2.314,0.848 -2.256,-1.122 -0.516,-1.459 -1.401,-1.489 -1.77,0.401 -0.794,3.227 -3.18,-1.269 -0.855,1.182 1.275,1.453 0.256,0.239 0.659,1.278 0.622,0.804 -1.705,2.146 -2.025,0.17 -0.702,0.247 -1.228,-0.779 -0.377,-0.317 -1.14,0.093 -0.473,0.091 -4.607,0.654 -1.833,0.178 0.508,1.061 -0.978,3.599 -2.24,2.362 -0.145,-0.222 -0.711,-2.023 -3.604,-1.277 -1.137,0.17 -2.683,-0.282 -1.371,-1.286 0.474,-1.996 -1.173,-1.378 -3.459,4.59 0.039,0.324 0.245,0.577 2.24,4.941 -4.224,3.831 -1.951,2.581 -0.094,-0.01 -3.385,-0.156 -0.291,0.501 -0.611,0.516 -1.826,-0.131 -1.219,0.932 -2.057,-0.786 -0.097,1.016 -0.856,0.255 -0.316,2.52 -1.86,-0.463 -0.854,-2.23 -0.097,-0.653 -0.787,-1.173 -0.356,-1.132 0.027,-1.676 -1.97,-1.578 -2.761,-0.946 -3.089,-1.775 -2.411,-1.007 1.352,-0.882 -0.356,-0.384 0.569,-5.625 -0.583,-0.506 -1.656,3.231 -2.333,-4.899 -1.568,-2.25 -0.559,-2.722 -2.858,-3.472 -1.586,-2.103 -3.495,-0.766 -4.629,3.007 0.929,1.443 3.04,1.445 -0.58,1.687 2.341,2.781 -2.087,1.844 -0.107,0.076 0.129,0.818 -0.615,1.767 -1.445,0.656 -0.901,1.746 -0.216,0.284 -2.051,-1.315 -3.305,-2.166 -0.529,-2.237 2.718,-2.309 -2.53,-2.838 -0.503,-0.092 -0.339,-2.422 -0.443,-3.019 -0.712,-0.598 2.003,-4.651 2.58,-0.607 -1.937,-0.551 -4.611,-0.815 -2.767,0.064 1.522,-2.796 -0.874,-3.911 0.78,0.813 3.766,1.106 1.085,-3.77 0.101,-0.062 1.523,-3.606 -0.835,-1.03 -1.331,-1.284 0.271,-2.623 2.39,-1.529 -0.023,-0.187 -0.196,-0.353 1.587,-2.316 -0.395,-3.093 -0.898,-3.302 -3.09,0.506 1.214,-3.341 -2.022,-1.453 0.46,-0.711 0.091,-1.648 -4.205,-4.413 -1.243,-3.359 -0.424,0.087 -0.334,-0.846 0.134,-2.237 2.559,-3.64 -0.711,-1.668 -0.311,-2.835 -0.01,-2.592 -2.496,-4.528 -1.402,-5.114 -0.648,-2.065 3.52,0.65 1.822,-1.875 4.684,-5.663 -1.777,-4.084 2.166,-1.987 -1.798,-2.968 5.08,-10.136 0.031,-3.719 3.315,-3.754 5.457,-0.117 1.771,-3.331 2.105,4.123 1.692,-0.458 1.246,-1.6 -2.628,-3.782 1.635,-3.4 -2.253,-3.455 -3.186,-1.801 -2.249,-0.659 -3.088,-10.198 -2.414,-1.304 -2.488,-1.447 1.927,-5.145 2.454,-1.057 4.136,2.514 9.86,3.425 5.402,0.143 z" id="71"/>
    <path d="m 579.764,228.982 1.991,3.66 3.964,0.016 2.09,-0.482 2.262,-0.482 1.709,-0.106 3.788,0.955 2.645,-1.245 4.014,3.985 4.889,0.771 3.645,-1.514 1.606,3.685 5.183,3.823 0.996,5.015 3.656,1.102 0.365,6.858 -7.04,5.024 -7.393,3.646 -5.219,1.135 -1.25,0.526 -1.927,3.984 -0.669,5.961 -1.945,4.731 0.704,4.128 -1.765,1.431 -0.939,2.557 0.401,3.216 -0.207,4.994 -4.537,7.791 -5.933,0.386 -4.52,0.693 -2.812,1.558 -0.38,2.521 -1.12,5.76 -0.486,1.257 -2.396,4.259 -5.074,-0.517 -3.904,2.257 -2.846,3.394 -4.04,4.727 -5.503,1.058 -2.283,-4.084 -0.983,-1.508 -1.431,-2.559 -5.288,-0.726 -0.86,-0.912 1.228,-3.084 -4.395,-1.309 -1.018,-1.948 -3.139,0.661 -3.1,1.944 -3.795,-4.37 -3.966,0.498 0.554,-4.008 -4.168,-1.198 -0.717,0.242 -3.012,-0.284 -0.762,-1.567 -1.42,-1.191 -0.884,0.498 -0.148,-1.161 -2.636,0.979 -0.379,-0.566 0.061,-0.448 0.736,-1.956 -0.892,-3.306 -0.732,-2.676 -4.045,1.61 -2.574,1.521 -3.432,-0.547 0.923,-1.261 -0.656,-2.589 2.732,-0.096 0.549,-4.36 2.168,-0.646 1.41,-0.116 1.247,-3.897 -0.142,-0.652 -0.081,-2.309 -1.662,1.566 -3.239,-0.192 1.645,-2.286 -2.93,-3.637 1.008,-1.755 -1.553,-3.2 2.636,-4.004 1.86,0.463 0.316,-2.52 0.856,-0.255 0.097,-1.016 2.057,0.786 1.219,-0.932 1.826,0.131 0.611,-0.516 0.291,-0.501 3.385,0.156 0.094,0.01 1.951,-2.581 4.224,-3.831 -2.24,-4.941 -0.245,-0.577 -0.039,-0.324 3.459,-4.59 1.173,1.378 -0.474,1.996 1.371,1.286 2.683,0.282 1.137,-0.17 3.604,1.277 0.711,2.023 0.145,0.222 2.24,-2.362 0.978,-3.599 -0.508,-1.061 1.833,-0.178 4.607,-0.654 0.473,-0.091 1.14,-0.093 0.377,0.317 1.228,0.779 0.702,-0.247 2.025,-0.17 1.705,-2.146 -0.622,-0.804 -0.659,-1.278 -0.256,-0.239 -1.275,-1.453 0.855,-1.182 3.18,1.269 0.794,-3.227 1.77,-0.401 1.401,1.489 0.516,1.459 2.256,1.122 2.314,-0.848 0.678,0.067 1.23,-0.754 -0.114,-2.015 2.127,-1.982 -1.404,-2.661 0.951,0.04 1.617,-2.207 2.381,-0.302 0.474,-2.896 0.28,0.472 2.597,1.217 1.23,0.382 2.423,-2.688 0.319,-1.756 4.869,-0.197 0.616,-0.009 z" id="72"/>
    <path d="m 554.238,117.06 -2.32,5.359 1.657,2.212 2.227,1.516 -0.456,4.445 -3.873,0.274 -2.437,3.384 -5.063,1.57 -4.163,2.242 3.337,3.624 4.879,4.5 0.639,-2.096 2.1,0.355 5.217,7.76 1.673,2.715 2.234,4.018 3.143,0.363 -0.005,2.535 4.14,3.064 5.147,-1.121 2.83,-4.019 2.794,-0.113 1.966,-2.053 3.16,1.295 0.837,-1.093 -0.443,-3.056 -3.236,0.922 -0.483,-3.28 2.641,-1.967 2.962,1.853 3.072,3.586 -0.02,1.897 1.314,2.152 4.645,2.362 1.759,-2.657 3.222,0.253 2.228,4.07 4.643,0.539 0.438,3.632 4.236,3.415 2.599,-2.14 -1.696,-2.828 4.947,1.838 4.428,-0.654 3.556,3.015 1.216,0.732 5.416,1.511 0.325,-3.904 3.209,0.462 0.028,6.919 3.542,1.831 -3.326,4.365 3.152,6.142 1.713,4.489 2.044,6.09 7.527,1.721 0.874,3.074 2.592,0.904 5.966,-0.509 2.224,10.656 0.414,1.254 0.587,1.803 2.902,4.909 -1.387,2.752 0.255,2.323 -2.462,0.221 -2.978,1.346 -3.062,3.098 -7.081,-2.312 -0.753,-0.126 -5.416,2.091 -2.16,-2.155 -4.777,1.699 -0.374,0.883 0.748,3.944 -6.543,9.045 -2.399,2.394 -4.524,-0.239 -3.656,-1.102 -0.996,-5.015 -5.183,-3.823 -1.606,-3.685 -3.645,1.514 -4.889,-0.771 -4.014,-3.985 -2.645,1.245 -3.788,-0.955 -1.709,0.106 -2.262,0.482 -2.09,0.482 -3.964,-0.016 -1.991,-3.66 -0.616,0.009 -4.869,0.197 -1.535,-4.177 -1.981,-0.145 -1.729,3.477 -2.01,-2.633 2.181,-2.008 -1.868,-1.927 -1.022,-2.444 -3.11,-2.659 -2.775,-1.045 -4.208,-6.868 -0.104,0.179 -0.297,2.037 -4.619,-2.38 0.044,-1.721 0.897,-4.718 -0.62,-2.046 -0.014,-1.413 -1.563,-2.405 -0.126,-0.215 -5.822,3.469 -8.407,-3.526 -0.436,-2.929 -2.926,-1.115 -0.604,-6.167 -1.521,-4.827 -2.408,-0.084 -0.912,1.103 2.271,5.106 -5.049,0.983 -2.007,5.362 -1.479,-1.792 -1.626,-1.338 2.103,-5.223 -2.398,-2.311 -2.756,1.48 -5.652,2.925 10e-4,2.595 -4.58,0.009 0.144,-6.15 -1.084,0.898 -2.336,1.545 -1.282,-1.872 -2.474,-2.983 2.516,-4.945 -1.274,-1.538 3.762,-4.282 -4.703,-4.833 1.06,-4.218 2.73,-3.509 0.847,-0.965 2.197,-6.624 -1.114,-2.558 2.684,-2.826 -1.063,-3.167 3.011,-2.638 1.203,-2.063 5.944,-2.663 2.593,-4.969 4.434,1.498 0.404,-6.363 1.861,-0.155 2.496,-2.416 8.276,-0.206 2.671,-1.327 2.48,1.655 1.613,-0.919 5.027,-4.505 -0.347,-3.862 4.398,3.552 1.951,0.673 z" id="80"/>
  </g>
</svg>
