<?xml version="1.0" encoding="UTF-8" standalone="no"?>
<svg xmlns="http://www.w3.org/2000/svg" id="svg444" height="1081" width="1303.757" version="1.1">
  <g transform="matrix(1.13416 0 0 1.13416 1045.116 -805.149)" id="g1003">
    <g id="g979">
      <path id="path2" d="m 20,820 h 40 v 40 H 20 Z" fill="#fcbba1"/>
      <path id="path4" d="m 20,870 h 40 v 40 H 20 Z" fill="#fc9272"/>
      <path id="path6" d="m 20,920 h 40 v 40 H 20 Z" fill="#fb6a4a"/>
      <path id="path8" d="m 20,970 h 40 v 40 H 20 Z" fill="#de2d26"/>
      <path id="path10" d="m 20,770 h 40 v 40 H 20 Z" fill="#fee5d9"/>
      <path id="path12" d="m 20,1020 h 40 v 40 H 20 Z" fill="#a50f15"/>
    </g>
    <g font-size="30" id="g971" font-family="Verdana" fill="#000">
      <text xml:space="preserve" x="70" y="1050" id="text907">
        <tspan id="tspan905" x="70" y="1050">≥ 18.64</tspan>
      </text>
      <text id="text921" y="1000" x="70" xml:space="preserve">
        <tspan y="1000" x="70" id="tspan919">≥ 13.70</tspan>
      </text>
      <text xml:space="preserve" x="70" y="950" id="text925">
        <tspan id="tspan923" x="70" y="950">≥ 9.87</tspan>
      </text>
      <text id="text929" y="900" x="70" xml:space="preserve">
        <tspan y="900" x="70" id="tspan927">≥ 7.13</tspan>
      </text>
      <text xml:space="preserve" x="70" y="850" id="text933">
        <tspan id="tspan931" x="70" y="850">≥ 5.48</tspan>
      </text>
      <text id="text937" y="800" x="70" xml:space="preserve">
        <tspan y="800" x="70" id="tspan935">&lt; 5.48</tspan>
      </text>
      <text xml:space="preserve" x="20" y="750" id="text941">
        <tspan id="tspan939" x="20" y="750">2020-04-07</tspan>
      </text>
    </g>
  </g>
  <g transform="translate(-14011.847 -7848.19) scale(12.36753)" id="g1269" stroke="#000" stroke-width=".04">
    <path style="fill:#fb6a4a" d="m 1176.9695,647.7486 1.3012,2.8718 0.1543,1.6751 -0.9503,2.2355 -1.4898,2.0159 -2.0524,0.3058 6.4035,5.7831 -1.5389,0.3806 -0.2254,1.4266 -4.3991,-0.3267 -1.8793,-0.652 -0.8325,0.7214 -3.4683,1.0154 -1.2762,2.299 -4.8905,-0.1389 -3.0957,-0.5128 -3.4907,-3.0338 -0.5093,-2.5915 -0.9747,-1.0352 -0.2296,-2.6627 0.2908,-1.0123 -0.1783,-0.4634 -0.4382,-0.4572 -0.6033,-0.4575 -0.029,-0.0216 -0.4871,-0.5646 -0.144,-0.2142 -0.1455,-0.2697 -0.083,-0.1382 -0.5461,-0.7302 -0.098,-0.3208 -0.013,-0.1722 v -0.1013 l 0.036,-0.1277 0.1243,-0.1231 0.6643,-0.4165 0.2033,-0.3855 0.2277,-0.4317 0.029,-0.0631 0.7855,-1.7347 0.304,-0.2322 0.2218,-0.5643 0.2482,-0.5399 0.1461,-0.8704 6.8266,0.244 0.01,-0.116 v -0.0297 l 0.029,-0.3756 0.049,-0.6339 0.063,-0.8264 -0.478,-1.5891 0.6414,0.1474 0.045,0.009 0.4804,0.0949 2.2317,-0.3632 0.2037,-2.9741 -0.5053,-0.0325 0.037,-0.5705 0.01,-0.1331 0.039,-0.5996 0.01,-0.1426 v -0.0166 -0.0557 l 0.01,-0.1142 v -0.0373 -0.0747 l 0.021,-0.3196 0.085,0.0404 0.089,0.0248 0.069,0.006 0.04,0.007 0.01,0.002 0.1265,0.0248 0.09,0.0333 0.011,0.004 0.075,0.028 0.01,0.002 0.091,0.0344 0.033,-0.001 0.01,-3e-4 0.039,-0.002 0.013,0.0303 0.01,-0.003 0.073,-0.0313 0.1202,0.005 0.1824,0.0236 0.5489,0.1286 2.1052,-0.0662 0.038,0.0887 0.049,0.0896 0.3652,0.4035 -1.5006,0.9982 0.1338,0.2679 0.055,0.1095 v 0.008 l 0.5249,1.051 0.3301,0.6565 0.013,0.0267 0.031,0.0603 0.1272,0.2529 0.036,0.0712 0.032,-0.009 0.055,-0.0149 0.033,-0.0106 0.033,0.3155 -0.073,0.3275 -0.1238,0.1773 0.012,0.1383 -0.1457,0.1414 -0.042,0.005 -0.023,0.003 -0.098,0.0127 0.1242,0.5321 -0.2003,0.0499 0.01,0.0261 0.03,0.1015 0.01,0.0247 0.019,0.0731 0.5501,1.8102 3.0756,1.082 0.556,0.282 0.2708,0.1805 0.3153,0.2101 0.013,0.008 3.204,-0.1417 0.069,0.0519 0.029,-0.009 0.01,-0.0415 0.031,-0.0284 v -0.003 l 0.014,-0.003 0.01,0.004 0.01,0.007 0.047,-0.0254 0.06,-0.01 0.4665,-0.2194 0.1061,-0.131 z"/>
    <path style="fill:#de2d26" d="m 1172.9704,678.823 -0.6965,1.0758 0.014,5.8084 -2.6087,0.1702 -0.07,2.7001 -2.1347,-0.1313 -2.7098,-0.7819 -4.7019,1.0371 -4.3308,-1.0957 -5.2332,0.4487 -1.5554,-0.7268 0.3131,-2.7755 -0.5598,-1.7179 0.5086,-2.1253 3.1178,-1.3817 0.3347,-1.6579 1.2912,-1.353 0.3014,-2.9824 2.9062,0.0561 6.3156,-1.0594 0.2106,-1.0267 -1.5483,-1.2414 -0.3088,-2.7013 4.8905,0.1389 2.5721,0.1466 1.6333,2.634 -2.656,0.6201 0.8209,3.7757 1.6104,-0.7096 1.4449,2.4065 -0.9553,1.1082 z"/>
    <path style="fill:#fc9272" d="m 1200.3417,705.3424 1.2637,-3.0339 -0.882,-2.3951 0.2443,-0.9789 -2.0145,-0.6058 -6.4288,-5.081 -1.3802,-2.6775 2.7642,0.1215 0.5283,-1.664 -1.2872,-1.9811 0.07,-1.0238 -1.9502,-2.2947 -2.8969,-1.0527 2.4165,-1.9345 2.9345,1.6448 0.6721,0.8522 1.9809,0.0722 1.7529,1.2532 0.9339,1.9749 2.4805,0.2677 1.1138,1.5252 1.423,-1.8121 1.9988,0.3414 1.2969,0.1005 3.9936,-2.0232 2.6222,2.1443 1.3219,0.5568 0.5599,0.2349 0.322,-0.3841 1.1893,0.5536 0.099,-1.1947 0.1193,0.0114 0.1118,0.0107 0.214,0.0176 0.037,-0.0266 0.1611,-0.117 0.2508,-0.2381 0.5736,-0.2023 0.2273,-0.0856 1.1078,-0.7921 0.7981,0.1266 0.6304,0.3265 0.1697,0.074 0.1904,0.0792 0.1318,0.0571 0.4546,0.4231 0.4925,0.2454 0.1798,0.0747 0.1816,0.0252 0.082,-0.009 0.046,-0.0206 0.1719,-0.0455 0.1441,-0.0521 0.059,-0.0213 0.035,-0.0126 0.019,0.1111 0.032,0.0297 0.396,0.166 0.9918,0.7904 0.3502,0.2025 0.2383,0.3623 0.2328,0.261 0.1764,0.1917 1.9847,0.4849 0.2581,0.6308 0.071,0.3217 v 0.0407 l 7e-4,0.009 9e-4,0.0135 v 0.0368 l 0.01,0.0868 0.012,0.3242 0.1542,0.5195 -0.022,0.2219 -9e-4,0.002 -0.019,0.0601 -0.01,0.0212 v 0.008 l 0.1071,0.02 0.189,0.0503 0.1975,0.0314 0.4889,0.0269 0.1526,-0.7562 -0.3499,-0.6036 -0.2262,-1.9271 2.2028,1.1884 2.0564,3.1216 0.8264,0.012 0.072,0.0167 0.01,0.002 0.087,0.0109 0.022,0.003 0.01,0.0906 0.1356,0.0884 0.017,0.005 0.056,0.0165 0.034,0.01 0.094,0.0378 1.8012,0.2505 0.6644,0.2781 0.4635,0.3635 -0.022,1.1742 -0.025,-10e-5 -0.089,0.004 -0.3343,0.012 -0.01,8e-4 -0.049,10e-4 -0.2026,0.007 -0.057,0.002 -0.1026,0.004 -0.037,10e-4 v 3e-4 l -0.5073,0.4432 -0.1397,0.1194 -0.01,0.009 v 0.005 l -0.017,0.0162 -3e-4,3e-4 -0.3304,0.2845 -0.186,1.32 -0.4361,0.1195 -0.029,0.1914 -0.02,0.1327 -0.065,0.4345 -0.068,0.1716 0.4161,0.2043 -0.043,0.2816 -0.01,0.0515 -0.08,0.0887 -0.034,-0.0119 -0.085,-0.0299 -0.061,-0.0214 -0.02,0.0621 -0.2219,-0.062 -0.034,-0.002 -0.031,-0.006 -0.05,0.0784 -0.5443,0.8499 -0.08,0.1246 -0.2897,0.4448 -0.04,0.061 -0.017,0.0265 -0.013,0.0145 0.042,0.0992 0.011,0.0449 v 0.0229 0.0469 l -8e-4,0.0231 v 0.0231 0.0461 l -0.01,0.0464 -0.2433,0.7082 0.017,0.1304 0.6297,1.0415 0.089,0.2802 0.7114,0.8636 -0.576,0.3475 0.01,0.0324 -0.081,0.2159 -0.023,0.0813 -0.047,0.1797 -0.013,0.0525 -0.03,0.1168 0.017,0.3104 -0.1726,0.2285 -0.1026,0.0776 -0.1094,0.1192 -0.036,0.0537 -0.07,0.0681 -0.1327,0.0867 -1.216,0.3588 -0.1498,-0.0774 -0.048,-0.0223 -0.077,-0.0362 -0.068,-0.0316 -0.01,-0.005 -0.019,-0.009 -0.051,-0.0239 -0.3569,0.0366 -0.092,-0.183 -0.1737,-0.0141 -0.3235,0.3824 -1.4614,1.1992 -0.4147,0.1295 -0.2649,0.4853 -0.1406,0.0947 -0.046,0.0284 -0.041,0.018 -0.5145,0.4405 -0.1973,0.2633 -0.1083,0.0991 -0.075,0.1063 -0.09,0.0957 -0.2834,0.3048 -0.1386,0.5763 0.4263,0.3049 0.1433,0.0987 0.1442,0.1023 0.1397,0.0847 0.4946,-0.1367 0.013,-6e-4 0.047,-0.002 0.02,-0.001 v 0.097 l -0.11,0.3106 -0.099,0.4552 -0.014,0.056 -0.013,0.0569 v 0.0209 0.0148 l -0.01,0.0322 0.3266,-0.0766 0.1745,0.0589 0.034,0.0807 -0.05,0.2157 -0.054,0.1959 -1.1411,1.738 -1.6505,-0.21 -0.5871,0.1152 -0.088,0.0858 -0.041,0.0423 -0.027,0.0308 -0.4702,0.3147 -0.4075,0.1442 -0.049,0.0329 -0.051,0.0449 -0.041,0.0613 -0.037,0.1029 -0.041,0.1424 -0.081,0.1524 -0.059,0.0234 -0.01,-9e-4 -0.017,0.0104 -0.027,0.0103 -0.042,0.0136 -0.067,0.0676 -0.3344,0.672 -0.093,0.5047 0.015,0.1401 0.027,0.1212 0.01,0.0787 0.019,0.0546 -0.2033,-0.01 -0.2981,0.3164 -0.047,0.1566 -0.015,0.0428 -0.026,0.0657 -0.01,0.0409 v 0.0675 l 0.01,0.0419 0.037,0.0499 -0.1039,0.2226 -0.774,0.6674 -0.049,0.5135 -0.034,0.1029 -0.059,0.121 -0.027,0.0679 -0.01,0.0778 0.035,0.049 -0.01,0.0434 -0.084,0.1527 -0.6934,1.1841 v 0.0122 l 0.021,0.2042 0.062,0.5888 -0.046,0.0566 -0.071,0.0771 -0.3286,0.1556 -0.022,-0.003 -0.045,0.0201 -0.1072,0.007 -0.047,-0.007 -0.303,-0.1316 -0.025,-0.0549 -0.018,-0.0394 -0.1153,-0.1959 -0.2631,-0.007 -0.05,-0.0809 -0.1679,-0.2718 -0.071,-0.1155 -0.018,-0.0302 -0.3378,-0.3361 -0.059,-0.0973 -0.1815,-0.2973 -0.054,-0.1275 -0.079,-0.4078 0.06,-0.3406 0.1712,-0.0179 0.047,-2.1453 0.098,-0.56 -0.04,-0.1051 v -0.1471 l 0.043,-0.1305 0.044,-0.102 0.016,-0.0874 0.1225,-0.1826 0.059,-0.0619 0.1395,-0.2943 v -0.004 l 0.5631,-0.4389 0.2137,-0.1203 -0.6273,-1.4214 0.1168,-0.4553 v -0.6434 -0.0386 l -0.016,-0.4546 v -0.0544 -0.0316 l 2e-4,-0.0122 v -0.0302 l -0.2979,0.0674 -0.7643,0.1673 -0.1128,0.0261 -0.025,0.003 -0.066,0.0143 -0.045,0.01 -0.011,0.002 -0.033,0.007 -0.1269,0.0275 -0.2191,-0.3934 -0.1581,-0.2801 -0.1517,-0.2688 -0.036,-0.0639 -0.1732,-0.3068 -0.07,0.0397 -0.1199,0.068 -0.1043,0.0591 -0.978,0.571 -2.0435,1.157 -0.2971,-1.026 0.035,-0.0426 0.099,-0.12 0.011,-0.1314 -0.01,-0.006 -0.064,-0.1496 -0.081,-0.1674 -0.09,-0.1458 -0.1788,-0.1853 -0.1121,-0.3019 -0.3965,-0.3791 -0.1163,-0.1791 -0.032,-0.0686 -0.023,-0.0318 -0.019,-0.005 -0.044,0.005 -0.4482,-0.1487 -0.037,-0.0653 -0.031,-0.0518 -0.054,-0.0895 -0.059,-0.1081 -0.01,-0.0888 0.054,-0.1552 -0.1464,-0.1954 -0.01,-0.0366 -0.032,-0.1199 -0.058,-0.1105 -0.1537,-0.99 -4.474,1.4586 -4.4944,-0.2198 -0.9093,-2.1351 -1.2378,-0.8402 -0.4971,-0.1339 -0.1192,-0.0594 -0.037,-0.0188 -0.037,-0.0187 -0.04,-0.0214 z"/>
    <path style="fill:#fc9272" d="m 1185.2515,673.4958 -2.2212,-1.0616 0.298,-1.2951 -0.8553,-1.4008 -0.9604,-5.5944 -1.1766,-1.5081 -6.4035,-5.7831 2.0524,-0.3058 1.4898,-2.0159 0.9503,-2.2355 -0.1543,-1.6751 -1.3012,-2.8718 1.5827,-1.0309 -0.09,-0.7183 0.1162,-0.1434 0.077,-0.185 0.056,-0.0977 0.033,-0.0572 0.072,-0.0938 0.078,0.089 0.03,0.0351 0.1838,-0.1663 0.3584,-0.1812 0.2013,-0.2542 0.7951,-0.3811 0.1809,-0.5519 -0.04,-0.2653 -0.01,-0.0326 -0.013,-0.004 -0.011,-0.003 v -0.005 l 0.014,-0.0196 0.01,-0.0242 -0.011,-0.003 -0.046,-0.007 0.02,-0.0506 0.045,0.0152 0.012,0.004 0.031,-0.0309 -0.053,-0.027 0.019,-0.0463 0.011,-0.065 0.084,-0.1037 0.013,-0.051 -0.01,-0.002 -0.019,-0.003 0.249,-0.3077 -0.026,-0.2616 0.3861,-0.7065 0.058,0.0164 0.043,0.0135 0.1865,0.004 0.2378,-0.1785 0.2202,0.1934 0.1637,0.1542 0.1113,0.1005 0.3413,0.3085 0.1022,0.0838 0.4229,0.2626 0.2029,0.2999 0.6911,-0.2058 0.02,0.0252 0.01,0.013 0.031,0.0393 0.1428,0.1797 0.01,0.005 0.099,0.3166 0.3593,0.4667 1.2274,0.997 1.5494,-0.6146 -0.056,-0.3647 -0.056,-0.3767 -0.01,-0.0583 -0.016,-0.1099 0.097,-0.7256 1.068,-1.2869 0.1136,-0.0312 0.016,0.014 -0.01,0.0792 0.1823,-0.0262 0.7752,-0.2363 0.6848,0.3461 1.199,0.1597 0.02,-0.0223 0.012,-0.0134 0.021,-0.0243 0.053,-0.0421 0.06,-0.0321 0.078,-0.0346 0.1296,-0.0299 0.045,-0.0541 0.055,-0.1459 0.046,-0.0775 0.1273,-0.117 0.023,-0.0132 0.01,-0.002 0.01,-10e-4 0.01,-6e-4 0.035,-0.0273 0.024,-0.003 0.034,-0.0337 0.046,-0.0129 0.042,-0.0459 0.034,-0.0308 0.032,-0.0345 0.2119,-0.1253 0.091,0.0166 0.055,-0.004 0.048,-0.0138 0.028,0.006 0.043,-0.0253 0.079,0.0178 0.1097,-0.0511 0.6422,-0.6383 0.031,-0.3669 -0.022,-0.0498 -0.07,-0.0977 -0.026,-0.0538 -0.366,-0.0548 -1.0454,-0.1562 -0.3335,-0.0498 -0.2958,-0.2491 -0.094,-0.0788 -0.045,-0.0379 -0.7362,-0.6249 -0.1523,-0.1233 -0.1706,-0.0728 -0.3248,-0.1385 0.012,-0.0134 0.014,-0.0153 0.1074,-0.1203 0.5615,-0.6181 0.045,-0.0295 0.037,-0.0488 0.5975,-0.7853 0.5134,0.2466 0.022,0.0103 0.1327,0.0638 0.3318,0.1593 0.01,-0.01 0.3152,-0.4475 0.3983,-0.5653 0.01,0.004 0.017,0.007 v 0.002 l 0.1771,-0.2488 0.2683,-0.377 0.308,-0.4083 0.055,0.0635 0.064,0.0746 0.1557,0.1521 -0.4298,1.4682 0.094,0.0599 0.027,0.0229 0.019,0.0344 0.032,0.0431 0.011,0.0265 0.3569,-0.0462 1.6384,-0.8037 -0.1784,1.0899 -0.1681,1.0279 -0.062,0.3782 -0.033,0.1994 -0.024,0.1433 -0.016,0.0983 0.2333,0.3296 0.3976,0.5619 0.2158,0.305 2.1892,1.3524 0.068,0.0543 0.099,0.0797 0.1583,0.1281 0.075,0.0621 0.8714,0.7518 1.5983,0.0943 -0.01,0.1665 v 0.0298 0.0607 l -0.079,0.8471 -0.022,0.1049 -0.01,0.0455 -0.01,0.0454 -0.072,0.3471 -0.5141,1.8185 v 0.0138 l -0.025,0.1339 -0.01,0.0415 -0.01,0.0417 -0.055,0.3001 -1.8754,0.985 -0.062,1.492 -0.033,0.0236 -0.082,0.0617 -0.017,0.0137 -0.1725,0.1095 -0.039,0.0687 -0.3234,0.8643 -0.4227,1.2422 0.073,1.441 0.2109,0.4861 0.2985,0.6877 0.011,0.0259 0.4346,1.0016 0.017,0.0443 -0.014,0.009 -0.014,0.01 -0.4977,0.3273 -2.0162,1.3091 -1.4472,2.2922 -0.043,2.1861 1.2745,0.8965 -0.3434,1.9778 1.4908,1.4103 -2.3927,2.2006 -1.9798,-0.135 0.4426,1.9625 -1.8283,3.6236 2.1837,1.47 -1.4757,0.1976 -2.4343,-1.67 -0.7668,-1.1899 -2.9217,0.8017 z"/>
    <path style="fill:#fb6a4a" d="m 1200.3417,705.3424 -5.0882,1.2462 -0.7207,-0.7819 -1.7143,-5.1537 -0.7008,-0.2693 -1.3895,0.418 -1.1962,0.7118 -0.1653,0.0781 -0.4337,0.2027 -0.025,0.015 -0.2369,0.1186 -0.1497,0.0647 -1.3609,0.5928 -0.2507,0.0591 -0.1778,0.0482 -0.1952,0.0526 -1.3123,0.4393 -2.6776,-0.6494 -0.4716,-1.3646 1.0344,-2.3383 1.6842,-6.4619 0.6835,-1.161 -1.2085,-5.6505 -1.1121,-1.0457 0.2337,-1.568 2.7476,0.1997 -0.4171,-1.8751 2.6507,1.4056 2.8969,1.0527 1.9502,2.2947 -0.07,1.0238 1.2872,1.9811 -0.5283,1.664 -2.7642,-0.1215 1.3802,2.6775 6.4288,5.081 2.0145,0.6058 -0.2443,0.9789 0.882,2.3951 z"/>
    <path style="fill:#fee5d9" d="m 1196.3761,683.3101 -2.7639,-2.9734 -0.4505,-1.2239 0.9501,-1.7253 -0.6521,-2.6417 -2.1837,-1.47 1.8283,-3.6236 -0.4426,-1.9625 1.9798,0.135 2.3927,-2.2006 -1.4908,-1.4103 0.3434,-1.9778 -1.2745,-0.8965 0.043,-2.1861 1.4472,-2.2922 2.0162,-1.3091 0.4977,-0.3273 0.014,-0.01 0.014,-0.009 v 0.005 l 0.1542,0.3732 0.028,0.0685 0.2765,0.6695 2.3141,-0.1576 0.359,0.0691 0.1601,0.0301 0.1559,0.0343 0.08,-9e-4 0.9933,0.3557 0.7006,0.2592 0.1601,0.0588 0.039,0.0143 0.1559,0.0571 0.039,0.0142 0.039,0.0144 0.063,0.0233 0.8556,0.3337 -0.022,0.0542 1.3304,0.9013 0.6753,0.6218 0.031,0.0322 0.062,0.0649 0.029,0.03 0.1155,0.1395 0.088,0.0817 0.917,1.5174 -0.038,0.0676 -0.03,0.0541 -0.082,0.1101 -0.045,0.1756 -3.9622,1.7838 -2.483,2.7585 1.0257,4.0712 -2.0824,1.7097 0.1078,4.8955 2.3018,0.0704 0.1903,2.0795 1.3933,2.4061 0.9221,2.6848 -0.2376,1.5456 0.65,1.5767 -1.9988,-0.3414 -1.423,1.8121 -1.1138,-1.5252 -2.4805,-0.2677 -0.9339,-1.9749 z"/>
    <path style="fill:#fee5d9" d="m 1215.3136,687.6388 -1.3219,-0.5568 -2.6222,-2.1443 -3.9936,2.0232 -1.2969,-0.1005 -0.65,-1.5767 0.2376,-1.5456 -0.9221,-2.6848 -1.3933,-2.4061 -0.1903,-2.0795 -2.3018,-0.0704 -0.1078,-4.8955 2.0824,-1.7097 -1.0257,-4.0712 2.483,-2.7585 3.9622,-1.7838 0.045,-0.1756 0.082,-0.1101 0.03,-0.0541 0.038,-0.0676 2.1695,0.8779 0.4529,2.9014 0.321,0.5586 0.023,0.0717 0.01,0.0617 0.014,0.0585 0.019,0.0596 3e-4,5e-4 0.066,0.12 0.01,0.0102 0.039,0.1509 -0.03,1.5913 3.635,1.0023 1.2726,0.3482 2.4592,0.3582 0.5095,0.4907 -0.5806,0.8425 -0.3662,-0.0899 -0.161,0.098 -0.1602,-0.0515 -0.089,-0.0284 -0.022,-0.0119 -0.041,0.0571 -2e-4,2e-4 -0.032,0.0307 -0.1336,0.0389 -0.072,-0.0225 -0.023,-0.005 -0.035,-0.0124 -0.061,-0.008 -0.1865,-0.0659 -0.048,-0.0459 0.1358,2.0418 0.02,-0.0229 0.019,-0.0219 0.01,-0.0115 0.063,0.0388 0.049,0.0304 v 0.002 l 0.01,-0.01 0.7501,-0.1046 1.4223,0.0387 1.2395,0.2014 0.3836,-0.0425 0.3361,0.008 0.238,-0.0119 0.053,-4e-4 0.089,-0.001 0.071,-9e-4 0.1393,-0.002 v 0 l 0.2494,1.003 v 10e-4 l -0.054,0.055 -0.064,0.0621 -0.1469,0.1469 -0.035,0.0347 -0.033,0.0328 -0.056,0.0553 -0.058,0.0561 -0.1364,0.1036 -1.2177,0.8168 -0.1473,0.1114 -0.1111,0.0843 -0.074,0.0561 -0.1054,0.08 -0.028,0.0216 -0.2471,0.1875 -1.0471,1.1167 -0.2508,0.3528 -0.3212,0.6238 -0.4106,0.9543 -0.8634,3.2249 0.2882,0.1529 0.251,0.0735 0.2907,0.0593 0.011,0.002 0.054,0.011 -0.1742,0.2371 -0.2428,0.3299 -0.018,0.0244 -0.01,0.0128 -0.014,0.0193 -0.013,0.018 -0.1644,0.2234 -1.688,2.2955 z"/>
    <path style="fill:#fcbba1" d="m 1161.8258,667.3612 0.3088,2.7013 1.5483,1.2414 -0.2106,1.0267 -6.3156,1.0594 -2.9062,-0.0561 -0.3014,2.9824 -1.2912,1.353 -0.3347,1.6579 -3.1178,1.3817 -0.5086,2.1253 0.5598,1.7179 -0.3131,2.7755 -0.4491,2.3825 -1.2374,1.7142 -2.4593,0.9731 -2.0705,2.2534 -3.9822,0.967 -0.6444,-1.1302 -1.5231,-1.7045 0.2798,-0.5539 0.043,-0.0967 0.047,-0.1224 0.026,-0.0887 0.01,-0.0198 0.024,-0.0812 v -0.009 l 0.101,-0.8446 -0.018,-0.2125 v -0.0385 -0.0262 l -0.01,-0.0329 -0.01,-0.0245 -0.2989,-0.2579 0.01,-1.4566 1.1354,-3.4258 0.4925,-0.1038 0.49,-0.1043 0.1912,-0.1136 0.17,-0.2189 0.5345,-0.6883 2.8472,-3.6615 0.9026,-0.9941 0.9882,-1.0535 1.0127,-1.0851 -1.4232,-0.7855 -1.5489,-1.0361 -0.2932,-0.0698 -0.026,-0.0405 -0.066,-0.1116 -0.1077,-0.2929 -0.1838,-0.13 -0.2692,0.0223 -0.46,0.1323 -0.1581,0.0594 -0.01,0.003 -0.01,0.002 -1.636,0.3348 -0.027,0.004 h -0.074 l -0.092,-10e-4 -0.096,0.005 -0.3722,0.0315 -0.2577,0.0435 -0.074,0.0159 -0.02,0.004 -0.1364,0.0291 -0.062,0.008 -0.09,-0.004 -0.1616,-0.008 -0.027,-10e-4 -0.018,-9e-4 0.1148,-0.7831 0.019,-0.0949 0.014,-0.0719 0.01,-0.112 v -0.0649 -0.0227 l 0.01,-0.2451 0.075,-0.9972 0.01,-0.1133 0.01,-0.0769 v -0.0272 l 0.013,-0.273 0.014,-0.1776 v -0.049 -0.0331 -0.0264 l 7e-4,-0.006 0.041,-0.2487 0.029,-0.1292 0.016,-0.0711 0.01,-0.0356 0.018,-0.0707 0.2731,-0.8598 0.071,-0.1338 0.078,-0.1849 0.031,-0.0552 0.04,-0.0796 0.03,-0.0923 0.01,-0.0224 0.022,-0.1112 0.01,-0.0422 0.01,-0.0329 0.029,-0.1157 0.023,-0.0865 0.027,-0.1209 0.037,-0.1276 0.2033,-1.0295 v -0.002 l -0.097,-0.0622 0.1069,-0.4406 0.3725,-1.2853 0.2958,-1.1326 0.014,-0.0448 0.01,-0.022 0.033,-0.1041 0.021,-0.0679 0.014,-0.0438 0.9184,0.8427 0.79,0.0635 0.2894,0.0985 0.1581,-0.01 0.2556,-0.2103 0.027,-0.116 0.087,-0.1851 0.052,-0.0468 0.021,-0.0729 0.01,-0.0272 v -0.004 -0.008 -0.0136 l 10e-4,-0.003 v -0.004 l 0.01,-0.0249 v -0.0106 l -0.058,-0.9496 -0.092,-0.1844 -0.028,-0.2486 v -0.026 l -0.042,-0.0534 0.035,-0.0664 0.2346,-0.9141 0.029,-0.0756 v -0.002 l 0.011,-0.0178 0.01,-0.01 0.016,-0.0268 0.014,-0.0237 0.019,-0.0448 0.2714,-0.4063 0.3955,-0.9544 0.1814,-0.7207 -0.6172,-2.6072 -1.1876,0.5209 -0.3114,0.1393 -0.066,0.0561 -0.074,0.0507 -1.0266,0.2042 -0.021,-0.003 -0.063,-0.0442 -0.028,-0.053 -0.034,-0.063 -0.2223,-0.7255 -0.047,-0.0396 -0.011,-0.009 -0.055,-0.012 -0.188,0.0358 -0.059,0.002 0.064,-0.2135 v -0.0125 l 0.149,-0.4973 -0.06,-0.3541 0.3314,0.0962 0.2489,0.002 0.076,-0.0197 0.1875,-0.0488 0.1778,-0.0463 0.3805,-0.3448 0.8522,-0.2465 0.9026,-0.5454 1.2479,-1.5112 v -7e-4 l 0.1753,-0.0448 0.8251,-0.2102 0.1444,-0.0369 0.024,-0.009 1.4327,0.8949 0.7322,0.1157 0.4518,0.2203 0.3454,0.0864 0.1647,0.0812 0.05,0.0568 0.069,0.0684 0.062,0.0873 0.8204,0.537 0.095,0.0407 0.043,0.0322 0.3166,0.093 0.4507,0.0805 0.1921,0.0717 0.098,0.0601 0.1075,0.0189 0.172,0.0398 0.013,0.003 0.183,0.1069 0.072,0.0541 v 0.003 l 0.012,0.009 0.01,0.005 0.015,0.0109 0.05,0.0379 0.01,0.006 0.438,0.2618 0.2093,0.0658 0.099,-0.4586 0.1417,0.009 0.1364,0.009 0.333,0.0206 0.2933,0.0585 0.1125,0.0226 0.012,0.002 0.5482,0.11 0.2296,2.6627 0.9747,1.0352 0.5093,2.5915 3.4907,3.0338 z"/>
    <path style="fill:#fb6a4a" d="m 1169.6093,688.5775 1.2366,0.638 1.3176,-0.7503 3.1114,3.0376 2.4263,6.8147 -1.3156,1.9811 -3.208,1.8623 0.095,0.6284 -3.8174,2.3459 -0.078,0.05 -0.072,0.0521 -0.1362,0.092 -0.1376,0.0936 -0.3382,0.2197 -0.051,0.043 -0.2738,0.346 -0.011,-0.0241 -0.078,-0.1365 -0.033,-0.0578 -0.2649,-0.4134 -0.2961,-0.5057 -0.615,-0.9638 -0.2865,-0.4174 -0.039,-0.0569 -0.01,-0.0119 -0.021,-0.0312 -0.031,-0.0446 -0.019,-0.0276 -0.018,-0.0255 -0.5548,-0.8326 -0.2543,-0.4085 -0.4245,-0.0146 -2.7293,2.4065 -1.3877,0.2353 -0.8779,-0.4051 -0.6635,-0.1393 -0.5997,0.0939 -0.1386,0.0485 -0.038,0.0136 -0.024,0.01 -0.1346,0.0658 -0.079,0.0464 -0.1392,0.0864 -0.016,-0.1037 -0.036,-0.3048 v -0.0168 l -0.023,-0.2078 -0.019,-0.1179 -0.035,-0.0715 -0.014,-0.0271 -0.015,-0.031 0.036,-0.1084 v -0.0334 -0.2057 -0.1539 -0.2438 l -4e-4,-0.1171 -0.4835,-2.4193 -3.2754,0.0249 -1.0998,0.4558 -0.1494,0.035 -0.1111,0.0872 -0.235,0.1367 -0.056,0.036 -0.047,0.0302 -0.7075,0.3193 -0.2762,0.0868 v 5e-4 l -0.028,0.009 -0.1002,0.0314 -0.1053,0.0331 -0.3012,0.0868 v 4e-4 l -0.1573,0.0241 -0.1172,0.0178 -0.069,0.0155 -0.1753,0.0218 -0.2757,0.0297 -0.1759,-0.0169 -0.1149,-0.0108 v 1e-4 l -0.051,-0.005 -0.09,0.0573 v 8e-4 l -0.1954,0.1061 -0.1714,0.0937 -0.4391,0.235 -0.3539,0.1976 -1.866,1.0203 -1.5724,0.8557 -1.2517,0.6922 v 0.0119 l -0.019,0.01 0.024,0.7371 -0.2498,0.9124 0.3977,-0.0513 0.1436,-0.0185 1.1747,-0.1877 0.3802,-0.1204 0.016,0.0467 v 0.005 0.0108 l 0.01,0.0592 0.038,0.2786 0.024,0.1606 -0.4686,0.3203 -0.1267,10e-4 -0.1735,0.0141 -0.1452,0.0118 -0.027,0.002 -0.1784,0.0143 -0.3661,0.0309 -0.5351,0.0429 -3.2359,-0.4531 0.056,-0.102 -0.093,-0.005 -0.031,-0.004 -0.046,0.0295 -0.01,-0.0327 -0.069,-0.008 -0.2017,5e-4 -0.4999,-0.6393 -0.8781,0.5375 -0.3357,-0.0766 -2.0322,-1.8285 -0.5478,-0.8404 -0.195,-0.6719 -2.5577,-0.4345 -0.077,-0.1681 -0.014,-0.1327 v -0.2104 l -0.2922,-1.5634 1.1746,-0.6022 0.2954,-0.3836 0.057,-0.1564 0.049,-0.2095 0.1432,-0.117 0.1037,-0.0267 0.8519,0.0424 0.2363,-0.0932 0.1733,-0.261 0.7465,-0.6519 -0.1112,-0.8008 0.2911,-0.1687 0.5154,-0.8224 0.772,-0.4407 0.1585,-0.2137 -0.01,-0.233 3.9822,-0.967 2.0705,-2.2534 2.4593,-0.9731 1.2374,-1.7142 0.4491,-2.3825 1.5554,0.7268 5.2332,-0.4487 4.3308,1.0957 4.7019,-1.0371 2.7098,0.7819 z"/>
    <path style="fill:#de2d26" d="m 1180.336,662.6358 1.1766,1.5081 0.9604,5.5944 0.8553,1.4008 -0.298,1.2951 2.2212,1.0616 1.4782,1.1135 -1.0036,2.3161 0.693,1.692 -2.4583,0.1996 -1.9988,-0.83 -3.1096,0.3047 -1.4753,2.0761 -4.4067,-1.5448 -1.7838,-1.3414 0.9553,-1.1082 -1.4449,-2.4065 -1.6104,0.7096 -0.8209,-3.7757 2.656,-0.6201 -1.6333,-2.634 -2.5721,-0.1466 1.2762,-2.299 3.4683,-1.0154 0.8325,-0.7214 1.8793,0.652 4.3991,0.3267 0.2254,-1.4266 z"/>
    <path style="fill:#fb6a4a" d="m 1193.4597,674.7458 0.6521,2.6417 -0.9501,1.7253 0.4505,1.2239 2.7639,2.9734 -1.9809,-0.0722 -0.6721,-0.8522 -2.9345,-1.6448 -2.4165,1.9345 -2.6507,-1.4056 0.4171,1.8751 -2.7476,-0.1997 -0.2337,1.568 -5.0757,-0.6177 0.3784,-1.6752 -1.2886,-0.4261 0.2058,-1.4264 1.4753,-2.0761 3.1096,-0.3047 1.9988,0.83 2.4583,-0.1996 -0.693,-1.692 1.0036,-2.3161 -1.4782,-1.1135 0.6097,-0.6106 2.9217,-0.8017 0.7668,1.1899 2.4343,1.67 z"/>
    <path style="fill:#fb6a4a" d="m 1173.2724,702.7893 -0.095,-0.6284 3.208,-1.8623 1.3156,-1.9811 -2.4263,-6.8147 -3.1114,-3.0376 -1.3176,0.7503 -1.2366,-0.638 0.07,-2.7001 2.6087,-0.1702 -0.014,-5.8084 0.6965,-1.0758 4.4067,1.5448 -0.2058,1.4264 1.2886,0.4261 -0.3784,1.6752 5.0757,0.6177 1.1121,1.0457 1.2085,5.6505 -0.6835,1.161 -1.6842,6.4619 -1.0344,2.3383 0.4716,1.3646 2.6776,0.6494 -0.1311,0.0526 -0.052,0.7456 1.1621,4.2384 0.1808,0.7038 0.068,0.3619 v 0.0665 0.1013 l -0.1189,0.2825 -0.1088,0.2555 -0.034,0.0803 -0.017,0.0389 -0.035,0.0821 -0.5371,1.2552 -0.1449,0.3579 -0.017,0.0453 -0.029,0.0787 -1.281,-0.0694 -1.2417,-0.1366 -0.1104,-0.0139 -0.2562,-0.0455 -0.261,-0.0412 -0.5646,-0.0641 -0.3059,-0.0187 -0.01,0.0118 -1.0497,-0.0647 -0.054,-0.3847 10e-4,-0.1615 0.01,-0.0811 0.015,-0.1103 v -0.076 -0.2827 l -0.145,-1.6552 -0.1006,0.0109 -0.2438,0.0225 -1.0037,0.0737 -1.3086,-0.0693 0.2502,-1.3797 -0.7953,-0.4855 -0.1885,-0.1152 -0.2281,-0.1392 -0.1469,-0.0728 -0.1325,-0.0671 -0.1617,-0.1142 -0.1242,-0.0864 -0.1959,-0.1202 -2.5568,-2.3683 z"/>
  </g>
</svg>
