<?xml version="1.0" encoding="UTF-8"?>
<svg xmlns="http://www.w3.org/2000/svg" id="svg439" version="1.1" height="938.241" width="1445" stroke-linecap="round" stroke-linejoin="round">
  <g transform="matrix(10.87812 0 0 10.87812 -12024.951 -6919.72)" id="g1315">
    <g id="g1003" transform="translate(1103.163 576.983) scale(.13611)">
      <g id="g979">
        <path d="m 20,820 h 40 v 40 H 20 Z" id="path2" fill="#fcbba1"/>
        <path d="m 20,870 h 40 v 40 H 20 Z" id="path4" fill="#fc9272"/>
        <path d="m 20,920 h 40 v 40 H 20 Z" id="path6" fill="#fb6a4a"/>
        <path d="m 20,970 h 40 v 40 H 20 Z" id="path8" fill="#de2d26"/>
        <path d="m 20,770 h 40 v 40 H 20 Z" id="path10" fill="#fee5d9"/>
        <path d="m 20,1020 h 40 v 40 H 20 Z" id="path12" fill="#a50f15"/>
      </g>
      <g id="g971" font-size="30" font-family="Verdana" fill="#000">
        <text id="text907" y="1050" x="70" xml:space="preserve">
          <tspan y="1050" x="70" id="tspan905">≥ 10.80</tspan>
        </text>
        <text xml:space="preserve" x="70" y="1000" id="text921">
          <tspan id="tspan919" x="70" y="1000">≥ 7.85</tspan>
        </text>
        <text id="text925" y="950" x="70" xml:space="preserve">
          <tspan y="950" x="70" id="tspan923">≥ 5.56</tspan>
        </text>
        <text xml:space="preserve" x="70" y="900" id="text929">
          <tspan id="tspan927" x="70" y="900">≥ 3.93</tspan>
        </text>
        <text id="text933" y="850" x="70" xml:space="preserve">
          <tspan y="850" x="70" id="tspan931">≥ 2.94</tspan>
        </text>
        <text xml:space="preserve" x="70" y="800" id="text937">
          <tspan id="tspan935" x="70" y="800">&lt; 2.94</tspan>
        </text>
        <text id="text941" y="750" x="20" xml:space="preserve">
          <tspan y="750" x="20" id="tspan939">2020-03-28</tspan>
        </text>
      </g>
    </g>
    <g id="g1264" fill-opacity="1" stroke="#000" stroke-width=".046" stroke-miterlimit="4" stroke-dasharray="none">
      <path d="m 1152.915,656.269 0.786,-0.164 -2.424,-2.859 2.874,-6.072 6.828,0.244 v -0.017 0 l 0.01,-0.032 0.634,-3.305 2.208,-0.375 0.064,-4.64 0.01,-0.373 1.707,1.152 1.037,0.715 1.233,2.454 0.01,3.69 4.418,1.814 0.016,-10e-4 0.085,-0.004 3.261,-0.14 0.544,-0.419 0.868,-0.127 1.455,4.547 -2.44,4.252 -2.053,0.306 6.404,5.783 -1.764,1.808 -7.112,-0.258 -3.468,1.016 -1.277,2.299 -4.89,-0.139 -3.096,-0.513 -3.491,-3.034 -1.714,-6.29 z" style="fill:#fc9272"/>
      <path d="m 1161.936,667.424 4.89,0.139 2.573,0.147 -1.023,3.254 2.431,3.066 2.274,4.857 -0.682,6.885 -2.61,0.17 -0.07,2.7 -4.844,-0.913 -4.703,1.037 -4.33,-1.095 -5.235,0.448 -1.555,-0.727 0.262,-6.619 3.118,-1.382 1.928,-5.994 9.222,-1.003 -1.647,-4.97 z" style="fill:#de2d26"/>
      <path d="m 1229.264,711.55 -1.114,2.273 -0.03,0.06 -3.234,0.518 -0.076,0.156 -0.083,0.01 -3.476,7.087 -1.657,-2.423 v -0.217 l 0.045,-2.743 1.186,-1.476 -2.742,-4.13 -0.078,-0.118 -3.291,1.749 -2.226,-4.93 -4.368,1.512 -4.585,-0.186 -0.41,-0.407 -2.673,-2.876 1.264,-3.034 -0.882,-2.396 -8.2,-6.666 1.912,-4.22 -3.168,-5.3 -2.897,-1.053 2.417,-1.935 3.607,2.497 1.981,0.072 2.687,3.229 7.017,0.322 5.29,-1.923 3.945,2.702 0.852,-0.38 0.031,0.234 1.835,-1.063 2.168,-0.965 3.814,1.263 2.243,1.881 0.206,0.173 0.68,0.132 4.627,0.895 1.986,2.984 0.644,0.132 3.04,0.84 -0.8,1.672 -1.665,3.48 -1.156,2.416 0.073,0.37 0.014,0.067 0.522,2.626 -2.749,1.486 -3.789,3.904 -0.306,0.304 0.01,0.005 z" style="fill:#fc9272"/>
      <path d="m 1186.668,644.372 2.016,-2.706 2.435,0.217 0.522,0.046 0.01,10e-4 2.147,-1.534 -0.013,-0.008 -3.067,-1.934 -0.478,-0.301 v -0.003 l 3.842,-1.327 0.407,0.047 1.186,1.969 -0.038,0.24 0.357,0.292 1.843,1.499 2.11,1.717 0.77,4.115 -1.862,0.983 -0.603,2.07 -0.543,1.826 1.045,3.687 -3.99,3.948 0.89,5.06 1.49,1.41 -3.93,4.03 -1.829,3.623 2.184,1.47 -1.475,0.198 -3.202,-2.86 -3.532,1.412 -2.221,-1.061 -1.518,-8.292 -1.177,-1.508 -6.404,-5.783 2.053,-0.306 2.44,-4.252 -1.455,-4.547 3.494,-3.186 1.363,-2.697 4.15,3.24 z" style="fill:#fc9272"/>
      <path d="m 1200.455,705.409 -5.089,1.246 -2.435,-5.936 -0.21,0.07 -0.683,-0.222 -6.453,2.601 -0.248,0.083 -2.678,-0.65 0.563,-3.703 2.368,-7.623 -1.209,-5.651 -1.112,-1.046 0.234,-1.568 4.981,-0.27 2.898,1.053 3.167,5.3 -1.912,4.22 8.2,6.666 0.882,2.396 z" style="fill:#fb6a4a"/>
      <path d="m 1198.757,655.268 0.133,0.046 0.334,1.059 5.691,1.033 0.398,0.138 0.896,0.935 2.219,2.525 -4.023,2.121 -2.484,2.759 1.026,4.071 -2.082,1.71 0.107,4.896 2.493,2.15 2.315,5.092 0.413,3.122 -7.017,-0.322 -2.687,-3.228 -2.764,-2.974 -0.153,-5.591 -2.183,-1.47 1.828,-3.625 3.93,-4.028 -1.49,-1.41 -0.89,-5.061 z" style="fill:#fcbba1"/>
      <path d="m 1208.428,661.004 0.112,0.128 2.191,0.737 0.603,5.78 3.99,1.093 0.054,-0.32 -0.055,0.32 1.831,1.972 1.392,1.499 0.594,0.178 2.775,0.832 -2.68,3.256 -0.129,0.382 -0.256,0.233 -2.87,7.985 0.095,0.718 0.205,1.528 -0.852,0.379 -3.944,-2.702 -5.291,1.923 -0.413,-3.122 -2.315,-5.092 -2.493,-2.15 -0.107,-4.896 2.082,-1.71 -1.025,-4.071 2.483,-2.759 z" style="fill:#fee5d9"/>
      <path d="m 1138.852,695.683 -2.167,-2.835 0.083,-0.432 1.207,-5.584 0.959,-1.21 4.712,-5.95 2.002,-2.14 v -0.002 l -3.672,-2.458 -0.21,0.036 -0.032,-0.02 -3.771,0.657 2.05,-10.032 0.75,-0.388 1.675,-0.668 0.63,-1.881 0.56,-1.52 -0.617,-2.606 2.34,-3.984 0.075,0.035 4.257,2.245 0.422,-0.089 2.815,-0.588 0.72,1.318 1.714,6.29 3.49,3.034 3.097,0.513 1.646,4.97 -9.223,1.003 -1.927,5.994 -3.118,1.382 -0.262,6.62 -1.687,4.097 -4.53,3.226 z" style="fill:#fcbba1"/>
      <path d="m 1144.464,707.225 -5.336,-0.555 -2.575,-2.668 -0.082,-0.034 -3.068,-3.143 2.691,-1.45 2.767,-3.627 -0.032,-0.043 0.024,-0.022 3.982,-0.967 4.53,-3.226 1.687,-4.098 1.556,0.727 5.233,-0.448 4.331,1.095 4.703,-1.037 4.845,0.913 2.554,-0.112 3.112,3.038 2.426,6.815 -4.429,4.473 -4.763,3.149 -0.157,0.07 -0.01,0.003 -0.326,-0.525 -2.034,-3.266 -0.038,0.025 -2.407,1.571 -0.496,0.324 -4.37,0.38 h -0.063 l -0.124,-0.793 -0.51,-3.273 -3.687,0.115 -4.018,1.297 -0.171,0.056 -5.68,3.14 v 0.004 0 z" style="fill:#fc9272"/>
      <path d="m 1166.826,667.563 1.277,-2.3 3.468,-1.015 7.112,0.258 1.764,-1.808 1.177,1.509 1.518,8.29 2.221,1.062 1.479,1.114 -2.77,4.208 -5.108,-0.525 -1.476,2.076 -4.407,-1.545 -2.274,-4.856 -2.431,-3.067 1.023,-3.254 z" style="fill:#de2d26"/>
      <path d="m 1196.489,683.375 -1.981,-0.073 -3.607,-2.497 -2.417,1.935 -4.981,0.27 -0.234,1.568 -5.076,-0.618 -0.705,-3.528 1.476,-2.076 5.109,0.525 2.769,-4.208 -1.479,-1.114 3.532,-1.412 3.202,2.86 1.475,-0.197 0.153,5.59 z" style="fill:#de2d26"/>
      <path d="m 1185.337,703.25 v 0.017 l -0.13,0.052 0.91,3.909 0.423,2.152 -0.84,2.204 -0.147,0.387 -0.014,-0.002 -5.076,-0.44 -0.112,-1.496 -0.08,-1.229 -6.936,-4.911 0.045,-1.037 4.43,-4.473 -2.427,-6.815 -3.112,-3.038 -2.554,0.112 0.07,-2.7 2.609,-0.17 0.682,-6.885 4.407,1.545 0.705,3.528 5.076,0.618 1.112,1.046 1.209,5.65 -2.368,7.624 -0.563,3.703 2.678,0.65 z" style="fill:#fb6a4a"/>
    </g>
  </g>
</svg>
