<?xml version="1.0" encoding="UTF-8"?>
<svg xmlns="http://www.w3.org/2000/svg" height="575" width="575" version="1.1">
  <g id="g1003" transform="matrix(0.34818793,0,0,0.34818793,410.25102,203.63862)">
    <g id="g979">
      <path fill="#fcbba1" d="M20 820H60V860H20z"/>
      <path fill="#fc9272" d="M20 870H60V910H20z"/>
      <path fill="#fb6a4a" d="M20 920H60V960H20z"/>
      <path fill="#de2d26" d="M20 970H60V1010H20z"/>
      <path fill="#fee5d9" d="M20 770H60V810H20z"/>
      <path fill="#a50f15" d="M20 1020H60V1060H20z"/>
    </g>
    <g id="g971" font-size="30px" font-family="Verdana" fill="#000">
      <text id="text907" y="1050" x="70" xml:space="preserve">
        <tspan y="1050" x="70" id="tspan905">≥ 643</tspan>
      </text>
      <text xml:space="preserve" x="70" y="1000" id="text921">
        <tspan id="tspan919" x="70" y="1000">≥ 441</tspan>
      </text>
      <text id="text925" y="950" x="70" xml:space="preserve">
        <tspan y="950" x="70" id="tspan923">≥ 284</tspan>
      </text>
      <text xml:space="preserve" x="70" y="900" id="text929">
        <tspan id="tspan927" x="70" y="900">≥ 172</tspan>
      </text>
      <text id="text933" y="850" x="70" xml:space="preserve">
        <tspan y="850" x="70" id="tspan931">≥ 105</tspan>
      </text>
      <text xml:space="preserve" x="70" y="800" id="text937">
        <tspan id="tspan935" x="70" y="800">&lt; 105</tspan>
      </text>
      <text id="text941" y="750" x="20" xml:space="preserve">
        <tspan y="750" x="20" id="tspan939">2020-03-24</tspan>
      </text>
    </g>
  </g>
  <g id="g886" stroke="#000" stroke-width="2" fill="none">
    <path d="M0.729 204.756H94.239V279.964H0.729z"/>
    <path d="M0.729 279.964H94.239V355.133H0.729z"/>
    <path d="M0.729 355.133H159.27300000000002V574.271H0.729z"/>
    <path d="M159.273 500.558H254.242V574.2719999999999H159.273z"/>
    <path d="M495.842 465.547H574.1569999999999V574.1560000000001H495.842z"/>
  </g>
  <g id="g905" stroke="#000" stroke-width=".5">
    <path style="fill:#fcbba1" d="m 219.32534,156.36716 v -4.18835 l -0.96299,-0.7761 0.189,-5.52598 -1.735,-0.87035 -2.37399,-0.0311 -2.11499,-1.68356 -2.23399,2.67224 -1.764,0.2206 -1.52099,2.07061 -1.29699,-0.31285 -3.22799,-2.8407 -1.126,-3.62883 -0.646,-2.70533 h -9.74596 l -3.18099,-1.94327 2.48799,-3.32701 -5.39698,-0.21659 -2.06599,2.34837 v 0.003 l -1.048,1.18522 -3.84498,-0.42115 -0.386,2.20899 -1.80999,0.1464 -0.181,-2.63013 -2.35399,-0.71093 -0.978,1.11302 v -3.72008 l -2.72299,2.03351 -3.59099,-0.60765 -1.23899,2.46268 -7.29098,3.95772 v 1.85603 h -0.96299 v -3.4303 l -4.07299,-1.93624 0.371,-3.49648 -3.70398,-2.73842 v -3.41024 l -2.73199,-0.59361 0.188,-3.16658 -2.114,-0.18851 0.188,-2.18993 h -4.45498 l -0.418,1.36369 -0.983,-2.32229 -2.02399,1.56625 -4.51698,0.57054 -0.897,1.23334 -3.05199,-2.29522 -4.53098,3.05127 1.61799,2.20598 -2.43699,3.33805 -3.17999,-1.85704 -5.84497,0.19954 v 3.90659 h -1.021 l -0.384,-1.79687 -2.30799,0.37 -0.439,-4.8742 -2.43999,2.70132 -2.21999,-0.9195 -4.56498,0.43117 -0.792001,1.96834 -2.073993,0.48732 -0.400998,-2.13278 -5.010982,0.66781 v 1.35768 l -2.737989,0.16544 -1.435995,-1.01475 -1.857993,0.93153 -0.391999,2.25912 -5.140981,0.18751 -3.037988,3.66894 2.289991,1.71465 -3.021989,2.48473 1.037997,1.88009 -0.817997,4.49819 3.583986,0.46727 1.051996,-1.05185 0.487999,0.64775 7.578971,-0.99068 1.543995,-1.06689 -1.312995,1.26041 0.477998,2.47872 3.664986,-1.64847 -0.708997,2.50379 4.353984,0.18951 -0.094,0.56252 -4.354984,-0.16845 -3.664986,-0.95158 -4.705983,-2.26113 -3.162988,3.64488 3.711986,1.26543 -0.202999,5.69944 1.479994,-1.19724 2.062993,-3.15355 3.850986,2.20899 1.872993,0.40008 0.706997,2.83468 -1.035996,1.85904 -2.362991,-0.17648 -2.388992,0.005 -3.877985,0.59261 -6.794975,0.38404 -1.631994,2.16487 2.310991,1.38074 2.123993,-0.18851 1.747993,1.56724 2.509991,-0.18851 3.971985,4.52928 0.936997,4.89526 -1.506995,3.02219 4.553983,0.86334 4.666983,-0.22962 1.143996,-2.06861 -1.176996,-1.58028 0.770997,0.34493 1.76699,-0.1865 3.13799,1.76177 2.28799,-0.4442 v -0.98868 l 0.189,0.8122 2.64599,4.32572 5.89098,0.40209 0.135,-0.71594 1.007,1.45595 3.52098,0.62168 h 2.376 l 0.022,0.0351 2.279,3.6559 3.44898,0.86434 0.265,-0.40209 -0.16,0.60665 2.90299,1.27144 3.45899,3.44133 1.088,2.0315 -0.794,5.18505 2.71299,2.03151 1.52899,-1.77581 -1.27299,-1.68156 v -3.0272 l 2.24199,0.53946 0.62,-1.86405 0.282,0.65577 2.88099,2.50178 1.44999,-2.41053 -0.171,-0.38805 0.667,0.90746 0.146,-0.0211 -1.888,2.38446 2.64699,0.8854 1.792,2.79056 10.69796,-0.98166 2.08599,0.45624 -1.007,0.86835 0.218,2.07362 0.585,0.43919 1.062,-0.18951 1.58699,-1.59131 1.035,1.20426 h 3.26299 l 3.82898,-1.96332 5.64898,-2.23506 0.188,-5.50892 1.267,-0.68687 v 0 l 3.62098,-1.93724 12.22896,-0.60163 0.82399,-2.2862 1.852,-1.82194 4.41998,-0.61466 0.181,-2.08565 2.49999,0.34694 1.73899,2.33633 4.27899,1.05586 0.87399,-1.83497 0.986,-3.50951 2.49199,-6.16772 1.198,-0.68485 3.54998,0.43819 v -5.75961 l -1.37499,-1.37874 v -5.54703 l -0.594,-1.98437 v -2.96403 z m -69.24874,37.81246 1.73599,2.1057 -0.73299,1.18622 -2.27099,-0.69689 -2.99299,-1.40481 2.88199,-0.43317 -0.487,-1.19323 z" stroke-width=".5"/>
    <path style="fill:#fcbba1" transform="matrix(1 0 0 1.00272 38.975 -4.021)" d="M184.503 148.55L182.496 150.144 178.983 149.714 178.778 155.284 179.752 156.069 179.752 159.709 177.784 161.677 177.784 164.926 178.377 166.909 178.377 172.643 179.752 174.018 179.752 178.837 176.677 178.46 175.125 179.341 172.544 185.719 171.56 189.209 171.26 189.866 170.919 190.548 170.607 190.479 167.324 189.665 165.562 187.306 162.187 186.839 161.994 189.071 157.85 189.645 155.81 191.652 155.025 193.732 143.13 194.316 137.757 197.151 137.57 202.596 132.256 204.693 128.603 206.597 125.689 206.597 124.413 205.112 122.5 207.025 121.036 207.297 122.316 208.177 118.646 211.447 119.619 212.42 120.297 213.776 118.234 216.655 120.692 217.973 124.776 218.844 125.075 217.601 126.937 219.977 130.747 219.977 133.277 217.227 135.187 217.227 132.64 218.502 132.847 220.674 133.569 222.33 131.647 224.253 129.083 224.253 129.58 227.841 134.021 227.03 138.798 231.426 138.738 231.502 138.517 231.779 138.522 231.783 132.85 239.1 132.653 244.017 138.675 249.852 138.467 251.789 140.335 251.789 144.025 262.858 148 264.83 151.958 268.789 156.388 268.789 158.138 272.694 162.483 272.694 164.376 275.564 169.164 277.959 169.338 275.397 170.136 276.149 176.238 272.443 178.691 272.276 179.878 275.484 183.727 273.867 186.859 276.216 189.505 274.969 191.752 274.35 192.752 273.155 195.744 271.232 193.362 268.812 192.006 269.842 191.892 268.894 193.302 266.267 191.942 263.947 193.05 262.451 192.444 256.866 190.578 254.006 191.973 252.197 188.813 248.655 189.983 246.095 185.227 242.132 185.227 239.835 183.452 237.312 183.933 237.111 183.926 237.105 187.113 235.737 193.205 237.12 196.166 235.179 196.166 232.577 201.206 232.186 206.033 231.223 211.108 231.044 211.622 232.23 213.353 233.728 214.833 231.131 218.462 227.318 220.062 227.318 222.325 219.162 225.483 215.402 225.264 211.113 227.227 208.557 227.227 207.192 226.312 206.07 226.873 204.923 228.007 202.653 231.707 205.257 234.362 205.257 233.297 201.76 235.225 203.029 236.673 200.905 242.55 199.284 241.519 196.789 242.735 195.238 245.674 194.084 248.506 190.405 248.506 186.884 250.401 186.884 251.256 183.88 251.45 179.646 249.586 177.932 251.005 175.458 253.512 172.272 250.538 170.152 248.008 169.714 245.241 165.596 244.028 165.596 243.971 166.19 239.992 166.19 238.057 163.303 234.822 162.143 233.879 155.293 232.167 152.902 226.616 153.099 221.346 157.964 218.667 157.811 218.377 157.796 217.394 154.326 214.88 153.363 214.111 149.146 212.186 147.428 209.939 147.645 209.106 149.633 206.391 150.743 201.086 149.958 195.88 153.038 193.933 151.655 190.998 153.623 189.061 152.219 187.667 149.842z"/>
    <path style="fill:#de2d26" transform="matrix(1 0 0 1.00272 38.975 -4.021)" d="M305.569 115.011L303.368 115.57 301.896 114.455 298.597 112.408 295.965 114.421 292.386 114.816 287.257 114.422 286.169 112.653 285.224 110.445 283.349 112.77 282.112 117.153 280.96 119.106 280.942 119.098 280.819 119.343 280.812 119.355 275.377 120.916 274.399 122.127 275.469 123.797 275.469 125.513 276.917 125.822 276.207 126.535 276.372 128.077 276.71 127.822 278.403 129.517 279 131.861 280.483 133.347 279.771 135.325 279.751 137.477 281.058 138.962 279.717 141.247 281.183 144.808 283.873 146.725 284.295 148.97 286.626 149.343 287.171 153.519 289.077 155.827 292.354 156.443 293.065 156.586 293.412 158.908 293.819 159.56 294.246 165.034 300.897 164.434 303.313 162.197 305.342 163.844 310.54 164.215 311.757 166.043 311.758 166.043 311.758 166.037 312.472 167.095 314.729 168.241 314.897 171.213 311.599 173.488 313.801 175.458 316.071 174.01 321.328 174.189 323.431 173.783 324.002 172.275 325.717 172.424 326.134 174.164 331.354 171.218 335.731 166.078 334.127 164.279 335.375 161.616 338.71 159.947 346.368 160.322 347.996 159.072 348.396 159.472 348.91 155.608 349.677 151.771 351.063 149.975 351.245 147.724 353.979 146.561 353.979 144.48 350.963 144.674 350.513 143.63 351.468 141.902 350.625 138.733 349.129 137.806 349.483 135.418 351.104 134.381 350.874 133.164 351.661 132.203 348.049 131.445 347.06 129.123 345.246 128.507 340.119 123.563 339.521 119.227 337.112 117.483 335.709 118.193 333.896 119.655 332.008 119.077 328.701 120.436 325.881 118.815 324.61 120.484 323.112 120.645 321.987 119.73 319.89 118.477 317.591 120.008 317.254 119.672 317.253 119.676 316.388 118.809 312.034 116.224 307.776 114z"/>
    <path style="fill:#fb6a4a" transform="matrix(1 0 0 1.00272 38.975 -4.021)" d="M494.488 354.118L491.787 354.522 486.922 352.071 486.137 346.2 483.17 345.213 482.232 343.364 480.874 340.387 476.869 340.188 474.903 341.065 474.506 343.938 471.507 344.284 470.95 341.715 469.632 340.397 465.863 340.797 464.34 342.112 463.518 346.422 464.25 347.616 468.293 348.018 469.054 350.481 470.566 351.237 470.566 355.018 467.02 354.838 465.472 356.571 461.029 355.795 458.531 357.92 456.761 357.143 453.886 359.379 454.867 361.155 453.556 362.469 448.503 362.469 448.503 365.299 449.979 366.034 449.545 367.036 446.387 368.319 442.142 368.737 440.879 372.715 440.679 375.215 442.719 376.87 440.916 378.987 438.405 377.719 434.912 377.485 434.401 379.68 436.174 380.918 433.989 382.354 434.896 386.045 441.558 387.836 442.75 390.379 444.565 390.729 443.924 396.692 443.924 396.692 443.892 397.008 443.155 396.137 441.255 394.465 440.136 397.756 438.542 399.178 438.153 399.147 438.151 399.143 437.874 399.122 437.536 399.094 437.537 399.1 436.224 399.006 433.437 396.961 432.623 394.325 426.955 393.905 423.089 393.553 422.738 391.528 424.072 388.676 423.606 388.321 421.173 390.393 417.548 390.016 416.938 388.946 419.702 385.198 416.69 382.362 413.662 382.606 411.394 386.139 412.009 389.975 415.173 390.362 414.806 391.389 412.325 391.571 409.575 394.35 409.086 393.741 409.647 389.836 408.298 388.229 402.694 389.057 401.467 391.549 402.209 391.961 405.438 397.319 405.438 401.799 411.251 407.579 411.251 409.78 408.61 411.28 408.612 411.282 403.556 414.176 402.169 424.524 396.446 423.719 394.649 428.5 395.933 430.305 389.778 434.063 387.821 438.612 394.437 438.911 402.542 439.497 403.515 440.469 401.128 440.469 398.894 444.288 407.731 446.137 415.036 444.868 411.313 441.348 413.257 439.741 416.703 441.19 418.481 444.973 429.887 445.163 432.553 444.073 432.981 445.362 429.44 448.442 434.084 448.643 433.479 450.172 431.896 452.006 442.063 452.006 446.618 453.524 446.968 453.989 447.606 454.856 451.046 456.389 452.024 460.34 454.493 460.807 456.552 459.368 459.966 457.266 465.621 457.821 465.489 458.918 463.668 459.813 463.785 460.381 469.233 460.635 467.613 458.971 467.252 456.721 469.505 455.163 472.304 456.088 473.405 456.434 474.494 457.77 476.203 456.565 476.583 453.987 477.976 452.788 482.117 452.788 483.274 451.057 485.885 451.807 489.29 450.342 489.29 444.739 486.031 444.887 488.179 443.557 489.824 441.323 490.257 438.286 495.796 437.522 498.812 434.147 498.819 434.155 498.999 433.938 499.212 433.698 499.203 433.692 499.252 433.633 499.43 429.413 503.175 430.161 504.549 428.383 506.684 428.823 506.874 422.672 511.208 422.313 515.104 418.788 518.764 418.788 518.961 416.512 522.588 414.327 520.602 409.792 523.505 407.288 522.93 404.442 527.142 403.1 528.359 398.594 527.782 395.588 526.776 393.807 525.924 391.014 522.778 391.252 513.56 394.563 510.78 394.563 505.802 390.536 500.598 389.104 497.882 389.094 497.882 385.696 493.787 383.167 493.787 379.688 496.931 379.26 494.875 377.448 492.936 376.838 492.064 374.563 492.774 372.971 496.346 369.176 495.781 366.426 496.079 366.11 496.08 366.11 496.156 366.026 496.62 365.532 496.613 365.532 497.921 364.112 500.226 364.319 500.226 362.055 497.488 360.672 496.892 354.989z"/>
    <path style="fill:#de2d26" d="m 556.98646,514.27366 -10e-4,-0.002 v 0 l -0.082,-0.15843 -1.85399,-3.65089 -0.597,-11.76187 -1.419,-2.23105 -10e-4,-0.002 v 0 l -2.48699,-1.93926 -0.396,-7.07016 1.197,-3.3611 -1.585,-5.36855 -0.96899,-4.29263 -0.854,-1.29451 h -10e-4 v 0 l -2.01599,-1.14911 -3.26199,2.18993 0.447,2.14481 1.43599,1.85904 -1.70399,1.31456 0.397,0.80719 0.401,0.80518 -1.131,1.31456 v 1.99742 l 0.001,0.002 v 0 l 1.97099,1.78383 v 2.52785 l -1.11099,2.37343 -1.021,0.45223 -0.576,-0.79917 -0.94199,-1.30654 -2.81199,0.22762 -0.583,-0.39707 h -2.55699 l -2.27399,2.11272 -0.788,3.22173 -4.95098,0.94957 -4.02299,3.42528 -0.72899,2.01747 -1.584,-0.15041 -1.33799,-1.59432 v 0 l -10e-4,-0.002 -0.646,3.82637 -1.38599,0.56352 -0.438,3.39019 0.531,1.23234 -2.034,1.48302 -0.554,1.45494 h -1.65199 v 2.61809 l 2.11699,1.48302 3.18799,1.86405 0.163,1.16716 -1.68999,0.51741 -3.36599,0.64675 v 1.71765 l 1.162,1.19825 0.22699,4.01087 4.49799,1.44191 1.44299,0.35295 1.198,1.89012 -0.798,1.13809 -1.57999,0.56954 -1.209,2.213 -1.24499,1.48302 0.62799,3.9146 3.10199,-0.19753 0.844,0.64474 2.72599,-1.36269 0.479,0.48131 -1.375,2.94598 1.277,1.27846 -2.13299,1.59432 -1.738,3.9106 4.67798,1.09497 5.47898,0.51138 -2.01999,2.35037 c -0.411,-0.13938 -1.27099,-0.36198 -1.77099,-0.13336 -0.029,0.016 -0.062,0.0291 -0.133,0.0862 -0.007,0.006 -0.042,0.0351 -0.095,0.0923 -0.018,0.016 -0.049,0.0431 -0.076,0.0902 l -0.052,0.10428 0.002,0.0231 c -0.004,0.012 -0.009,0.0201 -0.009,0.0211 l -0.016,0.0451 c -0.016,0.0251 -0.023,0.0642 -0.033,0.12133 l -0.001,0.0842 c 0,0.73399 -0.94,2.56395 -1.309,3.20167 l -0.104,0.18851 2.085,2.28921 3.59698,2.21901 6.66898,1.77581 1.93399,0.77711 1.479,0.64775 -1.292,2.35438 3.45799,-0.20756 0.589,1.3647 h 3.56298 l 0.894,-4.26155 -1.73199,-0.35596 2.57299,-2.73441 -1.066,-1.107 0.153,-1.45896 3.53299,-1.94326 0.229,-2.62211 -2.77099,-0.2236 -1.161,1.00071 v -1.00472 l 3.02899,-0.18651 1.041,-2.52685 0.80199,-6.94682 0.007,-0.0491 -0.599,-2.93997 -0.061,-2.64817 0.003,-0.002 -0.12699,-5.8699 4.68798,-6.63899 v -11.05997 h 0.006 v 0.006 h -0.004 z" stroke-width=".5"/>
    <path style="fill:#fc9272" transform="matrix(1 0 0 1.00272 38.975 -4.021)" d="M220.128 103.964L211.885 107.224 205.353 103.577 189.3 101.206 185.525 99.236 179.953 100.652 179.953 100.651 178.147 101.109 177.97 96.689 172.927 90.717 174.347 87.167 176.73 87.167 174.579 81.296 165.872 80.875 161.455 83.94 156.558 80.738 148.966 78.467 148.002 80.897 152.188 84.258 152.188 88.321 150.522 90.386 151.724 91.582 152.169 91.886 151.773 95.506 153.181 98.705 157.679 103.787 158.631 108.21 159.593 109.617 159.593 116.552 161.937 121.31 161.937 126.637 159.378 131.756 162.203 139.06 166.477 140.02 166.771 141.564 164.92 142.411 160.917 142.411 161.605 145.265 162.79 149.064 166.194 152.058 168.081 152.547 169.685 150.37 171.424 150.151 173.437 147.756 175.259 149.2 177.636 149.2 178.969 149.867 178.969 150.321 182.67 150.775 184.599 149.246 187.235 150.32 187.261 150.364 187.424 150.689 187.443 150.673 188.575 152.587 190.98 154.359 193.919 152.389 195.847 153.757 201.205 150.588 206.462 151.362 209.559 150.096 210.351 148.21 211.979 148.051 213.554 149.459 214.347 153.804 216.895 154.78 217.915 158.375 221.565 158.582 226.858 153.693 231.873 153.515 233.296 155.454 234.277 162.589 237.67 163.804 239.673 166.793 243.667 166.793 243.815 167.878 244.414 167.862 244.575 166.195 244.923 166.195 247.654 170.264 250.257 170.685 250.258 165.609 248.89 163.797 248.556 162.509 251.256 160.9 254.249 160.297 256.329 157.778 255.938 150.313 251.813 146.813 251.625 143.452 251.152 143.135 253.605 140.789 256.207 140.789 263.283 137.132 265.468 138.05 270.63 138.071 271.942 136.508 271.942 133.647 275.851 131.71 275.851 128.541 276.928 127.65 276.833 126.757 278.122 125.468 276.065 125.028 276.065 123.623 275.136 122.168 275.724 121.438 281.215 119.872 282.649 117.424 283.853 113.099 285.303 111.301 285.567 109.341 287.043 110.154 288.931 109.64 287.747 107.792 287.181 103.248 285.483 101.732 285.978 100.217 287.347 97.664 288.39 95.87 286.2 95.87 286.2 92.744 285.06 90.834 285.803 87.092 286.747 84.714 285.185 84.714 285.784 83.231 287.819 80.766 285.81 77.1 285.207 73.554 276.58 65.117 275.542 63.042 273.257 63.241 271.432 62.463 270.057 64.15 261.73 70.548 246.918 74.26 237.095 77.78 229.095 82.093 224.301 89.222 223.254 94.988 227.308 98.037 231.562 98.933 227.624 99.635z"/>
    <path style="fill:#fc9272" transform="matrix(1 0 0 1.00272 38.975 -4.021)" d="M338.084 24.627L337.674 22.259 334.802 22.515 329.842 24.105 327.528 26.97 325.476 26.97 324.041 25.193 323.463 23.097 321.371 20.721 318.666 20.721 317.63 18.82 317.63 15.639 318.998 13.477 318.162 10.356 315.5 5 309.021 8.044 299.31 9.6 298.978 9.659 298.978 9.658 298.903 9.672 298.338 9.771 298.343 9.778 287.962 11.758 279.125 18.53 279.126 45.029 279.043 46.067 279.045 46.068 278.522 52.391 282.849 56.307 282.849 57.62 277.796 54.631 271.039 62.954 273.162 63.855 275.188 63.679 276.063 65.434 284.646 73.852 285.226 77.256 287.099 80.706 286.569 81.36 285.292 82.887 284.296 85.317 285.858 85.317 285.226 86.927 284.421 90.949 285.594 92.914 285.594 96.474 287.341 96.474 285.421 99.992 284.798 101.927 286.608 103.546 287.162 107.933 287.983 109.276 287.124 109.512 285.097 108.389 284.58 112.211 285.065 111.598 285.64 112.927 286.906 114.996 292.396 115.413 296.198 114.997 298.633 113.134 301.56 114.946 303.235 116.221 305.771 115.576 307.765 114.668 311.745 116.749 315.99 119.26 317.513 120.781 319.901 119.187 321.644 120.221 322.926 121.269 324.933 121.05 326.039 119.594 328.653 121.098 332.035 119.709 334.021 120.316 336.026 118.688 337.05 118.177 337.136 118.242 337.135 118.252 337.44 118.472 337.677 118.649 337.679 118.642 338.961 119.564 339.551 123.852 344.876 128.986 346.606 129.605 347.62 131.969 351.229 132.726 351.79 132.025 352.744 130.001 355.688 128.621 357.263 124.502 359.188 123.19 357.919 121.441 355.463 121.441 355.219 120.566 356.812 119.855 357.808 118.344 355.997 117.148 356.431 115.774 361.149 115.381 360.165 113.165 357.507 111.423 357.507 106.485 360.995 103.884 365.39 103.884 364.958 101.827 366.929 100.984 370.219 103.129 371.952 102.654 371.758 95.803 372.339 93.509 373.188 90.557 370.646 89.192 371.086 88.029 374.882 87.232 374.882 84.649 377.769 83.115 378.63 80.524 377.64 78.923 377.812 76.203 379.646 74.565 377.833 71.132 378.397 67.416 375.046 67.416 375.06 67.408 374.041 67.408 373.896 65.929 377.813 63.579 377.159 59.466 373.748 58.578 374.44 57.859 374.44 55.172 377.462 52.956 376.565 51.167 370.146 46.121 358.937 46.728 357.786 48.658 356.89 48.658 357.071 42.007 353.763 38.103 351.416 38.478 350.003 36.875 346.084 38.631 344.813 37.362 342.153 36.969 341.44 34.659 341.25 26.697 339.474 25.904 339.237 24.627z"/>
    <path style="fill:#a50f15" d="m 568.48705,114.94993 -3.27799,-2.60907 -4.90698,-0.56854 -4.41198,-2.21199 -2.86399,1.71264 -1.483,-1.67053 h -2.26299 l -3.08599,0.84931 0.019,-0.0281 -0.665,0.20656 -0.186,0.0501 -0.005,0.008 -0.07,0.0221 -1.22199,-1.76178 -3.93799,-2.40251 -1.43799,-2.25611 -4.97398,0.43518 -2.74099,2.52685 -6.41298,0.18249 -1.82999,-1.27947 c -0.249,-0.4442 -1.165,-1.99139 -2.02099,-2.47169 -0.039,-0.0211 -0.103,-0.0562 -0.153,-0.0762 -0.038,-0.0191 -0.092,-0.0321 -0.125,-0.0481 l -0.175,-0.0361 v 0.29981 l -0.097,-0.29981 c -0.688,0 -2.10399,-0.73098 -2.75499,-1.11803 l -0.13,-0.0772 -3.05899,1.28849 -0.188,2.2882 -2.85999,0.35296 -1.93199,-3.64989 -1.062,-0.37602 v -2.711346 l -2.75799,-1.194236 -0.188,-4.626536 -2.05699,-2.026491 -4.17398,-2.028496 -2.16,-0.02808 -0.59499,0.407103 h -1.768 l -2.72899,-2.360396 -3.15499,0.202549 -2.41999,2.037521 -0.56799,0.898434 h -3.01899 l -1.155,-1.191228 h -0.349 v -0.002 h -2.77599 l -3.52998,-3.916613 h -4.74999 l -2.35099,2.168877 -3.32199,0.188511 -1.14699,1.187217 h -0.402 v 0.004 h -0.415 l -0.749,-3.577695 -1.69699,-1.699605 -0.773,-0.107291 0.004,-0.005 -1.64599,-0.25469 -0.763,-3.824363 -1.72299,-1.310551 -5.36898,-0.584584 -0.938,-2.457659 -1.86099,-1.212285 -6.13698,-0.799166 -0.343,-4.130191 0.771,-0.772092 v -2.045543 l -3.07499,-1.944268 0.521,-1.914187 0.862,-2.142806 -1.28,-1.105997 2.00199,-1.806896 V 53.71902 l -0.98199,-0.709924 h -3.18899 l -2.02099,3.00414 -1.836,1.87107 v 4.070029 l -2.17799,1.453939 -4.26398,1.374725 -2.18799,0.901443 -2.68799,-2.11473 h -4.07999 l -0.585,3.828373 1.686,3.201676 -1.666,1.49104 -0.198,3.162569 0.942,1.529144 -0.697,2.101694 -2.98899,1.595323 v 2.477714 l -3.64598,0.766076 -0.744,1.96733 2.57999,1.388764 -0.717,2.501778 -0.60399,2.390478 0.136,5.215131 h 0.005 l 0.044,1.280469 -1.019,0.274745 -3.33399,-2.175896 -2.71899,1.163152 0.383,1.822939 h -3.85399 l -3.88798,2.903869 v 5.57912 l 2.77499,1.82494 0.572,1.28649 -4.27699,0.35797 -0.688,2.19294 1.688,1.11903 -0.564,0.86735 -1.90699,0.85231 0.507,1.81893 h 2.60599 l 0.72799,1.00372 -1.56999,1.06589 -1.55499,4.08005 -2.92699,1.37373 -1.006,2.16787 -1.062,1.29852 0.205,1.09597 -1.50699,0.96662 -0.456,3.05728 1.62899,1.01575 0.726,2.71336 -0.98099,1.77481 0.73699,1.70863 2.79699,-0.18049 v 0.40409 l -0.006,0.001 v 0.64074 l -2.70399,1.14911 -0.195,2.44563 -1.31599,1.71565 -0.844,4.06 -0.459,3.45737 1.436,1.17619 h 2.31999 l 4.87698,5.10082 -0.602,5.32442 3.84199,2.96404 1.92599,-1.34766 2.89199,3.44935 0.375,3.52956 2.17199,2.92393 1.044,2.32931 8.07497,0.42114 3.71598,-1.87809 1.09,2.03953 1.74599,0.23864 1.016,-2.19394 6.25298,-0.18149 2.79599,-1.48603 0.39199,-2.43159 h 5.32298 l 1.325,0.74803 -0.002,-0.008 1.69199,0.95057 3.44499,3.66794 4.35198,5.87793 -2.60099,2.79958 1.917,1.30454 0.193,3.47441 3.22898,-0.19051 0.771,1.54117 2.60399,0.20857 1.604,-0.89543 2.93798,3.68599 0.488,1.16516 4.68699,-1.06188 0.77999,-1.89915 0.302,0.0531 v -2.13178 l 2.42799,-1.06589 3.12099,1.19223 2.98999,-1.21328 h 1.94899 l 0.621,-4.08908 1.271,-1.52814 -2.062,-0.2216 -0.146,-1.83899 2.66999,-0.58458 0.186,-1.5131 h 2.78299 v -2.62812 l 2.24199,-0.81621 -0.61099,-1.6224 0.54199,-0.34393 1.442,-0.87537 -0.752,-1.16115 0.487,-0.29981 1.354,1.57928 2.27099,-1.59432 0.56899,-1.86205 3.37399,-0.54447 0.771,0.60564 -0.188,2.16386 2.75999,2.11473 1.76999,-0.21258 1.731,-1.3667 h 3.85398 l 2.93799,3.322 h 1.188 l 1.74799,-1.08594 0.216,-1.1431 1.271,-0.64174 1.57099,1.04183 1.72699,1.94426 6.18898,3.29794 0.021,0.014 0.854,1.66952 3.20399,0.19252 3.39598,2.65219 0.505,1.20727 -0.179,2.214 -0.983,1.81793 0.438,2.74544 2.77999,-0.41212 0.52,1.89714 1.032,4.44003 2.16599,-0.35396 -0.356,1.87909 1.59599,1.37974 7.43798,-0.19453 3.90398,-3.09237 0.188,-4.36684 2.06199,-2.65519 -2.69399,-3.09639 -1.25699,-2.93495 1.52099,-2.06861 v -4.95944 l 0.943,-2.29522 0.021,-3.93767 1.81199,-2.63413 -2.00699,-2.82466 -0.168,-5.07274 0.007,0.003 -0.021,-0.46225 -0.007,-0.20756 -0.003,-0.001 -0.021,-0.35597 5.06098,-9.92288 0.04,-0.0802 -0.6,-5.70045 2.338,-7.64872 0.58199,-6.53872 5.07498,-3.70705 v -2.4005 l 1.814,-2.37243 h 1.53799 l 1.938,-1.94527 -0.383,-3.3942 1.66699,-4.47913 z" stroke-width=".5"/>
    <path style="fill:#fcbba1" transform="matrix(1 0 0 1.00272 38.975 -4.021)" d="M332.835 369.532L332.255 363.819 330.335 363.819 329.481 358.25 325.608 358.813 325.125 355.514 324.328 354.268 318.433 359.295 318.433 363.819 317.092 363.819 316.519 368.313 315.192 368.854 314.13 371.256 308.396 371.256 307.866 370.442 304.752 370.442 303.104 373.174 302.806 373.141 301.478 372.961 302.543 369.731 300.063 368.647 302.542 362.891 299.14 360.354 298.002 353.094 294.615 352.188 292.552 354.219 291.458 352.28 287.937 355.801 285.999 356.047 282.211 350.625 277.042 348.315 272.8 350.295 271.786 350.454 272.021 350.809 270.773 351.881 270.773 354.292 272.458 356.151 270.85 359.024 269.23 360.059 269.021 361.905 265.66 362.317 265.889 364.924 266.882 365.264 264.443 368.729 260.046 369.116 259.85 372.196 258.15 373.866 257.182 376.352 253.1 376.547 254.775 382.797 256.486 386.542 256.585 386.76 252.762 387.45 249.593 385.563 248.055 390.563 250.217 392.913 249.307 396.403 248.052 397.856 248.81 400.045 245.412 400.76 242.178 401.618 242.962 404.346 241.945 404.649 241.93 404.635 241.426 404.805 241.274 404.85 241.283 404.858 240.39 405.682 237.561 402.883 231.422 403.475 229.859 406.225 226.462 406.588 223.337 407.147 221.868 405.081 218.685 408.258 216.287 406.215 214.711 409.581 214.886 411.94 213.171 412.417 212.35 411.25 211.255 407.93 208.304 410.448 206.454 409.702 204.102 410.143 201.961 412.733 204.262 416.624 202.754 418.131 203.352 421.467 201.498 423.893 200.031 427.823 201.743 430.836 206.545 431.17 207.028 431.213 210.134 436.34 207.969 438.317 211.899 444.2 210.056 446.62 206.958 453.59 201.55 458.196 202.912 460.918 202.05 461.485 198.949 460.85 198.109 467.485 196.542 468.676 196.176 473.403 197.014 472.93 200.15 474.792 203.962 477.655 204.336 479.993 207.633 482.663 210.302 482.663 216.656 479.975 219.293 483.004 223.319 484.088 224.681 481.78 226.186 482.452 229.789 482.706 229.789 482.711 238.306 483.278 238.725 473.704 241.057 474.051 244.683 476.161 244.667 476.174 246.089 476.969 252.267 478.163 254.682 478.163 258 482.481 266.389 482.077 269.743 487.424 272.838 486.172 281.136 487.319 281.675 490.42 281.673 490.42 282.081 492.858 285.092 495.676 290.854 497.254 291.039 500.661 294.364 503.59 296.961 503.141 300.308 499.045 304.217 498.299 310.524 500.409 316.187 505.262 317.843 503.172 318.979 503.172 320.42 504.188 321.894 503.471 322.08 500.77 327.843 499.422 329.79 496.879 332.593 495.952 336.509 495.952 339.063 498.661 342.627 498.911 342.627 495.366 340.959 493.063 338.312 491.92 337.892 475.53 337.894 475.532 337.724 469.471 337.954 462.698 335.449 462.899 333.685 460.295 334.955 458.215 338.185 461.264 341.349 458.739 343.394 456.727 343.624 454.829 343.629 454.829 343.771 453.688 350.745 451.549 351.506 449.844 356.924 449.657 358.714 447.44 369.265 439.045 375.801 434.418 377.669 434.547 377.667 434.549 381.094 434.799 381.094 438.739 385.847 438.506 388.46 438.641 390.254 434.473 396.792 430.481 395.319 428.415 396.838 424.381 402.681 425.204 404.104 414.553 411.847 410.133 411.847 407.336 406.033 401.553 406.033 397.157 402.638 391.518 395.292 387.397 394.729 390.625 392.426 390.854 391.606 387.799 388.341 388.424 387.831 392.147 386.021 391.489 381.188 388.336 379.25 389.315 379.25 384.102 375.976 382.143 375.123 381.62 375.679 377.551 372.328 373.915 370.969 366.809 365.823 360.188 362.291 361.04 361.522 358.381 359.076 358.381 358.688 360.795 354.067 362.219 350.536 353.206 344.672 355.315 343.203 358.606 339.667 356.239 336.808 365.184 334.188 371.2z"/>
    <path style="fill:#fc9272" d="m 541.30315,319.87821 -2.72199,-1.04382 -0.771,-2.73241 -5.22898,-3.10441 c 0.052,-1.12605 0.255,-5.88093 -0.226,-7.03205 l 0.367,-0.33291 h -0.938 c -0.64599,0.16244 -2.88798,0.34193 -3.48598,0.38906 l -2.76099,-3.15355 0.101,-3.38417 h -0.002 l 0.083,-2.94598 6.59397,-2.73641 0.854,-2.12677 -0.424,-4.49718 -4.51898,-4.72581 -1.13,0.64375 v -4.37085 l -3.73998,-1.79586 -0.147,-1.26744 2.14499,-2.33232 v -2.96603 l -3.53999,-3.73813 -0.2,-2.70934 -6.98197,0.004 -4.54598,0.79615 -4.11499,3.35008 -1.069,-1.62741 -2.50899,0.2216 -2.04099,4.48415 -0.036,0.0772 0.243,1.95831 1.90599,1.56624 -3.60398,2.37544 -2.44099,2.27015 h -4.30099 l -0.013,0.011 h -1.72199 v -3.25582 l 2.14199,-1.26142 3.67899,-0.39708 0.267,-2.39749 -1.063,-0.70491 2.83899,-3.60176 -0.5,-1.42887 -3.65199,-1.94828 -8.18797,9.03648 h -5.22998 v -2.23505 l -3.49098,-1.75075 -3.80099,4.19337 -2.48599,0.34593 v -2.60706 l -2.63699,-1.20627 -3.90799,-5.49188 -3.50098,-1.3657 -1.169,-2.56896 -2.24599,-0.46426 -1.99899,1.42286 -1.357,0.35496 -2.13799,-1.7698 -2.43799,0.24767 -1.47899,2.74644 -3.67099,14.43412 -0.53,1.19122 v 0.008 l -0.012,-0.004 -0.564,1.35768 -0.93699,-0.12834 -0.721,-3.73914 -1.07,-3.36311 -2.47599,0.21859 -1.60699,1.5873 -1.146,-1.5532 -1.82099,1.63242 -2.25899,-1.48904 h -2.12899 l -0.953,0.73098 -0.459,2.54791 0.003,0.002 -0.669,3.5777 h -2.02999 l -1.43799,1.44191 -1.047,-1.04784 -6.34698,-0.98668 -0.104,-0.016 -2.36299,1.39177 h -1.25199 l -0.36,-1.33662 -2.89599,-0.58559 -0.19,-3.11243 -0.539,-0.17046 3.84899,-2.94599 0.192,-7.89138 -1.521,-2.15183 h -3.13099 l -1.15199,-1.56725 h -3.31999 l -0.812,-0.9977 v -2.83869 l -3.97398,-7.56751 -2.27099,-1.65448 -3.82699,5.25825 -1.15999,0.27976 -0.563,-2.38747 -2.14499,-0.96161 -0.828,1.65549 h -2.47999 l -0.439,-1.92121 -2.31399,1.3637 -1.91799,1.07491 -2.184,-2.39649 -3.27898,-1.56123 -0.191,-2.6191 -4.91799,-0.40811 -2.73699,3.53659 -1.54299,0.18851 -1.60799,1.63543 -1.968,-2.16186 -5.56198,5.6082 v 3.40422 l 0.982,0.79515 0.153,1.27446 -2.46199,1.93324 -2.48699,-0.76307 -5.04798,1.03881 -2.60399,2.99111 -1.229,2.61208 0.548,-0.10629 2.17799,3.08335 v 2.35639 l 1.646,2.1428 1.33799,-1.70762 1.396,2.46568 2.14399,0.7751 2.08499,4.9093 0.098,1.55722 0.008,0.004 0.275,4.55434 1.57799,1.96031 0.729,3.47041 -2.28299,1.70963 -0.559,2.7314 -2.04099,1.09998 -3.90399,2.27617 0.438,2.05457 4.48798,4.5042 0.38,2.55192 -1.77099,2.89484 v 2.953 l 1.20499,1.39979 0.568,3.1726 -0.438,1.56524 0.002,0.002 -0.54299,1.97836 0.93799,2.27617 -0.97899,1.13808 h -1.666 l -1.88299,-2.0676 -2.25399,-1.27345 -0.197,5.81475 -3.39499,2.07563 -2.68899,3.69401 0.598,3.57067 -0.756,1.52513 -0.93399,2.92393 h -1.486 l -1.81599,2.26614 1.33499,1.33762 0.669,1.66451 -2.48999,1.75676 1.08,6.85658 3.22098,2.40251 -2.52099,5.88294 2.52099,1.108 -1.12299,3.40523 2.74199,0.35596 1.66999,-2.78053 h 2.44899 l 0.531,0.81421 h 6.44698 l 1.12299,-2.5439 1.43,-0.58358 0.55099,-4.32772 h 1.411 v -4.86118 l 5.16898,-4.42198 0.338,0.50738 0.562,3.83439 3.87698,-0.56353 0.842,5.50291 h 1.89399 l 0.533,5.28031 0.012,0.0882 2.08599,2.58701 3.02099,-6.96989 2.62799,-8.23732 3.46499,2.32229 1.65499,-3.71907 4.93698,-1.79386 0.135,-0.0451 3.52699,9.01844 5.50798,-1.70362 0.363,-2.27917 h 1.48399 l 0.801,2.78454 3.71699,-0.89743 4.25398,5.44877 h -0.002 l 0.182,0.23062 0.213,0.27073 0.001,-0.002 0.161,0.20556 1.35899,7.13433 0.02,0.0842 3.27099,3.56465 -0.568,4.19738 4.18599,2.52283 v 5.8679 l 2.49999,-1.27445 4.60398,3.00615 2.56599,0.94355 0.551,-4.04395 2.29499,-0.43919 0.81,3.02218 3.26499,-0.33089 0.49799,-2.84772 6.24398,3.52355 1.104,-2.24007 2.77199,-0.42114 v -0.006 l 2.18899,-0.31485 0.963,1.14811 -0.562,3.9126 1.07099,1.33161 3.06199,-3.10642 2.64599,-0.18951 0.76,-2.10972 -3.46299,-0.42716 -0.511,-3.17259 1.979,-3.1004 2.47099,-0.19353 2.42999,2.29322 -2.67799,3.64086 0.953,1.68657 4.18798,0.43919 1.57399,-1.34765 -0.82899,1.77481 0.466,2.66923 4.32298,0.39708 5.26898,0.39607 0.75,2.4366 3.08599,2.27717 2.74399,0.20356 1.90799,-1.70563 0.88099,-2.59302 1.19,1.04984 1.60399,1.9172 0.889,-8.25136 -2.06099,-0.39708 -1.185,-2.52785 -6.58997,-1.77481 -0.722,-2.94698 2.56599,-1.69259 -2.16499,-1.51811 0.304,-1.31456 2.81199,0.17046 2.87299,1.45695 2.51299,-2.951 -2.27199,-1.85101 0.162,-2.12476 1.12699,-3.53458 3.89599,-0.39206 3.50998,-1.41183 0.301,-0.68987 0.006,0.002 0.068,-0.17046 0.182,-0.41513 h -0.012 l 0.195,-0.4803 -1.64599,-0.82423 V 360.052 h 4.69898 l 1.81199,-1.81592 -0.95299,-1.7337 2.18799,-1.70361 1.78999,0.78512 2.56199,-2.19394 4.49299,0.78713 1.57699,-1.77581 3.89398,0.19754 v -4.796 l -1.61099,-0.80919 -0.805,-2.61208 -4.14598,-0.40911 -0.455,-0.74201 0.739,-3.88753 1.21199,-1.05185 3.31799,-0.35496 0.992,0.99469 0.633,2.93796 3.99998,-0.46426 0.415,-3.01015 1.53099,-0.69087 4.18799,0.21357 -0.146,-0.2958 5.39598,-2.16988 2.10299,1.34364 h 2.52099 l 0.194,-2.46367 2.39199,-1.30253 1.007,-1.17318 5.18198,-2.00945 0.646,-3.60376 -0.966,-1.51009 z" stroke-width=".5"/>
    <path style="fill:#fc9272" transform="matrix(1 0 0 1.00272 38.975 -4.021)" d="M287.167 148.814L284.812 148.437 284.421 146.372 281.674 144.414 280.39 141.288 281.798 138.885 280.354 137.245 280.354 135.473 281.185 133.187 279.544 131.548 278.95 129.205 276.761 127.016 275.253 128.247 275.253 131.329 271.348 133.266 271.348 136.282 270.352 137.467 265.645 137.467 263.257 136.467 256.135 140.186 253.371 140.186 250.201 143.215 251.043 143.777 251.229 147.1 255.354 150.6 255.716 157.576 253.921 159.748 251.088 160.318 247.861 162.219 248.327 164.001 249.661 165.806 249.661 170.589 250.25 170.679 252.65 172.391 252.001 173.204 251.997 173.202 251.776 173.486 251.619 173.683 251.622 173.685 250.509 175.119 248.828 178.046 250.838 179.894 250.668 183.778 249.947 186.28 247.905 186.28 247.905 190.197 245.301 193.585 242.363 194.737 240.833 196.688 241.319 197.897 241.309 197.896 241.466 198.264 241.562 198.502 241.568 198.502 241.734 198.889 236.303 200.389 235.064 202.206 232.245 200.349 233.555 204.663 231.899 204.663 227.786 201.765 225.605 206.159 226.628 207.415 226.628 208.359 224.652 210.928 224.873 215.202 221.821 218.831 219.437 227.321 219.833 227.321 220.62 230.401 224.283 231.172 224.283 233.498 228.97 234.873 228.971 238.342 228.757 241.009 234.995 241.002 240.369 239.75 239.945 237.512 241.095 236.799 242.542 238.797 243.855 239.361 244.998 243.982 248.33 247.469 248.705 250.224 251.908 253.394 252.219 253.706 252.219 257.252 251.386 259.75 255.245 262.794 257.253 264.803 260.286 265.197 261.453 269.222 263.507 270.34 263.186 272.856 261.84 273.098 261.829 273.686 262.432 273.817 267.477 274.205 269.111 272.567 272.254 275.711 276.187 271.172 277.806 272.269 280.168 272.049 280.872 272.412 284.747 272.645 285.896 269.535 295.401 270.687 299.174 271.67 300.571 271.512 300.571 271.517 301.052 271.458 301.167 271.445 301.167 271.444 305.692 270.885 306.685 268.773 309.122 265.975 313.819 265.011 316.461 265.816 319.438 263.494 319.214 261.639 318.263 260.872 318.263 258.013 323.204 253.044 325.173 255.201 327.067 253.266 328.649 253.079 331.347 249.606 335.425 249.947 335.474 250.752 336.06 250.822 337.599 245.92 336.608 244.135 336.792 241.706 337.399 236.466 335.242 234.338 335.642 229.71 333.662 225.562 333.469 222.767 329.916 220 329.409 217.888 331.135 215.39 331.135 211.467 329.306 209.326 329.319 209.319 328.937 208.894 328.894 208.843 328.892 208.844 328.788 208.731 328.635 207.108 332.584 205.938 331.919 203.521 331.324 200.396 328.771 196.82 328.297 195.095 331.903 195.095 334.841 192.995 335.249 189.822 333.61 187.981 338.576 183.808 338.576 180.018 335.979 177.263 335.008 174.13 331.259 170.58 326.535 173.244 326.202 171.855 323.604 171.63 322.989 173.249 321.284 173.586 315.909 173.394 313.866 174.7 312.569 173.543 315.521 171.507 315.312 167.854 312.884 166.626 310.878 163.631 305.573 163.253 303.292 161.398 300.646 163.849 295.603 164.291 295.61 164.272 295.09 164.335 294.874 164.354 294.869 164.362 294.796 164.371 294.403 159.349 293.996 158.747 293.601 156.072 289.401 155.269 287.748 153.263z"/>
    <path style="fill:#fcbba1" d="m 357.78883,289.536 -1.56199,-1.9934 -0.369,-5.98522 -2.22999,-5.29334 -2.174,-0.78914 -1.72899,-3.05027 -1.41299,1.80389 -1.046,-1.3667 v -2.34335 l -2.50199,-3.54761 -6.56198,0.79816 -3.70298,-0.96462 -10.01797,-1.2183 -1.15999,3.14753 -3.24599,-0.17247 -0.804,-0.41813 -2.32299,0.21759 -1.88299,-1.27546 -3.04099,3.50049 v -0.012 l -0.416,0.49033 -0.168,0.19252 v 0.005 l -0.248,0.29279 -3.10599,-3.11644 -1.86199,1.87107 -3.52199,-0.26773 0.422,-3.31498 -2.18699,-1.19925 -1.20799,-4.17331 -3.21899,-0.41913 -1.895,-1.89413 -3.55398,-2.81463 0.715,-2.15183 0.015,-3.9487 -3.54699,-3.52956 -0.375,-2.75246 -3.35399,-3.52255 -1.17299,-4.76691 -1.438,-0.62169 -1.67799,-2.31928 -1.97799,1.22732 0.39399,2.08164 -4.74598,1.11703 h -5.52098 l 0.163,-2.05256 v -3.95071 l -4.68798,-1.37873 v -2.36942 l -3.77299,-0.79415 -0.79199,-3.17862 h -2.11 l -3.85298,4.06702 -0.438,0.76307 -0.001,-0.013 -0.727,1.28449 -1.04399,-0.88039 -0.646,-1.50207 -5.53398,0.20054 -4.83898,0.96662 -5.56098,0.42917 v 2.8417 l -2.47699,1.6274 -6.03298,-1.37071 -4.52398,1.94126 2.09899,2.98409 v 2.3985 l 4.61898,3.86046 -1.14599,2.50779 3.08998,3.4694 -1.35399,1.75877 2.01599,3.03221 0.573,5.29335 -1.204,1.63142 1.39,2.37243 -1.34,2.50478 0.264,2.18492 1.769,-1.35166 1.49399,1.52513 -2.40899,1.55421 -0.976,1.14912 -2.11399,0.5896 -2.35499,1.10599 -0.046,-0.0351 -0.512,-0.42716 10e-4,0.0461 -2.57199,-1.92021 -3.58799,1.5111 -1.12499,-3.05027 -2.97399,0.20355 -6.44598,3.88653 1.478,1.35066 -2.93799,2.39249 -0.354,1.86305 -2.56299,0.32688 -1.53599,-1.72467 -3.80299,-0.36499 -0.387,-1.87809 -2.57099,-1.72066 -3.82199,1.37372 2.467,3.58572 h 2.78899 l 2.64799,1.68857 2.24499,1.82595 4.00398,-0.18851 0.76,1.70562 2.70599,0.59361 0.987,2.6953 1.66999,0.74703 -0.144,1.62741 -2.21399,-0.35497 -1.003,1.48703 1.792,2.59905 -0.883,3.94368 -2.42099,-0.19052 -0.603,-1.35868 -0.956,-0.8142 -0.416,-4.82107 -3.43498,-0.42114 -3.12799,-3.82235 -0.461,7.79211 4.52098,3.33905 0.365,3.6178 0.777,4.26756 0.435,4.61752 2.52099,-0.23063 4.03998,3.30395 2.61199,1.48402 0.194,2.01747 2.287,0.43317 6.12197,6.13764 1.501,6.91674 h 0.015 l 1.58699,6.643 0.369,5.5741 -0.52,0.84629 -0.821,-3.97577 -2.77199,-10.83636 -9.92996,-8.99337 0.228,-4.24751 -2.43499,-0.22962 -3.26899,4.91532 -0.97099,16.50372 -2.531,16.6451 -1.78399,12.93304 -0.188,3.35509 0.586,0.10429 1.35899,-4.46109 2.488,-3.23778 3.60798,3.27488 0.381,1.08694 0.863,1.19123 -4.14099,0.18851 -0.82299,-1.2554 -2.327,0.94055 -0.41899,3.03923 -2.169,2.96303 0.004,4.53228 -0.024,0.14841 -3.47098,18.62647 -4.50399,17.24974 -1.37299,6.66405 -1.145,4.65863 -2.74299,4.72981 -0.004,-0.002 -0.125,0.22561 -0.173,0.29981 0.005,0.002 -0.62899,1.12404 -4.45199,5.41869 -3.36098,1.3316 -2.78699,0.41513 v 2.55392 l 2.51999,2.3243 3.34398,0.17848 0.186,2.52986 3.21999,0.2607 0.75,-1.71164 3.49099,1.46497 2.16799,0.5505 0.477,1.99741 -1.309,1.16315 v 3.64488 l -2.73199,1.37071 -0.219,2.05056 1.894,2.13478 3.52198,1.09697 0.643,-3.19265 1.108,-1.23033 -0.13,1.7708 1.52499,2.18993 h 3.50399 l 1.54499,2.10972 4.74998,0.79315 4.52199,2.77351 h 7.21897 l 0.393,3.96374 5.11798,3.9497 2.12499,2.53387 2.33299,-1.2534 1.736,-0.36398 1.01199,1.01675 5.52798,-3.03723 0.315,-4.07203 1.555,-1.18722 0.78799,-6.25695 2.70999,0.55651 1.514,-0.9947 -1.389,-2.78655 5.10198,-4.35981 3.16899,-7.09723 2.06799,-2.70834 -3.88198,-5.82679 2.14799,-1.96633 -3.52099,-5.82779 -5.26998,-0.37602 -0.044,-0.0742 -0.213,-0.39407 -0.008,0.004 -1.15499,-2.02549 1.31099,-3.55463 1.992,-2.61208 -0.591,-3.29593 1.61699,-1.61938 -2.32499,-3.93868 1.73499,-2.1057 1.963,-0.36599 2.02399,0.8142 2.54899,-2.1799 0.829,2.52083 1.12999,1.63342 2.59699,-0.71694 -0.199,-2.70834 0.645,-1.42586 0.527,-1.09898 2.22599,1.90115 3.07099,-3.07834 1.278,1.81191 3.47898,-0.6267 3.68399,-0.39407 1.56199,-2.75546 5.54798,-0.53445 3.04599,3.02219 1.159,-1.12605 2.15099,-0.65779 -0.779,-2.71435 2.62599,-0.7009 4.05199,-0.85632 -0.867,-2.5108 1.074,-1.24538 1.07299,-4.00686 -2.14999,-2.34635 1.212,-3.9487 2.70599,1.61738 4.80398,-0.87337 -2.11299,-4.62754 -1.466,-5.4989 3.72899,-0.18048 0.95499,-2.52485 -0.004,-0.002 0.062,-0.17247 1.814,-1.78584 0.178,-2.80259 4.16398,-0.36599 3.06099,-4.35982 -1.38,-0.47428 -0.14599,-1.64947 3.25998,-0.39708 0.229,-2.03852 1.443,-0.92451 1.95499,-3.42728 -1.81599,-2.02148 v -1.90516 l 1.43799,-1.23736 -0.014,-0.0201 0.139,-0.0211 4.11099,-1.90917 4.76998,2.13679 3.89798,5.59316 2.49499,-0.31486 3.10399,-3.11343 1.097,1.94426 2.37499,-2.34836 2.67399,0.71895 0.138,0.94356 3.12499,-2.20297 -0.869,-2.16387 -1.062,-1.10098 1.305,-1.61939 h 1.63899 l 1.055,-3.29994 0.82,-1.65047 -0.59,-3.51352 2.42199,-3.36111 3.61699,-2.215 0.179,-5.15898 1.27599,0.70892 2.02499,2.22503 h 2.207 l 1.39599,-1.61939 -1,-2.42657 0.959,-3.48043 -0.619,-3.47041 -1.16999,-1.35768 v -2.56394 l 1.79499,-2.93596 -0.438,-2.96303 -0.269,-0.26672 0.016,-0.014 -4.23798,-4.24751 -0.312,-1.45293 3.52099,-2.04856 2.27899,-1.23033 0.562,-2.78053 2.40399,-1.79988 z m -151.65344,10.01514 -0.284,-1.19825 1.712,-2.29723 0.196,2.84672 0.354,0.64876 z" stroke-width=".5"/>
    <path style="fill:#de2d26" transform="matrix(1 0 0 1.00272 38.975 -4.021)" d="M454.387 177.476L453.157 176.514 449.156 177.161 448.539 179.178 446.877 180.339 445.543 178.789 444.095 179.676 444.845 180.833 442.958 181.986 443.53 183.499 441.464 184.248 441.464 186.687 438.748 186.687 438.554 188.302 435.788 188.906 436.017 191.76 437.455 191.915 436.792 192.705 436.226 196.437 434.731 196.437 431.795 197.602 428.666 196.415 425.651 197.727 425.651 199.535 425.59 199.524 424.746 201.572 420.858 202.454 420.549 201.716 417.226 197.542 415.332 198.589 413.247 198.422 412.453 196.835 409.431 197.016 409.251 193.856 407.668 192.782 410.131 190.136 405.46 183.846 401.96 180.128 398.69 178.281 392.705 178.281 392.278 180.922 389.938 182.192 383.828 182.371 383.694 181.713 383.384 182.383 383.218 182.388 383.269 182.635 382.401 184.501 381.397 184.361 380.176 182.085 376.081 184.147 368.526 183.755 367.603 181.71 365.497 178.869 365.121 175.328 361.759 171.329 359.747 172.732 356.521 170.254 357.11 165.002 351.862 159.524 349.503 159.524 348.024 158.286 346.171 159.709 338.579 159.335 334.915 161.167 333.412 164.378 334.933 166.08 330.793 170.974 334.474 174.459 335.418 177.508 337.967 180.257 337.967 183.528 332.745 187.921 334.604 190.017 334.265 192.661 331.702 194.498 327.499 194.498 328.192 197.034 330.731 200.576 331.317 203.659 331.837 205.529 329.867 206.118 329.874 206.119 327.976 206.68 328.196 208.992 330.532 211.697 330.532 215.214 328.758 217.776 329.376 220.353 332.885 223.086 333.063 225.671 335.024 229.831 334.617 234.578 336.769 236.696 336.188 241.659 335.998 244.277 336.942 245.996 335.465 250.711 335.608 252.411 339.058 254.019 341.521 256.714 343.858 255.404 345.476 254.457 345.843 256.041 349.173 256.041 349.909 254.567 351.261 255.172 351.89 257.851 353.847 257.386 357.454 252.442 359.091 253.604 359.521 254.421 359.535 254.412 362.974 260.875 362.974 263.844 364.101 265.224 367.401 265.224 368.56 266.788 371.681 266.788 372.91 268.516 372.728 275.897 368.685 278.982 368.354 279.751 369.085 279.669 369.422 279.771 369.608 282.922 372.591 283.523 372.979 284.941 374.853 284.941 377.173 283.583 383.222 284.521 384.551 285.85 386.244 284.17 388.522 284.17 389.707 277.789 390.312 277.327 392.06 277.327 394.551 278.966 396.229 277.469 397.396 279.046 399.347 277.129 401.124 276.971 402.042 279.834 402.833 283.952 404.646 284.196 405.938 281.191 409.599 266.826 410.896 264.431 412.771 264.244 414.95 266.043 416.663 265.597 418.592 264.253 420.281 264.601 421.427 267.104 422.663 267.584 422.663 267.585 424.981 268.487 428.884 273.948 431.312 275.057 431.312 277.959 434.706 277.491 438.345 273.484 441.103 274.862 441.103 277.318 447.188 277.318 455.662 268.005 455.156 267.728 455.507 263.924 458.652 260.177 456.521 259.332 456.683 258.307 456.685 258.299 468.703 247.025 468.806 246.931 468.433 237.613 472.534 235.58 475.472 234.205 478.355 231.54 478.572 227.873 481.137 226.573 487.599 219.143 486.669 216.897 488.562 216.047 491.374 212.629 489.693 210.945 485.13 211.888 485.046 211.54 489.523 206.383 489.508 206.377 489.923 205.889 492.727 205.452 491.682 200.969 491.018 198.557 488.298 198.959 487.985 197.008 488.905 195.317 489.134 192.784 488.513 191.3 484.847 188.445 481.801 188.262 481.149 186.958 481.148 186.958 481.054 186.768 474.767 183.436 473.053 181.508 471.099 180.206 469.247 181.131 469.024 182.302 467.646 183.156 466.898 183.156 463.96 179.843 459.628 179.843 457.86 181.23 456.504 181.393 454.199 179.631z"/>
    <path style="fill:#fc9272" d="m 49.516713,221.25374 -2.623,0.625 -2.419,2.131 0.103,4.781 1.873,0.316 0.1,2.955 -1.836,1.436 -0.343,2.338 v 0.414 l -1.642,1.719 -0.103,0.312 -3.605,-0.211 -0.444,-1.742 -2.623,-1.5 -4.686,-2.445 h -5.144 l -2.395,3.662 0.112,5.277 0.646,2.154 0.104,0.395 0.336,4.076 1.537,7.533 1.529,3.988 c 0,0 1.086,1.014 1.299,1.529 0.223,0.508 1.437,2.125 1.437,2.125 l 2.385,0.32 0.674,-1.248 0.112,0.123 h 2.385 l 3.614,-3.064 2.292,-3.148 -0.112,-7.32 -1.324,-3.877 0.444,-3.166 2.496,-0.5 h 0.024 l 0.754,0.91 2.075,0.492 1.642,0.623 0.155,-0.076 0.189,0.602 3.169,0.182 5.453,-1.01 3.067,-2.242 5.352,-0.205 4.582,-1.541 -2.838,-1.602 -0.335,-1.539 -3.614,-2.336 -6.863,-0.1 -2.076,-3.564 v -3.979 l -1.426,-3.064 z"/>
    <path style="fill:#fcbba1" d="m 36.993923,292.69805 c 0,0 -6.325,0.148 -7.097,0.445 -0.775,0.281 -3.87,2.439 -3.87,2.439 l -0.471,0.133 -1.847,2.752 0.624,3.584 5.403,5.33 -0.934,1.453 v 2.885 l 2.318,3.17 7.428,6.629 h 7.256 l 1.846,-0.158 h 0.307 l -0.307,1.299 v 1.023 l 2.18,0.57 0.905,0.568 c 0,0 -0.298,2.457 0.472,2.604 l -2.309,0.129 -3.256,-0.996 -2.155,-0.436 -2.777,1.141 -1.563,1.867 -0.752,2.168 0.599,2.18 1.556,2.16 2.008,1.135 c 0,0 2.01,-0.561 2.777,-0.852 0.771,-0.291 1.403,-1.586 1.403,-1.586 0,0 2.297,-0.141 3.376,-0.291 1.084,-0.141 2.188,1.305 2.188,1.305 l 5.094,0.695 2.314,1.299 1.377,-0.123 v -1.457 l 1.25,-0.701 1.246,0.701 -0.624,1.744 -1.41,1.299 0.622,2.576 1.849,1.01 2.188,-0.133 2.155,-1.744 0.624,-2.281 2.161,-2.312 -1.411,-2.883 -0.907,-2.605 -1.093,-3.451 -1.085,-2.445 c 0,0 -2.632,-2.594 -2.632,-3.176 0,-0.566 -2.471,-1.867 -2.471,-1.867 l -0.307,-2.311 c 0,0 0.632,-0.699 1.401,-0.992 0.778,-0.291 -0.473,-1.578 -0.473,-1.578 l -1.527,0.277 -2.342,0.574 -0.6,-0.729 -0.93,-1.018 0.152,-1.293 1.691,0.314 1.402,-1.594 -2,-1.576 -1.564,-0.445 -0.461,-0.855 v -1.02 l 1.709,-0.729 1.223,1.01 2.162,0.867 1.084,-1.299 v -1.438 l 0.941,-1.141 -0.775,-0.885 -1.693,-0.701 -1.095,0.992 -4.309,0.436 -1.409,1.018 -1.847,-0.572 -2.153,-3.453 -4.966,-4.914 -2.777,-1.148 z"/>
    <path style="fill:#fee5d9" d="m 36.015189,369.90388 c -0.428344,0.0154 -0.770355,0.19247 -0.939698,0.34133 l -8.600071,11.91397 -7.464462,9.39031 -8.600067,9.42662 1.218619,25.19694 -0.624253,23.22517 7.500989,11.33299 7.341602,14.41953 4.256869,8.83835 -4.256869,5.68647 -4.964133,15.05497 0.627574,20.78866 -6.132945,11.91399 -9.8518934,8.85286 3.011685,3.72199 7.4611374,4.9784 6.727314,4.45549 9.878459,-3.19911 10.466182,-6.92106 21.569905,-0.56649 8.088712,6.2348 8.606709,0.68267 8.626635,1.94269 12.315691,-10.78105 14.22165,-26.99439 10.47284,-23.2397 10.46618,-17.02312 11.09707,-15.63232 6.13629,-12.04108 -4.88445,-10.6467 -3.72227,-15.07677 -8.0024,-3.22087 -9.10477,-6.77947 -7.58069,-7.60375 -9.84525,-6.92106 -6.75719,-2.49828 -19.697142,-15.06225 -12.963196,-5.13451 -12.35554,-1.78655 c 0,0 -5.525296,-2.49826 -8.593429,-3.75103 -2.692916,-1.11478 -12.033456,-3.75104 -15.151394,-3.51864 z"/>
    <path style="fill:#fee5d9" d="m 201.57003,515.11073 -4.078,0.072 -1.479,0.729 -1.69,1.303 -0.315,0.289 h -1.162 l -2.472,0.93 -1.067,0.939 -3.4,0.492 -0.318,1.791 -0.932,3.74 c 0,0 -1.307,0.877 -1.691,1.023 -0.385,0.141 -2.547,1.299 -2.547,1.299 l -0.393,3.971 0.939,2.367 2.547,3.021 1.223,1.375 0.982,-0.219 -0.599,0.291 0.086,5.406 2.545,3.17 2.625,2.441 4.625,2.734 0.313,-0.188 -0.366,0.266 5.487,3.297 4.23,1.531 4.547,0.791 3.641,1.299 2.316,0.436 c 0,0 3.564,-0.727 4.027,-0.727 0.461,0 4.162,-0.727 4.162,-0.727 l 3.793,-1.227 2.549,-2.312 -0.24,-4.104 0.471,-2.572 1.019,-1.451 1.685,-2.244 0.86,-2.799 -0.237,-2.736 -1.787,-1.008 -2.316,-1.068 -1.068,-0.076 -1.717,-2.449 c -0.385,-0.287 -2.471,-2.592 -2.625,-2.961 -0.152,-0.359 -1.529,-3.453 -1.529,-3.453 l -0.471,-4.838 -2.623,-2.521 -3.094,-1.713 c 0,0 -2.471,-1.434 -2.932,-1.51 -0.472,-0.068 -4.558,-0.938 -4.863,-0.938 -0.309,0 -3.326,0.219 -3.402,0.287 l -0.393,-0.152 z"/>
  </g>
</svg>
