<?xml version="1.0"?>
<svg xmlns="http://www.w3.org/2000/svg" version="1.1" baseProfile="tiny" width="1400" height="1080" stroke-linecap="round" stroke-linejoin="round">
  <g id="g1003" transform="translate(1145.2751,-14.7215)">
    <g id="g979">
      <path fill="#fcbba1" d="M20 820H60V860H20z"/>
      <path fill="#fc9272" d="M20 870H60V910H20z"/>
      <path fill="#fb6a4a" d="M20 920H60V960H20z"/>
      <path fill="#de2d26" d="M20 970H60V1010H20z"/>
      <path fill="#fee5d9" d="M20 770H60V810H20z"/>
      <path fill="#a50f15" d="M20 1020H60V1060H20z"/>
    </g>
    <g id="g971" font-size="30px" font-family="Verdana" fill="#000">
      <text id="text907" y="1050" x="70" xml:space="preserve">
        <tspan y="1050" x="70" id="tspan905">≥ 27.73</tspan>
      </text>
      <text xml:space="preserve" x="70" y="1000" id="text921">
        <tspan id="tspan919" x="70" y="1000">≥ 18.62</tspan>
      </text>
      <text id="text925" y="950" x="70" xml:space="preserve">
        <tspan y="950" x="70" id="tspan923">≥ 11.53</tspan>
      </text>
      <text xml:space="preserve" x="70" y="900" id="text929">
        <tspan id="tspan927" x="70" y="900">≥ 6.46</tspan>
      </text>
      <text id="text933" y="850" x="70" xml:space="preserve">
        <tspan y="850" x="70" id="tspan931">≥ 3.42</tspan>
      </text>
      <text xml:space="preserve" x="70" y="800" id="text937">
        <tspan id="tspan935" x="70" y="800">&lt; 3.42</tspan>
      </text>
      <text id="text941" y="750" x="20" xml:space="preserve">
        <tspan y="750" x="20" id="tspan939">2020-04-04</tspan>
      </text>
    </g>
  </g>
  <g id="layer" stroke="#000" stroke-width=".5">
    <path d="M 491.8099 365.7896 528.29 416.1364 517.5333 432.6816 509.2209 425.1571 488.8798 429.2537 487.6202 438.4052 466.9519 431.9474 457.1421 425.8631 437.4457 425.5552 414.0468 420.8079 403.8121 431.5193 380.834 437.13 366.0717 428.4434 385.2762 419.3774 377.5092 409.8045 343.9633 427.6034 338.1225 421.6163 335.7372 390.6256 319.0323 375.2977 289.5312 362.0618 301.6847 346.2667 299.2067 334.0677 311.7854 327.2235 304.3004 302.9156 326.8288 288.2796 347.1816 280.3361 377.752 286.0887 373.9199 270.289 402.9131 245.3194 434.1803 288.0103 424.0213 302.7302 433.4799 330.1854 444.5661 318.8288 458.7706 321.0277 491.8099 365.7896 Z" style="fill:#de2d26"/>
    <path d="M 825.7762 30.3957 828.4183 41.7327 826.4994 76.1643 830.7398 84.9778 825.2089 122.946 820.2699 151.5735 803.1893 187.4724 787.1752 210.7598 787.0018 224.4453 776.8879 231.286 755.4621 222.6725 648.0558 224.0013 621.9378 216.4655 615.61 219.1227 610.1894 203.2036 621.1174 188.4442 631.5811 160.2139 600.4759 134.0103 589.0994 98.0965 537.5647 78.5907 543.8292 63.1837 559.756 51.1959 574.447 26.3153 574.6363 11.0505 598.0362 17.9905 621.2179 9.4188 643.082 9.8996 670.2614 1 714.6391 8.915 735.6038 22.4625 767.2952 23.4772 825.7762 30.3957 Z" style="fill:#fc9272"/>
    <path d="M 715.8042 723.8893 715.4033 725.9122 702.3518 727.3518 689.9365 718.0717 658.8422 716.8865 633.8783 745.9172 609.306 743.1923 612.913 727.4994 617.1441 722.5658 614.169 684.8067 600.7793 639.5507 595.994 598.9292 623.345 578.5501 632.624 552.5922 639.7578 545.1556 647.7627 502.5253 665.0681 490.3011 670.0115 507.3211 661.9487 524.9474 674.636 535.457 665.8601 550.4261 679.8683 574.3058 678.8376 581.2117 696.3006 602.8071 686.7606 626.0755 678.3081 634.7337 686.3109 654.423 699.2144 700.409 715.8042 723.8893 Z" style="fill:#fb6a4a"/>
    <path d="M 612.913 727.4994 606.1614 731.4777 580.6413 718.5054 577.7972 725.8646 544.0952 712.9207 537.7636 690.5221 528.9811 690.8442 530.6758 668.4332 488.1015 678.342 462.6856 677.1808 429.5311 692.1085 424.55 679.5515 445.1974 664.0226 435.7583 647.9459 416.2295 632.6523 426.4988 605.3042 458.9759 608.5638 459.4556 587.1668 475.3617 588.5363 492.9636 604.3883 514.7198 611.9207 543.643 601.9355 560.5331 565.6158 598.4979 556.235 617.9726 558.6951 632.624 552.5922 623.345 578.5501 595.994 598.9292 600.7793 639.5507 614.169 684.8067 617.1441 722.5658 612.913 727.4994 Z" style="fill:#fb6a4a"/>
    <path d="M 660.6358 471.9354 660.8143 484.1336 649.4209 487.3123 641.6099 502.0747 637.8193 535.0029 625.7449 550.8258 596.9304 551.4108 587.2882 540.4247 586.9199 518.7195 548.0254 518.6758 540.2575 507.9893 534.1702 485.6672 514.3533 468.1036 503.3954 443.3662 487.6202 438.4052 488.8798 429.2537 509.2209 425.1571 517.5333 432.6816 528.29 416.1364 549.6847 406.8047 572.2348 417.4957 592.4965 412.8622 601.6693 446.0966 618.5074 462.4906 641.9339 472.4509 660.6358 471.9354 Z" style="fill:#fb6a4a"/>
    <path d="M 1181.9639 624.5809 1182.4415 634.279 1165.321 641.2619 1150.836 659.995 1131.8138 664.3113 1117.1105 701.7832 1103.776 696.6162 1095.9612 724.3734 1092.2222 756.1122 1068.1034 741.9433 1053.3282 739.3647 1032.9425 744.3418 1016.5934 736.8914 999.5966 721.8284 982.9175 698.7881 970.3865 693.6516 991.4237 652.4104 981.7096 606.5941 996.7687 587.11 1041.8204 568.87 1046.782 545.669 1044.6914 482.3236 1062.2305 478.5712 1093.3587 497.1933 1120.869 503.0151 1130.4769 521.1306 1131.517 542.6618 1140.9126 557.1576 1160.9105 566.6881 1174.5648 566.9218 1196.2452 558.7412 1206.1206 564.8073 1190.3662 590.4794 1193.912 612.3956 1181.9639 624.5809 Z" style="fill:#fc9272"/>
    <path d="M 704.3599 458.6326 715.5381 455.5024 725.0011 485.19 713.9151 491.8573 680.0277 484.1477 660.8143 484.1336 660.6358 471.9354 671.0031 463.4074 689.2378 455.5737 704.3599 458.6326 Z" style="fill:#fee5d9"/>
    <path d="M 1108.5494 480.3231 1096.3568 478.673 1071.4207 463.6192 1054.8525 461.0086 1022.315 475.6756 1003.9034 467.5646 998.043 441.7855 987.7845 443.4266 972.0442 433.11 961.0672 395.406 974.6462 395.5157 988.0337 386.5877 1000.482 390.6846 1029.6488 373.0089 1043.9746 346.3321 1059.8006 335.7127 1063.5391 321.4461 1054.951 281.7294 1060.2223 272.8569 1091.0806 249.0994 1095.9699 258.4952 1095.6335 289.6501 1089.8674 297.5513 1092.9186 325.5935 1113.7607 348.6962 1132.8456 339.3888 1149.5679 340.627 1151.0934 358.4135 1160.6838 372.5625 1144.4037 395.3236 1119.6912 437.0821 1108.5494 480.3231 Z M 970.6193 433.2582 956.2965 406.6084 958.7694 394.5035 960.4933 395.1806 970.6193 433.2582 Z" style="fill:#fc9272"/>
    <path d="M 543.8292 63.1837 537.5647 78.5907 589.0994 98.0965 600.4759 134.0103 631.5811 160.2139 621.1174 188.4442 610.1894 203.2036 615.61 219.1227 607.8802 222.7135 606.1492 245.9749 594.7504 253.1255 585.805 233.1837 577.4988 253.044 581.3189 268.7706 561.7589 319.8316 530.9151 339.7451 515.1579 363.1075 491.8099 365.7896 458.7706 321.0277 444.5661 318.8288 433.4799 330.1854 424.0213 302.7302 434.1803 288.0103 402.9131 245.3194 341.9448 162.3477 341.0687 149.3124 357.7641 151.1834 391.2442 141.4196 407.5106 129.8863 419.1521 134.6804 428.1928 120.3114 431.5394 100.5472 453.3748 89.436 501.1171 78.5235 508.5917 59.1157 528.9477 75.7581 543.8292 63.1837 Z" style="fill:#fb6a4a"/>
    <path d="M 970.3865 693.6516 982.9175 698.7881 999.5966 721.8284 1016.5934 736.8914 1032.9425 744.3418 1053.3282 739.3647 1068.1034 741.9433 1092.2222 756.1122 1106.0059 775.6273 1114.5582 798.5869 1090.296 797.7612 1094.6562 828.8479 1099.3997 836.9612 1084.9566 881.725 1081.8068 909.4112 1072.4249 926.8138 1052.9645 922.3222 1038.8277 934.4306 1044.733 958.7384 1034.7333 971.3046 1019.3087 971.265 986.3802 1001.4599 982.7133 1028.997 996.579 1052.3333 980.5765 1065.5903 942.441 1072.1331 929.6493 1059.8577 915.7424 1063.3383 915.5888 1038.8299 900.0234 1023.9933 886.6519 1038.2135 877.1449 1065.9575 870.3651 1065.6871 849.2985 966.6849 836.7107 904.2557 815.0586 881.2306 807.2396 866.2229 802.2144 841.1615 784.3217 839.6769 785.0298 809.2758 774.6785 806.6463 732.4782 769.3622 724.9988 744.9195 712.2104 737.2865 715.4033 725.9122 715.8042 723.8893 723.0469 709.1578 768.855 719.2211 795.4426 710.4086 810.8419 723.0447 810.6879 736.0859 828.077 742.6432 851.3381 732.4065 872.1405 709.0155 887.6532 701.6258 905.5064 719.2275 907.7205 695.2752 887.5963 683.819 894.1963 667.8294 911.5194 669.7418 938.9849 709.1522 947.7943 715.5898 970.3865 693.6516 Z" style="fill:#fb6a4a"/>
    <path d="M 609.5922 328.6549 612.0406 352.3835 634.9864 386.3964 642.5536 413.2836 642.4951 430.9588 653.27 433.2293 671.0031 463.4074 660.6358 471.9354 641.9339 472.4509 618.5074 462.4906 601.6693 446.0966 592.4965 412.8622 572.2348 417.4957 549.6847 406.8047 528.29 416.1364 491.8099 365.7896 515.1579 363.1075 530.9151 339.7451 561.7589 319.8316 596.445 322.1141 609.5922 328.6549 Z" style="fill:#fc9272"/>
    <path d="M 715.4033 725.9122 712.2104 737.2865 724.9988 744.9195 732.4782 769.3622 774.6785 806.6463 785.0298 809.2758 784.3217 839.6769 802.2144 841.1615 807.2396 866.2229 815.0586 881.2306 836.7107 904.2557 849.2985 966.6849 833.5523 955.4184 822.9578 960.3527 811.4381 945.452 782.7177 941.3124 775.9656 954.2916 762.223 957.3966 766.2534 973.6504 758.5432 984.5942 739.3142 994.6284 727.8321 987.6399 704.9898 1001.8635 709.7454 1015.6997 698.3236 1024.7871 689.2109 1045.6291 661.4939 1064.445 650.3552 1078.1099 639.5566 1079 628.2626 1055.9091 612.1161 1045.1009 588.1534 1040.5358 589.8151 1016.5676 577.283 991.8939 586.1254 986.9025 604.3237 981.6262 606.8394 962.6167 601.074 941.1044 611 928.8174 634.544 918.8082 651.8224 922.6108 643.3165 882.2167 645.1812 876.0318 635.1891 838.8051 630.9908 812.6612 622.8962 802.8343 639.8428 784.96 628.0328 767.7601 633.8783 745.9172 658.8422 716.8865 689.9365 718.0717 702.3518 727.3518 715.4033 725.9122 Z" style="fill:#fb6a4a"/>
    <path d="M 289.5312 362.0618 319.0323 375.2977 335.7372 390.6256 338.1225 421.6163 343.9633 427.6034 377.5092 409.8045 385.2762 419.3774 366.0717 428.4434 380.834 437.13 403.8121 431.5193 414.0468 420.8079 437.4457 425.5552 426.9252 447.283 438.4524 500.4495 426.2221 509.0337 422.3271 526.249 395.6123 526.3618 380.3269 505.1715 347.2969 514.493 328.7287 534.1285 322.4192 525.1426 278.7084 523.2939 265.9931 515.34 252.341 518.6505 229.4012 538.116 219.4258 521.791 204.1633 526.8921 171.3564 513.5683 193.9038 493.5958 199.3379 475.6558 211.598 465.0168 222.2645 446.4237 222.2291 436.0509 160.463 420.383 152.4431 406.0021 190.633 399.4562 192.8343 383.0724 219.571 366.3144 269.6979 353.7982 289.5312 362.0618 Z" style="fill:#fb6a4a"/>
    <path d="M 970.3865 693.6516 947.7943 715.5898 938.9849 709.1522 911.5194 669.7418 894.1963 667.8294 881.1465 665.0913 881.8837 648.5467 874.5711 632.3797 864.6337 628.1885 860.6261 603.5656 873.2141 593.9462 870.382 584.4003 832.0608 585.2594 814.6165 590.8744 807.8303 578.3496 819.5715 561.5128 839.9789 553.0279 849.6094 539.5307 841.7992 512.3999 854.0819 501.3074 871.5683 523.6996 885.9491 529.1069 912.2422 524.8784 941.1707 527.5219 971.8228 523.7092 982.0898 515.8047 998.0314 488.7978 1022.642 487.7252 1044.6914 482.3236 1046.782 545.669 1041.8204 568.87 996.7687 587.11 981.7096 606.5941 991.4237 652.4104 970.3865 693.6516 Z" style="fill:#fc9272"/>
    <path d="M 817.1138 375.4191 818.1012 397.2971 790.4452 393.8046 776.9009 413.0217 761.1279 415.6962 725.8215 430.6569 715.5381 455.5024 704.3599 458.6326 706.0076 449.1358 687.4809 435.0405 684.7833 424.9491 702.0422 413.5679 713.4633 374.7859 695.7703 368.5557 693.8022 352.539 672.5948 340.2488 686.4068 324.5682 683.5178 316.6704 719.2279 313.1658 744.1851 305.5609 748.7466 319.5826 775.3245 349.3257 795.4703 349.3702 814.9546 365.8257 817.1138 375.4191 Z" style="fill:#fc9272"/>
    <path d="M 466.9519 431.9474 469.8902 454.2542 490.7596 510.7117 509.1591 530.5371 540.8827 572.8499 539.867 598.8423 529.8797 605.2838 510.2124 605.0775 486.5246 593.7287 477.8086 582.2666 474.2641 559.4728 459.2697 538.5313 440.3973 542.7796 440.5762 518.2338 426.2221 509.0337 438.4524 500.4495 426.9252 447.283 437.4457 425.5552 457.1421 425.8631 466.9519 431.9474 Z" style="fill:#fb6a4a"/>
    <path d="M 776.8879 231.286 761.5171 255.9767 759.0174 279.4417 743.2989 298.9272 744.1851 305.5609 719.2279 313.1658 683.5178 316.6704 686.4068 324.5682 672.5948 340.2488 654.9459 324.7785 647.4964 311.6263 625.0077 318.2688 609.5922 328.6549 596.445 322.1141 561.7589 319.8316 581.3189 268.7706 577.4988 253.044 585.805 233.1837 594.7504 253.1255 606.1492 245.9749 607.8802 222.7135 615.61 219.1227 621.9378 216.4655 648.0558 224.0013 755.4621 222.6725 776.8879 231.286 Z" style="fill:#fc9272"/>
    <path d="M 341.0687 149.3124 341.9448 162.3477 402.9131 245.3194 373.9199 270.289 377.752 286.0887 347.1816 280.3361 326.8288 288.2796 304.3004 302.9156 311.7854 327.2235 299.2067 334.0677 301.6847 346.2667 289.5312 362.0618 269.6979 353.7982 219.571 366.3144 211.9941 345.2321 196.0034 277.4317 178.8951 241.1354 176.0584 211.1385 204.8647 204.5919 266.9008 174.5126 320.8327 138.1406 341.0687 149.3124 Z" style="fill:#fb6a4a"/>
    <path d="M 1364.1796 337.4813 1367.8484 358.6156 1384.2638 371.4872 1398.7525 399.6351 1394.9214 404.1554 1343.7775 409.5905 1338.8597 418.7467 1285.1637 427.1841 1282.4049 465.2129 1266.087 465.1696 1261.1466 436.0566 1238.4862 461.3119 1246.3443 491.5944 1220.9568 495.3126 1226.5367 514.4699 1202.5476 521.7785 1194.5893 538.919 1158.9525 545.5424 1150.0281 533.1398 1141.4065 498.94 1118.8684 481.7454 1108.5494 480.3231 1119.6912 437.0821 1144.4037 395.3236 1160.6838 372.5625 1151.0934 358.4135 1149.5679 340.627 1132.8456 339.3888 1113.7607 348.6962 1092.9186 325.5935 1089.8674 297.5513 1095.6335 289.6501 1095.9699 258.4952 1091.0806 249.0994 1089.9031 213.3811 1074.4755 183.5088 1103.8492 184.1086 1125.3699 189.1828 1144.7741 177.6664 1182.8858 179.169 1216.8086 161.6488 1238.7851 182.1052 1263.3792 198.9284 1283.4785 225.4422 1266.385 242.0723 1292.6785 247.4708 1293.096 268.9582 1312.8081 302.7894 1326.4931 341.5282 1364.1796 337.4813 Z" style="fill:#fc9272"/>
    <path d="M 176.0584 211.1385 178.8951 241.1354 196.0034 277.4317 211.9941 345.2321 219.571 366.3144 192.8343 383.0724 190.633 399.4562 152.4431 406.0021 160.463 420.383 222.2291 436.0509 222.2645 446.4237 211.598 465.0168 199.3379 475.6558 193.9038 493.5958 171.3564 513.5683 164.7515 518.8404 161.8572 543.1429 154.8492 559.4471 156.5426 581.9037 164.3137 592.8889 127.1253 614.5442 109.8845 637.0731 85.5996 628.9663 60.8801 622.8012 54.981 615.614 27.2439 611.9273 22.0681 603.5412 1 594.7646 7.2287 585.9799 19.3458 541.3315 33.6033 526.7324 44.3941 491.1937 33.9979 482.0703 29.7843 467.2931 35.3501 435.3547 24.5533 410.1192 39.2838 379.5105 54.6389 365.5544 45.5863 345.4347 43.5669 323.1138 34.3054 294.9155 17.8378 267.261 16.0926 247.1316 23.1996 239.8231 18.8271 216.6743 24.7214 196.164 16.5714 169.4441 31.1049 164.2098 37.1994 174.8965 68.602 201.7385 88.1103 213.5088 107.3015 193.949 119.3405 193.1556 154.6828 202.31 176.0584 211.1385 Z" style="fill:#fc9272"/>
    <path d="M 426.2221 509.0337 440.5762 518.2338 440.3973 542.7796 431.7724 550.8374 422.6564 585.7288 405.3888 587.6205 393.4115 574.6967 386.4169 556.6723 369.7007 545.1265 350.1651 551.9957 336.9186 575.9441 312.7309 591.4356 312.4729 604.7944 306.1169 624.1815 293.7564 631.3852 277.7684 624.2063 227.4557 625.8909 205.549 654.449 220.2771 665.8841 219.4242 680.8447 202.0421 704.2413 197.1023 719.3151 173.8734 718.9058 151.1464 692.6517 133.8222 702.1164 116.5099 697.2551 89.1981 677.3731 85.5996 628.9663 109.8845 637.0731 127.1253 614.5442 164.3137 592.8889 156.5426 581.9037 154.8492 559.4471 161.8572 543.1429 164.7515 518.8404 171.3564 513.5683 204.1633 526.8921 219.4258 521.791 229.4012 538.116 252.341 518.6505 265.9931 515.34 278.7084 523.2939 322.4192 525.1426 328.7287 534.1285 347.2969 514.493 380.3269 505.1715 395.6123 526.3618 422.3271 526.249 426.2221 509.0337 Z" style="fill:#fc9272"/>
    <path d="M 672.5948 340.2488 693.8022 352.539 695.7703 368.5557 713.4633 374.7859 702.0422 413.5679 684.7833 424.9491 687.4809 435.0405 706.0076 449.1358 704.3599 458.6326 689.2378 455.5737 671.0031 463.4074 653.27 433.2293 642.4951 430.9588 642.5536 413.2836 634.9864 386.3964 612.0406 352.3835 609.5922 328.6549 625.0077 318.2688 647.4964 311.6263 654.9459 324.7785 672.5948 340.2488 Z" style="fill:#fc9272"/>
    <path d="M 487.6202 438.4052 503.3954 443.3662 514.3533 468.1036 534.1702 485.6672 540.2575 507.9893 548.0254 518.6758 586.9199 518.7195 587.2882 540.4247 596.9304 551.4108 554.4793 561.5909 540.8827 572.8499 509.1591 530.5371 490.7596 510.7117 469.8902 454.2542 466.9519 431.9474 487.6202 438.4052 Z" style="fill:#fb6a4a"/>
    <path d="M 429.5311 692.1085 424.2889 700.7416 440.1322 767.3995 435.5918 785.059 448.3789 807.0555 439.5183 831.6382 412.8125 832.7899 367.8602 879.2857 360.1906 905.0395 341.7686 929.7799 338.1771 950.8998 316.4854 970.1894 298.5385 970.9655 302.2381 927.9365 297.8855 915.5283 309.1217 899.6322 318.181 875.5049 318.6054 857.4847 335.4024 836.0686 330.4707 815.3021 319.1195 795.4398 332.4183 778.6962 334.4777 739.7625 338.4792 721.5522 324.5082 703.5514 330.7896 693.0502 359.4011 708.1949 370.6529 725.0409 380.8593 720.5667 396.5949 700.1422 424.55 679.5515 429.5311 692.1085 Z" style="fill:#fc9272"/>
    <path d="M 804.5776 551.3731 817.2112 564.843 811.6147 574.6064 811.4366 574.8409 807.8303 578.3496 814.6165 590.8744 832.0608 585.2594 870.382 584.4003 873.2141 593.9462 860.6261 603.5656 864.6337 628.1885 874.5711 632.3797 881.8837 648.5467 881.1465 665.0913 894.1963 667.8294 887.5963 683.819 907.7205 695.2752 905.5064 719.2275 887.6532 701.6258 872.1405 709.0155 851.3381 732.4065 828.077 742.6432 810.6879 736.0859 810.8419 723.0447 795.4426 710.4086 768.855 719.2211 723.0469 709.1578 725.6192 692.5259 740.4101 678.895 740.3652 658.3696 750.1791 644.8741 769.0851 646.1125 768.3637 606.9296 761.2365 601.5321 756.8111 550.5697 759.4647 541.6818 791.8313 531.1014 804.5776 551.3731 Z" style="fill:#fb6a4a"/>
    <path d="M 612.913 727.4994 609.306 743.1923 633.8783 745.9172 628.0328 767.7601 639.8428 784.96 622.8962 802.8343 571.679 810.5506 555.8111 796.1083 533.3698 817.3038 513.3316 818.7638 497.9431 809.8217 484.1186 831.3331 448.3789 807.0555 435.5918 785.059 440.1322 767.3995 424.2889 700.7416 429.5311 692.1085 462.6856 677.1808 488.1015 678.342 530.6758 668.4332 528.9811 690.8442 537.7636 690.5221 544.0952 712.9207 577.7972 725.8646 580.6413 718.5054 606.1614 731.4777 612.913 727.4994 Z" style="fill:#fb6a4a"/>
    <path d="M 958.7694 394.5035 956.2965 406.6084 970.6193 433.2582 986.7198 444.584 998.0734 444.5716 1002.0815 472.8206 985.652 480.2723 967.6782 511.6626 943.0706 517.0736 917.3749 512.8685 893.1298 516.0547 875.0334 511.2397 856.3991 486.084 857.3922 474.4926 831.4477 459.4988 832.4903 451.5509 827.45 434.4934 810.481 415.5239 818.1012 397.2971 817.1138 375.4191 831.1835 379.8163 855.0612 374.658 879.2632 362.9183 887.5479 368.7942 922.2749 366.7927 915.031 349.1046 928.9323 342.3404 945.231 362.5079 957.8903 371.4645 958.7694 394.5035 Z" style="fill:#fb6a4a"/>
    <path d="M 881.6727 169.3891 912.151 202.5422 949.1871 227.4926 966.1937 233.8219 976.6952 227.5262 989.9086 234.4105 1002.6511 217.577 1043.1981 205.3277 1059.5689 189.1176 1074.4755 183.5088 1089.9031 213.3811 1091.0806 249.0994 1060.2223 272.8569 1054.951 281.7294 1063.5391 321.4461 1059.8006 335.7127 1043.9746 346.3321 1029.6488 373.0089 1000.482 390.6846 988.0337 386.5877 974.6462 395.5157 961.0672 395.406 960.4933 395.1806 958.7694 394.5035 957.8903 371.4645 945.231 362.5079 928.9323 342.3404 915.031 349.1046 922.2749 366.7927 887.5479 368.7942 879.2632 362.9183 870.0064 354.4683 877.0511 334.4272 874.4127 306.4404 867.7123 289.5621 866.9446 248.8421 880.6751 217.6376 869.2816 192.1507 881.6727 169.3891 Z" style="fill:#fc9272"/>
    <path d="M 475.3617 588.5363 459.4556 587.1668 458.9759 608.5638 426.4988 605.3042 416.2295 632.6523 435.7583 647.9459 445.1974 664.0226 424.55 679.5515 396.5949 700.1422 380.8593 720.5667 370.6529 725.0409 359.4011 708.1949 330.7896 693.0502 324.5082 703.5514 338.4792 721.5522 334.4777 739.7625 332.4183 778.6962 319.1195 795.4398 302.3518 800.2984 281.327 770.6105 250.4581 747.0067 219.4219 757.6093 199.9057 750.2192 204.89 725.2809 197.1023 719.3151 202.0421 704.2413 219.4242 680.8447 220.2771 665.8841 205.549 654.449 227.4557 625.8909 277.7684 624.2063 293.7564 631.3852 306.1169 624.1815 312.4729 604.7944 319.0718 589.8834 337.1318 579.4224 356.0931 553.3161 374.2424 550.222 386.7713 563.7336 394.2853 582.2716 408.0419 591.9483 422.2551 589.1611 431.8746 576.4458 433.7433 556.0455 455.3086 542.1684 467.7251 552.3872 475.3617 588.5363 Z" style="fill:#fc9272"/>
    <path d="M 791.8313 531.1014 759.4647 541.6818 756.8111 550.5697 761.2365 601.5321 768.3637 606.9296 769.0851 646.1125 750.1791 644.8741 740.3652 658.3696 740.4101 678.895 725.6192 692.5259 723.0469 709.1578 715.8042 723.8893 699.2144 700.409 686.3109 654.423 678.3081 634.7337 686.7606 626.0755 696.3006 602.8071 678.8376 581.2117 679.8683 574.3058 665.8601 550.4261 674.636 535.457 661.9487 524.9474 670.0115 507.3211 665.0681 490.3011 687.2499 490.6212 711.2415 497.0911 739.8509 511.1296 752.4817 510.1515 771.9683 494.3476 791.9482 501.2787 791.8313 531.1014 Z" style="fill:#fb6a4a"/>
    <path d="M 622.8962 802.8343 630.9908 812.6612 635.1891 838.8051 645.1812 876.0318 643.3165 882.2167 651.8224 922.6108 634.544 918.8082 611 928.8174 601.074 941.1044 606.8394 962.6167 604.3237 981.6262 586.1254 986.9025 559.0853 964.3517 556.9722 955.8712 535.071 935.7933 518.566 928.3319 492.5332 949.6929 490.7692 963.4574 479.4239 964.7499 464.7111 947.0891 485.5192 928.8834 469.6005 877.927 459.1321 868.8607 438.8961 866.6429 439.5183 831.6382 448.3789 807.0555 484.1186 831.3331 497.9431 809.8217 513.3316 818.7638 533.3698 817.3038 555.8111 796.1083 571.679 810.5506 622.8962 802.8343 Z" style="fill:#fc9272"/>
    <path d="M 818.1012 397.2971 810.481 415.5239 827.45 434.4934 832.4903 451.5509 830.319 459.9037 851.5651 474.069 833.7121 504.3708 840.4998 537.0556 825.0765 549.9028 810.1005 546.1146 799.3636 526.7539 797.5252 495.5374 770.9206 487.5256 746.549 505.1969 713.9151 491.8573 725.0011 485.19 715.5381 455.5024 725.8215 430.6569 761.1279 415.6962 776.9009 413.0217 790.4452 393.8046 818.1012 397.2971 Z" style="fill:#fc9272"/>
    <path d="M 881.6727 169.3891 869.2816 192.1507 880.6751 217.6376 866.9446 248.8421 867.7123 289.5621 874.4127 306.4404 877.0511 334.4272 870.0064 354.4683 879.2632 362.9183 855.0612 374.658 831.1835 379.8163 817.1138 375.4191 814.9546 365.8257 795.4703 349.3702 775.3245 349.3257 748.7466 319.5826 744.1851 305.5609 743.2989 298.9272 759.0174 279.4417 761.5171 255.9767 776.8879 231.286 787.0018 224.4453 787.1752 210.7598 803.1893 187.4724 820.2699 151.5735 825.2089 122.946 847.2899 134.8718 883.1653 136.6004 888.1674 154.0872 881.6727 169.3891 Z" style="fill:#fc9272"/>
  </g>
</svg>
