<?xml version="1.0" encoding="UTF-8" standalone="no"?>
<svg xmlns="http://www.w3.org/2000/svg" width="1200" height="457.143" id="svg2" version="1.1">
  <g id="g1003" transform="matrix(0.77716,0,0,0.77716,584.47267,-1195.1717)">
    <g id="Text" font-size="30" font-family="Verdana" fill="#000">
      <text x="-200" y="1626">
        <tspan x="-200" y="1626">2020-05-31</tspan>
      </text>
      <text x="-150" y="1676">
        <tspan x="-150" y="1676">&lt; 69</tspan>
      </text>
      <text x="-150" y="1726">
        <tspan x="-150" y="1726">≥ 69</tspan>
      </text>
      <text x="-150" y="1776">
        <tspan x="-150" y="1776">≥ 133</tspan>
      </text>
      <text x="-150" y="1826">
        <tspan x="-150" y="1826">≥ 239</tspan>
      </text>
      <text x="-150" y="1876">
        <tspan x="-150" y="1876">≥ 388</tspan>
      </text>
    </g>
    <g id="legend-boxes">
      <path d="m -200 1646 h 40 v 40 h -40 z" fill="#feebe2"/>
      <path d="m -200 1696 h 40 v 40 h -40 z" fill="#fbb4b9"/>
      <path d="m -200 1746 h 40 v 40 h -40 z" fill="#f768a1"/>
      <path d="m -200 1796 h 40 v 40 h -40 z" fill="#c51b8a"/>
      <path d="m -200 1846 h 40 v 40 h -40 z" fill="#7a0177"/>
    </g>
  </g>
  <g stroke="#000" stroke-width=".5">
    <path d="m 106.5,237.2 -1.1,0.3 -0.2,0.1 v -0.1 l 0.3,-0.4 -0.7,-0.2 -1.3,0.2 -0.6,0.2 -0.3,0.2 -0.6,0.2 -1.4,-0.4 -1.5,-0.7 -0.8,-0.5 -0.6,-0.8 -0.4,-1 -0.1,-1 v -2.9 l 0.3,-0.9 0.7,-0.4 3.6,0.2 1.2,-0.2 0.9,-1.1 0.9,-0.5 1.2,-0.2 1,0.2 -0.6,-1.2 -1.4,0.1 -1.3,0.7 -0.6,0.4 -1.5,-0.2 -0.3,-0.8 0.2,-1.4 v -1.5 l -0.6,-0.7 -2.9,-2 -1,-1 -1.1,-0.8 -1.3,-0.2 -1.3,0.8 -0.6,-1.2 -0.5,-1.8 -0.2,-1.8 0.3,-0.7 -0.8,-0.3 -0.3,-0.7 v -0.9 l -0.3,-0.9 -0.6,-0.6 -0.6,-0.1 -0.2,-0.4 0.3,-1.2 0.5,-1.5 0.2,-0.8 v -1 l 0.3,-0.8 1.1,-0.8 0.2,-0.8 0.2,-1.6 1,-3.7 0.8,-1.5 -0.9,0.3 -1.1,-0.3 -0.8,-0.7 -0.4,-1.1 0.2,-1.1 0.6,-1.1 0.7,-0.5 0.9,0.5 0.4,-0.8 0.4,-0.6 0.6,-0.6 0.5,-0.3 -1.3,-0.3 -1.3,0.5 h -0.9 l -0.4,-1.6 -0.2,-2.8 0.6,-0.7 1.6,-0.2 v -0.4 H 93 l -0.9,-0.4 0.5,-0.8 -0.2,-0.3 -1.1,-0.4 -0.6,-0.1 -0.3,0.2 -0.3,-0.1 -0.3,-0.8 -0.1,-0.8 0.5,-1 -0.1,-0.6 -0.3,-0.1 -0.5,-0.1 -0.5,-0.2 -0.2,-0.8 -0.6,0.4 -0.6,0.1 H 86 l -0.6,-0.3 0.3,-0.5 0.6,-0.4 h 0.3 V 177 l -0.2,-0.3 -0.5,-0.1 -0.6,-0.6 -0.6,-0.3 -0.6,0.2 -0.6,0.3 -0.4,0.4 -0.7,-0.8 -0.3,-0.7 -0.2,-0.8 -0.4,-0.8 -1.4,-1.6 -0.3,-1.2 -0.9,-2 -0.5,-0.8 -0.4,-1.3 0.1,-0.5 h 0.2 l 0.2,0.1 0.3,-0.2 0.6,-0.6 0.6,-0.5 0.2,-0.3 h 0.1 l 4.3,-1 0.6,-0.1 0.7,0.3 0.5,1.5 0.3,0.5 h 0.2 l 0.7,0.3 0.5,0.4 0.4,0.2 0.5,0.1 h 0.3 l 0.3,-0.1 0.2,-0.1 0.1,-0.1 0.8,-1 0.9,-0.7 0.1,-0.1 0.1,-0.2 0.2,-0.8 0.3,-0.5 4.1,-3.6 0.2,-0.3 v -0.1 l 0.1,-0.2 0.2,-0.8 0.4,-1 0.2,-0.2 0.2,-0.2 1.4,-1 0.3,-0.3 0.2,-0.2 0.1,-0.2 0.1,-0.7 0.5,-1 0.4,-0.3 2,-0.3 1.4,-0.4 0.6,-0.2 0.4,-0.2 0.8,-0.8 0.2,-0.3 0.2,-0.4 0.1,-0.3 0.4,-1.7 v -0.5 -0.4 -0.5 l 0.3,-2.2 0.3,-0.8 0.2,-0.3 0.4,-0.7 0.3,-0.3 h 0.2 0.2 l 0.2,0.3 0.3,-0.1 0.4,-0.2 0.7,-0.7 0.4,-0.6 0.3,-0.8 0.3,-0.7 v -0.3 -0.4 l 0.1,-1 V 138 l -0.1,-0.2 v -0.2 l -0.2,-0.1 -0.2,-0.1 -0.2,-0.1 h -0.1 l -0.2,-0.2 -0.1,-0.3 -0.1,-0.4 0.1,-0.3 0.1,-0.1 0.5,-0.5 0.4,-0.5 0.3,-0.3 0.7,-0.5 0.2,-0.2 0.1,-0.2 0.8,-3.3 v -0.3 l -0.1,-0.2 -0.1,-0.1 -0.1,-0.1 -0.5,-0.3 -0.2,-0.1 -0.1,-0.4 -0.3,-0.2 -0.1,-0.2 -0.2,-1 0.1,-0.1 0.1,-0.2 h 0.2 0.2 0.4 l 0.4,0.6 0.7,1.4 0.4,0.4 0.6,0.2 h 1 l 0.6,0.1 1.3,0.9 1.1,1.2 0.9,1.5 0.6,1.4 1,0.4 1.6,-0.5 2.6,-1.6 0.9,-0.8 0.7,-1 0.5,-1.2 0.2,-1.3 0.7,-2.6 1.8,-0.9 2.2,-0.4 2.2,-1 2,-1.3 8.1,-3.2 1.4,-0.3 1.2,0.3 0.9,1.2 0.3,0.7 0.3,0.4 0.4,0.3 0.7,0.1 0.5,0.2 v 0.5 l -0.1,0.6 -0.1,0.5 1.1,2.6 0.9,1 1.2,0.2 0.6,-0.3 0.2,0.3 -0.1,3 -0.2,0.8 -0.2,0.1 -0.6,0.5 -0.4,0.4 -0.4,0.5 -0.1,0.3 v 0.3 0.4 0.2 l 0.1,0.6 -0.1,0.7 0.1,0.4 v 0.3 l 0.2,0.1 0.1,0.2 0.5,0.2 0.1,0.3 0.1,0.3 0.2,0.7 v 0.3 l -0.1,0.3 -0.2,0.6 -0.4,0.8 -0.3,1 -0.1,0.4 0.1,0.2 0.2,0.1 h 0.2 0.4 0.2 l 0.2,0.1 0.5,0.3 h 0.2 0.2 l 0.2,-0.1 0.3,-0.1 0.2,-0.1 h 0.1 0.2 l 0.3,0.2 0.2,0.1 h 0.2 0.2 l 0.3,0.2 0.3,0.4 0.1,0.5 v 0.3 0.3 0.2 l -0.1,0.2 -0.2,0.4 -0.1,0.5 v 0.5 l 0.2,0.6 0.1,0.4 v 0.3 l -0.2,0.6 -0.1,1.6 0.3,0.8 -0.1,0.3 -0.1,0.3 -0.2,0.2 -0.7,0.5 -0.2,0.1 -0.2,0.1 h -0.2 -0.3 l -0.2,-0.1 h -0.2 -0.3 -0.3 l -0.4,0.2 -0.3,0.2 -0.4,0.4 -0.2,0.1 -0.1,-0.1 -0.6,-0.4 -0.4,-0.1 -0.5,-0.1 h -0.4 l -0.2,-0.1 -0.2,-0.1 -0.4,-0.5 -0.4,-0.1 h -0.2 l -0.1,0.1 -0.1,0.1 -0.2,0.2 -0.3,0.3 -0.8,0.5 -0.3,0.3 -0.2,0.3 v 0.2 l 0.1,0.2 v 0.2 l -0.1,0.3 -0.2,0.4 -1,0.7 -0.2,0.2 -0.1,0.5 -0.2,0.3 -0.2,0.1 h -0.2 -0.3 -0.4 l -0.2,0.1 -0.1,0.2 v 0.5 l -0.1,0.3 -0.3,0.6 -0.1,0.3 v 0.9 0.2 l -0.2,0.3 -0.8,1.2 -0.1,0.2 -0.1,0.2 -0.2,0.9 v 0.5 0.5 l -0.2,0.4 v 0.2 l 0.1,0.5 v 0.2 0.3 l -0.1,0.2 -0.2,0.4 -0.1,0.2 v 0.3 0.2 0.3 l -0.1,0.4 -0.7,1.2 -0.1,0.4 -0.1,0.4 v 0.5 l -0.1,0.9 -0.1,0.2 -0.2,0.3 -0.1,0.3 v 0.2 l -0.1,0.6 v 0.4 l -0.2,0.3 -0.2,0.2 -0.9,0.7 0.5,1 0.6,0.6 0.2,0.3 0.4,2.3 -0.1,0.3 v 0.4 l -0.6,1.7 -0.2,0.3 -0.2,0.1 -0.4,0.1 h -0.2 l -0.5,0.1 -0.1,0.1 -0.2,0.1 -0.3,0.6 -0.3,0.2 v 0.2 0.2 l 0.4,0.9 0.1,0.5 v 0.3 0.3 l -0.2,0.1 -0.1,0.2 -0.2,0.3 -0.2,0.6 -0.1,0.3 -0.2,0.2 h -0.3 l -0.2,0.1 -0.3,0.2 -0.1,0.2 v 0.2 0.2 l 0.1,0.2 0.1,0.7 v 0.7 0.3 l -0.2,0.2 h -0.2 -0.2 -0.2 -0.2 l -0.1,0.1 -0.2,0.1 H 135 l -0.2,0.1 h -0.2 l -0.7,1.1 1.1,1.6 0.4,0.8 0.5,1.6 -0.8,2.2 -0.1,0.9 0.1,0.4 0.3,1.2 v 0.1 l 0.1,0.2 0.6,0.5 0.2,0.6 0.1,0.3 -0.1,0.2 -0.2,0.1 -0.2,0.1 -0.1,0.2 -0.5,1 -0.2,0.5 -0.1,0.3 -0.2,0.2 -0.1,0.1 -0.4,0.4 -0.5,0.8 0.8,0.5 0.6,1 0.2,0.2 h 0.3 l 0.4,-0.1 2.6,0.8 0.7,0.2 0.2,0.1 0.2,0.1 v 0.2 0.2 0.2 l -0.2,0.3 v 0.2 l -0.2,0.4 -0.2,0.3 -0.1,0.2 -0.1,0.2 0.1,0.3 0.2,0.2 0.4,0.2 0.2,0.2 0.2,0.6 0.1,2.3 0.3,0.7 0.3,0.2 0.2,0.3 0.1,0.3 v 0.2 l -0.1,0.3 -0.1,0.3 -0.1,0.7 0.1,0.3 0.1,0.2 0.2,0.1 0.5,0.2 0.8,0.2 0.2,0.1 0.5,0.1 0.3,0.2 0.1,0.2 v 0.1 l -0.3,0.3 v 0.4 0.7 l 0.4,1.5 0.2,0.6 0.2,0.4 h 0.2 l 0.5,-0.3 h 0.1 0.2 l 0.4,0.3 0.3,0.1 0.5,0.6 1.4,1.9 -1.2,3.4 -0.2,1 0.1,0.2 v 0.1 l 0.6,0.6 0.1,0.5 0.4,4.2 0.3,1 0.2,0.3 0.4,0.5 0.3,0.5 v 0.4 0.7 l -0.2,2.3 v 0.5 l 0.1,0.3 0.2,0.1 h 0.3 l 0.4,0.2 0.6,0.9 -1,0.3 -0.2,0.2 -0.2,0.2 -0.2,0.3 -2,2.6 -1.2,1.2 -0.5,0.4 -0.5,0.2 -0.3,0.1 h -0.3 -0.2 l -0.2,-0.1 -0.1,-0.1 -0.1,-0.1 -0.3,-0.6 -0.2,-0.1 -0.1,-0.1 -0.4,-0.2 -0.1,-0.1 -0.2,-0.1 -0.1,-0.2 -0.1,-0.1 -0.1,-0.1 -0.2,-0.2 -0.5,-0.1 -0.1,-0.1 -0.1,-0.1 -0.1,-0.1 -0.3,-0.7 -0.1,-0.2 -0.4,-0.5 -0.2,-0.2 -0.1,-0.1 h -0.2 l -0.7,-0.1 -0.4,-0.1 -0.4,-0.2 -0.1,-0.2 -0.2,-0.1 -0.2,-0.2 H 137 l -0.1,-0.1 -0.2,-0.1 -0.1,-0.2 -0.1,-0.1 -0.1,-0.2 v -0.2 l -0.2,-0.3 -0.2,-0.2 -0.6,-0.2 -0.4,-0.1 -0.8,0.1 -0.4,0.1 -0.3,0.1 -0.1,0.1 -0.1,0.1 -0.1,0.2 -0.1,0.2 -0.1,0.4 -0.1,0.2 v 0.1 0.2 l 0.1,0.1 0.4,0.4 0.1,0.2 0.2,0.7 0.3,1 0.1,1 -0.5,0.8 -1.3,0.7 -0.5,0.2 -1.4,0.3 h -0.9 -0.2 l -0.2,-0.1 -0.2,-0.1 -0.1,-0.2 -0.1,-0.1 -0.1,-0.4 -0.1,-0.2 v -0.2 -0.2 -0.3 -0.1 -0.5 l -0.5,-0.3 h -0.4 l -0.8,0.4 h -0.2 l -0.2,-0.1 -0.3,-0.4 -0.3,-0.2 -0.3,-0.1 -0.1,0.1 -0.5,0.2 -0.4,0.2 -0.2,-0.1 -0.2,-0.1 -0.4,-0.6 -0.1,-0.2 -0.2,-0.2 h -0.2 l -0.2,0.1 -0.1,0.2 h -0.1 -0.2 l -0.1,-0.1 -0.1,-0.2 0.1,-0.4 -0.1,-0.2 -0.5,-0.4 h -0.2 l -0.2,0.1 v 0.2 l -0.1,0.2 -0.1,0.2 -0.8,0.4 h -0.3 l -0.3,-0.2 h -0.2 -0.3 L 119,244 h -0.1 v -0.1 l 0.1,-0.4 v -0.2 -0.2 -0.1 l 0.1,-0.1 h 0.3 l 0.5,0.1 0.2,-0.1 0.1,-0.1 v -0.1 l -0.1,-0.2 -0.2,-0.2 -0.2,-0.2 v -0.1 -0.4 l -0.1,-0.2 -0.2,-0.1 -0.1,0.1 -0.1,0.2 -0.1,0.1 -0.2,0.1 -0.1,0.1 -0.3,0.2 -0.2,0.1 -0.2,0.4 -0.2,0.1 h -0.1 v -0.2 l -0.1,-0.2 v -0.2 -0.4 -0.6 l -0.1,-0.3 -0.2,-0.1 -0.1,0.1 -0.6,0.1 h -0.4 l -0.2,-0.1 -0.2,-0.2 -0.1,-0.3 -0.2,-0.2 -0.2,-0.1 h -0.2 l -0.1,0.1 -0.3,0.1 -0.1,0.1 h -0.1 -0.4 -0.1 l -0.2,0.1 -0.1,0.1 -0.1,0.2 v 0.2 l -0.1,0.4 -0.1,0.1 -0.2,0.1 -0.4,0.1 h -0.2 l -0.2,-0.1 -0.1,-0.1 -0.1,-0.2 v -0.2 -0.2 l 0.1,-0.4 0.2,-0.3 0.2,-0.3 0.1,-0.2 -0.1,-0.2 -0.2,-0.3 -1.5,-0.9 -0.1,-0.1 v -0.2 -0.2 l 0.1,-0.2 v -0.1 l 0.1,-0.2 v -0.3 l -0.2,-0.3 -0.2,-0.1 h -0.2 -0.4 l -1.7,0.5 z" fill="#fbb4b9"/>
    <path fill="#feebe2" d="m 75.4,146.5 0.8,0.5 0.6,0.6 -1.1,1.9 -0.2,2.2 -0.2,1.1 -1.4,2.6 -0.2,1 -3.1,-0.6 -2.3,0.1 -0.1,0.1 v 0.1 l -0.2,0.1 -0.3,-0.1 -0.2,-0.3 -0.1,-0.3 0.8,-0.4 0.2,-0.8 -0.3,-3 0.1,-2.7 -0.1,-0.5 -0.3,-0.5 -0.3,-0.3 -0.1,-0.3 0.1,-0.5 0.2,-0.5 0.1,-0.4 -0.4,-0.4 0.7,-0.2 0.3,0.3 0.3,0.5 0.5,0.3 0.5,-0.2 0.3,-0.4 0.3,-0.4 0.3,-0.2 1.1,-0.3 1.1,0.1 1.1,0.3 1,0.7 z m 9.2,17.1 -4.3,1 h -0.1 l 0.3,-0.4 0.4,-1.9 0.9,-1.8 0.1,-1.1 -0.1,-0.7 -0.6,-1.1 -0.1,-0.4 0.1,-0.7 0.6,-1 0.1,-0.6 -0.2,-0.8 -1.3,-2.6 -1.2,-1.6 -0.3,-0.8 -0.1,-1.3 0.4,-4.9 -0.4,-1.3 -1.3,-2.3 -0.1,-0.4 8.3,0.5 0.9,0.2 1,0.4 -0.3,0.7 -0.1,0.5 -0.1,3.4 1,11.8 1,6.6 v 0.3 l -0.1,0.2 -0.1,0.2 -0.2,0.2 -0.1,0.1 h -0.2 l -0.7,0.1 -1.8,-0.3 -0.7,-0.3 z"/>
    <path fill="#feebe2" d="m 47.9,98.5 0.3,0.3 -0.4,0.3 -0.1,0.5 -0.5,0.6 -0.1,0.4 0.1,0.7 0.5,1.1 0.1,0.6 v 0.4 l -0.2,0.7 -0.3,0.5 -0.2,0.4 -0.7,0.1 -0.4,-0.3 -0.3,-0.4 -1.3,-0.7 0.3,-1.2 1.2,-2.1 0.4,-1 0.8,-0.6 0.8,-0.3 4.7,-4.7 -0.1,-1.1 -0.3,-0.7 -0.5,-0.4 -0.7,-0.4 0.4,-0.4 -1.2,-0.5 -0.7,-0.6 -0.4,-0.8 -0.4,-1.2 -0.4,-0.6 -0.1,-0.2 -0.6,0.5 0.1,0.4 0.3,0.5 -0.2,0.6 -0.3,0.2 -1.6,0.6 -0.1,0.2 v 0.2 0.2 l -0.3,0.1 -0.4,0.1 -0.8,-0.1 -2.4,0.8 -0.5,-1.4 -1.4,0.1 -1.7,0.4 -1.4,-0.6 v 2.1 l 0.3,1 0.5,0.8 0.8,0.5 1.9,0.7 0.8,0.7 0.2,0.8 0.2,1.9 0.3,0.9 0.6,0.5 h 0.4 l 0.6,-0.3 1,-0.2 0.9,-0.5 1,-1.8 0.9,-0.4 0.8,0.3 1.2,0.7 0.9,0.3 0.4,-0.8 0.3,-0.5 0.5,-0.4 0.5,-0.4 0.5,-0.3 0.3,-0.4 v -0.2 l -0.1,-0.3 v -0.6 z m 38.7,41.1 -0.9,-0.2 -8.3,-0.5 -0.2,-0.9 -0.4,-4.8 0.5,0.2 0.7,0.2 0.7,-0.1 0.5,-0.3 v -0.6 l -0.4,-0.3 -0.5,-0.3 -0.3,-0.2 0.6,-6.7 -1.5,-11.5 -0.5,-1 -0.8,-1.1 -0.7,-1.3 -1,-2.5 -2.1,-3.8 -0.7,-2.2 -0.9,-0.9 -1.8,-1.3 -0.1,-0.1 0.5,-0.5 0.2,-0.7 v -0.6 l 0.1,-0.2 0.1,-0.2 6.3,-7.1 0.6,-0.5 1.3,-0.9 0.3,-0.2 0.1,-0.3 0.6,-2.5 V 85.2 85 l 0.1,-0.8 0.6,0.2 1.2,0.4 1,0.1 1.5,-0.2 0.8,0.2 1.9,1.4 1,0.4 3.5,1 1.9,0.9 1.1,0.3 1,-0.2 3.7,-2.6 h 0.9 l 0.1,0.3 v 1.3 l 0.2,0.5 0.5,0.4 h 0.5 0.6 l 0.6,0.1 1.3,0.8 0.6,1.1 0.1,2.7 0.2,0.6 0.2,0.7 0.7,1.1 0.1,0.5 -0.1,0.5 -0.2,0.6 -0.1,0.5 v 1.6 l 0.2,0.5 0.4,0.8 h 0.3 l 0.3,-0.4 0.7,-0.2 0.8,0.1 2.3,0.6 1.1,-0.3 1.5,-1.6 1.1,-0.2 1.9,1.5 0.9,0.3 2.6,-0.6 0.7,0.3 0.4,0.7 0.2,1.2 -0.1,1.4 -0.6,0.5 -0.7,0.3 -0.8,1 v 1.3 l 0.9,0.8 1.1,0.8 0.4,1.2 -0.3,2.2 -0.1,3.3 -0.4,1.8 -0.1,1.1 -0.5,1.1 -1,0.3 -1.2,0.3 -0.9,0.6 -2.4,4.7 -0.4,0.7 -0.1,0.6 0.1,0.7 0.3,0.5 h -0.4 -0.2 -0.2 l -0.1,0.2 -0.1,0.1 0.2,1 0.1,0.2 0.3,0.2 0.1,0.4 0.2,0.1 0.5,0.3 0.1,0.1 0.1,0.1 0.1,0.2 v 0.3 l -0.8,3.3 -0.1,0.2 -0.2,0.2 -0.7,0.5 -0.3,0.3 -0.4,0.5 -0.5,0.5 -0.1,0.1 -0.1,0.3 0.1,0.4 0.1,0.3 0.2,0.2 h 0.1 l 0.2,0.1 0.2,0.1 0.2,0.1 v 0.2 l 0.1,0.2 v 0.3 l -0.1,1 v 0.4 0.3 l -0.3,0.7 -0.3,0.8 -0.4,0.6 -0.7,0.7 -0.4,0.2 -0.3,0.1 -0.2,-0.3 h -0.2 -0.2 l -0.3,0.3 -0.4,0.7 -0.2,0.3 -0.3,0.8 -0.3,2.2 v 0.5 0.4 0.5 l -0.4,1.7 -0.1,0.3 -0.2,0.4 -0.2,0.3 -0.8,0.8 -0.4,0.2 -0.6,0.2 -1.4,0.4 -2,0.3 -0.4,0.3 -0.5,1 -0.1,0.7 -0.1,0.2 -0.2,0.2 -0.3,0.3 -1.4,1 -0.2,0.2 -0.2,0.2 -0.4,1 -0.2,0.8 -0.1,0.2 v 0.1 l -0.2,0.3 -4.1,3.6 -0.3,0.5 -0.2,0.8 -0.1,0.2 -0.1,0.1 -0.9,0.7 -0.8,1 -0.1,0.1 -0.2,0.1 -0.3,0.1 H 89 l -0.5,-0.1 -0.4,-0.2 -0.5,-0.4 -0.7,-0.3 h -0.2 l -0.3,-0.5 -0.5,-1.5 1.8,0.3 0.7,-0.1 h 0.2 l 0.1,-0.1 0.2,-0.2 0.1,-0.2 0.1,-0.2 V 163 l -1,-6.6 -1,-11.8 0.1,-3.4 0.1,-0.5 0.3,-0.7 z"/>
    <path d="M 69.2,98.2 69,98.9 68.5,99.4 67.1,97.7 65.9,95.2 65,92.5 64.6,90.1 64.4,89 l 0.5,-0.9 0.5,-1.2 0.2,-1.5 v -0.5 l -0.2,-0.9 0.1,-0.6 0.3,-0.6 0.6,-0.4 0.3,-0.5 -0.1,-0.8 -0.5,-1.3 v -1 l 0.3,-2.3 0.1,-1.3 0.2,-0.6 0.3,-0.5 0.9,-0.3 0.5,0.3 0.4,0.5 0.5,0.3 h 0.8 v -0.1 l 0.9,-0.5 0.5,-0.1 0.7,0.1 0.6,0.2 0.4,0.4 2.1,6.4 0.7,1.1 1.1,1 1.6,0.8 -0.1,0.8 v 0.2 0.5 l -0.6,2.5 -0.1,0.3 -0.3,0.2 -1.3,0.9 -0.6,0.5 -6.3,7.1 -0.1,0.2 -0.1,0.2 z" fill="#fbb4b9"/>
    <path d="m 300.8,367.3 -0.4,-2.4 -0.4,-0.8 0.3,-0.5 -0.4,-0.8 -0.7,-0.8 -0.4,-0.8 v -1.9 l -0.3,-0.8 -1.1,-1.5 -0.5,-2.6 -1.6,-2.8 h -0.4 l -0.7,0.5 -0.7,-0.6 -0.7,-1.2 -0.2,-1.2 0.1,-2.5 -0.1,-1.1 -0.4,-1.3 -0.4,-0.6 -1.2,-1.4 -0.4,-0.6 -0.6,-1.4 -1.1,-1.4 -1.4,-3.6 -2.7,-3.3 -0.4,-1.2 0.1,-0.7 0.6,-1.1 0.1,-0.5 -0.2,-0.7 -1,-1.3 -0.4,-0.6 -0.1,-0.6 V 324 l -0.3,-0.6 -0.4,-0.3 -1.2,-1 -0.5,-0.4 -4.3,-5.4 -0.4,-1 0.1,-1.1 0.5,-1.3 -1.5,-3.3 -0.7,-0.9 -2,-1.5 -0.2,-0.5 0.2,-0.5 -0.1,-0.4 -0.9,-0.4 -1.3,0.7 -0.6,0.1 -0.6,-0.2 -0.9,-0.8 -0.3,-0.2 h -1 l -0.9,-0.2 -0.6,-0.3 -0.2,0.4 -0.5,0.8 -0.1,0.1 -1.3,0.6 -0.2,0.3 v 0.3 l 0.1,0.1 0.1,0.1 0.5,0.3 0.1,0.1 0.1,0.1 0.2,0.2 0.1,0.2 0.1,0.2 v 0.1 0.2 l -0.1,0.4 -0.1,0.2 -0.1,0.2 -0.1,0.1 -0.2,0.2 -0.1,0.2 -0.1,0.1 v 0.2 l 0.3,0.8 v 0.1 0.1 l -0.1,0.1 -0.3,0.4 -0.1,0.2 -0.2,0.4 v 0.1 0.1 0.1 l 0.1,0.2 0.1,0.1 0.2,0.1 0.5,0.1 0.2,0.1 0.2,0.1 0.2,0.3 0.2,0.3 0.1,0.3 0.1,0.4 v 0.2 0.4 0.2 l -0.1,0.2 -0.6,0.8 -0.1,0.2 -0.1,0.1 v 0.2 l 0.1,0.2 v 0.2 l -0.2,0.1 -0.5,-0.2 -8.1,-4.8 -0.2,-0.2 -0.3,-0.4 -0.5,-0.5 -0.2,-0.3 -3.3,-1.2 -0.7,-0.5 -0.7,-0.4 h -0.8 l -2.4,0.5 -8.6,3.2 h -0.2 l -0.3,-0.1 -9,-3.7 -2,-1.6 -8.1,-9.8 -0.8,-0.4 -3,-1.3 -2.5,-0.8 -0.3,1.7 -3.2,8.5 -0.5,1.5 v 0.3 0.3 l 0.2,0.5 0.2,0.4 v 0.2 0.2 l -0.4,0.4 -0.2,0.2 -0.2,0.4 -0.3,0.8 -0.2,0.5 -0.1,0.6 0.1,0.3 v 0.3 l 0.1,0.3 0.1,0.4 v 0.3 l -0.3,0.7 -0.1,0.3 0.1,0.7 0.2,0.5 v 0.2 0.3 l -0.2,0.2 -0.7,0.9 -0.2,0.5 -0.1,1.5 -1.2,0.8 -1.4,0.6 -0.4,0.3 -1.2,1.5 -0.2,0.5 -0.2,0.4 0.1,0.2 0.1,0.6 v 0.2 l -0.1,0.4 -1.1,3 -0.1,0.7 v 0.2 0.2 l 0.1,0.4 v 0.3 0.4 l -0.1,0.2 -0.1,0.2 -0.9,0.8 -0.1,0.3 v 0.2 l 0.2,0.3 0.1,0.4 0.1,0.1 0.2,0.1 0.4,0.1 0.9,0.4 0.3,0.2 h 0.2 l 0.4,0.1 0.2,0.1 0.1,0.1 0.1,0.3 0.1,0.5 -0.1,1.2 -0.2,0.4 -0.2,0.3 h -0.2 l -0.6,-0.1 -0.6,0.3 -0.9,1.5 2.1,1.3 1.1,0.8 0.7,0.7 v 0.2 l 0.2,0.3 -0.1,0.2 -0.5,0.1 0.4,0.7 0.6,0.7 4.7,3.7 1,1.1 1.1,2.5 0.7,1.1 1.3,0.7 h 1 l 2.8,-0.4 0.9,-0.4 1.8,0.9 1.6,1 1.4,1.2 1.1,1.3 0.9,1.5 0.6,0.6 1,0.2 1.3,0.1 1.3,0.4 2.3,1.1 9.7,6 6.8,2.6 2.4,1.5 1.6,1.9 1,2.2 1.9,6.2 0.5,1.1 0.8,1.1 2,1.7 0.7,1.1 0.8,-1.9 1,-1.6 0.2,-0.6 -0.1,-0.5 -0.3,-0.8 v -0.7 l 0.2,-0.2 0.4,0.4 0.4,0.6 0.2,0.2 2,0.4 1.7,-1.4 2.9,-3.6 1,-0.6 h 0.8 l 2.3,0.2 1.2,-0.3 2.3,-1.2 1.5,-0.1 4.9,2.5 2.8,0.7 2,-1.6 0.1,-0.9 -0.1,-0.9 -0.2,-0.8 -0.2,-0.8 0.3,-1.6 v -0.8 l -2.2,-3.4 -0.5,-1.5 0.3,-0.7 1.3,0.9 1.3,2 1.8,3.7 0.4,1.1 0.2,0.4 0.4,-0.3 1.9,-1.4 1,-0.5 1,-0.3 1.1,0.2 -1.4,1.6 -2.1,0.9 -1.6,1 0.3,2.1 0.6,0.5 0.8,0.6 0.7,0.6 0.3,0.8 -0.1,1.1 0.1,0.6 0.4,0.3 2.3,1 1.2,0.2 2.6,0.1 0.2,-0.2 0.6,-0.8 0.3,-0.2 h 2.2 l 0.3,-0.9 -0.2,-2.5 0.5,-0.5 0.4,-0.6 -0.1,-1.4 c -0.17541,-2.00702 -0.97272,-3.92118 -1.7,-5.8 z" fill="#f768a1"/>
    <path d="m 154.2,130.9 0.1,-3 -0.2,-0.3 1,-0.9 0.7,-0.2 0.8,0.2 0.4,0.6 0.4,0.7 0.5,0.6 1.2,0.6 0.9,-0.1 0.7,-0.7 0.4,-1.2 0.4,-0.3 1.6,-1.1 0.4,-0.5 0.2,-0.5 0.3,-0.5 0.6,-0.4 1.8,-1.6 0.4,-2.2 v -2.4 l 0.9,-2.4 1.4,-1.7 4.2,-3.2 1.6,-1.5 0.6,-1.9 -0.3,-4.4 0.4,-3 1.5,1 3,2.1 0.7,0.3 1.3,-0.3 0.3,-0.7 -0.5,-0.5 -0.9,0.3 0.6,-0.9 1.2,0.1 6.7,2.4 1.3,0.8 2.4,2.5 6.8,13.4 1.2,1.5 1.2,1 -0.1,0.1 -2.1,2.6 -4.4,4.1 -2,2.1 -0.3,0.7 0.8,3.2 0.1,0.4 0.2,0.5 v 0.4 l -0.1,0.9 v 3.1 0.2 l -0.1,0.1 -0.5,0.3 v 0.6 l 0.4,3.4 v 0.9 l -0.1,0.5 -0.2,0.1 v 0.2 l 0.1,0.3 0.9,1.2 1.3,1 0.2,0.3 0.1,0.5 -0.3,1.5 -0.7,1.4 v 0.2 l -0.2,1.3 -0.1,3.3 0.1,0.9 v 0.2 0.2 l -0.1,0.4 -0.3,1 v 0.2 l 0.1,0.2 0.4,0.2 0.8,0.2 0.2,0.1 0.2,0.2 0.2,0.1 0.2,0.1 h 0.3 0.2 l 0.2,0.1 0.3,0.3 0.4,0.2 0.2,0.1 0.8,0.9 0.2,0.2 0.3,0.2 h 0.2 l 0.1,0.1 0.2,0.2 0.6,0.6 0.4,0.3 0.1,0.2 -0.1,0.2 -0.2,0.4 -0.1,0.1 -0.1,0.2 v 0.2 l -0.1,0.2 h -0.1 l -0.5,0.1 -0.1,0.1 -0.1,0.2 v 0.3 l 0.7,2.8 -0.1,0.3 -0.1,0.2 h -0.2 l -0.2,0.1 -0.1,0.1 -0.1,0.2 -0.1,0.1 v 0.1 0.1 0.1 l 0.1,0.2 0.1,0.5 0.5,1.6 0.1,0.9 -0.1,0.5 -0.1,1.1 0.1,0.2 0.3,0.3 0.6,0.3 0.3,-0.1 0.2,-0.1 0.1,-0.1 0.1,-0.1 0.2,-0.1 h 0.2 l 0.2,0.1 1.4,0.6 2.9,2 0.2,0.1 0.4,0.1 0.2,0.2 0.1,0.3 0.1,0.8 0.1,0.5 0.3,0.4 0.2,0.2 0.1,0.3 0.5,1.2 0.1,0.4 -0.3,0.9 -1.1,-0.1 -0.5,-0.1 -0.6,-0.5 -0.2,-0.1 h -0.2 l -0.2,0.1 -0.3,0.3 -0.1,0.3 v 0.2 0.3 0.2 l -0.1,0.2 -0.2,0.3 -0.1,0.2 v 0.2 0.2 l 0.1,0.1 0.2,0.4 v 0.1 l 0.2,0.9 v 0.5 0.2 l -0.1,0.2 -0.1,0.1 h -0.3 l -0.7,-0.1 -0.9,-0.1 -0.2,-0.1 -0.2,-0.1 -0.1,-0.1 -0.2,-0.2 -0.1,-0.1 H 203 l -0.2,0.1 -0.2,0.2 -0.3,0.4 -0.1,0.2 -0.1,0.1 -0.3,0.2 -0.1,0.1 -0.4,0.3 -0.4,0.3 -0.2,0.1 h -0.3 l -0.5,-0.1 -0.3,-0.1 -0.2,-0.2 -0.5,-0.4 -1,-0.6 -0.3,-0.2 -0.3,-0.5 -0.1,-0.1 -0.3,-0.1 h -0.3 -0.5 -0.3 l -0.3,-0.1 -0.4,-0.1 -0.3,-0.1 h -0.3 l -0.8,0.2 -0.5,0.2 -0.5,0.4 -0.1,0.3 0.1,0.2 0.1,0.1 v 0.2 0.2 l -0.1,0.2 -0.7,0.8 -0.5,0.5 -0.1,0.2 -0.4,0.7 -0.2,0.1 h -0.4 l -1,-0.1 -0.4,-0.1 -0.3,-0.2 -1.1,-0.7 h -0.3 l -0.5,0.1 -1.2,0.3 -0.4,0.2 -0.2,0.1 -0.6,0.8 -1.1,-0.2 -0.2,-0.1 -0.3,-0.1 -0.1,-0.2 -0.1,-0.3 -0.1,-0.2 -0.2,-0.1 -0.1,-0.1 H 182 l -0.2,-0.1 -0.1,-0.2 -0.1,-0.1 v -0.2 l -0.1,-0.3 v -0.2 l -0.1,-0.2 -0.1,-0.1 -0.3,-0.4 -2.1,-1.6 -0.1,-0.1 -0.1,-0.2 v -0.2 -0.5 -0.2 l -0.4,-0.8 -0.1,-0.2 -0.1,-0.1 -0.5,0.1 -3.1,1.3 h -0.6 l -0.4,-0.2 -0.3,-0.3 h -0.1 l -0.2,-0.1 h -0.2 -0.2 l -0.2,-0.1 -0.5,-0.7 -0.2,-0.1 -0.1,-0.1 h -0.1 l -0.2,0.1 -0.3,0.3 -0.2,0.2 h -0.4 l -0.2,-0.1 -0.1,-0.2 -0.2,-0.3 h -0.2 l -0.3,0.1 -0.4,0.5 -0.1,0.3 v 0.3 0.2 l 0.1,0.2 v 0.5 l -0.1,0.4 -0.5,2.6 -0.2,0.3 -0.1,0.2 -0.7,0.6 -0.3,0.4 -0.2,0.4 v 0.2 l -0.1,0.2 v 0.7 l -0.1,0.1 -0.2,0.1 -0.4,-0.2 -0.2,-0.1 -0.1,-0.2 -0.1,-0.2 -0.3,-0.7 v -0.2 -0.2 l 0.1,-0.4 v -0.3 -0.2 l -0.1,-0.2 v -0.1 l -0.2,-0.2 -0.1,-0.1 -1,-0.6 -0.3,-0.2 -0.1,-0.1 -0.2,-0.1 h -0.3 l -0.2,-0.1 -0.1,-0.2 v -0.2 -0.2 l -0.1,-0.3 v -0.1 l -0.1,-0.2 -0.2,-0.1 -0.1,-0.2 h -0.2 l -0.4,-0.1 h -0.3 l -0.1,-0.1 -0.1,-0.1 -0.1,-0.2 v -0.3 -0.5 -0.4 l -0.1,-0.2 -0.1,-0.2 -0.1,-0.2 -0.1,-0.1 h -0.3 -0.3 -0.5 l -0.3,0.1 -0.2,0.2 -0.2,0.3 -0.2,0.5 v 0.4 l 0.1,1.4 -0.1,0.2 -0.2,1.4 0.1,1.2 -0.1,0.4 -0.2,0.8 -0.1,0.2 -0.1,0.2 -0.2,0.1 -0.4,0.2 -1.3,0.3 -0.3,0.1 -0.5,0.6 -0.4,0.2 -1.7,1 -0.5,0.3 -0.3,0.3 -0.1,0.3 -0.4,0.4 -0.3,0.2 -0.4,0.2 -1.3,0.3 h -0.3 l -0.3,-0.2 -0.4,-0.2 -0.9,0.1 -0.6,-0.5 -0.4,-0.5 -0.3,-0.1 -0.8,-0.3 -0.3,-0.1 -0.1,-0.2 -0.2,-0.1 -0.2,-0.2 -0.4,-0.1 -0.7,-0.1 -0.7,0.1 -0.3,0.2 -0.2,0.1 -0.7,0.1 -0.2,0.2 -0.1,0.2 v 0.2 0.2 l -0.1,0.3 -0.1,0.1 h -0.4 l -0.7,-0.1 -0.7,-0.6 -0.2,-0.2 -0.8,-0.7 -0.7,-0.3 -2.3,-0.5 -0.5,-1.6 -0.4,-0.8 -1.1,-1.6 0.7,-1.1 h 0.2 l 0.2,-0.1 h 0.2 l 0.2,-0.1 0.1,-0.1 h 0.2 0.2 0.2 0.2 l 0.2,-0.2 v -0.3 -0.7 l -0.1,-0.7 -0.1,-0.2 v -0.2 -0.2 l 0.1,-0.2 0.3,-0.2 0.2,-0.1 h 0.3 l 0.2,-0.2 0.1,-0.3 0.2,-0.6 0.2,-0.3 0.1,-0.2 0.2,-0.1 v -0.3 -0.3 l -0.1,-0.5 -0.4,-0.9 v -0.2 -0.2 l 0.3,-0.2 0.3,-0.6 0.2,-0.1 0.1,-0.1 0.5,-0.1 h 0.2 l 0.4,-0.1 0.2,-0.1 0.2,-0.3 0.6,-1.7 v -0.4 l 0.1,-0.3 -0.4,-2.3 -0.2,-0.3 -0.6,-0.6 -0.5,-1 0.9,-0.7 0.2,-0.2 0.2,-0.3 v -0.4 l 0.1,-0.6 v -0.2 l 0.1,-0.3 0.2,-0.3 0.1,-0.2 0.1,-0.9 v -0.5 l 0.1,-0.4 0.1,-0.4 0.7,-1.2 0.1,-0.4 v -0.3 -0.2 -0.3 l 0.1,-0.2 0.2,-0.4 0.1,-0.2 v -0.3 -0.2 l -0.1,-0.5 v -0.2 l 0.2,-0.4 v -0.5 -0.5 l 0.2,-0.9 0.1,-0.2 0.1,-0.2 0.8,-1.2 0.2,-0.3 v -0.2 -0.9 l 0.1,-0.3 0.3,-0.6 0.1,-0.3 v -0.5 l 0.1,-0.2 0.2,-0.1 h 0.4 0.3 0.2 l 0.2,-0.1 0.2,-0.3 0.1,-0.5 0.2,-0.2 1,-0.7 0.2,-0.4 0.1,-0.3 v -0.2 l -0.1,-0.2 v -0.2 l 0.2,-0.3 0.3,-0.3 0.8,-0.5 0.3,-0.3 0.2,-0.2 0.1,-0.1 0.1,-0.1 h 0.2 l 0.4,0.1 0.4,0.5 0.2,0.1 0.2,0.1 h 0.4 l 0.5,0.1 0.4,0.1 0.6,0.4 0.1,0.1 0.2,-0.1 0.4,-0.4 0.3,-0.2 0.4,-0.2 h 0.3 0.3 0.2 l 0.2,0.1 h 0.3 0.2 l 0.2,-0.1 0.2,-0.1 0.7,-0.5 0.2,-0.2 0.1,-0.3 0.1,-0.3 -0.3,-0.8 0.1,-1.6 0.2,-0.6 v -0.3 l -0.1,-0.4 -0.2,-0.6 v -0.5 l 0.1,-0.5 0.2,-0.4 0.1,-0.2 v -0.2 -0.3 -0.3 l -0.1,-0.5 -0.3,-0.4 -0.3,-0.2 h -0.2 -0.2 l -0.2,-0.1 -0.3,-0.2 h -0.2 -0.1 l -0.2,0.1 -0.3,0.1 -0.2,0.1 h -0.2 -0.2 l -0.5,-0.3 -0.2,-0.1 h -0.2 -0.4 -0.2 l -0.2,-0.1 -0.1,-0.2 0.1,-0.4 0.3,-1 0.4,-0.8 0.2,-0.6 0.1,-0.3 v -0.3 l -0.2,-0.7 -0.1,-0.3 -0.1,-0.3 -0.5,-0.2 -0.1,-0.2 -0.2,-0.1 v -0.3 l -0.1,-0.4 0.1,-0.7 -0.1,-0.6 v -0.2 -0.4 -0.3 l 0.1,-0.3 0.4,-0.5 0.4,-0.4 0.6,-0.5 0.2,-0.1 z" fill="#fbb4b9"/>
    <path d="m 200.9,335.7 -0.6,0.3 -0.9,1.5 -8,-3.2 -9.2,-3.8 -1.9,-1.1 -1.6,-1.3 -4.3,-4.7 -0.7,-0.3 -1.2,-0.3 -1.1,-0.6 -0.7,-0.9 0.1,-0.8 1.8,-1 0.5,-0.5 1,-1.2 0.2,0.4 0.1,0.2 0.2,0.1 h 0.1 l 0.2,-0.1 0.2,-0.5 0.2,-0.1 0.1,-0.2 h 0.1 l 0.1,-0.2 v -0.6 -0.1 l 0.1,-0.1 0.2,-0.1 h 0.2 l 1.1,0.3 h 0.4 l 2.4,-0.7 0.3,-0.1 0.2,-0.1 0.9,-1 0.2,-0.2 h 0.1 l 0.2,0.1 1,0.5 1.5,0.6 2.3,0.5 0.5,-0.1 3.8,-1.3 0.6,-0.1 1.8,0.1 3.3,1.4 0.8,0.5 8.2,1.9 -1.2,0.8 -1.4,0.6 -0.4,0.3 -1.2,1.5 -0.2,0.5 -0.2,0.4 0.1,0.2 0.1,0.6 v 0.2 l -0.1,0.4 -1.1,3 -0.1,0.7 v 0.2 0.2 l 0.1,0.4 v 0.3 0.4 l -0.1,0.2 -0.1,0.2 -0.9,0.8 -0.1,0.3 v 0.2 l 0.2,0.3 0.1,0.4 0.1,0.1 0.2,0.1 0.4,0.1 0.9,0.4 0.3,0.2 h 0.2 l 0.4,0.1 0.2,0.1 0.1,0.1 0.1,0.3 0.1,0.5 -0.1,1.2 -0.2,0.4 -0.2,0.3 h -0.2 z" fill="#f768a1"/>
    <path d="m 173.1,319 -0.5,0.5 -1.8,1 v -0.2 l -0.9,-0.2 -1,-0.4 -1.6,-1 -1.1,0.7 -1.8,0.1 -0.7,0.8 -0.4,-1.4 -0.1,-1.8 -0.3,-1.6 -0.9,-0.7 -0.4,-0.2 -0.6,-0.4 -0.8,-0.9 -1.2,-3.4 -0.4,-0.6 -0.8,-0.3 -2.3,-0.2 0.1,-1.4 0.4,-0.7 0.3,-0.5 0.1,-0.4 0.1,-1 0.1,-0.3 0.5,-0.8 1.3,-3 -0.1,-2.3 -0.6,-3.5 v -0.8 -0.5 l 0.1,-0.1 0.8,-0.1 h 0.5 l 1.7,0.1 2.1,0.4 h 0.2 l 0.4,-0.1 0.4,-0.2 0.7,-0.5 0.3,-0.3 0.2,-0.3 0.1,-0.6 0.2,-1.4 0.3,-1 0.2,-0.3 0.1,-0.2 0.1,-0.2 1.1,-0.7 0.2,-0.2 0.1,-0.2 0.1,-0.4 v -0.3 -0.4 l 0.1,-0.8 0.3,-0.7 0.1,-0.4 0.2,-0.2 0.1,-0.1 0.5,-0.2 0.3,-0.2 0.1,-0.2 0.1,-0.2 -0.1,-0.4 -0.2,-0.8 -0.1,-0.9 -0.1,-0.9 0.1,-0.8 0.3,-1.8 -0.1,-0.4 v -0.2 l -0.1,-0.4 -0.1,-0.2 -0.1,-0.2 -0.4,-0.6 -0.2,-0.5 v -0.3 l -0.1,-0.2 0.2,-1.5 v -0.2 l -0.1,-0.2 -0.1,-0.4 -0.4,-0.7 -0.2,-0.5 -0.2,-0.3 -0.1,-0.2 -0.3,-0.1 -0.4,-0.1 0.3,-0.2 0.2,-0.1 0.1,-0.1 0.1,-0.2 0.1,-0.2 v -0.2 l 0.1,-0.1 0.1,-0.2 0.4,0.1 0.5,0.2 1.1,0.7 0.4,0.4 0.2,0.4 v 0.2 l 0.1,0.2 0.1,0.2 0.1,0.1 0.3,0.1 0.3,0.3 0.1,0.1 0.2,0.2 h 0.2 l 0.4,0.1 1,0.1 0.8,-0.1 h 0.2 l 0.2,0.2 0.3,0.3 0.2,0.2 0.2,0.7 0.1,0.1 v 0.2 l 0.1,0.2 v 0.7 0.2 l 0.1,0.2 0.2,0.1 h 0.3 l 0.5,-0.1 0.5,-0.3 0.5,-0.3 0.1,-0.1 h 0.2 l 0.6,-0.1 0.2,-0.1 0.1,-0.2 0.1,-0.1 h 0.4 l 0.5,0.1 2.3,1.2 7.1,2.3 0.5,0.1 4.3,0.7 0.4,0.2 2.3,2.5 0.1,0.2 1.7,2.1 11.5,7.9 0.2,0.1 h 0.1 0.2 l 0.2,-0.1 0.1,-0.1 0.2,-0.1 0.1,-0.1 0.4,0.6 0.6,2.7 -0.3,1.7 -3.2,8.5 -0.5,1.5 v 0.3 0.3 l 0.2,0.5 0.2,0.4 v 0.2 0.2 l -0.4,0.4 -0.2,0.2 -0.2,0.4 -0.3,0.8 -0.2,0.5 -0.1,0.6 0.1,0.3 v 0.3 l 0.1,0.3 0.1,0.4 v 0.3 l -0.3,0.7 -0.1,0.3 0.1,0.7 0.2,0.5 v 0.2 0.3 l -0.2,0.2 -0.7,0.9 -0.2,0.5 -0.1,1.5 -8.2,-1.9 -0.8,-0.5 -3.3,-1.4 -1.8,-0.1 -0.6,0.1 -3.8,1.3 -0.5,0.1 -2.3,-0.5 -1.5,-0.6 -1,-0.5 -0.2,-0.1 h -0.1 l -0.2,0.2 -0.9,1 -0.2,0.1 -0.3,0.1 -2.4,0.7 h -0.4 l -1.1,-0.3 h -0.2 l -0.2,0.1 -0.1,0.1 v 0.1 0.6 l -0.1,0.2 h -0.1 l -0.1,0.2 -0.2,0.1 -0.2,0.5 -0.2,0.1 h -0.1 l -0.2,-0.1 -0.1,-0.2 -0.2,-0.4 z" fill="#7a0177"/>
    <path fill="#c51b8a" d="m 156,306.7 -0.4,0.7 -0.1,1.4 h -0.4 l -0.8,-0.5 -0.5,-0.6 -1,-0.7 -3.2,-0.5 -1.1,-0.6 -2,-0.3 -1.2,-0.5 -2.3,-1.6 -1.3,-1.6 -2.8,-4.3 -1.8,-1.6 -2.5,-0.5 -2.6,-0.3 -1.3,-0.9 0.9,-2.6 -1.2,-0.2 0.1,-0.7 2.8,-3.5 0.8,-0.8 0.9,-0.3 0.6,-0.6 v -1.5 l -0.4,-2.8 -0.4,-0.7 -1.6,-1.3 -0.4,-0.7 -1.2,-7.4 -0.3,-1.2 -0.8,-0.9 -2,-1.7 -0.2,-0.4 -0.2,-0.5 -0.3,-0.5 -1.2,-0.2 -0.5,-0.3 -0.5,-0.3 -0.2,-0.3 -0.4,-0.9 -2.7,-3.6 -1.8,-1.8 -0.4,-0.5 -0.4,-1.3 -1.2,-1.6 -0.5,-2.6 -0.4,-1.2 -1,-1.2 -4.1,-2.9 -1.4,-0.6 -0.6,-0.4 -0.3,-0.4 -0.9,-1.6 -1.5,-1.8 -1,-0.7 -2.6,-0.4 -0.6,-0.6 v -1 l 0.6,-1.4 1,-0.8 0.2,-0.1 1.1,-0.3 2,-0.2 1.7,-0.5 h 0.4 0.2 l 0.2,0.1 0.2,0.3 v 0.3 l -0.1,0.2 v 0.1 l -0.1,0.2 v 0.2 0.2 l 0.1,0.1 1.5,0.9 0.2,0.3 0.1,0.2 -0.1,0.2 -0.2,0.3 -0.2,0.3 -0.1,0.4 v 0.2 0.2 l 0.1,0.2 0.1,0.1 0.2,0.1 h 0.2 l 0.4,-0.1 0.2,-0.1 0.1,-0.1 0.1,-0.4 v -0.2 l 0.1,-0.2 0.1,-0.1 0.2,-0.1 h 0.1 0.4 0.1 l 0.1,-0.1 0.3,-0.1 0.1,-0.1 h 0.2 l 0.2,0.1 0.2,0.2 0.1,0.3 0.2,0.2 0.2,0.1 h 0.4 l 0.6,-0.1 0.1,-0.1 0.2,0.1 0.1,0.3 v 0.6 0.4 0.2 l 0.1,0.2 v 0.2 h 0.1 l 0.2,-0.1 0.2,-0.4 0.2,-0.1 0.3,-0.2 0.1,-0.1 0.2,-0.1 0.1,-0.1 0.1,-0.2 0.1,-0.1 0.2,0.1 0.1,0.2 v 0.4 0.1 l 0.2,0.2 0.2,0.2 0.1,0.2 v 0.1 l -0.1,0.1 -0.2,0.1 -0.5,-0.1 h -0.3 L 119,243 v 0.1 0.2 0.2 l -0.1,0.4 v 0.1 h 0.1 l 0.4,-0.4 h 0.3 0.2 l 0.3,0.2 h 0.3 l 0.8,-0.4 0.1,-0.2 0.1,-0.2 v -0.2 l 0.2,-0.1 h 0.2 l 0.5,0.4 0.1,0.2 -0.1,0.4 0.1,0.2 0.1,0.1 h 0.2 0.1 l 0.1,-0.2 0.2,-0.1 h 0.2 l 0.2,0.2 0.1,0.2 0.4,0.6 0.2,0.1 0.2,0.1 0.4,-0.2 0.5,-0.2 0.1,-0.1 0.3,0.1 0.3,0.2 0.3,0.4 0.2,0.1 h 0.2 l 0.8,-0.4 h 0.4 l 0.5,0.3 v 0.5 0.1 0.3 0.2 0.2 l 0.1,0.2 0.1,0.4 0.1,0.1 0.1,0.2 0.2,0.1 0.2,0.1 h 0.2 0.9 l 1.4,-0.3 0.5,-0.2 1.3,-0.7 0.5,-0.8 -0.1,-1 -0.3,-1 -0.2,-0.7 -0.1,-0.2 -0.4,-0.4 -0.1,-0.1 v -0.2 -0.1 l 0.1,-0.2 0.1,-0.4 0.1,-0.2 0.1,-0.2 0.1,-0.1 0.1,-0.1 0.3,-0.1 0.4,-0.1 0.8,-0.1 0.4,0.1 0.6,0.2 0.2,0.2 0.2,0.3 v 0.2 l 0.1,0.2 0.1,0.1 0.1,0.2 0.2,0.1 0.1,0.1 h 0.2 l 0.2,0.2 0.2,0.1 0.1,0.2 0.4,0.2 0.4,0.1 0.7,0.1 h 0.2 l 0.1,0.1 0.2,0.2 0.4,0.5 0.1,0.2 0.3,0.7 0.1,0.1 0.1,0.1 0.1,0.1 0.5,0.1 0.2,0.2 0.1,0.1 0.1,0.1 0.1,0.2 0.2,0.1 0.1,0.1 0.4,0.2 0.1,0.1 0.2,0.1 0.3,0.6 0.1,0.1 0.1,0.1 0.2,0.1 h 0.2 0.3 l 0.3,-0.1 0.5,-0.2 0.5,-0.4 1.2,-1.2 2,-2.6 0.2,-0.3 0.2,-0.2 0.2,-0.2 1,-0.3 1.6,2.6 0.8,0.6 0.3,0.2 1,0.5 0.3,0.1 h 0.2 0.4 0.3 l 1.1,0.5 1.9,1.1 0.4,0.3 0.2,0.5 0.1,0.2 0.2,0.3 0.1,0.1 0.1,0.2 0.1,0.2 0.2,0.6 0.8,1.1 0.6,0.9 v 0.5 l -0.4,1.7 -0.1,0.3 -0.1,0.2 -0.1,0.1 -0.2,0.1 -0.4,0.1 -0.1,0.1 -0.2,0.1 -1,1.9 -0.2,0.5 v 0.4 0.2 0.2 l 0.1,0.2 0.1,0.2 0.4,0.6 0.1,0.3 0.1,0.2 0.4,1.9 v 0.3 l -0.1,0.2 -0.5,0.9 -0.6,1.6 3.7,4.8 0.2,0.1 0.2,0.1 0.6,0.1 2.1,1.1 h 0.3 l 1.5,0.2 0.4,0.1 0.3,0.1 0.1,0.2 0.2,0.3 0.2,0.5 0.4,0.7 0.1,0.4 0.1,0.2 v 0.2 l -0.2,1.5 0.1,0.2 v 0.3 l 0.2,0.5 0.4,0.6 0.1,0.2 0.1,0.2 0.1,0.4 v 0.2 l 0.1,0.4 -0.3,1.8 -0.1,0.8 0.1,0.9 0.1,0.9 0.2,0.8 0.1,0.4 -0.1,0.2 -0.1,0.2 -0.3,0.2 -0.5,0.2 -0.1,0.1 -0.2,0.2 -0.1,0.4 -0.3,0.7 -0.1,0.8 v 0.4 0.3 l -0.1,0.4 -0.1,0.2 -0.2,0.2 -1.1,0.7 -0.1,0.2 -0.1,0.2 -0.2,0.3 -0.3,1 -0.2,1.4 -0.1,0.6 -0.2,0.3 -0.3,0.3 -0.7,0.5 -0.4,0.2 -0.4,0.1 h -0.2 l -2.1,-0.4 -1.7,-0.1 h -0.5 l -0.8,0.1 -0.1,0.1 v 0.5 0.8 l 0.6,3.5 0.1,2.3 -1.3,3 -0.5,0.8 -0.1,0.3 -0.1,1 -0.1,0.4 z m -22.5,-23.5 0.1,0.7 -0.2,1.3 -0.7,0.7 -1.1,0.5 -0.9,0.6 -0.3,0.3 -0.4,0.3 -0.4,0.1 -0.1,-0.4 0.1,-0.6 1.4,-3.4 0.8,-1.2 1,-0.5 0.7,0.4 0.1,0.8 z m -3.9,0.5 -0.5,0.3 -0.9,0.2 -0.4,-0.5 0.5,-0.8 1,-0.4 0.5,0.6 z"/>
    <path d="m 200.2,125.3 2.1,-2.6 0.1,-0.1 0.5,0.4 3,1.8 1.3,1.1 1.2,1.4 0.7,1.8 0.6,0.9 1.5,0.7 10.3,8.1 2.4,1.2 2.4,0.5 0.9,0.6 3,2.6 5.3,5.9 5.8,9.2 2,4.8 5.7,9.5 3.3,6.1 0.4,1.1 0.2,0.4 1,1.2 0.3,0.6 v 0.6 l -0.4,1.7 0.1,1.3 0.5,2.4 1,8.6 -0.1,1.3 -0.5,1.1 -0.4,1.2 0.7,2.5 -0.1,0.8 1.8,5.3 0.2,1.8 -0.2,0.6 -0.8,2 -0.4,0.7 -0.4,0.3 -0.8,1 -0.2,0.4 v 0.5 l 0.4,1.5 -0.4,0.6 -0.3,0.2 -0.3,-0.1 -0.3,-0.2 -0.8,-0.2 -4.2,-0.1 -0.2,-0.1 -0.2,-0.1 -0.1,-0.1 -0.1,-0.1 -0.1,-0.1 -0.2,-0.1 -0.5,-0.2 h -0.1 v 0.2 l 0.2,1.1 v 0.3 l 0.1,0.8 v 0.5 l -0.1,0.4 v 0.2 l -0.1,0.2 -0.2,0.4 -0.1,0.1 -0.3,0.2 -0.1,0.2 -0.1,0.2 -0.2,1.3 v 0.2 0.2 l 0.1,0.5 v 0.2 l 0.1,0.1 0.1,0.2 0.2,0.1 0.3,0.2 0.2,0.1 0.1,0.1 0.1,0.2 0.1,0.3 0.1,0.5 v 0.2 l -0.1,0.3 -0.1,0.4 -0.1,0.4 v 0.2 l 0.1,0.2 0.1,0.3 v 0.1 l 0.5,0.9 0.5,1.5 v 0.2 0.3 0.2 l -0.1,0.6 -0.2,0.4 -0.2,0.4 -0.3,0.3 -0.1,0.2 -0.2,0.1 -0.1,0.1 -0.1,0.2 v 0.1 l 0.1,1.3 v 0.2 l -0.1,0.1 -0.3,-0.1 -0.4,-0.3 -0.2,-0.3 -0.1,-0.2 -0.5,-1.3 -0.2,-0.3 -0.7,-0.6 -0.1,-0.3 v -0.2 l 0.1,-0.4 v -0.2 -0.2 l -0.1,-0.2 -0.2,-0.3 -0.9,-0.9 -0.5,-0.6 -0.2,-0.3 -0.1,-0.3 v -0.1 l -0.1,-0.8 -0.1,-0.2 -0.2,-0.1 h -0.5 l -0.2,0.1 -0.2,0.2 H 241 l -0.2,-0.1 -0.2,-0.3 -0.2,-0.2 -0.1,-0.2 v -0.4 l -0.1,-0.2 -0.2,-0.1 -0.3,0.1 -0.4,0.2 h -0.2 l -0.4,-0.1 -1.3,-0.9 -0.4,-0.2 -0.3,-0.2 -0.2,-0.1 -0.2,-0.4 -0.1,-0.1 -0.2,-0.1 -0.1,-0.1 -0.1,-0.2 -0.1,-0.2 -0.1,-0.2 -0.1,-0.1 -0.2,-0.1 -0.1,-0.1 -2,-0.7 -0.4,-0.3 -0.3,-0.2 -0.2,-0.2 -0.3,-0.2 -1.6,-0.3 -0.8,-0.3 -0.1,-0.1 -0.2,-0.1 -0.3,-0.2 -0.8,0.1 -3.1,1.3 -0.6,0.1 -0.2,-0.1 -0.2,-0.1 -0.1,-0.1 -0.2,-0.1 -0.2,-0.3 -0.6,-0.9 v -0.3 l 0.1,-0.2 0.7,-1 0.1,-0.2 0.1,-0.4 0.2,-0.8 v -0.5 l -0.1,-1 0.5,-2.2 0.2,-1 V 213 l 0.1,-0.3 0.3,-0.4 0.5,-0.5 0.2,-0.3 0.3,-0.9 0.1,-0.3 0.3,-0.3 0.5,-0.4 0.3,-0.2 0.3,-0.1 h 0.3 0.2 l 0.5,0.1 h 0.1 0.4 l 0.2,-0.2 V 209 l -0.3,-0.9 v -0.3 l 0.2,-0.5 0.4,-0.8 0.3,-0.8 V 205 l -0.4,-0.1 -0.1,-0.2 -0.1,-0.4 -0.1,-0.6 -0.1,-0.2 -0.1,-0.3 -1.9,-1.8 -0.3,-0.1 h -0.3 l -0.1,0.1 -0.2,0.1 -0.1,0.1 -0.1,0.2 -0.1,0.4 v 0.2 l -0.2,0.1 h -0.2 l -0.1,-0.1 -0.4,-0.3 -0.1,-0.1 -0.2,-0.1 -0.2,-0.1 h -0.7 -0.2 -0.5 -0.1 -0.2 l -0.8,-0.1 -0.2,-0.1 -0.2,-0.2 -0.4,-0.6 -0.4,-0.4 -0.5,-0.3 -0.2,-0.3 -0.2,-0.4 -0.2,-1.1 -0.2,-0.5 v -0.5 l 0.1,-0.5 0.2,-0.2 0.1,-0.2 0.2,-0.1 0.6,-0.2 0.1,-0.1 0.2,-0.1 0.1,-0.1 0.1,-0.2 v -0.2 l 0.1,-1.3 0.1,-0.2 0.2,-0.1 0.1,-0.3 v -0.3 l -0.2,-0.7 -0.1,-0.4 -0.2,-0.4 -0.1,-0.2 -0.5,-0.6 -1,-1 -0.9,-0.2 -1.6,0.1 h -1 l -1,-0.1 -0.4,-0.1 -0.3,-0.1 -1.1,-0.3 -0.6,-0.3 -1,-0.8 -0.9,-0.5 -0.5,-0.6 -1.2,-2.3 0.3,-0.9 -0.1,-0.4 -0.5,-1.2 -0.1,-0.3 -0.2,-0.2 -0.3,-0.4 -0.1,-0.5 -0.1,-0.8 -0.1,-0.3 -0.2,-0.2 -0.4,-0.1 -0.2,-0.1 -2.9,-2 -1.4,-0.6 -0.2,-0.1 h -0.2 l -0.2,0.1 -0.1,0.1 -0.1,0.1 -0.2,0.1 -0.3,0.1 -0.6,-0.3 -0.3,-0.3 -0.1,-0.2 0.1,-1.1 0.1,-0.5 -0.1,-0.9 -0.5,-1.6 -0.1,-0.5 -0.1,-0.2 v -0.1 -0.1 -0.1 l 0.1,-0.1 0.1,-0.2 0.1,-0.1 0.2,-0.1 h 0.2 l 0.1,-0.2 0.1,-0.3 -0.7,-2.8 v -0.3 l 0.1,-0.2 0.1,-0.1 0.5,-0.1 h 0.1 l 0.1,-0.2 v -0.2 l 0.1,-0.2 0.1,-0.1 0.2,-0.4 0.1,-0.2 -0.1,-0.2 -0.4,-0.3 -0.6,-0.6 -0.2,-0.2 -0.1,-0.1 H 200 l -0.3,-0.2 -0.2,-0.2 -0.8,-0.9 -0.2,-0.1 -0.4,-0.2 -0.3,-0.3 -0.2,-0.1 h -0.2 -0.3 l -0.2,-0.1 -0.2,-0.1 -0.2,-0.2 -0.2,-0.1 -0.8,-0.2 -0.4,-0.2 -0.1,-0.2 v -0.2 l 0.3,-1 0.1,-0.4 v -0.2 -0.2 l -0.1,-0.9 0.1,-3.3 0.2,-1.3 v -0.2 l 0.7,-1.4 0.3,-1.5 -0.1,-0.5 -0.2,-0.3 -1.3,-1 -0.9,-1.2 -0.1,-0.3 v -0.2 l 0.2,-0.1 0.1,-0.5 v -0.9 l -0.4,-3.4 v -0.6 l 0.5,-0.3 0.1,-0.1 v -0.2 -3.1 l 0.1,-0.9 v -0.4 l -0.2,-0.5 -0.1,-0.4 -0.8,-3.2 0.3,-0.7 2,-2.1 z" fill="#fbb4b9"/>
    <path d="m 924.8,156.2 -1.4,0.8 0.1,-0.8 1.6,-4.5 0.5,-0.5 1.6,-1.5 0.9,-0.4 0.4,1.2 0.6,2.9 v 1.4 l -1,1 h -0.5 l -1.2,-0.7 -0.4,0.1 z" fill="#f768a1"/>
    <path d="m 1158.6,153 -0.5,1.9 -0.1,0.9 0.3,2.7 -0.2,1.4 -1.3,1.2 -2.8,3 -2.2,1.3 -10.5,3.7 -10.6,3.1 -2.1,1.3 -1.3,0.6 -1.4,0.4 -1.2,0.1 -0.9,-0.2 -1.8,-0.8 -1.7,-0.2 -1.1,-0.4 h -0.8 l -0.7,0.3 -1.6,1.3 -1.3,0.8 -0.5,-0.1 -0.8,-0.5 -0.3,-0.4 -1,-1.8 -2,-2.2 -1.8,-1 -1.2,-0.3 -0.5,0.3 -0.6,-0.2 -1.2,0.8 -1.8,1.5 -0.4,-0.3 -0.3,0.2 -0.1,0.5 0.1,0.8 -2.2,-0.5 -2.1,1.2 -3.2,3.6 -0.9,0.7 -0.5,0.4 -0.1,0.7 v 0.6 l 0.3,0.3 0.4,0.1 1.4,1 0.4,0.3 0.3,0.5 0.7,1.7 1.3,2.1 1.6,1.8 1.8,1.6 2,1.5 0.7,0.7 0.5,0.3 0.5,0.2 h 0.5 l 1.2,0.2 0.5,0.1 0.2,0.4 0.5,1 0.2,0.4 0.4,0.4 0.4,0.2 1,0.4 0.1,-1 0.8,-0.2 1.1,0.3 0.8,0.5 0.6,0.8 0.1,0.7 -0.3,0.7 -0.6,0.7 -0.2,0.8 0.5,0.6 0.7,0.6 0.3,0.4 0.5,0.4 1,-0.6 1.7,-1.2 0.6,0.3 1.4,0.2 0.7,0.3 -0.3,0.8 0.6,1 2.3,2.5 v 0.4 l -0.5,0.6 -0.6,0.4 -0.5,-0.1 -0.6,-0.2 -0.8,-0.3 0.3,1 -0.3,0.9 -0.6,0.7 -0.6,0.6 -0.8,0.6 -0.9,0.2 -2.2,-0.1 -1,0.1 -1.8,0.6 -1.1,0.1 -2.5,0.1 -1.3,-0.3 -0.9,-0.6 -0.7,1 -0.5,0.3 -5.1,1.4 -4.7,0.5 -1.3,0.4 -7.6,3.8 -1.3,0.1 -3.5,-1.1 -0.9,-0.1 -0.7,-0.3 -2.2,-2.1 -0.8,-0.4 -0.5,-0.2 -0.5,-0.1 -0.2,-0.3 -0.4,-1 -0.2,-0.3 -0.8,-0.1 -1.8,-0.7 -1.4,-0.2 -0.5,-0.2 -1.3,-0.9 -0.6,-1 -0.6,-1.1 -0.9,-1.1 -0.8,0.1 -1.3,0.8 -1.1,1 -0.5,0.6 0.2,0.5 1.1,0.7 0.3,0.6 v 2.4 l 0.2,0.6 0.9,0.8 v 0.7 l -0.2,0.7 -0.5,0.5 -1.2,0.8 -0.4,0.4 -0.3,0.5 -0.3,0.4 -0.2,0.4 0.2,0.3 1,1 0.4,0.5 -0.6,-0.1 -0.4,0.1 -2.4,0.9 -0.5,-0.4 -1,-0.4 -1.5,0.1 h -0.9 l -2,-0.3 -1.6,-0.4 -1.3,-0.9 -3.3,-3.4 -4.6,-2.3 -2.1,-1.5 -0.5,-0.6 -0.3,-0.5 -0.4,-0.4 -0.8,-0.2 -0.7,0.2 -1,0.8 -0.5,0.3 -10.5,0.2 -3.3,-0.9 h -2.3 l -4.5,0.9 -2.2,-0.5 -2.1,-1.5 -1,-0.1 -1.8,1.5 -1.1,0.3 -1.1,0.1 -1.5,-0.6 -1.4,0.7 h -0.8 l -2.5,-3.6 -0.6,-0.1 -0.4,0.7 -1.2,1.2 -0.5,0.8 0.1,0.6 0.2,0.4 0.2,0.4 -0.5,0.4 -1,0.3 -0.7,-0.2 -0.6,-0.1 -1.4,1.5 -0.6,0.2 -0.6,-0.1 -0.5,-0.3 -1.5,-2.4 -0.2,-0.8 -0.2,-0.3 -0.4,-0.1 -0.4,0.1 -0.4,-0.1 -1.5,-1.4 -1.5,0.2 -1.6,0.9 -1.6,0.4 -0.8,-0.1 -2.6,-0.7 -1.3,-0.1 -0.6,-0.1 -0.6,-0.3 -0.5,1.2 -0.4,0.7 -0.6,0.5 -1,0.7 -2.8,2.7 -0.7,0.4 -0.9,-0.4 -0.6,-0.7 -0.4,-0.9 -0.2,-0.9 -0.4,-0.4 -0.7,-0.4 -1.3,-0.5 -2.5,-0.2 -1.1,-0.3 -0.5,-0.8 -0.3,-0.9 -0.5,-0.5 -0.7,0.1 -0.7,0.8 -0.6,1.8 0.1,1.9 -0.3,1.7 -2.2,1.8 -0.2,0.8 -0.3,0.6 -0.8,0.2 -0.5,-0.3 -0.4,-0.5 -0.5,-0.2 -2.4,2.2 -0.4,0.6 -0.4,0.3 -1.1,0.4 -0.5,0.5 -0.5,1.3 -0.3,-0.4 -0.2,-0.8 -0.2,-0.9 v -1.3 l 0.1,-0.8 0.2,-0.7 1.7,-2.3 0.3,-0.4 0.4,-1.3 0.1,-0.6 -0.1,-0.6 -0.4,-0.7 -0.7,-1 -0.6,-0.5 -0.5,-0.3 -0.4,-0.2 -0.9,-0.2 -0.5,-0.1 -0.4,-0.3 -0.4,-0.4 -0.2,-0.7 -0.1,-1 v -1.3 -0.5 l -0.2,-0.5 -0.9,-1.4 -0.3,-0.8 -0.2,-4.4 0.1,-0.5 0.1,-0.3 1.8,-3.2 0.2,-0.6 0.1,-0.6 0.2,-2 0.2,-1 0.2,-0.6 0.3,-0.4 1.2,-1.2 0.3,-0.5 0.2,-0.6 0.9,-2.9 v -0.6 -0.6 l -1.3,-5.4 -0.3,-0.6 -0.4,-0.4 -0.8,-0.1 h -1 l -1.7,0.3 -2.7,0.1 -5.3,-0.5 1.5,-1.3 1.8,-2.4 0.7,-0.3 1.2,-0.2 1.1,-0.5 0.9,-0.7 0.5,-0.6 0.4,-0.9 0.4,-2.3 v -2.1 l 0.2,-0.6 0.6,-1.1 0.5,-0.5 0.5,-0.4 0.2,-0.4 -0.4,-0.8 -2.2,1 h -2.1 l -1.9,-0.8 -5.1,-4.4 -0.2,-0.6 0.2,-0.4 -0.1,-0.4 -0.6,-0.1 -0.2,0.1 -1.1,1 -0.4,-0.7 0.2,-0.9 0.4,-0.8 0.3,-1.9 0.4,-0.8 0.5,-0.6 0.1,-0.4 0.7,-0.6 3,-1.7 0.7,-1.2 0.6,-0.9 4,-2.8 2,-4.4 1.2,-1.1 0.8,1.3 -2,3.7 1.2,1.6 0.3,-0.6 0.2,-1.5 0.3,-0.6 1.9,1.6 1.2,0.6 5.1,0.3 1.6,-0.1 1.5,-0.5 1.8,-1.5 1.5,-2.2 1.1,-2.5 0.7,-2.3 0.4,-2.5 0.4,-1.1 0.6,-1 0.8,-0.6 5.2,-2.9 0.9,-1 0.3,-1.3 0.2,-2.6 0.3,-1.2 3.5,-5.6 0.9,-2.5 -0.9,-1.7 -1.3,0.5 -0.5,-0.8 0.6,-1 1.7,-0.6 1,-0.6 2.7,-4.1 1.3,-1.1 0.7,-0.3 1,-0.2 0.6,0.3 0.9,0.4 0.7,0.1 0.3,-0.6 -0.2,-1.9 -0.7,-0.1 -1.1,0.5 -1.5,0.2 v -0.4 l 1.6,-0.8 0.9,-1 0.2,-0.2 0.4,-0.1 1.2,0.1 0.5,-0.3 0.1,-0.2 v -0.3 l 0.5,-1.9 0.2,-0.3 0.3,-0.5 0.5,-0.6 5.1,-3.8 0.8,-0.9 1.1,-0.8 1.1,-0.5 0.8,-0.6 0.3,-1.2 0.1,-1.1 0.2,-1.1 0.4,-0.8 0.8,-0.4 1,-0.7 3.5,-4.8 0.9,-0.8 0.6,-0.8 0.3,-1 0.1,-1.4 -0.1,-2 0.1,-0.6 0.2,-0.4 0.7,-1 0.3,-0.5 -0.1,-2.2 0.2,-1 1.6,-0.8 0.5,-0.9 0.5,-2.2 0.1,-1.3 0.1,-0.5 0.4,-0.2 0.3,-0.2 0.6,-0.9 0.3,-0.7 0.5,-0.4 0.6,-0.4 0.7,-0.1 0.1,0.2 0.6,1.3 2.4,1.6 0.3,0.6 0.8,4.1 -1,-0.6 -0.7,-0.2 -0.2,0.2 -0.4,1.8 V 65 l 0.6,0.5 0.9,0.4 0.9,0.5 0.3,1.1 -0.2,2.3 -0.6,1.5 -1.9,2.7 -1.1,2 -0.8,2.5 0.3,2 2.4,0.5 1.2,-0.5 0.8,-1.1 0.7,-1 0.6,-0.5 0.8,-0.3 2.5,-2.4 1.9,-1.4 0.4,-0.7 0.2,-2 0.3,-0.2 0.3,-0.1 0.4,-0.3 0.8,-1.6 2.1,-2.1 0.3,-0.8 -0.4,-1.2 -1.2,-2.5 v -1.2 l 0.5,-0.7 h 0.4 l 0.6,0.1 0.7,0.2 0.5,-0.2 0.3,-0.4 0.2,-0.4 -0.2,-0.2 -0.5,-0.3 -0.1,-0.6 0.1,-0.6 0.3,-0.4 0.6,-0.2 0.7,0.2 0.6,0.3 0.4,0.1 0.5,-0.3 0.9,-0.8 0.4,0.1 0.4,0.2 1.5,0.6 0.4,0.2 0.2,0.2 3,1.8 0.3,0.2 0.2,0.5 0.1,1 -0.4,2.7 -0.2,0.6 -0.8,0.4 -0.3,1 0.2,1.2 0.3,0.9 2,2.7 0.3,1 0.2,3.6 0.2,0.9 0.7,1.2 0.7,0.5 2.3,-0.1 0.9,0.3 0.8,0.6 1.2,1.5 1.5,1.3 1,0.7 0.9,0.3 0.9,-0.2 0.6,-0.7 1.4,-2.2 0.9,-1.1 h 0.5 l 0.2,0.9 v 1.5 l 0.2,0.1 1.4,1.3 -0.3,-0.1 -0.1,0.3 -0.1,0.4 0.1,0.2 0.2,0.1 0.7,0.2 0.3,0.1 0.8,0.8 0.6,0.3 0.7,0.1 0.8,-0.4 0.6,-0.1 0.6,0.3 1.3,1.5 0.6,0.9 0.6,1.3 h 0.4 l 0.2,-0.5 0.3,-0.2 h 0.3 l 0.4,0.3 0.2,0.4 0.1,0.4 v 0.5 l 0.1,0.7 0.2,0.5 0.5,1 0.1,0.4 -0.2,0.5 -0.4,0.5 -0.3,0.6 0.6,1.5 -0.5,3.8 -0.4,0.8 -0.9,0.1 -1.9,-0.3 -1,0.3 -1,0.7 -1.7,1.5 -0.5,1 0.3,0.9 1.2,1.4 0.9,2.3 0.9,0.3 0.2,0.3 0.1,0.6 0.1,0.4 v 0.5 l -0.2,0.7 -0.5,0.5 -0.5,0.2 -0.5,0.2 -0.1,0.7 0.3,0.9 0.9,0.3 0.8,0.3 0.3,1.4 -0.3,0.9 -0.8,0.8 -2,1.3 -7.3,2.4 -1.3,1.5 1,-0.2 3.3,-1.4 1.4,-0.4 h 4.1 l 3.8,-0.5 2.8,0.3 1,-0.1 0.4,-0.6 -0.5,-1.4 0.6,-0.4 h 0.6 l 0.7,0.2 0.8,0.2 1,-0.1 2.7,-0.5 0.6,-0.4 0.3,-0.7 0.8,-0.7 1.6,-1.1 1.8,-2.4 1,-0.6 0.3,-0.2 0.4,-0.2 0.8,0.2 1.9,2 0.2,0.6 -0.1,0.6 0.1,0.5 1,0.5 0.1,0.7 -0.1,1.2 0.3,1.3 2.4,3.2 0.3,0.3 0.1,0.4 -1.7,2.2 -0.8,0.5 -1.3,0.4 -1.4,0.1 -1,-0.4 -1,0.3 -3.5,-0.3 -1,0.3 -0.6,0.7 -0.1,0.7 0.5,0.3 0.3,0.4 1.7,4.5 0.5,0.4 h 0.2 l 0.3,-0.1 0.7,-0.2 0.9,-0.2 2.3,-1.1 1,-0.2 0.4,0.1 0.4,0.5 0.5,0.2 0.5,-0.1 0.5,-0.3 0.6,-0.1 0.6,0.3 0.6,0.8 0.4,0.2 0.5,-0.2 0.5,-0.7 v -0.5 l -0.3,-0.6 0.4,-1 0.3,-0.4 0.3,-0.4 0.2,-0.5 -0.5,-1 0.1,-0.6 0.9,-0.7 2.6,-0.2 2.3,-1.1 1.2,0.3 3,1.5 0.3,0.1 0.3,-0.2 0.6,-0.7 0.5,-0.2 0.6,0.2 0.5,0.4 0.4,0.2 1.1,0.2 5.8,3.4 2,1.7 0.8,0.4 1,0.5 0.9,0.6 0.3,0.7 -0.2,0.5 -0.4,0.4 -0.4,0.2 -0.2,0.2 -0.6,3.2 -0.4,1.3 -0.1,1.2 0.3,1.2 h 0.4 l 0.6,-1.5 0.4,-0.6 0.4,-0.5 0.2,-0.6 v -1.5 l 0.2,-0.6 1.5,-1.1 1.2,0.1 1.1,0.7 2.7,3.3 1.1,1 1,0.5 1.5,0.2 1.1,0.8 0.8,1.1 0.4,1.4 0.4,-0.3 0.2,-0.3 0.1,-0.4 v -0.6 l 2.7,2.1 1,0.3 1.2,0.5 1,1.2 0.2,1.2 -1,0.6 0.6,0.5 0.9,0.3 h 0.9 l 0.7,-0.4 0.2,-0.8 -0.4,-0.6 -0.1,-0.5 0.8,-0.4 h 1.3 l 2.8,1.4 1.7,0.1 4.4,-2.1 1.5,-0.2 0.9,0.4 0.8,0.9 1.4,1.8 1.2,1.2 0.5,0.8 0.3,0.9 z m -40,39.7 -0.2,0.7 v 0.8 l -1.1,-1 -0.3,-0.2 -0.2,0.3 -0.2,0.5 -0.3,0.4 -0.4,-0.2 -0.9,-0.7 -0.9,-0.4 -0.9,-0.2 -0.8,-0.1 -0.2,-0.1 -0.5,-0.5 -0.3,-0.2 -2,-0.3 -3.9,-1.2 v -0.4 h 4.5 l 0.7,-0.1 0.4,-0.4 0.3,-0.4 0.4,-0.3 1.1,0.2 0.5,0.8 0.5,1 1,0.8 0.8,-1 1.4,0.1 1.6,0.5 1.3,0.7 v 0.5 h -0.9 z m 9.9,8.1 0.7,0.8 -0.3,0.8 -1.3,0.4 h -2.1 l -0.8,0.8 h -0.4 l -0.3,-0.2 v -0.1 l -0.1,-1.2 -0.3,-0.3 -0.7,-0.6 -0.2,-0.3 -0.2,-0.6 0.2,-0.2 h 0.6 0.2 0.8 l 2.9,0.4 z m -33.3,-76.7 -0.1,-0.4 0.3,-0.5 0.7,-0.4 0.7,-0.2 1.5,-0.1 0.7,0.3 0.2,0.5 -0.3,0.6 -0.6,0.2 -0.4,0.1 -1,0.4 h -0.4 -0.4 l -0.5,-0.2 z m -74.5,-78.1 -0.6,-0.2 2.8,-5.1 0.8,-0.4 1.9,-0.4 0.8,-0.4 2.3,-2.7 0.9,0.8 0.3,1.3 -0.1,1.4 -0.6,0.8 -1.1,-0.9 -0.8,0.4 -0.3,1 0.6,1.1 -5.5,1.3 0.3,0.6 0.5,0.3 0.3,0.3 -0.3,0.6 -0.5,0.3 h -0.8 z m 11.5,3.9 -0.4,-4.4 0.3,-0.9 0.2,-0.4 v -2.5 l 0.2,-0.6 0.3,-0.2 0.9,-0.4 0.5,-0.3 1.4,-1.3 1.3,-0.9 0.7,-0.3 0.8,-0.1 4.3,-0.8 1.3,0.4 0.7,1 0.1,1.3 -0.6,4.4 -0.6,1.7 -0.9,1.1 -1,-0.5 -1.1,0.4 -3.3,0.6 -0.7,0.4 -0.3,0.3 -1.5,0.7 -0.6,0.3 -0.4,0.7 -0.2,0.6 -0.3,0.6 -0.6,0.5 z m 16.2,27 -0.2,-0.5 0.2,-0.5 0.5,-0.5 0.6,-0.1 2.9,-0.2 0.9,-0.2 0.6,-0.5 0.3,-1 -0.5,-0.5 -2.1,-0.1 -0.2,-0.8 0.7,-0.7 2.3,-0.3 1,-0.5 1.4,1.8 1,1.7 -0.3,1.8 -2.1,1.7 -1.5,0.5 h -1.8 l -1.7,-0.3 -1.5,-0.4 z m 31.4,141.3 0.2,0.6 -11.6,0.1 -3,-2.6 -0.2,-0.7 0.4,-0.8 1,-0.7 1.2,-0.5 0.9,-0.3 h 1 l 2.1,0.7 1,0.2 0.7,0.3 0.5,0.6 0.8,1.2 0.5,0.6 0.5,0.3 0.6,0.1 h 0.7 z" fill="#fbb4b9" display="inline"/>
    <path d="m 950.3,219 -0.2,-0.9 v -1.3 l 0.1,-0.8 0.2,-0.7 1.7,-2.3 0.3,-0.4 0.4,-1.3 0.1,-0.6 -0.1,-0.6 -0.4,-0.7 -0.7,-1 -0.6,-0.5 -0.5,-0.3 -0.4,-0.2 -0.9,-0.2 -0.5,-0.1 -0.4,-0.3 -0.4,-0.4 -0.2,-0.7 -0.1,-1 v -1.3 -0.5 l -0.2,-0.5 -0.9,-1.4 -0.3,-0.8 -0.2,-4.4 0.1,-0.5 0.1,-0.3 1.8,-3.2 0.2,-0.6 0.1,-0.6 0.2,-2 0.2,-1 0.2,-0.6 0.3,-0.4 1.2,-1.2 0.3,-0.5 0.2,-0.6 0.9,-2.9 v -0.6 -0.6 l -1.3,-5.4 -0.3,-0.6 -0.4,-0.4 -0.8,-0.1 h -1 l -1.7,0.3 -2.7,0.1 -5.3,-0.5 -0.8,0.7 -0.2,0.3 -1.9,1.9 -0.7,0.5 -0.9,0.2 -1.2,-0.1 -1,-0.3 -0.6,-1.1 -0.5,-0.3 -0.6,-0.3 -0.5,-0.1 -1.3,0.1 -0.3,-0.1 -0.1,-0.4 -0.7,-0.8 -0.8,-0.1 -0.6,0.5 -0.6,1.9 -0.6,0.5 -0.9,0.1 h -1 l 0.1,1.3 0.5,0.5 0.8,0.3 0.7,0.5 1.4,2.1 3.8,10.8 0.2,1.3 -0.1,1 -0.4,2.3 -0.1,2.2 0.4,2.4 0.7,2.3 1.3,1.7 2,1.9 0.9,1.2 0.1,1.2 -0.8,0.9 h -1.3 l -1.3,-0.6 -1,-0.7 -0.5,-0.2 -1.1,0.1 -0.6,-0.3 -0.9,-0.7 -0.5,-0.2 -1.7,0.2 -1.2,-0.3 -3.3,-1.2 -0.7,-0.5 -0.5,-0.8 -0.7,-5.6 -0.6,-2.3 -1.9,-4.4 -0.5,-2.3 -0.2,-4.6 0.4,-4.5 -0.3,-2.1 -0.1,-2.2 -0.4,-1.2 -0.3,0.5 -0.5,0.4 -0.5,0.4 -0.6,0.3 -1.4,1.3 -0.2,0.8 v 1 l -0.4,0.9 -0.9,0.5 h -1 l -1,-0.1 -1.1,-0.1 -1.3,0.4 -1,0.6 -1.8,1.8 -1,0.6 -2.1,0.9 -0.6,0.5 v 0.9 l 0.4,1.1 1.1,2.1 0.4,1.2 0.2,1.2 0.2,6.7 0.4,2.1 1,1.6 1.1,0.4 0.9,-0.1 0.4,0.2 -0.1,1.7 -0.6,2.1 -0.4,1 -0.6,1 -1.7,1.6 -0.4,0.6 0.1,1.2 1.7,-0.8 0.2,1 -0.4,1.1 -1.3,1.9 -0.4,1.1 -0.3,2.4 -0.4,0.8 -5.3,5 -2.7,1.6 -2.3,-0.3 -0.3,-0.4 -0.4,-1.4 -0.3,-0.6 -0.5,-0.5 -1.2,-0.8 -3.6,-3.3 -0.8,-1.1 -0.6,-1.1 -1.1,-3.7 -0.8,-0.7 -1,-0.1 -2.4,0.5 -2.5,-0.5 -1.9,-0.2 -0.3,-0.5 -0.1,-0.9 0.2,-0.3 0.8,-0.7 0.2,-0.5 -0.4,-2.6 -0.8,-1.2 v -1.6 l -0.4,-1.6 -0.4,-0.6 -0.6,-0.6 -0.1,-0.4 -0.1,-0.5 -0.1,-0.4 -0.4,-0.1 h -0.9 l -0.4,-0.2 -0.4,-1.2 -0.7,-0.4 -1.4,-0.6 -1.9,-1.4 -1.2,-0.6 -3.1,-0.5 -3.7,-1.8 -1.3,0.4 -0.4,0.9 1.3,5.4 v 2.7 l -0.6,2.4 -1.2,1.9 0.4,2.3 -1.2,2.7 -12,15.6 -13.8,11.9 -2.4,1.4 -1.1,0.9 -0.4,1 -0.2,1.4 -0.5,1.3 -1.3,2.3 -2.7,3 -0.4,0.7 -0.3,0.3 -1.4,1.1 -0.3,0.5 -0.1,1.3 -0.1,0.4 -0.2,0.5 -1,1.5 -4.5,4 -1.9,3 -0.2,0.5 -0.6,0.3 -2.8,2.4 -1.5,1.1 -0.4,0.5 0.7,1.2 -1.2,2.2 -3,3.3 -1.9,1 -10,3.1 -0.7,-0.1 -3.5,1.4 -8.7,1.9 -15.8,4.1 -16.3,4.3 -8.7,0.3 -10.9,2.2 -1.8,0.8 -6.2,3.9 -4.1,3.1 -0.6,0.7 -0.4,0.8 -0.3,2.2 -1,3.5 v 1.4 l 0.3,0.9 0.6,0.6 0.7,0.7 0.9,0.5 2.2,0.6 1.2,0.4 -0.3,0.2 h -0.1 -0.1 l -0.3,-0.2 -1.1,1 -1.4,-0.1 -1.6,-0.4 -1.7,-0.1 0.4,0.8 0.7,2.4 0.4,0.7 1.9,1.8 1.2,1.1 0.4,1.1 -1.1,-0.7 -1,-0.7 -0.5,-0.1 -1.9,0.3 -0.5,0.1 -1.8,1.3 -0.5,0.1 -0.4,-0.3 -0.4,-0.3 -0.3,-0.2 -0.5,-0.3 -1.4,-1.8 -0.6,-0.5 -2,-0.6 -0.7,-0.5 -0.5,-1 -1.4,1.2 -0.8,1.5 -0.5,4 -0.7,2.7 -0.1,1.1 0.4,0.4 1.1,0.2 1,0.4 0.7,1.1 -1.2,-0.2 -1.1,0.5 -0.9,0.9 -0.4,0.9 0.1,1.3 0.3,0.7 0.8,0.1 4.1,-0.6 1.2,0.2 1.5,1 0.6,0.2 0.6,-0.1 0.4,-1.4 0.6,-0.6 0.7,-0.3 0.5,0.5 -0.1,0.5 -1.1,1.4 -0.4,0.4 -0.8,0.5 -0.4,0.1 -2.1,-0.4 -1.1,-0.4 -1.1,-0.1 -0.7,0.8 0.1,1.3 1.4,1.3 -1.4,0.1 -1.1,-0.4 -0.7,-0.1 -0.3,0.3 -0.1,1.3 -1.7,5.3 -1.7,3.8 -1.3,1.9 -0.5,1.1 -0.2,1.1 0.2,0.5 0.9,0.5 0.1,0.3 -0.4,0.4 -1.3,0.3 -0.3,0.3 0.1,0.9 0.3,0.8 1.3,2.2 0.3,0.3 0.3,0.1 1.1,0.2 0.2,0.2 0.1,0.3 0.7,0.9 v 0.7 l 0.2,0.2 0.4,-0.1 1.1,0.3 h 0.5 l 0.5,0.1 1,0.8 0.6,0.2 1.1,0.3 -1.2,0.4 -1,-0.5 -0.8,-0.6 -0.7,0.2 -1.3,0.6 -0.9,-0.8 -0.8,-1.4 -0.7,-1 -1.2,-0.4 -1.2,0.1 -3.3,0.6 -0.5,0.8 -0.5,2 -0.8,2 -0.1,0.5 0.1,1.7 0.3,0.7 1.1,1 1,2.8 0.9,0.8 2.6,1 1,0.7 0.8,0.9 1,0.6 1,0.3 h 1.3 l 2,-1 0.7,-0.2 0.8,0.1 1.6,0.6 0.9,0.1 0.4,0.4 0.6,1.5 0.2,0.4 0.8,0.2 1.6,0.5 0.9,0.1 -2.4,1.2 -2.3,-1.1 -2,-1.7 -1.9,-0.8 -1.2,0.4 -1.9,1 -1.3,0.2 -0.8,-0.2 -3.4,-1.7 -2.2,-1.5 -4.3,-4.4 -2.5,-1.6 -4.8,-1.9 -2.7,-0.4 -1.5,1.2 v 0.9 l 0.3,1 0.1,1.1 -0.6,1.1 -1.1,1 -1.1,0.5 -1.2,0.2 -1.5,0.1 v -0.5 l 2.2,-1.4 1,-1 0.3,-1.4 -0.7,-1.4 -1.4,-0.8 -3.3,-1 -2.4,-1.3 -0.8,-0.2 h -0.6 l -1.2,0.6 -0.5,0.1 -0.7,-0.2 -0.2,-0.5 -0.1,-0.6 -0.6,-0.7 -0.8,-0.3 -0.8,0.1 -1.5,0.6 0.3,-0.6 1,-1.1 0.2,-0.4 0.1,-1.1 0.3,-0.9 0.5,-0.8 0.7,-0.9 -0.7,-1 -0.9,0.1 -1,0.5 -1.8,0.6 -0.7,1.1 -0.5,0.2 h -1.3 l -0.5,-0.1 -0.4,-0.2 -0.4,-0.2 -0.3,-0.3 -0.3,-0.3 -0.2,-0.4 v -0.4 l 0.1,-0.8 -0.1,-0.4 -0.2,-0.3 -0.5,-0.7 -0.4,-1.7 -0.8,-0.3 -0.9,0.6 -0.7,1.3 -0.1,0.5 0.1,1.8 0.1,0.2 0.2,0.6 0.1,0.4 -0.2,0.3 -0.5,0.7 -0.3,1 -0.4,-0.1 -1.4,-1.6 -0.3,-0.2 -0.3,0.1 -0.6,0.2 -0.4,0.2 -0.9,0.8 -0.2,0.1 -0.7,-0.2 -1.1,-0.7 -0.7,-0.2 -7.3,-0.1 -1.3,0.2 -0.8,0.4 -0.7,0.2 h -2.8 l -0.8,-0.2 -0.7,-0.9 -1,-2 -0.7,-0.9 -1,-0.8 -2.3,-1 -2,-1.3 -3.5,-1.5 -1.2,-0.8 -1.1,-1.1 -1.6,-2.4 -0.6,-1.2 0.1,-1 0.3,-0.8 0.2,-0.9 -0.1,-1.1 -0.6,-2.3 -0.1,-1.3 -0.3,-1 -1.1,3 -1.5,2.7 -0.8,1.3 -0.6,0.7 -2.1,1.7 -0.5,0.8 -0.1,0.8 0.4,2.1 v 0.4 0.4 l 0.3,0.8 0.4,0.7 0.5,0.7 0.6,0.5 0.8,0.3 h 2.5 l 1,0.4 0.3,1.1 -0.4,4.5 0.1,2.6 0.3,1.1 0.6,1.2 1.1,1.4 5.1,4.3 0.4,0.6 0.1,1.6 0.4,0.1 1.1,-0.6 0.4,0.4 1,2.4 1,0.8 1.1,0.1 1.2,-0.1 h 1.1 l 1,0.5 0.7,1 1.1,3.3 0.7,1.2 0.7,0.6 2.1,1 1,1 1.2,2.2 1.3,0.9 1.1,0.4 3.4,0.5 1,0.5 0.8,1.2 1.3,2.4 2.8,4.2 0.3,1.3 0.1,1.2 0.6,0.2 0.7,-0.2 0.9,-0.2 2.9,0.7 0.7,0.3 0.9,0.8 2.4,3.3 2.2,1.7 2.6,1.2 2.7,0.4 2.4,-1.1 0.6,-0.7 0.2,-0.5 0.2,-0.2 0.7,0.1 0.4,0.3 0.4,0.4 0.5,0.4 0.8,0.1 0.7,-0.3 1.1,-1 0.6,-0.4 h 0.3 l 0.6,0.3 h 0.3 l 1.1,-0.5 0.1,-0.2 0.7,-0.3 0.2,0.1 0.5,0.5 h 0.4 l 0.4,-0.3 0.1,-0.4 v -1 l 0.6,-0.9 3.2,-2.8 1.6,-0.7 1.7,-0.3 3.6,-0.1 12.8,-3.3 1.1,0.1 7.7,3.4 1.3,0.4 h 1.2 l 1.1,-0.2 2.3,-0.7 h 1 l 0.6,0.6 0.3,0.8 0.2,1 0.7,1.3 0.7,-0.4 1.3,-1.9 4.8,-1.8 0.8,-0.2 1.1,0.1 1.5,0.4 3,1.3 1.6,0.5 3.4,-0.9 5,-6 3.6,-1.2 4.6,0.1 1.5,-0.3 0.8,-0.3 0.4,-0.7 3,-8.6 1.8,-3.6 0.2,-0.6 v -0.7 l -0.4,-0.5 h -1.3 l -0.2,-0.5 0.4,-1.4 1,-0.9 6.6,-3.1 1.4,-0.5 3.5,-0.3 1,-0.3 1,-0.8 0.8,-0.8 0.9,-0.6 1.4,-0.3 17.1,0.8 1.5,0.5 h 0.4 l 0.6,-0.3 0.4,-0.5 0.4,-0.5 0.5,-0.5 1.1,-0.4 0.9,0.1 1,0.3 1.1,0.3 2.8,-0.1 1,0.1 1.3,0.6 1,0.5 0.5,0.8 0.1,1.3 -0.4,1.3 -0.6,1 -0.9,1 -1.7,1.3 -0.4,0.6 0.2,0.4 0.9,0.1 2.1,-0.8 2.3,-0.4 2.2,0.2 2.1,1.1 1.9,1.4 0.8,0.3 2.5,0.1 3.4,0.7 2.7,1 4.2,3.3 2.6,0.1 2.3,-1 1.2,-0.3 1.2,0.1 1.2,0.7 2.9,3.4 1.6,0.8 1.4,-0.3 9.1,-6.1 3.4,-4.4 1.3,-1.1 1.1,-0.4 8.2,-1.3 h 2.3 l 2.1,0.6 0.6,0.5 0.5,0.7 0.6,0.5 0.7,0.3 0.6,-0.2 1.2,-0.9 8.7,-3.6 1.1,-0.3 1.3,0.2 1.3,0.7 4.5,3.2 1.3,0.3 1.3,-0.3 0.9,-0.8 0.4,-1.1 v -1.3 l -0.3,-1.2 v -1.4 l 0.7,-0.9 2,-1.6 0.8,-1 1.5,-2.5 1.1,-3 0.6,-3.9 -0.1,-1.8 -0.1,-0.7 -0.2,-0.4 -0.1,-0.4 0.2,-0.7 0.3,-0.5 0.5,-0.5 0.6,-0.4 0.6,-0.3 3,-0.4 3.2,-1.2 0.8,-0.7 0.1,-1.1 -0.3,-1.2 v -1 l 0.3,-0.9 0.5,-1.2 0.1,-0.7 v -0.9 l -0.2,-0.7 -0.6,-0.4 -1.3,0.1 -0.9,0.5 -0.7,-0.1 -0.5,-1.3 -0.1,-0.5 0.1,-1.9 -0.2,-0.6 -0.6,-0.9 -0.2,-0.5 -0.1,-1 0.7,-3.1 0.8,-2.3 1.8,-1 4.4,-0.6 1.5,-0.5 0.4,-0.6 -0.2,-0.9 -0.1,-1.2 0.4,-1.3 0.7,-0.4 2.2,0.2 1.1,-0.7 2.5,-2.1 1,-0.4 0.8,-0.5 2.2,-2.5 1.2,-0.7 2.6,-0.3 1.2,-0.4 0.8,-1.1 -0.2,-1 -0.6,-1.3 -0.9,-1.4 -0.9,-0.9 -0.5,-0.4 -0.7,-0.3 -0.8,-0.2 -0.7,-0.1 -0.6,0.2 -1.2,0.6 h -0.6 l -0.9,-0.8 0.1,-1.2 0.5,-1.3 0.3,-1.1 -0.2,-0.6 -0.6,-1.1 -0.1,-0.6 0.4,-0.7 0.5,-0.2 0.6,-0.1 0.6,-0.5 0.7,-1.4 -0.4,-1.1 -1.5,-1.9 -0.3,-0.8 0.1,-0.2 0.5,-0.3 0.8,-0.6 0.4,-0.7 0.3,-0.6 0.1,-0.6 0.2,-0.6 0.8,-1.2 0.9,-0.9 3.3,-2.2 0.7,-0.8 0.9,-2 1,-1.5 0.8,0.3 1.5,2.1 1.6,0.8 1.8,-0.3 3.7,-1.6 2.4,-0.3 0.9,-0.4 0.5,-1.1 0.2,-2.4 0.3,-1 2,-2.7 -0.1,-0.4 -0.9,-0.3 -0.9,-1.1 v -1 l 2,-8.6 1,-2.7 1.2,-1.2 0.6,0.1 0.5,0.2 0.5,0.2 0.6,-0.2 0.3,-0.6 v -0.6 l -0.5,-1.2 -0.9,-1.7 -0.2,-0.7 v -0.6 l 0.1,-1.1 -0.1,-0.6 -1.4,-3.5 -0.2,-1.4 v -2.2 l 0.3,-2.3 2.3,-6.6 -0.1,-1.9 -0.8,-0.8 -1.2,-0.7 -0.9,-0.8 0.1,-1.3 0.4,-0.4 2,-1.1 0.5,-0.6 1.1,-2.3 0.7,-2.4 0.7,-5.1 0.3,-1 -0.3,-0.4 -0.2,-0.8 m -246.4,93.2 -1.1,-9.5 0.1,-2.9 0.9,-1.8 1.9,0.8 1.2,1.8 0.6,2.4 0.1,10 0.4,4.2 1.2,3.3 0.1,0.2 v 0.5 l -0.1,0.4 -0.6,-0.3 -0.5,-0.3 -0.6,0.3 -0.4,0.5 -0.2,0.5 -0.6,-0.8 -1,-2.3 -0.6,-0.5 -1.1,-0.5 -0.3,-1.2 0.5,-2.5 0.1,-2.3" fill="#f768a1"/>
    <path fill="#f768a1" d="m 293.2,299.4 -0.3,-0.9 0.1,-0.5 0.2,-0.4 0.8,-0.3 0.3,-0.3 0.6,-0.9 v -0.8 l -0.2,-0.9 -0.2,-0.9 0.1,-0.6 0.4,-0.6 0.5,-0.4 0.6,0.1 0.3,0.3 0.1,0.3 v 0.7 l 0.2,0.4 0.7,1.1 0.4,0.7 0.7,2.5 0.1,2.8 -0.1,0.7 -0.7,0.5 -1.1,0.3 -1.1,0.1 -0.9,-0.3 -1.1,-1.2 -0.4,-0.7 v -0.5 z m -39.9,-80.8 0.3,0.2 0.3,0.1 -0.1,0.1 -0.5,0.1 -0.4,0.4 -1.2,1.5 -0.5,0.9 -0.1,1 0.4,1.8 2.1,5.3 -0.2,1.4 -1.3,-0.8 -1,1.7 -0.6,2.5 -0.2,1.9 0.1,2.1 -0.2,1.1 h -1 l -0.6,0.7 -0.4,1 -0.3,0.8 0.1,1.1 0.3,1 2.2,4.8 0.2,0.7 1,1.4 2,1.9 1.3,1.9 -0.8,1.7 1.9,-0.4 -2.7,5.9 -0.3,2.3 0.9,7.1 0.4,1.1 0.2,1.2 -1.2,13.8 0.4,2.3 1.8,4 2.7,3.6 6.8,6.6 0.1,0.1 -0.2,0.4 -0.5,0.8 -0.1,0.1 -1.3,0.6 -0.2,0.3 v 0.3 l 0.1,0.1 0.1,0.1 0.5,0.3 0.1,0.1 0.1,0.1 0.2,0.2 0.1,0.2 0.1,0.2 v 0.1 0.2 l -0.1,0.4 -0.1,0.2 -0.1,0.2 -0.1,0.1 -0.2,0.2 -0.1,0.2 -0.1,0.1 v 0.2 l 0.3,0.8 v 0.1 0.1 l -0.1,0.1 -0.3,0.4 -0.1,0.2 -0.2,0.4 v 0.1 0.1 0.1 l 0.1,0.2 0.1,0.1 0.2,0.1 0.5,0.1 0.2,0.1 0.2,0.1 0.2,0.3 0.2,0.3 0.1,0.3 0.1,0.4 v 0.2 0.4 0.2 l -0.1,0.2 -0.6,0.8 -0.1,0.2 -0.1,0.1 v 0.2 l 0.1,0.2 v 0.2 l -0.2,0.1 -0.5,-0.2 -8.1,-4.8 -0.2,-0.2 -0.3,-0.4 -0.5,-0.5 -0.2,-0.3 -3.3,-1.2 -0.7,-0.5 -0.7,-0.4 h -0.8 l -2.4,0.5 -8.6,3.2 h -0.2 l -0.3,-0.1 -9,-3.7 -2,-1.6 -8.1,-9.8 -0.8,-0.4 -3,-1.3 -2.5,-0.8 -0.6,-2.7 -0.4,-0.6 -0.1,0.1 -0.2,0.1 -0.1,0.1 -0.2,0.1 h -0.2 -0.1 l -0.2,-0.1 -11.5,-7.9 -1.7,-2.1 -0.1,-0.2 -2.3,-2.5 -0.4,-0.2 -4.3,-0.7 -0.5,-0.1 -7.1,-2.3 -2.3,-1.2 -0.5,-0.1 h -0.4 l -0.1,0.1 -0.1,0.2 -0.2,0.1 -0.6,0.1 h -0.2 l -0.1,0.1 -0.5,0.3 -0.5,0.3 -0.5,0.1 h -0.3 l -0.2,-0.1 -0.1,-0.2 v -0.2 -0.7 l -0.1,-0.2 v -0.2 l -0.1,-0.1 -0.2,-0.7 -0.2,-0.2 -0.3,-0.3 -0.2,-0.2 h -0.2 l -0.8,0.1 -1,-0.1 -0.4,-0.1 h -0.2 l -0.2,-0.2 -0.1,-0.1 -0.3,-0.3 -0.3,-0.1 -0.1,-0.1 -0.1,-0.2 -0.1,-0.2 v -0.2 l -0.2,-0.4 -0.4,-0.4 -1.1,-0.7 -0.5,-0.2 -0.4,-0.1 -0.1,0.2 -0.1,0.1 v 0.2 l -0.1,0.2 -0.1,0.2 -0.1,0.1 -0.2,0.1 -0.3,0.2 -1.5,-0.2 h -0.3 l -2.1,-1.1 -0.6,-0.1 -0.2,-0.1 -0.2,-0.1 -3.7,-4.8 0.6,-1.6 0.5,-0.9 0.1,-0.2 v -0.3 l -0.4,-1.9 -0.1,-0.2 -0.1,-0.3 -0.4,-0.6 -0.1,-0.2 -0.1,-0.2 v -0.2 -0.2 -0.4 l 0.2,-0.5 1,-1.9 0.2,-0.1 0.1,-0.1 0.4,-0.1 0.2,-0.1 0.1,-0.1 0.1,-0.2 0.1,-0.3 0.4,-1.7 v -0.5 l -0.6,-0.9 -0.8,-1.1 -0.2,-0.6 -0.1,-0.2 -0.1,-0.2 -0.1,-0.1 -0.2,-0.3 -0.1,-0.2 -0.2,-0.5 -0.4,-0.3 -1.9,-1.1 -1.1,-0.5 h -0.3 -0.4 -0.2 l -0.3,-0.1 -1,-0.5 -0.3,-0.2 -0.8,-0.6 -1.6,-2.6 -0.6,-0.9 -0.4,-0.2 h -0.3 l -0.2,-0.1 -0.1,-0.3 v -0.5 l 0.2,-2.3 v -0.7 -0.4 l -0.3,-0.5 -0.4,-0.5 -0.2,-0.3 -0.3,-1 -0.4,-4.2 -0.1,-0.5 -0.6,-0.6 v -0.1 l -0.1,-0.2 0.2,-1 1.2,-3.4 -1.4,-1.9 -0.5,-0.6 -0.3,-0.1 -0.4,-0.3 h -0.2 -0.1 l -0.5,0.3 h -0.2 l -0.2,-0.4 -0.2,-0.6 -0.4,-1.5 v -0.7 -0.4 l 0.3,-0.3 v -0.1 l -0.1,-0.2 -0.3,-0.2 -0.5,-0.1 -0.2,-0.1 -0.8,-0.2 -0.5,-0.2 -0.2,-0.1 -0.1,-0.2 -0.1,-0.3 0.1,-0.7 0.1,-0.3 0.1,-0.3 v -0.2 l -0.1,-0.3 -0.2,-0.3 -0.3,-0.2 -0.3,-0.7 -0.1,-2.3 -0.2,-0.6 -0.2,-0.2 -0.4,-0.2 -0.2,-0.2 -0.1,-0.3 0.1,-0.2 0.1,-0.2 0.2,-0.3 0.2,-0.4 v -0.2 l 0.2,-0.3 v -0.2 -0.2 -0.2 l -0.2,-0.1 -0.2,-0.1 -0.7,-0.2 -2.6,-0.8 -0.4,0.1 h -0.3 l -0.2,-0.2 -0.6,-1 -0.8,-0.5 0.5,-0.8 0.4,-0.4 0.1,-0.1 0.2,-0.2 0.1,-0.3 0.2,-0.5 0.5,-1 0.1,-0.2 0.2,-0.1 0.2,-0.1 0.1,-0.2 -0.1,-0.3 -0.2,-0.6 -0.6,-0.5 -0.1,-0.2 v -0.1 l -0.3,-1.2 -0.1,-0.4 0.1,-0.9 0.8,-2.2 2.3,0.5 0.7,0.3 0.8,0.7 0.2,0.2 0.7,0.6 0.7,0.1 h 0.4 l 0.1,-0.1 0.1,-0.3 v -0.2 -0.2 l 0.1,-0.2 0.2,-0.2 0.7,-0.1 0.2,-0.1 0.3,-0.2 0.7,-0.1 0.7,0.1 0.4,0.1 0.2,0.2 0.2,0.1 0.1,0.2 0.3,0.1 0.8,0.3 0.3,0.1 0.4,0.5 0.6,0.5 0.9,-0.1 0.4,0.2 0.3,0.2 h 0.3 l 1.3,-0.3 0.4,-0.2 0.3,-0.2 0.4,-0.4 0.1,-0.3 0.3,-0.3 0.5,-0.3 1.7,-1 0.4,-0.2 0.5,-0.6 0.3,-0.1 1.3,-0.3 0.4,-0.2 0.2,-0.1 0.1,-0.2 0.1,-0.2 0.2,-0.8 0.1,-0.4 -0.1,-1.2 0.2,-1.4 0.1,-0.2 -0.1,-1.4 v -0.4 l 0.2,-0.5 0.2,-0.3 0.2,-0.2 0.3,-0.1 h 0.5 0.3 0.3 l 0.1,0.1 0.1,0.2 0.1,0.2 0.1,0.2 v 0.4 0.5 0.3 l 0.1,0.2 0.1,0.1 0.1,0.1 h 0.3 l 0.4,0.1 h 0.2 l 0.1,0.2 0.2,0.1 0.1,0.2 v 0.1 l 0.1,0.3 v 0.2 0.2 l 0.1,0.2 0.2,0.1 h 0.3 l 0.2,0.1 0.1,0.1 0.3,0.2 1,0.6 0.1,0.1 0.2,0.2 v 0.1 l 0.1,0.2 v 0.2 0.3 l -0.1,0.4 v 0.2 0.2 l 0.3,0.7 0.1,0.2 0.1,0.2 0.2,0.1 0.4,0.2 0.2,-0.1 0.1,-0.1 v -0.7 l 0.1,-0.2 V 192 l 0.2,-0.4 0.3,-0.4 0.7,-0.6 0.1,-0.2 0.2,-0.3 0.5,-2.6 0.1,-0.4 v -0.5 l -0.1,-0.2 v -0.2 -0.3 l 0.1,-0.3 0.4,-0.5 0.3,-0.1 h 0.2 l 0.2,0.3 0.1,0.2 0.2,0.1 h 0.4 l 0.2,-0.2 0.3,-0.3 0.2,-0.1 h 0.1 l 0.1,0.1 0.2,0.1 0.5,0.7 0.2,0.1 h 0.2 0.2 l 0.2,0.1 h 0.1 l 0.3,0.3 0.4,0.2 h 0.6 l 3.1,-1.3 0.5,-0.1 0.1,0.1 0.1,0.2 0.4,0.8 v 0.2 0.5 0.2 l 0.1,0.2 0.1,0.1 2.1,1.6 0.3,0.4 0.1,0.1 0.1,0.2 v 0.2 l 0.1,0.3 v 0.2 l 0.1,0.1 0.1,0.2 0.2,0.1 h 0.2 l 0.1,0.1 0.2,0.1 0.1,0.2 0.1,0.3 0.1,0.2 0.3,0.1 0.2,0.1 1.1,0.2 0.6,-0.8 0.2,-0.1 0.4,-0.2 1.2,-0.3 0.5,-0.1 h 0.3 l 1.1,0.7 0.3,0.2 0.4,0.1 1,0.1 h 0.4 l 0.2,-0.1 0.4,-0.7 0.1,-0.2 0.5,-0.5 0.7,-0.8 0.1,-0.2 v -0.2 -0.2 l -0.1,-0.1 -0.1,-0.2 0.1,-0.3 0.5,-0.4 0.5,-0.2 0.8,-0.2 h 0.3 l 0.3,0.1 0.4,0.1 0.3,0.1 h 0.3 0.5 0.3 l 0.3,0.1 0.1,0.1 0.3,0.5 0.3,0.2 1,0.6 0.5,0.4 0.2,0.2 0.3,0.1 0.5,0.1 h 0.3 l 0.2,-0.1 0.4,-0.3 0.4,-0.3 0.1,-0.1 0.3,-0.2 0.1,-0.1 0.1,-0.2 0.3,-0.4 0.2,-0.2 0.2,-0.1 h 0.2 l 0.1,0.1 0.2,0.2 0.1,0.1 0.2,0.1 0.2,0.1 0.9,0.1 0.7,0.1 h 0.3 l 0.1,-0.1 0.1,-0.2 v -0.2 -0.5 l -0.2,-0.9 v -0.1 l -0.2,-0.4 -0.1,-0.1 v -0.2 -0.2 l 0.1,-0.2 0.2,-0.3 0.1,-0.2 v -0.2 -0.3 -0.2 l 0.1,-0.3 0.3,-0.3 0.2,-0.1 h 0.2 l 0.2,0.1 0.6,0.5 0.5,0.1 1.1,0.1 1.2,2.3 0.5,0.6 0.9,0.5 1,0.8 0.6,0.3 1.1,0.3 0.3,0.1 0.4,0.1 1,0.1 h 1 l 1.6,-0.1 0.9,0.2 1,1 0.5,0.6 0.1,0.2 0.2,0.4 0.1,0.4 0.2,0.7 v 0.3 l -0.1,0.3 -0.2,0.1 -0.1,0.2 -0.1,1.3 v 0.2 l -0.1,0.2 -0.1,0.1 -0.2,0.1 -0.1,0.1 -0.6,0.2 -0.2,0.1 -0.1,0.2 -0.2,0.2 -0.1,0.5 v 0.5 l 0.2,0.5 0.2,1.1 0.2,0.4 0.2,0.3 0.5,0.3 0.4,0.4 0.4,0.6 0.2,0.2 0.2,0.1 0.8,0.1 h 0.2 0.1 0.5 0.2 0.7 l 0.2,0.1 0.2,0.1 0.1,0.1 0.4,0.3 0.1,0.1 h 0.2 l 0.2,-0.1 v -0.2 l 0.1,-0.4 0.1,-0.2 0.1,-0.1 0.2,-0.1 0.1,-0.1 h 0.3 l 0.3,0.1 1.9,1.8 0.1,0.3 0.1,0.2 0.1,0.6 0.1,0.4 0.1,0.2 0.4,0.1 v 0.7 l -0.3,0.8 -0.4,0.8 -0.2,0.5 v 0.3 l 0.3,0.9 v 0.2 l -0.2,0.2 h -0.4 -0.1 l -0.5,-0.1 h -0.2 -0.3 l -0.3,0.1 -0.3,0.2 -0.5,0.4 -0.3,0.3 -0.1,0.3 -0.3,0.9 -0.2,0.3 -0.5,0.5 -0.3,0.4 -0.1,0.3 v 0.2 l -0.2,1 -0.5,2.2 0.1,1 v 0.5 l -0.2,0.8 -0.1,0.4 -0.1,0.2 -0.7,1 -0.1,0.2 v 0.3 l 0.6,0.9 0.2,0.3 0.2,0.1 0.1,0.1 0.2,0.1 0.2,0.1 0.6,-0.1 3.1,-1.3 0.8,-0.1 0.3,0.2 0.2,0.1 0.1,0.1 0.8,0.3 1.6,0.3 0.3,0.2 0.2,0.2 0.3,0.2 0.4,0.3 2,0.7 0.1,0.1 0.2,0.1 0.1,0.1 0.1,0.2 0.1,0.2 0.1,0.2 0.1,0.1 0.2,0.1 0.1,0.1 0.2,0.4 0.2,0.1 0.3,0.2 0.4,0.2 1.3,0.9 0.4,0.1 h 0.2 l 0.4,-0.2 0.3,-0.1 0.2,0.1 0.1,0.2 v 0.4 l 0.1,0.2 0.2,0.2 0.2,0.3 0.2,0.1 h 0.2 l 0.2,-0.2 0.2,-0.1 h 0.5 l 0.2,0.1 0.1,0.2 0.1,0.8 v 0.1 l 0.1,0.3 0.2,0.3 0.5,0.6 0.9,0.9 0.2,0.3 0.1,0.2 v 0.2 0.2 l -0.1,0.4 v 0.2 l 0.1,0.3 0.7,0.6 0.2,0.3 0.5,1.3 0.1,0.2 0.2,0.3 0.4,0.3 0.3,0.1 0.1,-0.1 v -0.2 l -0.1,-1.3 V 234 l 0.1,-0.2 0.1,-0.1 0.2,-0.1 0.1,-0.2 0.3,-0.3 0.2,-0.4 0.2,-0.4 0.1,-0.6 v -0.2 -0.3 -0.2 l -0.5,-1.5 -0.5,-0.9 v -0.1 l -0.1,-0.3 -0.1,-0.2 v -0.2 l 0.1,-0.4 0.1,-0.4 0.1,-0.3 v -0.2 l -0.1,-0.5 -0.1,-0.3 -0.1,-0.2 -0.1,-0.1 -0.2,-0.1 -0.3,-0.2 -0.2,-0.1 -0.1,-0.2 -0.1,-0.1 v -0.2 l -0.1,-0.5 v -0.2 -0.2 l 0.2,-1.3 0.1,-0.2 0.1,-0.2 0.3,-0.2 0.1,-0.1 0.2,-0.4 0.1,-0.2 v -0.2 l 0.1,-0.4 v -0.5 l -0.1,-0.8 v -0.3 l -0.2,-1.1 v -0.2 h 0.1 l 0.5,0.2 0.2,0.1 0.1,0.1 0.1,0.1 0.1,0.1 0.2,0.1 0.2,0.1 4.2,0.1 z"/>
    <path d="m 149.8,275.5 0.2,2 0.1,0.2 0.2,0.4 0.1,0.2 0.2,0.1 0.1,0.2 0.8,0.4 0.2,0.2 0.1,0.2 v 0.3 0.3 l 0.1,0.1 v 0.1 l 0.1,0.1 h 0.1 l 0.1,0.2 0.1,0.3 v 0.2 0.2 0.2 l -0.4,0.4 -0.1,0.2 v 0.2 0.2 l 0.2,0.4 v 0.3 l 0.1,0.3 0.2,0.2 0.3,0.1 h 0.3 0.4 l 1.6,-0.2 h 0.3 l 0.2,0.1 0.1,0.1 0.1,0.2 0.1,0.2 0.2,0.1 0.2,-0.2 0.1,-0.2 0.1,-0.4 0.1,-0.1 0.2,-0.1 h 0.2 l 0.2,-0.1 0.2,-0.1 0.1,-0.3 v -0.3 l -0.3,-2.2 -0.2,-1.1 -0.1,-0.6 v -0.4 l 0.2,-0.2 0.2,-0.2 0.1,-0.2 v -0.8 l 0.2,-0.3 0.4,-0.3 v -0.2 l 0.1,-0.2 -0.1,-0.4 -0.1,-0.3 -0.2,-0.5 -0.2,-0.6 -0.2,-0.3 -0.2,-0.2 h -0.2 -0.2 l -0.6,0.2 -0.3,0.2 -0.4,0.1 h -0.4 l -1.4,-0.6 -0.7,-0.8 -0.2,-0.1 -0.2,0.1 h -0.1 l -0.1,0.1 -0.4,0.4 -0.7,0.3 -0.1,0.1 -0.1,0.1 -0.2,0.4 -0.8,1.4 z" fill="#7a0177"/>
    <path d="m 156.70771,289.87247 -0.008,-1.52556 -1.01889,0.0187 L 155.2,287.8 l -0.2,-1 -0.4,0.3 h -0.3 l -0.3,0.2 -0.8,0.2 -0.4,0.2 -0.1,0.3 0.1,0.3 0.2,0.3 v 0.3 l -0.1,0.2 -0.1,0.4 0.2,0.9 v 0.2 l -0.1,0.2 -0.1,0.3 -0.2,0.1 -0.2,0.6 0.1,0.4 0.2,0.4 0.3,0.2 0.2,0.1 0.4,-0.1 0.8,-0.7 0.3,-0.4 0.2,-0.5 0.0947,-0.39103 0.22294,0.001 0.0228,-0.94164 z" fill="#7a0177"/>
  </g>
</svg>
