<?xml version="1.0" encoding="UTF-8" standalone="no"?>
<svg xmlns="http://www.w3.org/2000/svg" id="svg4045" version="1.1" viewBox="0 0 316.019 287.485" height="1086.557" width="1194.401">
  <g transform="translate(108.116 49.338)" id="layer1">
    <g transform="matrix(4.55406 0 0 4.54983 -4052.057 -828.899)" id="g3993" stroke="#000" stroke-width="0.0290627">
      <path d="m 909.63803,171.83714 0.73989,-0.168 0.0553,1.719 2.31416,-0.731 -0.0945,4.002 -1.07863,0.459 1.43877,3.43 -1.77574,2.218 -0.65852,0.34006 0.3381,0.96295 -2.74968,0.86699 -0.0553,0.306 0.0374,0.191 0.1462,0.146 0.21751,0.136 -0.0321,0.05 h -0.24069 l -0.77515,-0.246 -0.35728,-0.42266 -0.73867,0.5944 -0.39671,-0.63874 -0.14976,-0.264 -0.3227,-0.531 -0.90035,-1.89 -0.14441,-0.168 -0.46712,-0.1 -1.57427,-8.743 7.22419,-1.528" style="fill:#fdd49e"/>
      <path d="m 904.53367,185.29014 -0.54556,-3.182 0.46712,0.1 0.14441,0.168 0.90035,1.89 0.3227,0.531 0.14976,0.264 0.39671,0.63874 0.73867,-0.5944 0.35728,0.42266 0.77515,0.246 h 0.24069 l 0.0321,-0.05 0.62579,0.233 1.35141,0.442 2.98809,2.115 -0.0571,1.116 -0.2086,0.481 -0.041,0.186 0.0499,1.094 0.0481,0.109 0.27456,0.171 -1.15887,0.314 -2.90964,2.2 -3.99185,3.389 -0.0981,0.188 -0.0499,0.247 -1.79713,-2.312 1.25158,-1.278 2.26396,-2.33389 -1.61143,-1.48311 -0.2817,-1.623 -0.62757,-3.68" style="fill:#fdbb84"/>
      <path d="m 917.18314,180.95814 0.58656,1.792 0.2953,1.54884 0.92597,-0.28684 0.62043,-0.307 0.24069,0.154 0.74702,0.843 2.00752,2.492 -0.88431,-0.05 -0.5616,0.136 -2.31417,0.7 -1.4459,0.608 -0.78803,0.115 -0.37084,-0.459 -0.1355,0.06 -1.96116,2.283 -0.26564,0.371 -0.31379,0.594 -0.0214,0.09 v 0.02 l -0.27456,-0.171 -0.0481,-0.109 -0.0499,-1.094 0.041,-0.186 0.2086,-0.481 0.0571,-1.116 -2.98809,-2.115 -1.35141,-0.442 -0.62579,-0.233 -0.21751,-0.136 -0.1462,-0.146 -0.0374,-0.191 0.0553,-0.306 2.74968,-0.86699 -0.3381,-0.96295 0.65852,-0.34006 1.77574,-2.218 0.68358,-0.26216 0.5598,1.76871 2.92676,-1.09655" style="fill:#fdbb84"/>
      <path d="m 898.58306,212.13675 0.25882,0.14827 0.31288,-0.54635 0.76227,-0.009 0.9291,0.0802 0.91853,0.42381 0.894,0.0209 -0.25498,-0.98692 -0.19763,-0.0205 -0.0144,-0.16906 -0.28589,-0.17119 -0.007,-0.14852 0.0887,-0.10463 0.0553,-0.07 h 0.12123 l 0.23178,0.107 0.63942,0.83487 0.38462,1.55006 0.13015,0.535 0.0107,0.04 0.14441,1.075 0.0392,0.467 0.025,0.99 -0.0451,3.287 -0.66948,0.23552 -0.66947,-0.77422 -0.37395,0.80195 -0.57096,0.0877 -1.14409,0.11851 -0.14849,-0.60901 -0.71493,-0.5105 -2.44431,0.483 -2.00751,2.676 -0.89322,-1.196 -0.66501,-0.901 0.89143,-0.659 1.03407,-1.221 v -0.06 l -0.0945,-0.168 1.55883,-1.16582 1.85435,-3.13604 -0.0839,-1.34653" style="fill:#fdbb84"/>
      <path d="m 894.98106,221.98714 2.00751,-2.676 2.44431,-0.483 0.71493,0.5105 0.14849,0.60901 1.14409,-0.11851 0.57096,-0.0877 0.37395,-0.8019 0.66947,0.77427 0.66948,-0.23547 -0.009,0.426 0.0981,1.879 0.0303,0.523 0.1355,1.59 -0.69418,2.34521 -0.23724,1.41845 0.61508,0.62613 -0.22563,0.95645 -1.70135,3.18974 0.90965,1.21902 -0.52416,0.546 -2.1341,-0.967 0.24069,-0.415 0.0571,-0.562 -0.92531,-4.009 -4.04176,-5.804 -0.33696,-0.458" style="fill:#fdbb84"/>
      <path d="m 899.51915,209.92631 -0.0713,0.03 -0.16224,0.226 -0.25316,0.225 h -0.0731 l -0.25852,0.272 -0.16224,0.1 -0.11945,0.191 -0.41185,0.168 -0.0945,-0.06 -0.12224,-0.12562 -0.0355,-0.15955 0.0819,-0.16807 -0.17284,-0.54233 0.21137,-0.35414 0.18179,-0.008 0.16217,-0.29212 0.005,-0.73473 -0.10127,-0.22746 -0.10155,-0.55605 0.22549,-0.30172 0.40369,-0.0943 0.31382,-0.0397 0.22354,-0.0578 0.17713,-0.05 0.53033,-0.2189 0.18721,-0.03 0.13728,0.137 0.12836,0.378 0.35123,0.401 -0.0464,0.25 -0.64183,1.261 -0.41184,0.411 -0.0802,-0.02" style="fill:#e34a33"/>
      <path d="m 895.47848,202.42014 2.79732,1.189 -0.12124,0.829 -0.15799,0.93904 0.28549,0.21333 0.16454,-0.32088 0.43423,-0.0449 0.11169,0.4691 0.12177,0.23728 -0.0705,0.37062 -0.21125,0.4815 -0.56608,-0.25869 -0.55242,0.2061 -0.48219,-0.36384 -0.94453,-0.0883 -0.37037,0.25341 -1.29995,-0.15669 -0.21138,-1.12195 0.3586,-0.88446 0.0736,-1.05862 -0.30638,-0.15615 -0.0855,-0.87792 1.03221,0.1441" style="fill:#fc8d59"/>
      <path d="m 894.61735,206.37514 1.29995,0.15669 0.37037,-0.25341 0.94453,0.0883 0.48219,0.36384 0.55242,-0.2061 0.56608,0.25869 -0.18618,0.66597 -0.35596,0.14095 -0.0802,0.03 -0.0392,0.06 -0.17593,0.23245 0.0558,0.23558 0.10728,0.515 0.0122,0.346 -0.60403,-0.0335 -0.58899,0.24606 -0.37138,-0.17138 -2.349,0.63641 -0.48316,0.12467 0.59526,-0.66065 0.10313,-1.02973 -0.75809,0.22792 -0.29331,-0.25054 1.19631,-1.71931" style="fill:#fc8d59"/>
      <path d="m 900.79856,203.52214 -0.16224,2.161 -0.21971,-0.0502 -0.44538,0.49233 0.18702,0.47435 -0.37271,0.22328 0.0787,0.26895 -1.21748,0.35729 0.28697,-0.54502 0.27173,-0.44118 0.01,-0.60244 -0.22256,-0.16673 -0.11169,-0.4691 -0.43423,0.0449 -0.16454,0.32088 -0.28549,-0.21333 0.15799,-0.93904 0.87972,0.0581 0.41494,-0.89884 0.61999,-0.57075 0.72935,0.49552" style="fill:#fc8d59"/>
      <path d="m 895.22174,196.86114 6.08137,1.819 0.0268,1.884 -0.0713,0.74685 -0.45998,2.21115 -0.72935,-0.49552 -0.61999,0.57075 -0.41494,0.89884 -0.87972,-0.0581 0.12124,-0.829 0.0802,-0.08 0.10519,-0.85 -0.025,-0.122 -0.69889,-1.228 -0.16625,-0.79481 -0.6048,-0.38378 -1.17302,0.18194 -0.94953,-0.73235 0.37797,-2.739" style="fill:#fc8d59"/>
      <path d="m 898.17061,209.01114 0.016,0.129 -0.009,0.273 -0.0765,0.19457 -0.041,0.0942 -0.11232,0.006 -0.11945,0.01 -0.24247,0.28 -0.007,0.176 0.19968,0.457 -0.13517,0.73743 -0.0107,0.03 -0.0232,0.257 0.15075,0.23123 0.34331,0.0855 0.47108,0.17589 h 0.005 0.005 l 0.0839,1.34653 -1.85435,3.13604 -1.55883,1.16582 -0.1242,-0.54752 -1.2038,-0.11384 -1.39758,-0.51984 -0.20724,-1.0458 0.10519,-0.03 0.2086,-0.241 0.0992,-0.68607 1.8015,-2.34944 -0.68663,-0.41449 -0.43502,-0.353 -0.44928,-0.481 -0.025,-0.168 0.11232,-0.331 0.10519,-0.129 0.61687,-0.56769 0.48316,-0.12467 2.349,-0.63641 0.37138,0.17138 0.58899,-0.24606 0.60403,0.0335" style="fill:#fc8d59"/>
      <path d="m 893.42104,208.09445 0.29331,0.25054 0.75809,-0.22792 -0.10313,1.02973 -0.59526,0.66065 -0.61687,0.56769 -0.10519,0.129 -0.11232,0.331 0.025,0.168 0.44928,0.481 0.43502,0.353 0.68663,0.41449 -1.8015,2.34944 -0.0992,0.68607 -0.2086,0.241 -0.10519,0.03 -0.10162,-0.191 -0.51525,-0.06 -1.12677,0.644 -0.68997,-1.004 -0.10698,-0.144 -1.26296,-1.88379 0.48688,0.1322 0.31254,-1.03841 0.11945,-0.191 0.19255,-1.494 -0.47526,-0.42357 -0.16836,-1.39543 -0.12836,-0.24 -0.11232,-0.08 2.67608,-1.519 0.29944,0.35552 0.66377,0.68828 -0.12886,0.76087 0.27466,0.52433 0.89143,-0.90869" style="fill:#fdbb84"/>
      <path d="m 890.61124,199.06114 0.43786,0.26633 0.11278,0.85553 0.62072,-0.52605 0.58008,0.46951 0.97992,0.0397 h 1.27148 l 0.19578,0.48473 0.29737,-0.12479 0.23641,0.91139 0.13484,0.99267 -1.03221,-0.1441 0.0855,0.87792 0.30638,0.15615 -0.0736,1.05862 -0.3586,0.88446 0.21138,1.12195 -1.19631,1.71931 -0.89143,0.90869 -0.27466,-0.52433 0.12886,-0.76087 -0.66377,-0.68828 -0.29944,-0.35552 -2.67608,1.519 -1.68753,-0.0777 -1.43071,-0.82834 0.99412,-1.36068 0.42861,-1.91132 0.49087,-0.42506 0.65049,0.50981 1.03812,-1.10911 -0.21598,-0.67588 1.59867,-3.25076" style="fill:#fdbb84"/>
      <path d="m 894.8206,196.74014 0.40114,0.121 -0.37797,2.739 0.94953,0.73235 1.17302,-0.18194 0.6048,0.38378 0.16625,0.79481 0.69889,1.228 0.025,0.122 -0.10519,0.85 -0.0802,0.08 -2.79732,-1.189 -0.13483,-0.99267 -0.23642,-0.91139 -0.29737,0.12479 -0.19578,-0.48473 h -1.27148 l -0.97992,-0.0397 -0.58008,-0.46951 -0.62072,0.52605 -0.11278,-0.85553 -0.43786,-0.26633 1.69373,-3.173 2.51563,0.852" style="fill:#e34a33"/>
      <path d="m 892.30497,195.88814 -1.69373,3.173 -1.59867,3.25076 0.21598,0.67588 -1.03812,1.10911 -0.65049,-0.50981 -0.49087,0.42506 -4.35555,-3.432 -0.0963,-0.119 0.68462,-0.963 0.47425,-1.118 0.1034,-0.692 -0.0321,-0.378 -0.0713,-0.07 0.0321,-0.313 0.20859,-0.892 0.0874,-0.257 0.41006,-0.843 0.48138,-0.522 1.01445,-0.731 6.31493,2.209" style="fill:#fdd49e"/>
      <path d="m 882.69352,200.58014 4.35555,3.432 -0.42861,1.91132 -0.99412,1.36068 -0.16581,0.44 -0.7488,1.439 -0.13729,0.185 -0.97879,0.983 -1.68838,1.884 -0.37618,0.644 -0.18721,-0.362 -0.1141,-0.209 -0.42432,-1.64 -0.17829,-1.387 0.29239,-0.686 0.1355,-0.04 0.25673,0.03 0.2603,-0.04 0.35123,-0.486 0.57765,-1.771 0.009,-0.135 -0.0571,-0.136 -1.63133,-1.922 1.87202,-3.496" style="fill:#fdbb84"/>
      <path d="m 885.62634,207.28414 1.43071,0.82834 1.68753,0.0777 0.11232,0.08 0.12836,0.24 0.16836,1.39543 0.47526,0.42357 -0.19255,1.494 -0.11945,0.191 -0.31254,1.03841 -0.48688,-0.1322 1.26296,1.88379 0.10698,0.144 -0.89593,0.30357 0.23084,0.7497 -1.1413,0.41594 0.17892,0.32694 0.20117,0.37885 -1.21057,0.435 h -0.16759 l -0.1141,-0.06 -1.67055,-1.013 -1.3015,-2.619 -2.4657,-1.005 0.37618,-0.644 1.68838,-1.884 0.97879,-0.983 0.13729,-0.185 0.7488,-1.439 0.16581,-0.44" style="fill:#fdd49e"/>
      <path d="m 889.8874,214.95014 0.68997,1.004 1.12677,-0.644 0.51525,0.06 0.10162,0.191 0.20724,1.0458 1.39758,0.51984 1.2038,0.11384 0.1242,0.54752 0.0945,0.168 v 0.06 l -1.03407,1.221 -0.89143,0.659 0.66501,0.901 -2.09639,-0.58812 -0.27305,0.91812 -4.63546,-3.561 h 0.16759 l 1.21057,-0.435 -0.20117,-0.37885 -0.17892,-0.32694 1.1413,-0.41594 -0.23084,-0.7497 0.89593,-0.30357" style="fill:#fdbb84"/>
      <path style="fill:#fdbb84" d="m 901.25781,201.41797 -0.45898,2.21094 -0.15137,2.16308 0.0459,0.2334 -0.003,0.1897 0.10306,0.004 0.12695,-0.1543 -0.0125,-0.16979 -0.0207,-0.10267 0.23242,-0.26465 0.26758,-0.15429 0.0918,-0.625 0.0234,-0.27149 0.34375,-0.81054 0.22852,-0.42188 -0.34961,-0.11719 -0.28125,-0.58789 0.17383,-1.08789 z" transform="translate(0 -.107)"/>
      <path d="m 894.94005,174.45814 0.33161,3.938 0.96702,0.43776 0.18755,2.4124 0.36192,0.738 0.36088,3.57684 -1.62242,0.603 -0.0191,-0.74495 -1.61347,0.31618 0.13683,0.60613 -0.30487,0.0605 -0.75896,0.20384 -1.2391,-0.69609 -1.48043,1.24641 -0.74703,-1.109 -1.86488,-0.811 -1.64559,-0.765 0.33697,-0.859 0.65787,-1.51 0.34588,-1.036 -3.79929,-1.214 -2.35518,-0.715 4.66043,-4.692 2.67608,0.682 1.29615,-0.16 2.64221,-0.339 0.14442,-1.79 0.74702,-0.242 1.6545,0.699 -0.0571,1.166" style="fill:#fdd49e"/>
      <path d="m 901.32986,200.56414 2.44966,0.291 0.0865,0.31583 0.30677,0.0197 -0.035,0.26234 -0.14332,0.26209 -0.13036,0.012 -0.12312,-0.21047 -0.14711,-0.17795 -0.21742,0.12614 0.14562,0.61339 0.11504,-0.0101 0.1919,0.17217 0.20862,0.19963 -0.0435,0.0342 -0.32152,-0.0825 -0.2734,0.0707 -0.0692,0.13902 -0.23642,-0.13608 -0.095,0.24687 -0.26483,-0.0294 -0.0453,0.21174 -0.003,0.28395 -0.14147,0.0874 -0.17895,-0.0487 -0.0239,-0.22101 0.0732,-0.0652 -0.12182,-0.0739 -0.12106,0.1037 -0.0972,0.17723 -0.34928,-0.11812 -0.2821,-0.58834 0.1747,-1.0871 -0.35856,-0.0332 0.0713,-0.74685" style="fill:#e34a33"/>
      <path d="m 900.90956,206.00866 0.20891,-0.58893 0.26912,-0.1541 0.09,-0.62431 0.2765,-0.0895 0.4227,0.30341 0.4052,0.45268 0.29663,0.24459 0.38708,-0.33446 0.4052,0.61553 0.007,0.25364 0.10662,0.27173 0.13022,-0.0768 0.37273,0.34163 -0.007,0.52257 -0.40004,0.62459 -0.98993,0.27517 -1.14331,0.46102 -0.55569,0.0626 -0.007,-0.23505 0.32263,-0.11176 0.004,-0.23236 -0.37477,-0.12707 -0.25937,0.009 -0.24136,-0.61254 0.31597,-0.72319 -0.19184,-0.33685 z" style="fill:#fc8d59"/>
      <path d="m 898.09038,191.71814 0.55626,1.166 1.02693,1.406 0.91639,1.036 0.10519,0.264 0.60796,3.09 -6.08137,-1.819 -0.40114,-0.121 3.26978,-5.092 v 0.07" style="fill:#b30000"/>
      <path style="fill:#e34a33" d="m 907.92188,198.98438 -0.40626,0.1875 -0.33007,0.0566 -1.02344,0.57226 -0.35156,0.66406 0.45898,1.23828 -0.69726,-0.83398 -0.59571,-0.0586 -0.27734,0.22461 -0.0508,0.36718 0.20117,0.23438 0.4375,-0.01 -0.11328,0.35157 -0.81445,-0.20508 -0.0156,0.58203 0.43359,0.5918 1.06055,0.47461 0.0684,0.50195 -0.36719,0.19531 0.38477,1.53516 -0.19531,0.22265 0.002,0.28907 -0.32227,0.2871 0.0645,0.23438 0.22265,0.0625 0.12891,-0.0176 0.22266,0.3125 -0.16993,0.0117 -0.0527,0.23633 0.77539,-0.11328 1.33984,-0.32617 0.85352,-0.27149 0.002,-0.32226 -0.61523,0.14648 -0.23633,0.20898 -0.30469,0.0117 -0.85351,0.36524 -0.72461,0.0508 0.77148,-0.39063 0.24024,-0.0566 1.04492,-0.51758 0.60156,-0.1582 0.34766,0.1836 0.77228,-0.60845 0.27329,-0.19426 0.2255,-0.12893 -0.13947,-0.16677 -0.27614,-0.24727 0.69335,-0.2539 0.34375,-0.20313 -1.71289,-4.37695 -0.33203,-0.10938 -0.3125,-0.20117 -0.0976,-0.2168 -0.40625,0.16407 0.0469,-0.28907 z m 3.18912,5.73293 -0.24876,0.39429 -0.53993,0.31037 -0.47657,0.41992 -0.51367,0.44336 -0.26953,0.16601 -0.16602,0.2793 0.0664,0.0606 0.74219,-0.50586 0.56836,-0.22852 1.11353,-0.6404 z" transform="translate(0 -.107)"/>
      <path d="m 897.14903,185.56114 -0.3392,2.57728 0.67794,0.93672 0.84269,0.74512 -0.24008,1.82788 -3.26978,5.092 -2.51563,-0.852 -6.31493,-2.209 -1.36746,-1.337 -0.22464,-0.503 -0.2086,-0.87 0.016,-0.06 0.12124,-0.1 4.57127,-1.292 0.44216,-1.157 0.32091,-0.692 0.58657,-0.523 1.48043,-1.24641 1.2391,0.69609 0.75896,-0.20384 0.30487,-0.0605 -0.13683,-0.60613 1.61347,-0.31618 0.0191,0.74495 1.62242,-0.603" style="fill:#fc8d59"/>
      <path d="m 902.07378,203.13775 0.28447,0.16514 0.0216,0.19712 0.12733,0.017 0.0592,-0.15468 0.15616,-0.02 0.42078,0.28102 0.063,-0.11059 -0.18951,-0.37484 0.11515,-0.22406 0.16979,-0.0359 0.14067,-0.19805 0.25803,0.0563 0.2232,-0.0551 0.14278,0.11851 0.15611,-0.19232 0.47818,0.40384 0.0765,-0.17028 1.06147,0.47448 0.0683,0.50096 -0.36877,0.19638 0.38609,1.53392 -0.1966,0.22286 0.002,0.28908 -0.32063,0.28747 0.0634,0.23449 0.22233,0.0623 0.12962,-0.0171 0.22717,0.31556 -0.30596,0.19338 -0.19903,0.002 -1.03444,0.66659 -0.96811,0.69417 -0.64919,0.44472 -0.0157,-0.32387 0.48567,-0.39458 0.5154,-0.45272 0.40004,-0.62459 0.007,-0.52257 -0.37273,-0.34163 -0.13022,0.0768 -0.10662,-0.27173 -0.007,-0.25364 -0.4052,-0.61553 -0.38708,0.33446 -0.29663,-0.24459 -0.4052,-0.45268 -0.4227,-0.30341 -0.2765,0.0895 0.0234,-0.27078 0.34558,-0.8111 0.2272,-0.42169" style="fill:#fc8d59"/>
      <path style="fill:#fc8d59" d="m 928.4765,187.7727 0.29512,0.14121 0.15585,-0.36379 0.33835,-0.25205 -0.51272,0.0444 z m -0.34191,0.55072 -0.701,0.0555 -0.74218,0.67773 -0.4375,0.082 -0.42774,1.26953 -0.71094,0.32227 -0.35742,0.80273 -0.70312,0.54102 -0.8125,1.34375 -1.77539,0.80469 -1.29297,0.50976 -1.98828,0.51367 -2.43946,0.60547 -1.36718,0.16992 -0.70508,0.37696 0.3457,0.83008 -1.0957,0.80859 -1.38086,-0.18945 -0.79492,0.16211 -0.65821,-0.27539 -0.39257,-0.11915 0.0977,0.81641 0.82617,-0.17969 0.0899,0.2461 -1.27149,0.23047 -0.16992,-0.44532 -0.92578,-0.0957 -0.15039,0.36328 1.05273,1.3711 1.71289,4.3789 0.92774,-0.39258 1.3457,-0.86328 0.54688,-0.82422 0.24218,0.17969 1.21094,-0.0332 0.0977,-0.63867 1.0664,-0.15235 0.76368,-0.70117 0.57226,-0.34961 0.75391,0.0137 0.23242,-0.48633 0.61328,-0.0957 0.16016,0.27735 0.51758,-0.19141 0.29101,-0.34375 0.3457,-0.19922 0.20118,-0.54688 0.65234,-0.0508 0.36914,-0.74218 0.56445,0.10351 0.51368,-0.32422 0.20312,0.11524 -1.41016,0.9707 0.0723,0.082 1.64062,-1.03906 1.81446,-1.23242 0.36498,-0.20438 0.25707,-0.20209 -0.0435,-0.10753 0.1174,-0.32553 -0.15302,-0.006 -0.25585,0.28806 -0.13314,-0.0433 0.0584,-0.54687 -0.12118,-0.13663 0.41997,-0.16553 0.52775,0.0189 0.084,0.31451 -0.44556,0.5439 0.0601,0.1078 1.14936,-0.81054 4.10742,-3.56641 1.82812,-1.51562 1.76172,-1.4668 0.2168,-0.49219 -0.89648,-0.0781 -0.78907,0.58984 -0.10547,0.69141 -0.27148,-0.18555 -0.50781,0.90234 -0.41407,0.1211 -0.37695,0.4082 -0.19141,0.39258 -0.25,0.002 -0.63085,-0.55859 -0.0781,-0.40821 -0.48437,-0.18164 -0.375,0.60157 -0.82422,-0.1211 -0.0274,0.8086 -0.22851,0.082 -0.11328,0.27344 -0.44336,0.0859 -0.4375,-0.66601 -0.31641,0.16211 0.34961,0.66211 -0.80664,0.27343 -0.33399,1.09375 -0.55273,0.47071 -0.17383,0.84179 -0.51758,0.4375 -1.26757,-0.0996 -0.75782,0.15039 0.0449,-0.38281 0.45703,-0.10547 0.375,-0.65625 0.0879,-0.52929 0.81836,-0.51758 0.0879,-0.48438 0.63281,0.32618 -0.31836,-0.73243 0.12891,-0.34179 0.78906,-0.15235 -0.0156,-0.3125 -0.61132,0.0273 0.36132,-0.77735 0.36914,-0.61328 0.2129,-0.48828 0.35937,-0.46875 0.49805,0.37695 0.52344,-0.51172 z m 2.00213,0.26056 v 0.56055 l 0.37695,0.18359 0.28516,-0.0137 0.31055,0.63282 0.16601,-0.12696 -0.10742,-0.99609 z m -3.1836,1.22266 -0.6914,1.0293 0.55664,0.48242 0.38476,-0.0156 0.34766,-0.34179 0.6836,0.32617 -0.0645,-0.58399 -0.27148,-0.49414 -0.64844,-0.11914 z m -5.38085,9.32617 -1.35743,0.97461 -0.48632,0.23242 -0.47461,0.34375 -0.24024,0.0488 -0.22461,0.24805 -0.41797,0.27734 -1.37109,1.20313 -1.42188,0.80468 -0.42773,0.28711 -0.44336,0.14649 -0.22461,0.28125 -0.64453,0.33008 -0.37891,0.0957 -0.21875,-0.0859 -0.28125,0.16602 0.0977,0.29297 0.84961,-0.19922 0.90234,-0.5957 0.5293,-0.29102 0.38477,-0.29297 1.38672,-0.74023 1.16992,-1.00977 1.13086,-0.81641 0.54101,-0.40429 1.72852,-1.1836 z m -7.64649,4.34961 -0.80273,0.49024 -1.03321,0.28906 -0.97851,0.45508 0.27539,0.79882 1.37109,-1.04492 0.27344,-0.22656 0.91797,-0.1543 0.43359,-0.27148 -0.10547,-0.21289 -0.14257,-0.0566 z" transform="translate(0 -.107)"/>
      <path d="m 898.09038,191.71814 7.07086,-2.748 0.2817,1.623 1.61143,1.48311 -2.26396,2.33389 -1.25158,1.278 1.79713,2.312 -1.55644,2.855 -2.44966,-0.291 -0.0268,-1.884 -0.60796,-3.09 -0.10519,-0.264 -0.91639,-1.036 -1.02693,-1.406 -0.55626,-1.166" style="fill:#e34a33"/>
      <path d="m 904.53367,185.29014 0.62757,3.68 -7.07086,2.748 v -0.07 l 0.24008,-1.82788 -0.84269,-0.74512 0.5313,-1.303 5.70518,-2.266 0.80942,-0.216" style="fill:#fdbb84"/>
      <path d="m 902.41384,173.36514 1.57427,8.743 0.54556,3.182 -0.80942,0.216 -5.70518,2.266 -0.5313,1.303 -0.67794,-0.93672 0.3392,-2.57728 -0.36088,-3.57684 -0.36192,-0.738 -0.18755,-2.4124 -0.96702,-0.43776 -0.33161,-3.938 0.22642,-0.1 h 0.21573 l 2.72066,0.65 0.84686,0.234 3.19134,-0.113 0.11232,-1.736 0.16046,-0.04" style="fill:#fdbb84"/>
      <path d="m 866.30359,208.56214 4.00789,-3.118 -0.21751,-0.451 -0.67392,-0.548 -0.0802,-0.483 0.007,-0.199 0.0499,-0.104 0.92531,-1.102 0.0695,-0.06 0.41006,-0.146 0.35301,0.201 0.54734,0.193 2.69214,2.298 -1.01446,1.239 2.24464,2.587 -2.14658,1.114 -2.25889,1.721 -2.58826,-1.23401 -2.32712,-1.91299" style="fill:#fef0d9"/>
      <path d="m 878.6678,189.13814 0.45998,1.053 0.7381,0.723 0.52239,0.497 1.831,0.95 0.29774,0.137 1.35142,-0.07 0.75415,-0.08 1.36746,1.337 -1.01445,0.731 -0.48138,0.522 -0.41006,0.843 -0.0874,0.257 -0.20859,0.892 -0.0321,0.313 0.0713,0.07 0.0321,0.378 -0.1034,0.692 -0.47425,1.118 -0.68462,0.963 -0.23355,0.328 -0.57765,0.362 -1.24979,-1.0284 -1.2498,-0.0166 -0.016,-2.432 -3.81713,1.163 0.37084,-2.159 -0.5849,-0.10376 -0.34683,-0.69893 1.31965,-0.19303 1.20062,-2.75228 1.25514,-3.792" style="fill:#fdd49e"/>
      <path d="m 875.45328,198.83714 3.81713,-1.163 0.016,2.432 1.24979,0.0166 1.2498,1.0284 0.57765,-0.362 0.23355,-0.328 0.0963,0.119 -1.87202,3.496 -1.29927,1.1995 -0.81024,1.45688 -1.63386,1.53409 -1.45369,0.60753 -2.24464,-2.587 1.01446,-1.239 -2.69214,-2.298 -0.54734,-0.193 0.61866,-1.066 1.24622,-1.956 2.43362,-0.698" style="fill:#fdd49e"/>
      <path d="m 880.8215,204.07614 1.63133,1.922 0.0571,0.136 -0.009,0.135 -0.57765,1.771 -0.35123,0.486 -0.2603,0.04 -0.25673,-0.03 -0.1355,0.04 -0.29239,0.686 0.17829,1.387 0.42432,1.64 0.1141,0.209 -1.96115,2.139 -1.42791,-0.70913 0.18962,-0.97215 -1.20034,-1.01308 -0.65287,0.55536 -0.57052,-0.353 -0.77767,-1.2408 -0.36336,0.5348 -0.57052,-0.353 -0.22643,-0.285 -0.30487,-0.812 2.14658,-1.114 1.45369,-0.60753 1.63386,-1.53409 0.81024,-1.45688 1.29927,-1.1995" style="fill:#fdd49e"/>
      <path d="m 873.47786,209.98814 0.30487,0.812 0.22643,0.285 0.57052,0.353 0.36336,-0.5348 0.77767,1.2408 0.57052,0.353 0.65287,-0.55536 1.20034,1.01308 -0.18962,0.97215 1.42791,0.70913 -1.95938,3.236 -0.91639,-0.479 -7.27233,-3.874 1.98434,-1.81 2.25889,-1.721" style="fill:#fdbb84"/>
    </g>
    <g id="g1003" transform="matrix(.26458 0 0 .26458 127.715 -62.671)">
      <path d="m 20,820 h 40 v 40 H 20 Z" fill="#fdd49e"/>
      <path d="m 20,870 h 40 v 40 H 20 Z" fill="#fdbb84"/>
      <path d="m 20,920 h 40 v 40 H 20 Z" fill="#fc8d59"/>
      <path d="m 20,970 h 40 v 40 H 20 Z" fill="#e34a33"/>
      <path d="m 20,770 h 40 v 40 H 20 Z" fill="#fef0d9"/>
      <path d="m 20,1020 h 40 v 40 H 20 Z" fill="#b30000"/>
      <g font-size="30" font-family="Verdana">
        <text x="70" y="1050">
          <tspan id="tspan905" x="70" y="1050">≥ 357</tspan>
        </text>
        <text y="1000" x="70">
          <tspan y="1000" x="70" id="tspan919">≥ 237</tspan>
        </text>
        <text x="70" y="950">
          <tspan id="tspan923" x="70" y="950">≥ 144</tspan>
        </text>
        <text y="900" x="70">
          <tspan y="900" x="70" id="tspan927">≥ 77</tspan>
        </text>
        <text x="70" y="850">
          <tspan id="tspan931" x="70" y="850">≥ 37</tspan>
        </text>
        <text y="800" x="70">
          <tspan y="800" x="70" id="tspan935">&lt; 37</tspan>
        </text>
        <text x="20" y="750">
          <tspan id="tspan939" x="20" y="750">2020-05-02</tspan>
        </text>
      </g>
    </g>
  </g>
</svg>
