<?xml version="1.0" encoding="UTF-8"?>
<svg xmlns="http://www.w3.org/2000/svg" width="1440" height="1014">
  <g id="legend" transform="matrix(0.99238573,0,0,0.99238573,207.80529,-1576.8517)">
    <g id="Text" font-size="30" font-family="Verdana" fill="#000">
      <text x="-200" y="1626">
        <tspan x="-200" y="1626">2020-05-24</tspan>
      </text>
      <text x="-150" y="1676">
        <tspan x="-150" y="1676">&lt; 1.49</tspan>
      </text>
      <text x="-150" y="1726">
        <tspan x="-150" y="1726">≥ 1.49</tspan>
      </text>
      <text x="-150" y="1776">
        <tspan x="-150" y="1776">≥ 3.80</tspan>
      </text>
      <text x="-150" y="1826">
        <tspan x="-150" y="1826">≥ 7.64</tspan>
      </text>
      <text x="-150" y="1876">
        <tspan x="-150" y="1876">≥ 13.03</tspan>
      </text>
    </g>
    <g id="legend-boxes">
      <path d="m -200 1646 h 40 v 40 h -40 z" fill="#feebe2"/>
      <path d="m -200 1696 h 40 v 40 h -40 z" fill="#fbb4b9"/>
      <path d="m -200 1746 h 40 v 40 h -40 z" fill="#f768a1"/>
      <path d="m -200 1796 h 40 v 40 h -40 z" fill="#c51b8a"/>
      <path d="m -200 1846 h 40 v 40 h -40 z" fill="#7a0177"/>
    </g>
  </g>
  <g stroke="#000" stroke-width="1">
    <path d="M 367.8082 401.2784 370.9764 410.1443 378.3298 413.4766 375.1894 416.7317 367.2598 420.3042 366.5933 427.6819 363.6423 433.4757 363.7504 438.2753 356.2203 441.6962 352.6981 438.3696 344.2902 440.0085 337.9242 437.3858 330.3286 443.2337 332.48 453.0829 334.4843 456.9244 330.9895 463.3035 326.069 464.708 324.7495 467.6347 328.1663 471.273 329.1147 482.8077 327.1597 485.6351 320.3939 488.9316 313.5498 489.2074 315.9385 494.012 309.9546 495.0355 307.9858 502.6031 299.2979 503.7947 299.6238 508.0874 295.49 508.4634 292.5014 504.1271 285.4734 504.2457 274.5381 496.5041 265.6135 492.8284 262.1462 493.1446 260.6195 488.6163 252.8364 488.4268 247.3665 495.3503 242.9664 494.4293 239.6721 496.7986 235.0508 492.1211 231.6025 501.2554 227.018 502.8979 226.2827 494.2477 223.408 489.3276 217.1488 496.5889 215.282 502.538 211.6053 500.2211 208.8821 495.4767 208.1463 489.6722 200.7434 484.8707 190.6472 481.008 192.69 476.151 189.9465 468.5153 184.0293 469.2084 177.2605 473.0328 179.5233 476.3943 175.07 480.0551 166.8042 484.0911 162.1568 480.3622 154.4459 477.2405 150.7795 482.5806 145.28 487.034 137.1735 481.0875 129.8961 485.4679 127.5756 485.3473 119.0876 471.9983 102.5503 470.9294 98.4161 462.9993 95.2669 460.3718 86.8578 458.5476 79.5118 450.5124 78.3724 446.3308 70.2452 445.0038 68.3846 442.1315 72.2528 432.2932 77.4219 433.2166 75.9956 423.0701 82.3443 418.5091 95.1918 416.055 97.5945 419.6773 102.2611 422.0131 112.5076 423.0194 117.8011 421.7664 119.3645 425.9019 123.7336 427.2361 129.5486 423.1975 131.8298 414.7971 140.0047 415.9758 141.3198 407.8588 144.9572 405.3415 144.7485 400.3328 146.5611 393.3569 149.5344 391.2535 156.9897 393.0958 159.1857 391.7107 163.759 383.8253 160.8428 378.1401 157.5435 377.9073 155.7108 372.2692 159.1522 363.055 165.5859 355.1056 162.7352 353.2334 167.4517 344.5583 179.3616 347.2079 180.5221 342.7685 184.3628 340.9933 194.6714 340.9258 194.71 344.683 198.7786 346.4094 199.6571 352.5896 202.7831 352.9254 202.4151 344.3629 203.8846 342.1019 209.4994 343.5161 214.9882 339.2999 225.2366 341.218 231.615 340.4429 239.5341 342.3502 248.692 337.2814 254.7131 341.548 250.0641 348.1705 254.4723 348.4913 261.4361 351.6799 266.1007 351.07 271.9431 346.2115 279.5925 349.0355 285.103 355.6855 292.8665 355.7134 292.0203 362.8025 293.4074 370.4325 297.3921 375.8972 299.677 373.972 303.7446 378.2149 307.6882 378.6858 314.1719 375.7938 315.514 382.9985 322.89 395.8481 329.7248 402.8325 333.9275 404.7718 342.7477 404.8285 352.2907 402.5709 361.5599 404.6241 367.8082 401.2784 Z" fill="#7a0177"/>
    <path d="M 766.9849 629.3433 767.5605 636.9928 764.565 648.6707 760.7531 655.3814 762.2051 664.0156 757.2385 665.8505 756.567 672.9029 749.5485 676.7901 741.6307 666.1378 740.251 684.2828 744.8649 689.0187 745.3206 692.6749 737.1394 698.2105 744.2025 703.5461 748.044 708.2855 747.8663 714.4655 743.7713 718.3815 743.522 729.2735 748.2203 733.4171 747.2891 739.1731 749.1748 744.2671 746.9465 749.733 748.7746 754.1019 749.9257 764.1557 746.4127 774.2199 754.5005 778.727 748.1947 785.013 743.8116 785.9709 749.517 792.252 750.4902 795.9353 756.9571 807.543 763.1913 809.9272 758.9298 819.7176 761.294 826.6024 757.9206 833.9221 754.2713 837.6362 749.2909 830.6431 727.8186 843.5466 719.2999 840.6073 711.5744 847.4942 699.5552 846.7329 699.0179 844.2129 679.3534 844.7896 677.7296 837.9063 679.527 828.7704 676.1984 828.709 675.1895 822.793 677.5912 812.8614 675.5452 805.7531 672.6317 803.2144 672.8837 794.4406 669.7097 778.5619 673.5743 773.6311 668.5421 769.3956 660.4642 770.3936 654.226 764.857 653.8983 756.1561 649.494 750.3023 646.8316 742.3484 646.5994 735.9004 642.3717 738.8108 641.6937 745.7838 637.1363 750.9252 632.1053 752.3954 628.0547 749.7034 630.6567 745.7377 634.4904 742.1894 636.942 734.5749 634.705 730.9669 638.2651 725.643 636.948 718.454 641.5418 712.0917 638.18 708.5393 643.1751 703.6117 643.0124 700.5981 637.6504 698.8671 641.6612 693.662 643.6588 682.8369 640.8345 678.0898 642.7749 671.0526 638.9753 669.6963 635.8256 661.6747 639.5812 651.6894 636.6799 640.4102 636.7512 634.273 641.6226 633.7121 637.821 616.8719 638.8625 611.4493 643.5056 610.7488 645.3814 604.0464 643.6606 598.4154 647.3687 595.5746 644.7664 585.806 651.3004 586.1535 656.0077 582.4671 669.5168 580.8027 683.6129 579.5059 691.6531 580.3432 692.6508 583.5039 705.0305 582.9652 719.7074 584.8378 723.1726 583.3935 729.9733 585.7474 733.4321 585.0048 739.911 590.781 746.5684 598.5685 750.0355 597.6683 754.4906 603.0637 754.1475 608.8142 759.923 616.0988 756.9139 619.7755 759.4475 623.6428 763.7827 620.2013 766.9849 629.3433 Z" fill="#fbb4b9"/>
    <path d="M 1047.6526 322.5509 1052.816 329.9248 1066.1054 337.6841 1061.4342 342.9848 1064.8298 347.7074 1059.0468 353.7227 1067.2415 362.5713 1075.9062 378.735 1083.9134 399.3267 1086.4768 401.9583 1088.21 410.6212 1090.9987 417.1016 1088.1971 419.2846 1092.1624 440.8653 1096.3269 441.0078 1096.8484 446.7114 1094.6851 454.1731 1089.6057 454.7211 1087.7429 448.9447 1078.5863 447.1275 1076.8239 455.1085 1070.5952 452.8847 1066.6589 444.9536 1059.6383 446.2441 1060.8262 449.9569 1056.2437 451.152 1053.4914 448.3894 1040.0062 457.8166 1041.4996 461.1683 1036.5471 471.208 1032.5837 471.4149 1018.9071 466.3752 1013.1356 468.3962 1011.1782 476.5849 1000.28 473.0291 997.166 475.9461 991.4573 477.3031 987.2572 471.2435 984.5421 472.9347 975.8005 471.5284 970.7682 475.2902 968.1085 474.8577 965.287 479.6689 958.0849 483.5329 956.1585 488.7089 947.4659 486.6809 943.764 482.766 935.9512 484.2883 934.3772 475.7851 920.9256 463.1568 921.4659 457.7095 918.832 453.1298 920.3109 449.5436 918.0843 442.9862 908.4737 439.5824 906.8641 435.1395 912.6008 420.3791 909.6694 418.269 903.9759 420.339 901.8292 424.8331 895.2573 425.7789 890.9679 421.8431 893.1932 417.8725 893.3059 409.6735 884.7926 406.3613 877.5882 406.4257 873.3506 402.8828 867.7821 402.3345 870.8738 386.5577 876.5195 386.0473 880.4644 382.0513 879.1075 379.2363 873.2031 375.3162 872.8384 369.5492 866.2428 359.6717 868.2411 356.0772 868.521 350.1482 863.7297 342.0201 870.2656 340.9889 873.5217 338.3029 877.5536 338.6189 882.0201 352.4985 886.6968 350.026 891.454 353.7587 899.9738 350.51 900.2127 345.2612 903.3128 342.0236 910.096 344.9932 913.0621 350.9144 926.1113 351.1768 932.0873 343.8657 938.2663 345.467 943.2971 341.4375 949.4047 344.8053 952.9432 344.6735 958.4601 337.1198 964.2949 334.7936 966.849 331.8126 968.3637 324.9541 980.1341 327.2027 980.8952 331.4055 985.125 335.6506 993.2628 327.9695 990.1161 323.283 994.2572 321.7193 994.1321 316.3294 1003.7072 312.6481 1002.9449 320.076 1007.1675 320.3425 1009.3765 326.3281 1018.1984 323.4701 1032.3633 323.5118 1034.1793 327.5222 1041.0303 330.4675 1041.3404 327.1584 1047.6526 322.5509 Z" fill="#f768a1"/>
    <path d="M 364.3114 198.829 358.7086 204.4472 355.2185 205.5346 354.2385 210.2585 356.1326 213.8493 352.8513 220.4598 349.4225 220.6049 345.7265 230.2753 347.6857 235.1606 351.2158 235.0206 354.25 240.5732 354.5667 246.1417 351.5428 249.6471 359.6358 257.7053 370.5516 261.0406 376.5981 269.784 379.3405 270.5556 372.2005 277.5657 372.5645 285.3561 377.2448 286.6471 386.2235 294.8122 382.3888 299.2376 377.8752 312.2561 366.8541 317.0244 375.5694 323.6372 375.1302 328.4771 379.8898 335.8034 383.7776 348.0306 389.504 352.4625 387.8914 355.5523 389.1655 366.3721 380.1951 366.0832 379.9407 370.4104 376.1431 370.7896 368.1713 379.347 367.3385 384.8366 374.4883 396.0073 367.8082 401.2784 361.5599 404.6241 352.2907 402.5709 342.7477 404.8285 333.9275 404.7718 329.7248 402.8325 322.89 395.8481 315.514 382.9985 314.1719 375.7938 307.6882 378.6858 303.7446 378.2149 299.677 373.972 297.3921 375.8972 293.4074 370.4325 292.0203 362.8025 292.8665 355.7134 285.103 355.6855 279.5925 349.0355 271.9431 346.2115 266.1007 351.07 261.4361 351.6799 254.4723 348.4913 250.0641 348.1705 254.7131 341.548 248.692 337.2814 239.5341 342.3502 231.615 340.4429 225.2366 341.218 214.9882 339.2999 209.4994 343.5161 203.8846 342.1019 202.4151 344.3629 202.7831 352.9254 199.6571 352.5896 198.7786 346.4094 194.71 344.683 194.6714 340.9258 184.3628 340.9933 182.6643 332.7028 189.0056 331.6107 191.9163 333.7991 198.1814 326.493 197.9608 322.4667 191.8426 316.5997 195.7973 312.7409 198.0621 306.1971 197.9137 301.0723 200.6762 298.9967 209.3466 296.5166 212.4225 290.9805 210.3762 285.9521 211.375 280.9668 216.4544 281.0357 224.3739 266.893 218.9857 257.7318 223.7767 256.9853 231.0308 245.5636 237.7666 243.5781 240.9544 240.403 245.2375 229.9531 251.3968 227.0864 253.0479 211.9435 255.3313 210.2898 258.1542 199.1827 264.2591 189.8324 268.3795 185.4246 275.7899 186.8904 279.5734 178.8325 279.6776 175.7832 275.9505 165.0896 278.7678 155.6079 287.2396 146.665 289.3308 147.6615 294.806 141.0685 302.5041 138.9928 306.3746 139.9291 317.4016 153.7123 317.615 159.908 325.2664 163.5898 325.0171 171.2456 326.4938 176.017 330.7944 177.6439 334.6447 176.2902 337.9488 179.0038 342.3092 176.9766 352.5634 180.2015 353.0746 184.4772 364.3114 198.829 Z" fill="#c51b8a"/>
    <path d="M 711.8865 147.0684 718.8009 153.1718 725.3133 154.9947 726.6505 160.111 731.6775 164.6206 731.4948 167.2858 724.3523 172.2847 729.1127 181.6016 725.3941 183.1757 719.8187 182.6525 717.8531 186.8271 726.92 194.4576 726.9761 201.2993 729.3111 208.3886 721.8135 214.5773 729.4542 220.7027 724.2226 229.9705 726.3045 233.1662 727.6321 240.7077 727.0735 247.2853 720.5316 252.509 710.7259 250.9115 707.5514 256.1032 701.8545 253.4529 695.9699 256.1118 686.851 266.2317 684.4369 274.0414 678.9692 280.9698 678.7889 287.6392 676.1485 291.6665 681.0537 296.5489 674.1716 298.2628 666.5817 296.6925 663.7761 288.8221 657.1545 288.8031 655.6683 295.3219 649.0357 300.4967 647.0321 308.599 644.4433 309.3677 636.6711 315.9139 635.6862 327.7537 629.2841 326.3035 626.1521 330.8056 622.0649 331.8247 618.6657 329.3293 613.0771 330.3021 604.7572 326.2816 595.0025 318.9045 599.5528 311.8385 598.0482 308.5091 601.0643 303.8897 600.5068 296.7543 596.1433 291.8697 592.4474 290.3343 595.1571 285.768 586.3102 282.6804 584.2989 270.0238 588.8607 260.2259 589.0417 257.4024 583.39 248.6053 575.0829 247.3005 572.6205 244.31 571.9577 237.5516 567.2579 239.554 563.1756 238.5603 559.7555 232.5733 557.8115 221.4365 558.6779 210.9497 566.5294 206.216 569.5283 208.261 573.9548 205.4221 573.0602 197.3243 578.7396 193.9772 583.7974 184.2699 588.1249 180.5126 589.1795 174.9436 592.7298 166.8943 596.9586 165.973 606.0181 167.2059 609.6236 163.8757 611.5991 157.8058 614.7531 155.0307 614.9793 150.4845 620.7743 153.5256 627.7329 144.8251 634.9688 148.1536 637.5787 147.1257 647.1347 151.1056 659.3678 153.0735 663.4081 151.5268 666.3384 155.3504 672.1385 155.3243 675.696 152.291 689.2446 153.6102 692.5271 147.0478 697.1527 148.2581 702.7953 145.7189 711.8865 147.0684 Z" fill="#c51b8a"/>
    <path d="M 1069.9037 143.3695 1063.3528 146.6964 1058.2768 146.3937 1055.8481 148.6921 1051.1661 147.9212 1048.8379 154.1787 1050.8044 157.09 1042.7087 159.5065 1037.5371 158.608 1033.8122 154.7898 1027.2447 153.6311 1023.8178 161.1035 1025.1075 171.8827 1022.5344 172.4914 1019.3266 177.7202 1011.4124 166.0965 990.2679 166.0247 985.0687 163.4299 982.7816 164.978 975.8156 164.6009 971.5226 162.1673 968.2635 163.4488 968.7308 171.6261 951.818 173.4697 952.2135 167.9048 946.996 163.7909 954.3701 161.2924 950.86 158.1098 944.124 144.8869 943.7005 133.6118 939.826 132.9915 930.1029 115.3675 924.1836 111.0352 923.7452 105.3832 918.7294 106.768 911.0312 97.593 908.7044 89.178 898.3271 80.5427 894.0614 82.9038 890.995 81.2274 890.8504 75.2905 885.6759 74.5605 882.1386 72.0136 881.3871 64.1732 878.3403 62.7962 891.3316 58.9798 894.6597 46.8873 902.5639 41.1618 906.8999 28.6403 912.0859 22.954 912.0783 17.5935 919.8872 16.7897 924.541 13.5372 935.1881 9.7011 942.6471 10.3456 947.1561 3.9578 953.4963 4.3825 957.0349 1.8466 966.1582 1.5406 971.0432 3.0919 980.8699 1 986.5805 5.2763 988.4898 8.6232 994.8115 13.5715 1001.5356 14.6273 999.2193 18.705 1003.0723 22.6007 1002.6848 26.1792 1008.8931 28.9287 1011.4683 26.0873 1015.212 32.0885 1013.1303 35.6755 1016.2212 40.3964 1021.3717 44.2057 1022.9654 52.7219 1029.7622 56.9764 1036.3333 66.4884 1032.4899 72.1569 1039.7954 76.1986 1041.4434 87.5723 1047.1417 91.5596 1045.0526 98.4575 1047.7734 99.5156 1052.3409 105.771 1053.4739 109.9701 1049.6971 113.1788 1052.3531 122.7663 1061.1629 135.3642 1065.3115 137.0002 1069.9037 143.3695 Z" fill="#7a0177"/>
    <path d="M 785.9862 471.8656 785.9455 478.4474 794.1982 484.6256 801.1372 483.0001 805.806 488.7055 803.9736 493.7507 799.7919 497.8743 799.7287 507.7361 803.1166 512.6108 800.9833 514.8333 809.0001 518.9605 807.3081 522.074 802.461 521.3172 803.1423 527.3124 805.4261 531.2468 810.8067 531.6436 812.7659 536.1651 816.6558 537.8579 820.6536 544.8277 830.925 544.2523 834.4282 547.1127 844.6354 549.0139 843.6389 552.3507 848.6028 557.1495 856.9063 556.9887 860.9778 560.8201 866.1942 562.4523 864.792 570.6226 869.5494 570.3526 873.4333 572.6579 872.4596 576.5187 878.3169 576.7641 878.8389 582.079 884.2303 586.2932 886.5637 591.3511 884.9611 598.8673 881.8373 601.1993 880.6785 605.5777 877.0762 607.2284 872.7996 604.7176 869.9741 599.4845 861.1736 599.9912 859.4818 598.0272 854.0654 605.4341 853.8252 614.6896 850.6388 619.5837 844.9045 618.2857 841.6375 609.9201 838.0829 607.4185 834.9663 610.4945 828.8952 610.587 821.8955 602.981 816.0554 604.8831 806.3042 610.3812 799.2271 612.2207 796.0005 609.754 788.2295 613.4773 786.9995 616.1314 780.5644 619.3371 779.4918 627.8895 773.2863 627.0348 766.9849 629.3433 763.7827 620.2013 759.4475 623.6428 756.9139 619.7755 759.923 616.0988 754.1475 608.8142 754.4906 603.0637 750.0355 597.6683 746.5684 598.5685 739.911 590.781 733.4321 585.0048 729.9733 585.7474 723.1726 583.3935 719.7074 584.8378 705.0305 582.9652 692.6508 583.5039 691.6531 580.3432 683.6129 579.5059 669.5168 580.8027 667.1664 573.0283 669.2755 566.312 669.0939 558.5552 663.7514 545.8245 663.3379 537.4802 667.0546 533.5813 676.096 530.082 683.1978 529.5745 683.61 524.8742 674.5024 517.6107 672.5354 507.6665 679.5145 508.8026 686.0526 500.558 692.6889 499.5263 690.2732 493.4851 697.2521 492.6016 698.7723 488.2079 709.3337 483.5651 709.5588 477.4954 711.2827 470.318 720.6274 463.8256 724.71 465.7209 729.9006 462.1131 735.1586 463.8447 743.8621 458.6585 746.2029 457.4689 752.2922 462.7454 755.57 463.8419 757.9076 457.9495 767.1883 455.9567 774.5017 465.2553 778.9337 465.6812 785.9862 471.8656 Z" fill="#c51b8a"/>
    <path d="M 1182.1937 615.5943 1181.9485 623.4388 1177.6767 641.3809 1182.1414 645.5473 1191.7883 648.9398 1196.3797 646.7504 1198.9658 652.1012 1193.5899 660.8654 1210.1063 672.6328 1206.5481 675.2289 1206.5246 680.8797 1200.806 681.1494 1200.7961 685.0111 1204.0277 694.8368 1200.4992 700.0075 1204.2867 709.3059 1201.2049 716.03 1201.3843 724.256 1202.9371 728.4613 1198.6478 731.3945 1194.0724 742.4545 1193.8525 745.9545 1192.5402 750.4658 1188.2865 755.6472 1181.3667 755.5742 1174.4966 751.7548 1166.6999 753.8083 1164.2724 755.9413 1163.0715 753.5712 1156.8868 752.8912 1154.9614 750.7549 1155.3878 743.856 1149.5252 744.3323 1147.6214 747.4061 1140.3215 748.3618 1139.3684 755.9786 1128.2776 755.6077 1111.3614 753.2778 1109.3131 755.4103 1101.741 755.3874 1095.1992 750.4156 1090.8702 756.1951 1086.8621 755.9518 1080.3583 750.0616 1075.6499 756.2764 1072.3311 753.9501 1067.7479 761.9474 1059.1339 754.045 1069.8444 708.4495 1064.9693 708.626 1064.5351 701.6244 1056.7904 701.6413 1057.6193 687.5635 1052.9346 686.7807 1048.504 670.8751 1042.8514 674.0669 1040.7977 679.7677 1035.8123 673.7965 1044.5761 661.2746 1052.0242 653.5837 1057.6377 659.0232 1062.6702 659.6623 1069.0171 663.8337 1070.2731 660.883 1076.8986 661.267 1079.285 656.7188 1077.3188 652.1307 1074.1206 650.3151 1076.4075 645.3054 1081.1618 647.682 1084.3544 643.8437 1082.9623 635.1895 1087.3538 632.7448 1085.8139 628.8977 1092.1651 624.8994 1090.9696 620.8048 1091.7024 616.4067 1098.6133 610.7088 1109.2926 599.8314 1115.7828 600.5342 1120.2873 606.8227 1125.1833 602.8899 1127.1511 608.439 1132.0867 610.5982 1137.5338 609.0241 1138.4302 614.9843 1142.9666 613.1022 1144.6686 616.0241 1150.2845 618.4629 1156.9852 618.1248 1158.1088 613.5303 1171.4742 616.6866 1175.021 618.8488 1182.1937 615.5943 Z" fill="#feebe2"/>
    <path d="M 1090.9696 620.8048 1092.1651 624.8994 1085.8139 628.8977 1087.3538 632.7448 1082.9623 635.1895 1084.3544 643.8437 1081.1618 647.682 1076.4075 645.3054 1074.1206 650.3151 1077.3188 652.1307 1079.285 656.7188 1076.8986 661.267 1070.2731 660.883 1069.0171 663.8337 1062.6702 659.6623 1057.6377 659.0232 1052.0242 653.5837 1044.5761 661.2746 1035.8123 673.7965 1040.7977 679.7677 1042.8514 674.0669 1048.504 670.8751 1052.9346 686.7807 1057.6193 687.5635 1056.7904 701.6413 1064.5351 701.6244 1064.9693 708.626 1069.8444 708.4495 1059.1339 754.045 1051.7116 753.8768 1050.676 758.4487 1056.862 761.8988 1055.6744 765.4285 1048.6772 765.5493 1043.0167 763.6709 1044.8236 755.5379 1036.2669 752.5076 1028.6411 746.7033 1023.4705 754.7129 1008.6509 748.1133 1003.6798 749.3754 998.1604 753.7691 992.859 749.5835 983.9265 751.0686 978.0978 750.8591 972.4169 748.3071 970.3088 750.3927 966.1907 741.0276 954.3988 723.372 964.8919 719.5342 957.7555 710.1892 953.7762 706.9008 948.0162 709.0799 941.8556 689.9687 940.9804 682.9239 944.042 679.2814 942.3742 667.2266 936.4793 672.3224 932.651 671.6872 927.206 674.8282 922.9929 663.2636 918.7587 665.4008 909.9247 664.5502 906.1816 657.7592 905.6608 651.3786 900.1265 650.1841 907.0882 642.4261 903.4113 639.6389 899.6458 633.267 894.5929 629.0384 896.2977 623.7703 893.1186 622.2266 893.6575 611.6224 884.8849 605.911 881.8373 601.1993 884.9611 598.8673 891.6488 587.6516 897 588.3139 898.7561 578.6435 902.8957 575.636 908.1658 575.6499 908.7217 579.5267 914.0523 581.5781 918.7635 576.8139 920.9132 561.4693 923.3939 557.7875 929.3089 543.6533 929.5902 535.8911 937.0979 541.3677 936.4758 549.4259 941.2921 553.7692 945.4308 562.9298 951.2399 570.6499 957.953 571.9509 961.0409 574.9403 965.5902 573.8401 969.3722 577.2344 974.6807 577.4966 985.0333 590.1014 993.7446 590.029 996.7923 595.3601 1002.0087 594.8311 1006.1484 596.6184 1009.2163 592.942 1015.7303 595.1732 1020.5278 593.9014 1024.1807 603.0206 1030.9741 609.8817 1037.8254 611.1589 1040.6223 604.7716 1044.7993 606.6861 1040.1053 615.4244 1041.8497 619.0228 1046.225 618.6733 1050.9346 614.7834 1053.7803 609.1044 1058.3811 614.5931 1063.3478 609.6996 1065.749 622.5256 1076.4527 623.6762 1076.0762 626.339 1085.9822 624.808 1090.9696 620.8048 Z" fill="#fbb4b9"/>
    <path d="M 324.9863 560.4837 329.6221 563.9474 330.9729 568.3761 335.4841 572.4305 336.7102 576.1617 348.215 579.9836 349.6888 584.8312 355.8876 582.6831 356.0461 590.2815 362.25 594.9787 364.1997 600.5962 367.0947 616.887 363.5996 622.0055 358.1929 626.3084 362.022 635.076 364.0403 636.2923 362.0301 651.1108 352.3947 661.6295 348.5229 662.1595 342.0444 671.0664 345.0724 676.8479 355.5577 679.2784 356.5319 683.5717 346.577 695.0831 342.8703 697.8254 337.3402 706.1094 332.128 709.8755 332.8961 713.5615 329.2636 717.3451 330.5704 722.6906 328.2936 726.5446 328.7931 732.1679 322.2926 741.9671 318.5208 749.4046 317.7085 758.5368 312.7775 757.8063 309.2389 759.614 305.6196 754.7449 293.4698 751.9261 290.6477 746.9486 285.3238 745.7698 281.1886 761.0508 276.5924 761.911 273.2992 778.4902 278.2566 781.1108 278.8702 786.4049 274.1657 794.3629 268.2543 792.1477 265.7804 787.1186 253.7962 791.0069 249.6426 783.2774 243.9316 782.8142 238.8565 779.9359 234.8199 780.2922 227.2386 777.9821 221.944 778.0851 219.432 775.558 209.6291 777.4599 204.711 775.0345 196.0815 775.6358 191.7426 769.5773 192.5795 763.4807 189.2598 754.3782 180.964 750.2992 169.0666 748.8458 162.7031 749.3046 158.6549 747.0797 157.5415 741.6208 153.7771 738.4066 155.5358 729.1456 163.1748 727.7281 173.896 729.1808 177.919 726.767 185.6315 725.1474 183.9395 716.0278 172.2482 709.4319 167.4711 708.763 162.7959 704.6418 156.0295 695.2137 163.4376 692.1754 171.0035 691.5145 169.8557 687.7421 175.6727 680.635 175.2076 674.089 182.9151 670.7914 181.506 663.9894 177.9805 662.8915 176.0131 658.4718 178.8263 658.0104 183.7412 650.3659 185.148 643.4281 188.5708 641.7256 184.4865 628.6701 178.9759 623.7205 172.664 615.327 172.1281 611.659 179.6201 609.48 176.0958 604.0369 175.5787 596.6296 183.8208 593.3266 189.1324 594.6992 194.4076 591.1706 193.8577 583.8212 197.5843 580.1846 209.5552 574.3198 213.257 579.2614 216.9416 579.6475 220.3194 583.7413 226.3249 586.5312 233.028 587.75 239.87 586.4699 240.7277 580.891 246.8609 583.0124 249.6861 587.7793 250.2548 593.4124 254.8307 592.1098 263.2219 595.6961 266.9187 593.1365 270.4686 579.7288 275.1224 575.5363 286.1324 572.937 295.5582 573.572 300.3812 578.0198 303.8552 573.6333 305.1003 566.8916 308.3099 561.7294 324.9863 560.4837 Z" fill="#fbb4b9"/>
    <path d="M 1337.7206 766.826 1330.0721 779.1073 1322.3383 797.6479 1315.2834 809.7714 1303.9813 823.8465 1296.7036 834.7061 1294.0974 841.556 1289.998 842.7431 1286.0086 846.5988 1283.9459 854.6341 1284.1452 862.7524 1286.5849 869.3184 1289.0781 870.9574 1290.7731 879.0522 1288.314 882.6281 1289.4325 893.1155 1296.9362 894.3494 1296.0918 897.6711 1289.0549 898.7637 1289.7404 907.2618 1293.0482 915.1936 1293.6132 920.069 1289.9401 926.5166 1289.3506 933.8716 1285.1542 943.8547 1285.6515 949.496 1283.1623 952.3066 1281.2866 970.4085 1282.1767 974.3304 1261.2844 976.332 1245.7196 972.9723 1228.0064 972.3146 1208.7004 964.6487 1189.1642 955.4371 1185.8808 942.9157 1182.0828 934.5177 1180.1929 924.865 1175.7019 919.9258 1164.5075 929.4358 1150.5495 931.679 1143.5966 931.6808 1137.3796 916.5582 1132.5247 912.7703 1127.8193 920.7026 1105.2764 919.1722 1094.4586 921.705 1087.3767 911.8256 1077.083 908.5381 1073.6668 897.4968 1078.9028 894.274 1085.2963 896.0932 1092.6498 895.7259 1102.2042 896.9341 1118.0084 883.974 1129.2087 878.6088 1142.2341 880.2493 1145.4517 879.3519 1152.354 871.9019 1160.0683 868.579 1168.832 867.2946 1173.1669 867.9665 1178.9252 865.6063 1188.1014 851.1177 1188.818 847.1335 1192.4908 837.3318 1202.4721 824.9511 1197.3372 812.6755 1193.0342 810.2851 1186.2763 794.0469 1189.0238 788.9693 1186.6719 782.1655 1176.8908 773.5368 1172.7056 773.796 1164.579 767.6257 1163.0298 762.9543 1164.2724 755.9413 1166.6999 753.8083 1174.4966 751.7548 1181.3667 755.5742 1188.2865 755.6472 1192.5402 750.4658 1193.8525 745.9545 1200.336 747.9278 1206.1691 746.2588 1210.6508 749.3357 1210.8422 754.6237 1222.9301 757.0026 1223.5802 761.5677 1226.4085 764.6784 1231.6077 764.5828 1232.0299 767.9191 1239.9746 768.5665 1243.111 770.9676 1242.0535 774.5523 1243.7632 779.7552 1249.4032 784.664 1253.372 778.5881 1257.2226 777.4687 1264.5981 780.0206 1266.693 773.7551 1276.0591 774.2467 1289.4284 771.3599 1298.6371 775.7358 1304.3925 773.6736 1306.4577 777.9101 1311.7264 778.2668 1318.5982 770.3448 1327.2789 763.2648 1332.6576 764.0734 1337.7206 766.826 Z" fill="#fbb4b9"/>
    <path d="M 908.4737 439.5824 918.0843 442.9862 920.3109 449.5436 918.832 453.1298 921.4659 457.7095 920.9256 463.1568 934.3772 475.7851 935.9512 484.2883 935.8156 495.0466 929.9104 500.1921 928.3212 505.8861 929.5028 510.1013 926.6928 513.0967 928.6927 520.4057 926.6808 523.8858 926.9358 531.4943 929.5902 535.8911 929.3089 543.6533 923.3939 557.7875 920.9132 561.4693 918.7635 576.8139 914.0523 581.5781 908.7217 579.5267 908.1658 575.6499 902.8957 575.636 898.7561 578.6435 897 588.3139 891.6488 587.6516 884.9611 598.8673 886.5637 591.3511 884.2303 586.2932 878.8389 582.079 878.3169 576.7641 872.4596 576.5187 873.4333 572.6579 869.5494 570.3526 864.792 570.6226 866.1942 562.4523 860.9778 560.8201 856.9063 556.9887 848.6028 557.1495 843.6389 552.3507 844.6354 549.0139 834.4282 547.1127 830.925 544.2523 820.6536 544.8277 816.6558 537.8579 812.7659 536.1651 810.8067 531.6436 805.4261 531.2468 803.1423 527.3124 802.461 521.3172 807.3081 522.074 809.0001 518.9605 800.9833 514.8333 803.1166 512.6108 799.7287 507.7361 799.7919 497.8743 803.9736 493.7507 805.806 488.7055 801.1372 483.0001 794.1982 484.6256 785.9455 478.4474 785.9862 471.8656 790.0505 467.4875 790.3418 462.5749 794.6465 459.2891 794.1132 454.1313 802.2876 447.3262 818.1972 438.2008 820.3304 435.1296 827.2371 434.4362 826.8595 438.3701 837.1918 452.2364 836.9115 455.0045 843.862 462.4178 845.8723 466.9811 854.3918 467.3716 865.7683 464.3973 871.9668 465.8681 877.5345 458.877 886.5094 458.4987 889.7896 456.2122 894.9921 458.5146 895.5973 454.293 900.1739 454.3487 901.9796 448.4614 907.5374 446.9123 908.4737 439.5824 Z" fill="#c51b8a"/>
    <path d="M 528.408 773.201 529.921 782.9547 529.3607 789.8122 534.0359 787.8484 540.3299 792.8696 543.0071 791.6105 545.2561 801.5841 549.8888 806.3474 550.7987 813.5165 545.748 818.2415 543.6247 824.2234 546.9205 826.1595 543.3621 834.5132 556.7025 839.6802 555.0161 845.8859 559.0867 847.8179 563.9225 847.0017 568.6134 849.0025 568.0124 853.1546 572.3226 856.7604 575.6243 864.1054 578.3934 863.7922 578.7773 871.1841 583.3754 875.1807 596.6764 879.3983 594.9294 890.2013 596.9392 892.4487 594.645 902.8797 596.4933 905.5608 595.6741 914.3477 588.9224 914.4559 589.6451 918.6999 587.8363 927.9724 602.0112 929.7607 599.9939 938.7727 595.5173 942.2021 599.4201 944.6302 596.8539 952.3104 595.8845 961.6814 591.9086 962.707 590.363 970.6254 584.5771 969.8447 580.357 978.3041 577.561 994.6057 573.4153 993.9883 569.4089 990.3097 554.6469 984.5429 548.2779 984.3552 539.9494 982.513 522.9672 975.1108 520.6059 971.7316 512.8823 970.9812 499.9078 973.5458 493.9831 972.1901 483.7464 964.6106 468.0873 959.5853 461.4923 960.5993 444.8444 960.4096 438.6872 962.3267 423.0619 968.9552 410.884 970.7815 407.8777 969.1471 398.5696 967.6646 392.1541 964.2305 387.8658 963.6136 381.06 960.1635 378.0107 955.0998 377.4482 950.1019 381.4002 942.1081 384.3463 929.6328 386.4473 927.4613 398.7904 924.1385 404.189 923.7087 410.9654 913.6908 407.788 906.7648 398.3528 904.5333 404.9617 895.7443 405.1681 891.7443 417.7258 892.3225 421.5058 893.8622 422.9519 885.3293 419.443 883.131 419.5751 869.3721 421.9905 867.4142 425.6637 857.7961 432.7386 856.176 435.5481 850.1039 439.5346 845.212 431.6447 837.0673 436.4517 836.8209 437.8112 831.9909 437.1239 825.0282 444.8194 822.5216 444.1172 819.2034 449.6875 818.0072 450.429 814.867 445.8323 811.7526 455.6489 809.7656 458.7132 813.3788 464.0362 808.97 470.9891 812.9072 477.309 803.7588 484.5844 801.5755 486.6852 796.9905 498.2859 794.2303 500.6916 798.8215 515.0783 797.3573 518.7103 791.8651 517.3446 783.8676 519.721 779.8222 517.8584 772.882 519.3362 769.6459 524.4012 772.8375 528.408 773.201 Z" fill="#fbb4b9"/>
    <path d="M 1189.3318 462.0863 1185.544 470.6038 1188.1316 474.0844 1185.7462 481.2429 1188.8991 493.6747 1192.3625 502.306 1190.5096 507.5134 1193.7914 512.2175 1189.887 516.1049 1192.6938 530.9252 1195.0527 533.6192 1201.061 548.384 1200.1503 559.0998 1202.1266 562.4604 1198.5292 566.6381 1192.9179 566.8503 1189.5039 570.4811 1194.6475 578.5367 1197.5994 577.6035 1201.6295 584.1126 1202.8429 593.6345 1205.7196 599.6401 1209.2589 600.8473 1206.7389 602.9267 1206.861 612.2404 1197.2693 607.8361 1189.6382 608.1455 1182.1937 615.5943 1175.021 618.8488 1171.4742 616.6866 1158.1088 613.5303 1156.9852 618.1248 1150.2845 618.4629 1144.6686 616.0241 1142.9666 613.1022 1138.4302 614.9843 1137.5338 609.0241 1132.0867 610.5982 1127.1511 608.439 1125.1833 602.8899 1120.2873 606.8227 1115.7828 600.5342 1109.2926 599.8314 1103.8761 593.2079 1104.2535 586.8876 1100.5257 582.7245 1102.5121 577.8606 1100.761 570.4555 1094.7621 568.0151 1091.9606 565.0412 1089.8833 558.8953 1084.3213 558.3691 1077.7302 548.3132 1076.3107 541.8181 1070.7413 531.9437 1067.996 523.393 1062.9116 517.242 1064.6291 514.5131 1058.1954 501.2383 1055.4113 488.0242 1056.1912 481.4503 1061.5007 480.8071 1063.7806 472.4967 1065.4517 471.3273 1076.3784 472.2786 1085.5813 468.52 1083.5879 460.7578 1093.1182 461.4887 1096.3666 458.3881 1101.575 468.0418 1101.2323 474.0281 1098.8206 476.4702 1102.9845 484.1864 1106.2261 487.0342 1109.9785 486.7095 1111.6017 476.1347 1115.7767 474.8071 1109.4208 464.1212 1110.6942 458.0121 1118.6525 457.5115 1127.8929 459.6301 1135.6768 459.5969 1139.3661 462.8848 1148.2271 459.5403 1152.0927 455.2179 1160.2504 453.417 1162.4075 457.1187 1166.1443 455.6007 1169.3668 462.226 1178.0279 462.7812 1183.1549 460.1687 1189.3318 462.0863 Z" fill="#c51b8a"/>
    <path d="M 816.0385 256.6534 826.8961 260.4365 829.1106 266.3027 832.1724 268.7167 832.2695 272.919 835.7164 280.7447 839.874 281.5076 842.9509 285.4389 845.3276 293.5765 837.5337 291.8699 837.2304 294.8645 831.9123 301.6223 834.366 306.2469 831.5629 311.0389 835.0178 317.2056 838.3636 318.88 837.3664 326.9044 838.4808 333.5787 836.7365 337.405 847.6991 352.6332 852.8656 352.5712 851.1181 341.7851 857.2158 340.9905 863.7297 342.0201 868.521 350.1482 868.2411 356.0772 866.2428 359.6717 872.8384 369.5492 873.2031 375.3162 879.1075 379.2363 880.4644 382.0513 876.5195 386.0473 870.8738 386.5577 867.7821 402.3345 873.3506 402.8828 877.5882 406.4257 884.7926 406.3613 893.3059 409.6735 893.1932 417.8725 890.9679 421.8431 895.2573 425.7789 901.8292 424.8331 903.9759 420.339 909.6694 418.269 912.6008 420.3791 906.8641 435.1395 908.4737 439.5824 907.5374 446.9123 901.9796 448.4614 900.1739 454.3487 895.5973 454.293 894.9921 458.5146 889.7896 456.2122 886.5094 458.4987 877.5345 458.877 871.9668 465.8681 865.7683 464.3973 854.3918 467.3716 845.8723 466.9811 843.862 462.4178 836.9115 455.0045 837.1918 452.2364 826.8595 438.3701 827.2371 434.4362 820.3304 435.1296 818.1972 438.2008 802.2876 447.3262 794.1132 454.1313 794.6465 459.2891 790.3418 462.5749 790.0505 467.4875 785.9862 471.8656 778.9337 465.6812 774.5017 465.2553 767.1883 455.9567 757.9076 457.9495 755.57 463.8419 752.2922 462.7454 746.2029 457.4689 743.8621 458.6585 738.0989 454.8101 733.0431 444.0708 729.1022 444.1127 718.3933 440.6628 714.5123 442.0909 708.23 440.516 707.3139 435.8248 697.8154 427.7914 696.6613 417.3935 699.8493 412.5039 703.8805 409.6752 707.2798 412.6306 712.7822 412.1753 707.9724 403.0919 712.1036 397.4029 721.3999 390.6215 718.3345 383.6454 721.7748 377.0021 727.9906 373.8056 730.8311 369.1259 737.4373 368.9994 744.5504 364.2568 747.4295 358.2476 750.8014 358.6245 753.4838 353.1354 753.1583 348.9324 759.7098 348.4373 761.8328 344.8699 756.4377 336.2646 757.2858 330.7883 760.9825 330.8513 765.1053 327.3193 764.4831 323.5399 760.3468 321.0304 760.3732 313.6994 755.1993 311.5445 759.0419 299.4374 756.7752 296.0447 758.0122 288.7606 760.7442 283.3105 760.4658 278.3662 757.1962 274.6332 757.9298 270.5664 752.0441 263.5696 754.3398 255.6402 761.6441 251.8441 760.3346 247.9346 762.9537 240.9786 775.4819 237.4936 780.8103 239.4583 785.6968 245.3857 794.4971 250.8632 797.3196 258.5792 807.1397 259.8424 810.0365 256.2521 816.0385 256.6534 Z" fill="#fbb4b9"/>
    <path d="M 1059.1339 754.045 1067.7479 761.9474 1072.3311 753.9501 1075.6499 756.2764 1080.3583 750.0616 1086.8621 755.9518 1090.8702 756.1951 1095.1992 750.4156 1101.741 755.3874 1109.3131 755.4103 1111.3614 753.2778 1128.2776 755.6077 1139.3684 755.9786 1140.3215 748.3618 1147.6214 747.4061 1149.5252 744.3323 1155.3878 743.856 1154.9614 750.7549 1156.8868 752.8912 1163.0715 753.5712 1164.2724 755.9413 1163.0298 762.9543 1164.579 767.6257 1172.7056 773.796 1176.8908 773.5368 1186.6719 782.1655 1189.0238 788.9693 1186.2763 794.0469 1193.0342 810.2851 1197.3372 812.6755 1202.4721 824.9511 1192.4908 837.3318 1188.818 847.1335 1163.1797 839.3885 1159.1111 848.2026 1150.4719 847.6222 1146.707 843.9383 1146.3556 836.2094 1143.5937 831.5619 1131.5753 831.5832 1132.1925 826.0736 1128.8558 820.832 1118.146 821.8104 1117.791 801.9477 1113.7925 801.4348 1110.6298 805.4991 1109.8975 815.6829 1107.4161 816.5433 1089.6571 816.5 1083.8729 812.0849 1083.0468 818.9351 1064.6705 817.8192 1061.348 820.0073 1050.9213 816.5695 1050.3453 820.4824 1043.4877 820.2144 1043.3775 815.0992 1029.6455 815.4278 1029.5539 811.01 1024.5963 811.1423 1012.363 814.2714 1002.529 811.9667 997.3772 815.6823 994.6782 813.4813 995.7748 809.0177 991.5938 807.3317 990.7302 812.1201 985.7972 810.1319 986.2066 805.4799 979.4401 804.2691 979.5051 798.6477 976.5565 797.7324 972.2206 809.7231 966.6634 813.7085 960.972 813.0515 954.502 806.3045 943.0059 804.9319 945.252 809.7242 938.1368 814.5451 933.8019 810.9093 930.4953 813.5374 926.6794 808.7286 935.4988 795.1951 931.4891 793.076 926.8713 782.5626 930.882 771.4002 926.8712 769.0074 919.488 761.0551 922.6758 757.6489 927.779 758.048 930.6871 762.5704 933.8119 761.3481 942.7807 751.5058 949.1154 755.7597 955.1422 749.1924 953.8952 747.8138 966.1907 741.0276 970.3088 750.3927 972.4169 748.3071 978.0978 750.8591 983.9265 751.0686 992.859 749.5835 998.1604 753.7691 1003.6798 749.3754 1008.6509 748.1133 1023.4705 754.7129 1028.6411 746.7033 1036.2669 752.5076 1044.8236 755.5379 1043.0167 763.6709 1048.6772 765.5493 1055.6744 765.4285 1056.862 761.8988 1050.676 758.4487 1051.7116 753.8768 1059.1339 754.045 Z" fill="#c51b8a"/>
    <path d="M 709.8824 118.2684 709.9785 120.8256 720.9141 131.9318 725.8195 134.5303 725.2771 137.5485 719.3688 139.0406 713.9732 143.378 711.8865 147.0684 702.7953 145.7189 697.1527 148.2581 692.5271 147.0478 689.2446 153.6102 675.696 152.291 672.1385 155.3243 666.3384 155.3504 663.4081 151.5268 659.3678 153.0735 647.1347 151.1056 637.5787 147.1257 634.9688 148.1536 627.7329 144.8251 620.7743 153.5256 614.9793 150.4845 614.7531 155.0307 611.5991 157.8058 609.6236 163.8757 606.0181 167.2059 596.9586 165.973 592.7298 166.8943 589.1795 174.9436 588.1249 180.5126 583.7974 184.2699 578.7396 193.9772 573.0602 197.3243 565.2341 196.4155 558.2095 199.274 547.9193 195.6428 546.1628 201.7403 543.6636 200.6601 529.2661 205.6291 520.4131 195.5746 517.3504 189.7557 512.2824 190.8682 507.4232 196.2747 486.7279 191.8715 475.5068 187.4085 468.2469 182.1119 459.7327 179.861 454.7515 179.7701 449.5994 174.9257 445.3485 177.7377 437.8898 177.3713 433.9006 176.7236 428.637 179.2133 421.8385 179.5204 416.9194 177.5065 419.8721 172.9512 417.0419 167.2519 429.3243 167.2637 428.7892 162.8879 430.6507 152.628 443.8976 137.9336 447.6467 144.666 454.0521 149.7463 457.2929 154.3036 460.7695 154.374 461.3644 147.7483 465.5945 146.1278 465.5793 137.1011 467.9692 137.7882 479.7391 125.9579 476.967 122.1647 468.5454 119.2794 457.6651 113.1882 457.0255 107.2407 462.5999 100.6311 469.415 103.2174 469.7933 105.6958 478.6284 104.848 483.9314 105.7391 490.228 108.9414 493.3668 105.1989 503.1016 100.3328 506.4441 100.0315 508.6089 93.0271 518.3223 87.0963 516.6122 82.2841 511.354 79.5406 507.6319 69.7297 504.3896 70.1023 497.329 64.2096 502.1739 56.2521 514.554 55.7635 522.1334 61.0003 528.8454 58.9795 538.1079 59.0084 545.3256 62.5906 549.5382 71.8509 562.844 69.4861 563.9254 66.4899 568.8305 67.1877 572.6102 65.4948 575.9958 69.4774 580.4462 68.6323 585.7296 72.3714 587.5481 77.0658 595.4217 76.0145 600.0376 76.9772 604.6205 81.2869 612.1606 79.284 618.8283 75.0116 621.6963 77.4629 627.1291 74.9296 628.7245 69.2342 635.1441 65.4256 644.7918 69.4586 648.4597 67.4656 656.6998 66.7874 659.3686 71.054 662.5485 69.6685 664.2268 75.5979 669.8725 81.7612 669.6256 89.0023 678.713 93.23 681.4252 96.3124 685.118 94.6547 691.4651 101.4405 693.6261 107.2423 699.7644 113.1369 700.4825 119.297 709.8824 118.2684 Z" fill="#fbb4b9"/>
    <path d="M 477.309 803.7588 470.9891 812.9072 464.0362 808.97 458.7132 813.3788 455.6489 809.7656 445.8323 811.7526 450.429 814.867 449.6875 818.0072 444.1172 819.2034 444.8194 822.5216 437.1239 825.0282 437.8112 831.9909 436.4517 836.8209 431.6447 837.0673 439.5346 845.212 435.5481 850.1039 432.7386 856.176 425.6637 857.7961 421.9905 867.4142 419.5751 869.3721 419.443 883.131 422.9519 885.3293 421.5058 893.8622 417.7258 892.3225 405.1681 891.7443 404.9617 895.7443 398.3528 904.5333 392.3555 903.5951 383.9931 896.6305 375.0577 891.8862 365.7344 882.3575 356.7745 880.3476 353.4224 874.951 355.6926 867.0348 353.7278 863.0353 336.0815 856.9624 330.9746 850.2274 328.1047 841.1769 328.0277 833.1616 322.3842 826.9737 321.2629 821.458 324.1269 819.2417 330.7476 821.3989 335.7027 819.3715 338.3255 808.2449 341.4288 804.8171 346.5988 804.2933 350.8214 806.1423 356.6061 811.3179 361.3513 811.8962 369.5192 807.6566 367.4191 801.1082 361.3372 793.7938 355.6638 790.0212 347.4574 790.585 340.2505 785.9959 330.7882 773.6299 324.157 768.2575 317.4333 769.9075 313.792 774.4914 308.9718 777.0247 303.3636 776.1859 298.8263 780.8392 298.1742 783.984 293.9135 787.3663 292.364 793.0319 286.7798 800.426 277.2456 818.7056 270.2393 818.604 262.3986 811.7814 261.316 806.6393 256.3701 801.9866 253.7962 791.0069 265.7804 787.1186 268.2543 792.1477 274.1657 794.3629 278.8702 786.4049 278.2566 781.1108 273.2992 778.4902 276.5924 761.911 281.1886 761.0508 285.3238 745.7698 290.6477 746.9486 293.4698 751.9261 305.6196 754.7449 309.2389 759.614 312.7775 757.8063 317.7085 758.5368 318.5208 749.4046 322.2926 741.9671 328.7931 732.1679 328.2936 726.5446 330.5704 722.6906 329.2636 717.3451 332.8961 713.5615 332.128 709.8755 337.3402 706.1094 342.8703 697.8254 346.577 695.0831 356.5319 683.5717 361.0237 684.6151 363.206 691.7785 366.1018 691.3514 370.1108 694.8414 373.4428 694.2819 379.1445 699.1198 387.2941 710.28 392.1079 708.996 392.9099 715.2609 388.6773 719.4213 392.1254 733.1497 390.9538 740.0694 393.6448 745.6371 401.7274 753.0597 406.0121 755.6697 408.242 764.1003 417.1192 767.7228 417.0017 771.5385 425.6296 777.5837 437.2432 775.8412 436.266 778.8565 444.172 780.992 452.6438 781.2179 456.6035 786.3153 466.6159 792.5118 470.8019 796.3432 469.326 798.9125 477.309 803.7588 Z" fill="#fbb4b9"/>
    <path d="M 754.3398 255.6402 752.0441 263.5696 757.9298 270.5664 757.1962 274.6332 760.4658 278.3662 760.7442 283.3105 758.0122 288.7606 756.7752 296.0447 759.0419 299.4374 755.1993 311.5445 760.3732 313.6994 760.3468 321.0304 764.4831 323.5399 765.1053 327.3193 760.9825 330.8513 757.2858 330.7883 756.4377 336.2646 761.8328 344.8699 759.7098 348.4373 753.1583 348.9324 753.4838 353.1354 750.8014 358.6245 747.4295 358.2476 744.5504 364.2568 737.4373 368.9994 730.8311 369.1259 727.9906 373.8056 721.7748 377.0021 718.3345 383.6454 721.3999 390.6215 712.1036 397.4029 707.9724 403.0919 712.7822 412.1753 707.2798 412.6306 703.8805 409.6752 699.8493 412.5039 696.6613 417.3935 697.8154 427.7914 707.3139 435.8248 708.23 440.516 714.5123 442.0909 718.3933 440.6628 729.1022 444.1127 733.0431 444.0708 738.0989 454.8101 743.8621 458.6585 735.1586 463.8447 729.9006 462.1131 724.71 465.7209 720.6274 463.8256 711.2827 470.318 709.5588 477.4954 705.3067 477.4389 702.5707 471.6035 696.9242 470.5554 688.1074 474.5465 684.6904 473.0204 681.2674 476.1884 677.9324 475.2108 674.6752 478.0239 668.0865 472.0781 669.6563 454.7293 667.0896 445.3234 668.8075 440.0946 667.4119 433.5077 662.1871 435.6994 658.7591 439.9749 656.0046 435.2944 651.6232 438.444 648.1706 437.7558 642.8716 441.0704 640.4431 438.1188 630.428 436.9448 623.8415 441.3156 620.5759 439.256 606.5504 439.0383 601.5854 437.6388 595.8478 432.7279 590.8103 433.6371 588.2514 428.504 589.2287 423.0239 587.1565 420.7427 579.3207 421.1152 566.3312 412.8267 565.4159 410.8055 570.723 406.038 572.5256 399.7628 570.62 395.9367 564.9129 399.939 562.8119 393.7137 563.3148 388.806 561.5234 380.8739 565.4721 375.7054 571.7776 377.7486 574.2578 375.205 577.7281 363.6221 571.5406 359.2582 572.7522 353.4034 583.1098 349.9294 586.4959 341.5884 581.2025 339.1105 577.9161 334.2311 585.3285 326.6114 593.4362 323.7744 595.0025 318.9045 604.7572 326.2816 613.0771 330.3021 618.6657 329.3293 622.0649 331.8247 626.1521 330.8056 629.2841 326.3035 635.6862 327.7537 636.6711 315.9139 644.4433 309.3677 647.0321 308.599 649.0357 300.4967 655.6683 295.3219 657.1545 288.8031 663.7761 288.8221 666.5817 296.6925 674.1716 298.2628 681.0537 296.5489 676.1485 291.6665 678.7889 287.6392 678.9692 280.9698 684.4369 274.0414 686.851 266.2317 695.9699 256.1118 701.8545 253.4529 707.5514 256.1032 710.7259 250.9115 720.5316 252.509 727.0735 247.2853 731.686 250.7835 739.0688 252.3479 742.0834 248.7539 754.3398 255.6402 Z" fill="#c51b8a"/>
    <path d="M 630.6567 745.7377 628.0547 749.7034 632.1053 752.3954 637.1363 750.9252 641.6937 745.7838 642.3717 738.8108 646.5994 735.9004 646.8316 742.3484 649.494 750.3023 653.8983 756.1561 654.226 764.857 660.4642 770.3936 668.5421 769.3956 673.5743 773.6311 669.7097 778.5619 672.8837 794.4406 672.6317 803.2144 675.5452 805.7531 677.5912 812.8614 675.1895 822.793 676.1984 828.709 679.527 828.7704 677.7296 837.9063 679.3534 844.7896 699.0179 844.2129 699.5552 846.7329 699.3199 849.8555 689.089 851.4104 691.2482 862.6355 689.8859 868.4272 690.1936 876.8632 692.1738 880.7448 685.3318 888.3506 687.1568 895.4168 693.2317 901.0074 694.8239 909.2823 686.7774 912.8954 672.2855 917.0614 673.726 921.6467 664.2078 923.7336 656.889 926.782 655.134 938.0975 659.8398 938.226 659.0858 943.8258 663.795 951.6889 665.435 958.9083 669.4065 958.041 670.8143 962.2989 677.5924 969.2501 677.7263 975.1965 669.4651 977.3773 668.2406 982.1893 663.5309 990.0231 656.2431 985.1028 649.8599 983.1676 638.528 981.642 630.2538 985.8582 624.3354 986.9099 620.0295 992.1364 614.7998 995.4409 609.934 994.6917 588.913 998.4814 577.561 994.6057 580.357 978.3041 584.5771 969.8447 590.363 970.6254 591.9086 962.707 595.8845 961.6814 596.8539 952.3104 599.4201 944.6302 595.5173 942.2021 599.9939 938.7727 602.0112 929.7607 587.8363 927.9724 589.6451 918.6999 588.9224 914.4559 595.6741 914.3477 596.4933 905.5608 594.645 902.8797 596.9392 892.4487 594.9294 890.2013 596.6764 879.3983 583.3754 875.1807 578.7773 871.1841 578.3934 863.7922 575.6243 864.1054 572.3226 856.7604 568.0124 853.1546 568.6134 849.0025 563.9225 847.0017 559.0867 847.8179 555.0161 845.8859 556.7025 839.6802 543.3621 834.5132 546.9205 826.1595 543.6247 824.2234 545.748 818.2415 550.7987 813.5165 559.5209 812.0192 566.072 813.7551 571.6354 821.3117 574.5347 820.5737 580.2804 812.1713 584.624 808.1967 600.4839 809.1732 602.3983 806.3407 602.5235 798.8814 606.0076 798.9233 606.8533 806.2897 612.6101 807.5223 612.6768 796.1968 609.0781 789.8831 608.7665 782.5876 605.8666 775.512 605.1915 762.2043 611.8661 758.5555 613.6109 748.6635 615.7794 743.8632 624.3264 733.7738 628.4916 735.8416 627.3226 743.6185 630.6567 745.7377 Z" fill="#fbb4b9"/>
    <path d="M 881.8373 601.1993 884.8849 605.911 893.6575 611.6224 893.1186 622.2266 896.2977 623.7703 894.5929 629.0384 899.6458 633.267 903.4113 639.6389 907.0882 642.4261 900.1265 650.1841 905.6608 651.3786 906.1816 657.7592 909.9247 664.5502 918.7587 665.4008 922.9929 663.2636 927.206 674.8282 932.651 671.6872 936.4793 672.3224 942.3742 667.2266 944.042 679.2814 940.9804 682.9239 941.8556 689.9687 948.0162 709.0799 953.7762 706.9008 957.7555 710.1892 964.8919 719.5342 954.3988 723.372 966.1907 741.0276 953.8952 747.8138 955.1422 749.1924 949.1154 755.7597 942.7807 751.5058 933.8119 761.3481 930.6871 762.5704 927.779 758.048 922.6758 757.6489 919.488 761.0551 915.1468 761.1193 911.2984 767.9009 906.7641 765.4591 893.843 765.458 886.4871 763.4287 882.2757 765.9333 872.8579 769.0689 867.5134 768.5173 868.3151 774.5049 862.5196 777.9614 858.5816 769.6117 862.9305 766.2958 858.5586 756.0214 851.2899 748.4975 848.0809 753.0637 838.1053 749.9706 837.5585 747.2965 841.8375 743.9172 845.3312 734.1196 839.981 723.8237 827.1214 724.4107 823.9875 723.3881 821.9501 709.8703 825.9262 702.1294 821.1827 693.7748 816.2767 691.9696 808.3066 678.6286 804.4579 674.5024 803.5161 670.2411 799.8293 665.0947 796.2491 663.8192 802.9302 653.2071 795.8597 643.5451 792.5152 643.69 789.438 636.6329 791.9436 626.182 789.978 619.3279 786.9995 616.1314 788.2295 613.4773 796.0005 609.754 799.2271 612.2207 806.3042 610.3812 816.0554 604.8831 821.8955 602.981 828.8952 610.587 834.9663 610.4945 838.0829 607.4185 841.6375 609.9201 844.9045 618.2857 850.6388 619.5837 853.8252 614.6896 854.0654 605.4341 859.4818 598.0272 861.1736 599.9912 869.9741 599.4845 872.7996 604.7176 877.0762 607.2284 880.6785 605.5777 881.8373 601.1993 Z" fill="#feebe2"/>
    <path d="M 497.329 64.2096 504.3896 70.1023 507.6319 69.7297 511.354 79.5406 516.6122 82.2841 518.3223 87.0963 508.6089 93.0271 506.4441 100.0315 503.1016 100.3328 493.3668 105.1989 490.228 108.9414 483.9314 105.7391 478.6284 104.848 469.7933 105.6958 469.415 103.2174 462.5999 100.6311 457.0255 107.2407 457.6651 113.1882 468.5454 119.2794 476.967 122.1647 479.7391 125.9579 467.9692 137.7882 465.5793 137.1011 465.5945 146.1278 461.3644 147.7483 460.7695 154.374 457.2929 154.3036 454.0521 149.7463 447.6467 144.666 443.8976 137.9336 430.6507 152.628 428.7892 162.8879 429.3243 167.2637 417.0419 167.2519 419.8721 172.9512 416.9194 177.5065 421.8385 179.5204 428.637 179.2133 433.9006 176.7236 437.8898 177.3713 439.4409 181.1306 437.9707 187.4699 435.1866 189.8804 434.6692 194.4903 418.2616 196.56 415.3348 194.722 410.2212 187.0784 409.67 182.9354 400.1591 181.4318 392.771 182.9198 387.8455 181.2419 380.9734 186.6926 369.4174 190.3818 366.4394 198.8615 364.3114 198.829 353.0746 184.4772 352.5634 180.2015 342.3092 176.9766 337.9488 179.0038 334.6447 176.2902 330.7944 177.6439 326.4938 176.017 325.0171 171.2456 325.2664 163.5898 317.615 159.908 317.4016 153.7123 306.3746 139.9291 302.5041 138.9928 306.2431 127.1887 309.0657 125.7055 310.6059 118.969 314.7578 118.0098 315.8254 110.9034 323.6849 108.5339 325.7445 103.842 329.536 107.4858 339.6406 107.5757 343.2683 96.1398 349.2327 95.7247 357.9555 103.2382 367.0517 103.6616 377.9547 99.7152 382.1079 90.4076 388.6371 90.6118 391.7609 88.98 389.6603 77.5645 394.4128 78.5387 399.288 75.0316 402.4204 75.0291 408.4873 65.7401 414.8703 64.1984 416.8074 61.4341 414.772 51.1638 422.1367 53.3703 427.5055 57.4452 436.2701 54 441.4919 47.6648 441.2489 42.1613 447.9762 31.6315 451.8179 30.1655 453.4701 34.9985 461.7893 36.4548 467.6783 40.166 467.6353 46.4098 471.4906 46.9537 473.4647 51.431 488.6485 59.1011 490.9468 62.2597 497.329 64.2096 Z" fill="#fbb4b9"/>
    <path d="M 709.5588 477.4954 709.3337 483.5651 698.7723 488.2079 697.2521 492.6016 690.2732 493.4851 692.6889 499.5263 686.0526 500.558 679.5145 508.8026 672.5354 507.6665 674.5024 517.6107 683.61 524.8742 683.1978 529.5745 676.096 530.082 667.0546 533.5813 663.3379 537.4802 663.7514 545.8245 669.0939 558.5552 669.2755 566.312 667.1664 573.0283 669.5168 580.8027 656.0077 582.4671 651.3004 586.1535 644.7664 585.806 638.3816 587.5194 633.4868 583.6626 630.8765 585.5848 621.8237 585.2822 614.3707 586.4859 605.2646 591.6053 599.8437 592.755 596.023 597.8253 580.7072 600.4088 576.8065 600.0408 567.9901 595.9091 559.5897 595.9266 552.7978 594.6197 544.369 596.781 542.9398 594.6914 532.6508 596.076 529.6004 599.7889 519.2154 602.6563 513.357 603.0988 509.0563 592.2132 505.3281 588.2274 506.4232 584.1212 510.6762 582.2923 508.7661 575.314 510.7545 571.3225 507.8416 567.1679 502.6138 563.2823 506.8605 548.3475 511.897 547.6115 513.4041 544.9943 507.7932 540.0829 511.2008 535.5491 519.1124 534.6918 527.1976 523.3158 527.6102 518.2279 524.2207 514.3899 526.977 510.6987 534.2813 509.2494 537.8434 510.1013 544.7643 498.5752 543.2158 490.9468 549.6214 484.0402 561.1616 486.3202 564.6018 489.7656 570.1079 487.615 570.2023 480.1442 575.0026 475.4865 579.9335 468.5643 585.0332 464.2749 589.2529 464.6795 595.3039 460.8186 596.5142 448.2478 595.3286 445.3483 604.615 441.8577 601.5854 437.6388 606.5504 439.0383 620.5759 439.256 623.8415 441.3156 630.428 436.9448 640.4431 438.1188 642.8716 441.0704 648.1706 437.7558 651.6232 438.444 656.0046 435.2944 658.7591 439.9749 662.1871 435.6994 667.4119 433.5077 668.8075 440.0946 667.0896 445.3234 669.6563 454.7293 668.0865 472.0781 674.6752 478.0239 677.9324 475.2108 681.2674 476.1884 684.6904 473.0204 688.1074 474.5465 696.9242 470.5554 702.5707 471.6035 705.3067 477.4389 709.5588 477.4954 Z" fill="#c51b8a"/>
    <path d="M 968.7308 171.6261 965.8 174.88 967.2681 184.1973 961.3148 187.1014 965.6268 191.8908 963.8162 196.1924 955.7016 197.1119 949.9534 192.8004 949.9449 189.9371 938.4138 189.5246 939.4009 196.146 947.0068 209.1371 941.1106 215.7431 930.3174 203.8324 925.6867 201.0846 906.8438 211.2405 903.1983 214.6752 892.8285 209.035 886.1292 212.9801 884.3355 211.1108 874.2001 216.2037 869.506 213.0415 862.6362 213.2665 855.8132 215.8887 851.1381 219.2222 846.5572 212.3693 841.3554 208.4527 835.3069 206.9303 831.5712 207.8465 838.2017 219.4217 834.5385 224.4907 829.4012 226.555 823.9205 233.6358 821.6669 239.3884 821.3162 245.3384 816.342 250.6116 816.0385 256.6534 810.0365 256.2521 807.1397 259.8424 797.3196 258.5792 794.4971 250.8632 785.6968 245.3857 780.8103 239.4583 775.4819 237.4936 762.9537 240.9786 760.3346 247.9346 761.6441 251.8441 754.3398 255.6402 742.0834 248.7539 739.0688 252.3479 731.686 250.7835 727.0735 247.2853 727.6321 240.7077 726.3045 233.1662 724.2226 229.9705 729.4542 220.7027 721.8135 214.5773 729.3111 208.3886 726.9761 201.2993 726.92 194.4576 717.8531 186.8271 719.8187 182.6525 725.3941 183.1757 729.1127 181.6016 724.3523 172.2847 731.4948 167.2858 731.6775 164.6206 726.6505 160.111 725.3133 154.9947 718.8009 153.1718 711.8865 147.0684 713.9732 143.378 719.3688 139.0406 725.2771 137.5485 725.8195 134.5303 720.9141 131.9318 709.9785 120.8256 709.8824 118.2684 718.6753 117.1327 723.5477 119.0799 727.2242 115.7718 734.633 112.6632 734.7161 109.8211 750.1873 90.0228 750.1217 85.217 752.6304 81.9017 757.1773 82.6633 763.1809 77.8548 768.4177 77.4733 791.0373 73.6936 804.3408 72.3763 809.1842 70.0861 821.413 71.6194 831.0209 71.9411 843.6246 65.099 848.1228 67.0083 851.4151 63.4484 856.8886 64.8077 872.801 60.8683 878.3403 62.7962 881.3871 64.1732 882.1386 72.0136 885.6759 74.5605 890.8504 75.2905 890.995 81.2274 894.0614 82.9038 898.3271 80.5427 908.7044 89.178 911.0312 97.593 918.7294 106.768 923.7452 105.3832 924.1836 111.0352 930.1029 115.3675 939.826 132.9915 943.7005 133.6118 944.124 144.8869 950.86 158.1098 954.3701 161.2924 946.996 163.7909 952.2135 167.9048 951.818 173.4697 968.7308 171.6261 Z" fill="#7a0177"/>
    <path d="M 792.5631 831.4279 789.275 838.222 784.0561 843.4682 792.1251 848.3014 790.7928 859.0218 798.8264 861.4719 803.803 860.3738 806.9036 862.625 812.1246 860.2385 816.354 862.843 814.177 866.4019 821.9799 870.8743 826.5378 875.2628 822.1286 883.24 820.3143 892.863 823.6999 895.3186 824.097 902.0009 828.4227 900.0656 827.8553 907.1699 823.0941 906.9784 815.6563 910.9561 811.6566 921.4575 810.5803 933.0375 814.7862 939.2396 814.8536 943.2351 809.6262 943.2538 809.6074 949.9692 814.372 950.5708 813.2507 963.4884 816.8392 963.4205 816.9009 968.6681 821.6483 968.6398 821.75 977.7409 820.3662 984.0294 825.2388 995.2089 823.7574 996.7234 814.0277 1002.048 807.8955 1006.4726 797.989 1006.5911 788.9514 1010.6595 779.3427 1012.7495 771.3248 1010.0235 763.2017 1004.554 757.5002 998.9878 744.0651 995.3039 735.2275 998.6256 725.1143 996.4553 717.42 989.3429 709.3727 988.9056 705.5879 991.7795 696.1522 993.9793 689.8647 992.363 678.5704 998.0307 671.0418 996.5492 663.5309 990.0231 668.2406 982.1893 669.4651 977.3773 677.7263 975.1965 677.5924 969.2501 670.8143 962.2989 669.4065 958.041 665.435 958.9083 663.795 951.6889 659.0858 943.8258 659.8398 938.226 655.134 938.0975 656.889 926.782 664.2078 923.7336 673.726 921.6467 672.2855 917.0614 686.7774 912.8954 694.8239 909.2823 693.2317 901.0074 687.1568 895.4168 685.3318 888.3506 692.1738 880.7448 690.1936 876.8632 689.8859 868.4272 691.2482 862.6355 689.089 851.4104 699.3199 849.8555 699.5552 846.7329 711.5744 847.4942 719.2999 840.6073 727.8186 843.5466 749.2909 830.6431 754.2713 837.6362 756.7776 842.1762 764.7199 837.7981 779.1737 817.1049 786.4904 820.7003 784.4141 826.7557 792.5631 831.4279 Z" fill="#fbb4b9"/>
    <path d="M 68.3846 442.1315 70.2452 445.0038 78.3724 446.3308 79.5118 450.5124 86.8578 458.5476 95.2669 460.3718 98.4161 462.9993 102.5503 470.9294 119.0876 471.9983 127.5756 485.3473 129.8961 485.4679 137.1735 481.0875 145.28 487.034 150.7795 482.5806 154.4459 477.2405 162.1568 480.3622 166.8042 484.0911 175.07 480.0551 179.5233 476.3943 177.2605 473.0328 184.0293 469.2084 189.9465 468.5153 192.69 476.151 190.6472 481.008 200.7434 484.8707 208.1463 489.6722 208.8821 495.4767 211.6053 500.2211 215.282 502.538 217.1488 496.5889 223.408 489.3276 226.2827 494.2477 227.018 502.8979 231.6025 501.2554 235.0508 492.1211 239.6721 496.7986 242.9664 494.4293 247.3665 495.3503 252.8364 488.4268 260.6195 488.6163 262.1462 493.1446 265.6135 492.8284 274.5381 496.5041 285.4734 504.2457 292.5014 504.1271 295.49 508.4634 299.6238 508.0874 299.2979 503.7947 307.9858 502.6031 309.9546 495.0355 315.9385 494.012 325.7307 501.9772 324.2172 508.5698 318.9249 512.2627 323.8746 520.0028 327.9144 519.9706 333.5228 526.1897 334.0251 535.0853 337.0276 535.5454 342.3119 532.1593 344.7784 537.2003 337.6615 544.6887 332.0208 547.0633 331.5778 555.286 324.9863 560.4837 308.3099 561.7294 305.1003 566.8916 303.8552 573.6333 300.3812 578.0198 295.5582 573.572 286.1324 572.937 275.1224 575.5363 270.4686 579.7288 266.9187 593.1365 263.2219 595.6961 254.8307 592.1098 250.2548 593.4124 249.6861 587.7793 246.8609 583.0124 240.7277 580.891 239.87 586.4699 233.028 587.75 226.3249 586.5312 220.3194 583.7413 216.9416 579.6475 213.257 579.2614 209.5552 574.3198 197.5843 580.1846 193.8577 583.8212 194.4076 591.1706 189.1324 594.6992 183.8208 593.3266 175.5787 596.6296 176.0958 604.0369 179.6201 609.48 172.1281 611.659 172.664 615.327 178.9759 623.7205 184.4865 628.6701 188.5708 641.7256 185.148 643.4281 183.7412 650.3659 178.8263 658.0104 176.0131 658.4718 163.3739 652.3072 147.7801 646.4772 145.021 649.1444 134.2207 640.8456 131.2033 630.5618 118.2896 633.3947 113.5891 625.3005 106.3197 626.5377 101.3276 619.1696 98.1614 616.939 92.5832 605.6576 84.2419 602.0571 86.9068 599.0551 84.8351 594.789 79.9321 591.3265 70.4699 590.8397 70.3449 586.4071 76.3829 583.3269 80.5291 579.1721 75.4012 567.6142 71.7937 568.4704 71.1801 561.9448 77.6704 552.5604 76.6656 546.0024 78.2267 535.0187 81.7652 527.0724 75.8817 524.4114 74.0836 531.1534 62.807 531.3877 60.4817 521.095 55.9753 517.7266 57.665 513.9984 50.695 506.0356 46.1701 504.5891 44.8143 495.6367 36.4769 499.0982 32.2426 485.4848 27.051 481.5243 20.6542 482.2445 12.4409 474.2788 12.6696 463.8548 2.3373 452.1461 1 447.4151 6.602 440.635 8.9598 441.2248 15.6982 437.3643 17.4239 441.118 21.8634 440.402 26.0616 443.3016 30.9995 444.089 36.7652 438.3125 37.9277 434.2087 45.0361 437.4559 57.3669 449.0557 60.5117 444.4453 64.3856 445.4492 68.3846 442.1315 Z" fill="#f768a1"/>
    <path d="M 1337.7206 766.826 1332.6576 764.0734 1327.2789 763.2648 1318.5982 770.3448 1311.7264 778.2668 1306.4577 777.9101 1304.3925 773.6736 1298.6371 775.7358 1289.4284 771.3599 1276.0591 774.2467 1266.693 773.7551 1264.5981 780.0206 1257.2226 777.4687 1253.372 778.5881 1249.4032 784.664 1243.7632 779.7552 1242.0535 774.5523 1243.111 770.9676 1239.9746 768.5665 1232.0299 767.9191 1231.6077 764.5828 1226.4085 764.6784 1223.5802 761.5677 1222.9301 757.0026 1210.8422 754.6237 1210.6508 749.3357 1206.1691 746.2588 1200.336 747.9278 1193.8525 745.9545 1194.0724 742.4545 1198.6478 731.3945 1202.9371 728.4613 1201.3843 724.256 1201.2049 716.03 1204.2867 709.3059 1200.4992 700.0075 1204.0277 694.8368 1200.7961 685.0111 1200.806 681.1494 1206.5246 680.8797 1206.5481 675.2289 1210.1063 672.6328 1193.5899 660.8654 1198.9658 652.1012 1196.3797 646.7504 1191.7883 648.9398 1182.1414 645.5473 1177.6767 641.3809 1181.9485 623.4388 1182.1937 615.5943 1189.6382 608.1455 1197.2693 607.8361 1206.861 612.2404 1206.7389 602.9267 1209.2589 600.8473 1216.606 602.7782 1221.2084 607.9185 1221.2815 615.0294 1228.0888 627.3831 1231.8864 632.0078 1260.4153 643.301 1264.9355 645.9038 1276.0162 646.5128 1289.4375 650.2913 1299.9657 646.4633 1293.8944 636.9612 1300.1798 634.7823 1301.7509 630.7651 1298.1379 627.2125 1303.4003 625.2852 1307.8486 628.9937 1312.6269 629.4175 1321.623 636.4574 1324.664 634.8934 1323.7727 630.1719 1326.0756 625.058 1328.7836 624.98 1343.9114 615.0462 1356.6403 609.7605 1358.7542 606.4726 1368.6319 600.4071 1376.1267 601.075 1380.5987 597.0233 1385.0922 599.1167 1396.0215 597.2699 1403.0895 601.1737 1412.9583 603.0862 1421.0923 607.337 1431.1334 617.7196 1434.2697 624.374 1436.1085 632.81 1434.0568 639.4536 1429.2086 644.6093 1430.9179 652.3895 1433.2581 656.7657 1439 658.1094 1436.3234 664.5028 1434.9543 671.6176 1434.1405 691.4216 1432.5889 708.2457 1432.7949 717.0709 1429.9433 718.7036 1430.9266 725.2745 1424.013 729.8458 1415.1994 731.3671 1397.4336 736.0852 1387.5669 736.9636 1375.1884 739.2315 1366.6816 742.9432 1362.0295 743.5729 1350.9082 750.9021 1342.7019 759.9815 1337.7206 766.826 Z" fill="#f768a1"/>
    <path d="M 1182.8809 303.27 1182.9124 306.6162 1186.2723 310.9069 1191.0243 313.3996 1192.3651 321.8786 1197.4574 332.9396 1202.3146 338.094 1205.2199 349.5137 1201.3181 358.7156 1203.0336 363.5405 1202.1404 377.0859 1205.0305 386.4174 1208.3061 389.416 1206.8885 394.2359 1203.8643 394.6522 1203.1249 400.3086 1198.5377 407.7838 1200.4218 415.3053 1196.2559 420.3181 1191.9212 429.3407 1186.9001 437.3579 1192.4031 443.5709 1190.1359 453.3699 1191.897 457.0746 1189.3318 462.0863 1183.1549 460.1687 1178.0279 462.7812 1169.3668 462.226 1166.1443 455.6007 1162.4075 457.1187 1160.2504 453.417 1152.0927 455.2179 1148.2271 459.5403 1139.3661 462.8848 1135.6768 459.5969 1127.8929 459.6301 1118.6525 457.5115 1110.6942 458.0121 1109.4208 464.1212 1115.7767 474.8071 1111.6017 476.1347 1109.9785 486.7095 1106.2261 487.0342 1102.9845 484.1864 1098.8206 476.4702 1101.2323 474.0281 1101.575 468.0418 1096.3666 458.3881 1094.6851 454.1731 1096.8484 446.7114 1096.3269 441.0078 1092.1624 440.8653 1088.1971 419.2846 1090.9987 417.1016 1088.21 410.6212 1086.4768 401.9583 1083.9134 399.3267 1075.9062 378.735 1067.2415 362.5713 1059.0468 353.7227 1064.8298 347.7074 1061.4342 342.9848 1066.1054 337.6841 1052.816 329.9248 1047.6526 322.5509 1051.7409 320.805 1048.3962 315.4079 1049.5909 309.1047 1044.3624 300.5069 1046.3962 298.068 1050.0512 301.0961 1057.7617 300.13 1066.4868 300.6994 1068.6009 297.6565 1075.5225 294.7854 1076.2306 298.6261 1079.6724 301.4378 1089.7396 298.0187 1093.317 298.2221 1093.5534 289.6741 1097.6308 289.5912 1101.3457 295.005 1105.7008 296.3123 1110.3589 293.0102 1111.1887 289.5336 1107.8315 286.9354 1106.125 279.9654 1108.0792 272.4039 1113.1954 275.5436 1121.0076 283.2055 1130.9079 296.7705 1134.3778 297.074 1130.6249 284.2676 1136.4315 285.2987 1137.647 294.8087 1135.2841 300.1258 1140.204 301.4044 1145.7004 300.6702 1149.0202 305.8438 1153.4813 308.4291 1156.9583 300.43 1162.5434 299.6823 1164.292 303.81 1167.9813 304.6756 1173.4941 300.7365 1179.3105 301.0267 1182.8809 303.27 Z" fill="#fbb4b9"/>
    <path d="M 644.7664 585.806 647.3687 595.5746 643.6606 598.4154 645.3814 604.0464 643.5056 610.7488 638.8625 611.4493 637.821 616.8719 641.6226 633.7121 636.7512 634.273 636.6799 640.4102 639.5812 651.6894 635.8256 661.6747 638.9753 669.6963 642.7749 671.0526 640.8345 678.0898 643.6588 682.8369 641.6612 693.662 637.6504 698.8671 643.0124 700.5981 643.1751 703.6117 638.18 708.5393 641.5418 712.0917 636.948 718.454 638.2651 725.643 634.705 730.9669 636.942 734.5749 634.4904 742.1894 630.6567 745.7377 627.3226 743.6185 628.4916 735.8416 624.3264 733.7738 615.7794 743.8632 613.6109 748.6635 611.8661 758.5555 605.1915 762.2043 605.8666 775.512 608.7665 782.5876 609.0781 789.8831 612.6768 796.1968 612.6101 807.5223 606.8533 806.2897 606.0076 798.9233 602.5235 798.8814 602.3983 806.3407 600.4839 809.1732 584.624 808.1967 580.2804 812.1713 574.5347 820.5737 571.6354 821.3117 566.072 813.7551 559.5209 812.0192 550.7987 813.5165 549.8888 806.3474 545.2561 801.5841 543.0071 791.6105 540.3299 792.8696 534.0359 787.8484 529.3607 789.8122 529.921 782.9547 528.408 773.201 528.6077 763.3279 527.0867 759.0863 531.1312 750.886 529.3764 742.8795 526.8346 738.7618 526.0954 732.9581 527.9179 721.9467 526.2805 717.1358 525.9035 709.6736 531.8926 704.9774 529.8743 697.177 535.3653 695.5954 537.0528 691.9328 534.6114 683.7234 540.1033 680.0712 541.2085 675.4427 538.4732 668.3719 535.7183 665.8571 532.6272 654.1905 537.177 645.768 540.1589 642.5271 539.7367 638.739 532.9904 634.0009 522.1629 639.5672 515.8535 639.3302 510.6722 634.61 507.2546 637.6161 501.3758 633.6392 502.9538 628.472 501.8874 618.8537 502.8507 607.4532 505.1997 611.2522 509.4181 611.4728 514.9497 608.9383 519.2154 602.6563 529.6004 599.7889 532.6508 596.076 542.9398 594.6914 544.369 596.781 552.7978 594.6197 559.5897 595.9266 567.9901 595.9091 576.8065 600.0408 580.7072 600.4088 596.023 597.8253 599.8437 592.755 605.2646 591.6053 614.3707 586.4859 621.8237 585.2822 630.8765 585.5848 633.4868 583.6626 638.3816 587.5194 644.7664 585.806 Z" fill="#feebe2"/>
    <path d="M 1094.6851 454.1731 1096.3666 458.3881 1093.1182 461.4887 1083.5879 460.7578 1085.5813 468.52 1076.3784 472.2786 1065.4517 471.3273 1063.7806 472.4967 1061.5007 480.8071 1056.1912 481.4503 1055.4113 488.0242 1058.1954 501.2383 1064.6291 514.5131 1062.9116 517.242 1067.996 523.393 1070.7413 531.9437 1076.3107 541.8181 1077.7302 548.3132 1084.3213 558.3691 1089.8833 558.8953 1091.9606 565.0412 1094.7621 568.0151 1100.761 570.4555 1102.5121 577.8606 1100.5257 582.7245 1104.2535 586.8876 1103.8761 593.2079 1109.2926 599.8314 1098.6133 610.7088 1091.7024 616.4067 1090.9696 620.8048 1085.9822 624.808 1076.0762 626.339 1076.4527 623.6762 1065.749 622.5256 1063.3478 609.6996 1058.3811 614.5931 1053.7803 609.1044 1050.9346 614.7834 1046.225 618.6733 1041.8497 619.0228 1040.1053 615.4244 1044.7993 606.6861 1040.6223 604.7716 1037.8254 611.1589 1030.9741 609.8817 1024.1807 603.0206 1020.5278 593.9014 1015.7303 595.1732 1009.2163 592.942 1006.1484 596.6184 1002.0087 594.8311 996.7923 595.3601 993.7446 590.029 985.0333 590.1014 974.6807 577.4966 969.3722 577.2344 965.5902 573.8401 961.0409 574.9403 957.953 571.9509 951.2399 570.6499 945.4308 562.9298 941.2921 553.7692 936.4758 549.4259 937.0979 541.3677 929.5902 535.8911 926.9358 531.4943 926.6808 523.8858 928.6927 520.4057 926.6928 513.0967 929.5028 510.1013 928.3212 505.8861 929.9104 500.1921 935.8156 495.0466 935.9512 484.2883 943.764 482.766 947.4659 486.6809 956.1585 488.7089 958.0849 483.5329 965.287 479.6689 968.1085 474.8577 970.7682 475.2902 975.8005 471.5284 984.5421 472.9347 987.2572 471.2435 991.4573 477.3031 997.166 475.9461 1000.28 473.0291 1011.1782 476.5849 1013.1356 468.3962 1018.9071 466.3752 1032.5837 471.4149 1036.5471 471.208 1041.4996 461.1683 1040.0062 457.8166 1053.4914 448.3894 1056.2437 451.152 1060.8262 449.9569 1059.6383 446.2441 1066.6589 444.9536 1070.5952 452.8847 1076.8239 455.1085 1078.5863 447.1275 1087.7429 448.9447 1089.6057 454.7211 1094.6851 454.1731 Z" fill="#7a0177"/>
    <path d="M 889.0013 811.1551 889.4222 818.1601 891.394 822.7815 901.5477 824.5441 897.8953 829.7042 905.5329 833.1087 908.623 836.1914 906.7952 842.6147 898.9525 842.0252 896.1734 847.5875 899.4471 854.324 897.5923 855.9876 891.2389 850.2105 878.8848 845.5918 875.3647 840.7213 869.9209 840.6568 868.3789 833.1989 875.4914 832.6277 875.6516 829.3721 870.7146 827.4434 871.5435 821.9781 874.8814 817.4844 880.999 813.6496 889.0013 811.1551 Z" fill="#c51b8a"/>
    <path d="M 856.3042 811.5252 861.0123 816.8306 857.1933 823.6206 860.2877 825.425 857.9495 830.7429 852.8029 828.128 849.9179 835.6652 851.6817 839.1141 846.5416 843.2443 851.59 845.2775 851.467 848.2456 856.6293 851.3594 859.9287 857.0833 862.3801 856.0659 872.8336 860.1186 874.3847 863.7921 878.8577 865.6493 881.5867 869.3243 895.7401 877.2875 907.4569 871.3778 914.5981 864.2775 918.3121 867.1911 921.5513 872.6833 928.2101 875.6302 930.6972 879.6665 936.816 879.3146 936.8665 887.7654 939.1058 888.8447 941.5588 896.2787 940.0943 900.9056 935.5047 901.374 930.608 904.6963 934.2774 918.8066 922.5409 922.563 918.6489 925.9094 904.9359 932.2799 899.6169 931.8812 892.8837 934.4332 881.7571 950.4896 875.0116 953.9987 865.6824 961.3839 857.0929 976.3565 852.5141 981.3457 845.7069 984.682 840.7903 992.4455 833.592 996.3559 823.7574 996.7234 825.2388 995.2089 820.3662 984.0294 821.75 977.7409 821.6483 968.6398 816.9009 968.6681 816.8392 963.4205 813.2507 963.4884 814.372 950.5708 809.6074 949.9692 809.6262 943.2538 814.8536 943.2351 814.7862 939.2396 810.5803 933.0375 811.6566 921.4575 815.6563 910.9561 823.0941 906.9784 827.8553 907.1699 828.4227 900.0656 824.097 902.0009 823.6999 895.3186 820.3143 892.863 822.1286 883.24 826.5378 875.2628 821.9799 870.8743 814.177 866.4019 816.354 862.843 812.1246 860.2385 806.9036 862.625 803.803 860.3738 798.8264 861.4719 790.7928 859.0218 792.1251 848.3014 784.0561 843.4682 789.275 838.222 792.5631 831.4279 797.4499 823.6315 792.4019 821.1799 801.5956 812.4221 811.235 814.5579 813.6442 809.8605 816.5652 810.1424 823.8199 815.7601 827.8699 811.0613 831.1116 812.774 840.535 814.0071 843.7508 809.9565 853.8671 813.084 856.3042 811.5252 Z" fill="#c51b8a"/>
    <path d="M 868.3151 774.5049 868.3408 783.9479 863.6019 788.6423 869.9752 791.9885 871.8737 795.8119 866.5002 801.2039 854.5702 808.8045 856.3042 811.5252 853.8671 813.084 843.7508 809.9565 840.535 814.0071 831.1116 812.774 827.8699 811.0613 823.8199 815.7601 816.5652 810.1424 813.6442 809.8605 811.235 814.5579 801.5956 812.4221 792.4019 821.1799 797.4499 823.6315 792.5631 831.4279 784.4141 826.7557 786.4904 820.7003 779.1737 817.1049 764.7199 837.7981 756.7776 842.1762 754.2713 837.6362 757.9206 833.9221 761.294 826.6024 758.9298 819.7176 763.1913 809.9272 756.9571 807.543 750.4902 795.9353 749.517 792.252 743.8116 785.9709 748.1947 785.013 754.5005 778.727 746.4127 774.2199 749.9257 764.1557 748.7746 754.1019 746.9465 749.733 749.1748 744.2671 747.2891 739.1731 748.2203 733.4171 743.522 729.2735 743.7713 718.3815 747.8663 714.4655 748.044 708.2855 744.2025 703.5461 737.1394 698.2105 745.3206 692.6749 744.8649 689.0187 740.251 684.2828 741.6307 666.1378 749.5485 676.7901 756.567 672.9029 757.2385 665.8505 762.2051 664.0156 760.7531 655.3814 764.565 648.6707 767.5605 636.9928 766.9849 629.3433 773.2863 627.0348 779.4918 627.8895 780.5644 619.3371 786.9995 616.1314 789.978 619.3279 791.9436 626.182 789.438 636.6329 792.5152 643.69 795.8597 643.5451 802.9302 653.2071 796.2491 663.8192 799.8293 665.0947 803.5161 670.2411 804.4579 674.5024 808.3066 678.6286 816.2767 691.9696 821.1827 693.7748 825.9262 702.1294 821.9501 709.8703 823.9875 723.3881 827.1214 724.4107 839.981 723.8237 845.3312 734.1196 841.8375 743.9172 837.5585 747.2965 838.1053 749.9706 848.0809 753.0637 851.2899 748.4975 858.5586 756.0214 862.9305 766.2958 858.5816 769.6117 862.5196 777.9614 868.3151 774.5049 Z" fill="#f768a1"/>
    <path d="M 501.3758 633.6392 507.2546 637.6161 510.6722 634.61 515.8535 639.3302 522.1629 639.5672 532.9904 634.0009 539.7367 638.739 540.1589 642.5271 537.177 645.768 532.6272 654.1905 535.7183 665.8571 538.4732 668.3719 541.2085 675.4427 540.1033 680.0712 534.6114 683.7234 537.0528 691.9328 535.3653 695.5954 529.8743 697.177 531.8926 704.9774 525.9035 709.6736 526.2805 717.1358 527.9179 721.9467 526.0954 732.9581 526.8346 738.7618 529.3764 742.8795 531.1312 750.886 527.0867 759.0863 528.6077 763.3279 528.408 773.201 524.4012 772.8375 519.3362 769.6459 517.8584 772.882 519.721 779.8222 517.3446 783.8676 518.7103 791.8651 515.0783 797.3573 500.6916 798.8215 498.2859 794.2303 486.6852 796.9905 484.5844 801.5755 477.309 803.7588 469.326 798.9125 470.8019 796.3432 466.6159 792.5118 456.6035 786.3153 452.6438 781.2179 444.172 780.992 436.266 778.8565 437.2432 775.8412 425.6296 777.5837 417.0017 771.5385 417.1192 767.7228 408.242 764.1003 406.0121 755.6697 401.7274 753.0597 393.6448 745.6371 390.9538 740.0694 392.1254 733.1497 388.6773 719.4213 392.9099 715.2609 392.1079 708.996 387.2941 710.28 379.1445 699.1198 373.4428 694.2819 370.1108 694.8414 366.1018 691.3514 363.206 691.7785 361.0237 684.6151 356.5319 683.5717 355.5577 679.2784 345.0724 676.8479 342.0444 671.0664 348.5229 662.1595 352.3947 661.6295 362.0301 651.1108 369.5228 652.3147 370.9543 649.852 377.2009 650.5762 385.181 646.3449 389.416 651.1962 394.5037 648.4043 400.11 647.6676 406.389 653.1476 420.4364 650.7811 424.7531 645.5154 430.6936 647.9323 438.779 647.0097 442.1896 648.951 444.9571 644.1933 454.8745 642.1317 458.0663 644.374 462.6917 637.6318 471.2389 637.5694 472.0183 641.1795 478.051 645.1994 483.0467 644.2171 489.338 639.0903 497.7388 634.2471 501.3758 633.6392 Z" fill="#fbb4b9"/>
    <path d="M 502.8507 607.4532 501.8874 618.8537 502.9538 628.472 501.3758 633.6392 497.7388 634.2471 489.338 639.0903 483.0467 644.2171 478.051 645.1994 472.0183 641.1795 471.2389 637.5694 462.6917 637.6318 458.0663 644.374 454.8745 642.1317 444.9571 644.1933 442.1896 648.951 438.779 647.0097 430.6936 647.9323 424.7531 645.5154 420.4364 650.7811 406.389 653.1476 400.11 647.6676 394.5037 648.4043 389.416 651.1962 385.181 646.3449 377.2009 650.5762 370.9543 649.852 369.5228 652.3147 362.0301 651.1108 364.0403 636.2923 362.022 635.076 358.1929 626.3084 363.5996 622.0055 367.0947 616.887 364.1997 600.5962 362.25 594.9787 356.0461 590.2815 355.8876 582.6831 349.6888 584.8312 348.215 579.9836 336.7102 576.1617 335.4841 572.4305 330.9729 568.3761 329.6221 563.9474 324.9863 560.4837 331.5778 555.286 332.0208 547.0633 337.6615 544.6887 344.7784 537.2003 342.3119 532.1593 337.0276 535.5454 334.0251 535.0853 333.5228 526.1897 327.9144 519.9706 323.8746 520.0028 318.9249 512.2627 324.2172 508.5698 325.7307 501.9772 315.9385 494.012 313.5498 489.2074 320.3939 488.9316 327.1597 485.6351 329.1147 482.8077 328.1663 471.273 324.7495 467.6347 326.069 464.708 330.9895 463.3035 334.4843 456.9244 332.48 453.0829 330.3286 443.2337 337.9242 437.3858 344.2902 440.0085 352.6981 438.3696 356.2203 441.6962 363.7504 438.2753 363.6423 433.4757 366.5933 427.6819 367.2598 420.3042 375.1894 416.7317 378.3298 413.4766 382.1218 413.7621 386.6355 418.3762 392.3282 418.9698 396.3709 416.8562 404.7182 418.588 410.5458 429.3336 407.8083 432.7048 412.7285 443.4836 421.3695 445.7845 423.0722 444.5835 429.7095 451.6006 429.054 460.4909 423.396 460.4906 424.6491 467.4465 428.3637 469.4466 427.6996 476.5178 430.2462 480.0678 442.3783 485.696 445.5042 483.8329 450.039 485.1238 449.5451 494.6791 454.8165 507.3184 459.1319 509.7697 464.1636 520.3973 462.6269 527.3013 466.8454 540.5013 470.9891 544.6142 467.6352 553.573 470.8829 558.6696 476.3511 561.1215 476.87 564.1673 468.6126 569.974 469.762 574.5062 474.7252 572.0201 477.3659 574.4119 476.1195 581.1828 486.6981 584.5434 491.0571 590.4302 493.8625 590.6734 499.1743 597.1321 502.6416 603.3434 502.8507 607.4532 Z" fill="#7a0177"/>
    <path d="M 389.1655 366.3721 389.2713 369.1793 399.6371 373.8345 405.6817 370.198 417.2395 371.5577 418.7269 381.3533 425.3193 383.9495 423.9223 389.1727 431.5369 388.7479 433.1671 384.2395 444.8252 380.6591 445.781 383.9235 452.5668 384.92 457.5189 383.537 472.8212 374.9808 481.8869 377.1089 486.5556 382.7274 501.0472 386.4758 503.3113 384.5703 508.9809 388.353 505.4937 393.4741 507.5125 401.8654 515.9674 406.6677 515.5489 402.0319 518.5751 395.2529 522.2462 393.5388 539.2559 391.8518 543.5655 392.39 547.3755 396.1234 553.6288 392.6942 564.9129 399.939 570.62 395.9367 572.5256 399.7628 570.723 406.038 565.4159 410.8055 566.3312 412.8267 579.3207 421.1152 587.1565 420.7427 589.2287 423.0239 588.2514 428.504 590.8103 433.6371 595.8478 432.7279 601.5854 437.6388 604.615 441.8577 595.3286 445.3483 596.5142 448.2478 595.3039 460.8186 589.2529 464.6795 585.0332 464.2749 579.9335 468.5643 575.0026 475.4865 570.2023 480.1442 570.1079 487.615 564.6018 489.7656 561.1616 486.3202 549.6214 484.0402 543.2158 490.9468 544.7643 498.5752 537.8434 510.1013 534.2813 509.2494 526.977 510.6987 524.2207 514.3899 527.6102 518.2279 527.1976 523.3158 519.1124 534.6918 511.2008 535.5491 507.7932 540.0829 513.4041 544.9943 511.897 547.6115 506.8605 548.3475 502.6138 563.2823 507.8416 567.1679 510.7545 571.3225 508.7661 575.314 510.6762 582.2923 506.4232 584.1212 505.3281 588.2274 509.0563 592.2132 513.357 603.0988 519.2154 602.6563 514.9497 608.9383 509.4181 611.4728 505.1997 611.2522 502.8507 607.4532 502.6416 603.3434 499.1743 597.1321 493.8625 590.6734 491.0571 590.4302 486.6981 584.5434 476.1195 581.1828 477.3659 574.4119 474.7252 572.0201 469.762 574.5062 468.6126 569.974 476.87 564.1673 476.3511 561.1215 470.8829 558.6696 467.6352 553.573 470.9891 544.6142 466.8454 540.5013 462.6269 527.3013 464.1636 520.3973 459.1319 509.7697 454.8165 507.3184 449.5451 494.6791 450.039 485.1238 445.5042 483.8329 442.3783 485.696 430.2462 480.0678 427.6996 476.5178 428.3637 469.4466 424.6491 467.4465 423.396 460.4906 429.054 460.4909 429.7095 451.6006 423.0722 444.5835 421.3695 445.7845 412.7285 443.4836 407.8083 432.7048 410.5458 429.3336 404.7182 418.588 396.3709 416.8562 392.3282 418.9698 386.6355 418.3762 382.1218 413.7621 378.3298 413.4766 370.9764 410.1443 367.8082 401.2784 374.4883 396.0073 367.3385 384.8366 368.1713 379.347 376.1431 370.7896 379.9407 370.4104 380.1951 366.0832 389.1655 366.3721 Z" fill="#c51b8a"/>
    <path d="M 573.0602 197.3243 573.9548 205.4221 569.5283 208.261 566.5294 206.216 558.6779 210.9497 557.8115 221.4365 559.7555 232.5733 563.1756 238.5603 567.2579 239.554 571.9577 237.5516 572.6205 244.31 575.0829 247.3005 583.39 248.6053 589.0417 257.4024 588.8607 260.2259 584.2989 270.0238 586.3102 282.6804 595.1571 285.768 592.4474 290.3343 596.1433 291.8697 600.5068 296.7543 601.0643 303.8897 598.0482 308.5091 599.5528 311.8385 595.0025 318.9045 593.4362 323.7744 585.3285 326.6114 577.9161 334.2311 581.2025 339.1105 586.4959 341.5884 583.1098 349.9294 572.7522 353.4034 571.5406 359.2582 577.7281 363.6221 574.2578 375.205 571.7776 377.7486 565.4721 375.7054 561.5234 380.8739 563.3148 388.806 562.8119 393.7137 564.9129 399.939 553.6288 392.6942 547.3755 396.1234 543.5655 392.39 539.2559 391.8518 522.2462 393.5388 518.5751 395.2529 515.5489 402.0319 515.9674 406.6677 507.5125 401.8654 505.4937 393.4741 508.9809 388.353 503.3113 384.5703 501.0472 386.4758 486.5556 382.7274 481.8869 377.1089 472.8212 374.9808 457.5189 383.537 452.5668 384.92 445.781 383.9235 444.8252 380.6591 433.1671 384.2395 431.5369 388.7479 423.9223 389.1727 425.3193 383.9495 418.7269 381.3533 417.2395 371.5577 405.6817 370.198 399.6371 373.8345 389.2713 369.1793 389.1655 366.3721 387.8914 355.5523 389.504 352.4625 383.7776 348.0306 379.8898 335.8034 375.1302 328.4771 375.5694 323.6372 366.8541 317.0244 377.8752 312.2561 382.3888 299.2376 386.2235 294.8122 377.2448 286.6471 372.5645 285.3561 372.2005 277.5657 379.3405 270.5556 386.9696 274.7919 389.1033 277.4465 394.6125 273.9152 404.5501 279.5288 404.9687 286.336 410.064 291.3148 415.8249 293.839 429.4469 295.4053 432.9303 297.4973 432.4928 304.1401 435.8549 305.408 443.0178 300.7963 448.6437 301.9172 452.1247 297.314 450.1357 291.0747 454.8843 285.5791 457.9818 288.3265 457.538 292.0767 462.5353 296.5508 465.3984 293.6979 469.7299 294.3769 470.7331 290.8106 475.8392 287.2481 476.9939 279.5146 480.0852 276.8181 485.4323 276.5863 489.3805 272.1286 490.8278 263.5104 487.109 260.9379 484.8413 254.9651 492.3819 255.0981 491.7148 251.2809 495.0086 247.9208 494.559 241.1786 498.0476 241.1246 502.9378 236.4899 505.9936 235.8482 510.3201 239.3092 514.7061 235.7356 517.8768 224.2333 524.5013 222.2601 532.6996 222.8844 534.2296 213.8571 539.673 214.3966 546.1628 201.7403 547.9193 195.6428 558.2095 199.274 565.2341 196.4155 573.0602 197.3243 Z" fill="#f768a1"/>
    <path d="M 546.1628 201.7403 539.673 214.3966 534.2296 213.8571 532.6996 222.8844 524.5013 222.2601 517.8768 224.2333 514.7061 235.7356 510.3201 239.3092 505.9936 235.8482 502.9378 236.4899 498.0476 241.1246 494.559 241.1786 495.0086 247.9208 491.7148 251.2809 492.3819 255.0981 484.8413 254.9651 487.109 260.9379 490.8278 263.5104 489.3805 272.1286 485.4323 276.5863 480.0852 276.8181 476.9939 279.5146 475.8392 287.2481 470.7331 290.8106 469.7299 294.3769 465.3984 293.6979 462.5353 296.5508 457.538 292.0767 457.9818 288.3265 454.8843 285.5791 450.1357 291.0747 452.1247 297.314 448.6437 301.9172 443.0178 300.7963 435.8549 305.408 432.4928 304.1401 432.9303 297.4973 429.4469 295.4053 415.8249 293.839 410.064 291.3148 404.9687 286.336 404.5501 279.5288 394.6125 273.9152 389.1033 277.4465 386.9696 274.7919 379.3405 270.5556 376.5981 269.784 370.5516 261.0406 359.6358 257.7053 351.5428 249.6471 354.5667 246.1417 354.25 240.5732 351.2158 235.0206 347.6857 235.1606 345.7265 230.2753 349.4225 220.6049 352.8513 220.4598 356.1326 213.8493 354.2385 210.2585 355.2185 205.5346 358.7086 204.4472 364.3114 198.829 366.4394 198.8615 369.4174 190.3818 380.9734 186.6926 387.8455 181.2419 392.771 182.9198 400.1591 181.4318 409.67 182.9354 410.2212 187.0784 415.3348 194.722 418.2616 196.56 434.6692 194.4903 435.1866 189.8804 437.9707 187.4699 439.4409 181.1306 437.8898 177.3713 445.3485 177.7377 449.5994 174.9257 454.7515 179.7701 459.7327 179.861 468.2469 182.1119 475.5068 187.4085 486.7279 191.8715 507.4232 196.2747 512.2824 190.8682 517.3504 189.7557 520.4131 195.5746 529.2661 205.6291 543.6636 200.6601 546.1628 201.7403 Z" fill="#fbb4b9"/>
    <path d="M 1188.818 847.1335 1188.1014 851.1177 1178.9252 865.6063 1173.1669 867.9665 1168.832 867.2946 1160.0683 868.579 1152.354 871.9019 1145.4517 879.3519 1142.2341 880.2493 1129.2087 878.6088 1118.0084 883.974 1102.2042 896.9341 1092.6498 895.7259 1085.2963 896.0932 1078.9028 894.274 1073.6668 897.4968 1067.038 899.8817 1060.1968 899.1409 1051.6366 894.9734 1045.2125 896.7953 1037.618 894.4831 1030.2434 896.998 1025.1229 896.6283 1015.2069 897.9396 1008.1976 901.4596 996.5495 908.9873 988.0965 911.3018 982.8421 911.0303 967.6556 916.6485 958.9932 915.8731 944.5513 920.6307 934.2774 918.8066 930.608 904.6963 935.5047 901.374 940.0943 900.9056 941.5588 896.2787 939.1058 888.8447 936.8665 887.7654 936.816 879.3146 930.6972 879.6665 928.2101 875.6302 921.5513 872.6833 918.3121 867.1911 914.5981 864.2775 917.0033 859.3998 913.3133 856.6252 922.8373 849.6118 922.0222 843.0909 932.2009 836.3758 936.172 832.7045 942.4107 832.7473 943.9777 828.7456 935.1551 828.6339 929.6234 822.437 938.1368 814.5451 945.252 809.7242 943.0059 804.9319 954.502 806.3045 960.972 813.0515 966.6634 813.7085 972.2206 809.7231 976.5565 797.7324 979.5051 798.6477 979.4401 804.2691 986.2066 805.4799 985.7972 810.1319 990.7302 812.1201 991.5938 807.3317 995.7748 809.0177 994.6782 813.4813 997.3772 815.6823 1002.529 811.9667 1012.363 814.2714 1024.5963 811.1423 1029.5539 811.01 1029.6455 815.4278 1043.3775 815.0992 1043.4877 820.2144 1050.3453 820.4824 1050.9213 816.5695 1061.348 820.0073 1064.6705 817.8192 1083.0468 818.9351 1083.8729 812.0849 1089.6571 816.5 1107.4161 816.5433 1109.8975 815.6829 1110.6298 805.4991 1113.7925 801.4348 1117.791 801.9477 1118.146 821.8104 1128.8558 820.832 1132.1925 826.0736 1131.5753 831.5832 1143.5937 831.5619 1146.3556 836.2094 1146.707 843.9383 1150.4719 847.6222 1159.1111 848.2026 1163.1797 839.3885 1188.818 847.1335 Z" fill="#fbb4b9"/>
    <path d="M 938.1368 814.5451 929.6234 822.437 935.1551 828.6339 943.9777 828.7456 942.4107 832.7473 936.172 832.7045 932.2009 836.3758 922.0222 843.0909 922.8373 849.6118 913.3133 856.6252 917.0033 859.3998 914.5981 864.2775 907.4569 871.3778 895.7401 877.2875 881.5867 869.3243 878.8577 865.6493 874.3847 863.7921 872.8336 860.1186 862.3801 856.0659 859.9287 857.0833 856.6293 851.3594 851.467 848.2456 851.59 845.2775 846.5416 843.2443 851.6817 839.1141 849.9179 835.6652 852.8029 828.128 857.9495 830.7429 860.2877 825.425 857.1933 823.6206 861.0123 816.8306 856.3042 811.5252 854.5702 808.8045 866.5002 801.2039 871.8737 795.8119 869.9752 791.9885 863.6019 788.6423 868.3408 783.9479 868.3151 774.5049 867.5134 768.5173 872.8579 769.0689 882.2757 765.9333 886.4871 763.4287 893.843 765.458 906.7641 765.4591 911.2984 767.9009 915.1468 761.1193 919.488 761.0551 926.8712 769.0074 930.882 771.4002 926.8713 782.5626 931.4891 793.076 935.4988 795.1951 926.6794 808.7286 930.4953 813.5374 933.8019 810.9093 938.1368 814.5451 Z M 889.0013 811.1551 880.999 813.6496 874.8814 817.4844 871.5435 821.9781 870.7146 827.4434 875.6516 829.3721 875.4914 832.6277 868.3789 833.1989 869.9209 840.6568 875.3647 840.7213 878.8848 845.5918 891.2389 850.2105 897.5923 855.9876 899.4471 854.324 896.1734 847.5875 898.9525 842.0252 906.7952 842.6147 908.623 836.1914 905.5329 833.1087 897.8953 829.7042 901.5477 824.5441 891.394 822.7815 889.4222 818.1601 889.0013 811.1551 Z" fill="#c51b8a"/>
    <path d="M 1182.8809 303.27 1179.3105 301.0267 1173.4941 300.7365 1167.9813 304.6756 1164.292 303.81 1162.5434 299.6823 1156.9583 300.43 1153.4813 308.4291 1149.0202 305.8438 1145.7004 300.6702 1140.204 301.4044 1135.2841 300.1258 1137.647 294.8087 1136.4315 285.2987 1130.6249 284.2676 1134.3778 297.074 1130.9079 296.7705 1121.0076 283.2055 1113.1954 275.5436 1108.0792 272.4039 1106.125 279.9654 1107.8315 286.9354 1111.1887 289.5336 1110.3589 293.0102 1105.7008 296.3123 1101.3457 295.005 1097.6308 289.5912 1093.5534 289.6741 1093.317 298.2221 1089.7396 298.0187 1079.6724 301.4378 1076.2306 298.6261 1075.5225 294.7854 1068.6009 297.6565 1066.4868 300.6994 1057.7617 300.13 1050.0512 301.0961 1046.3962 298.068 1042.0807 289.4277 1033.9922 283.5248 1041.3383 277.9054 1049.9814 277.0817 1051.2084 269.8329 1041.6453 263.8401 1042.4273 259.1838 1038.2808 254.6733 1029.5366 252.8735 1024.0511 254.5563 1019.961 264.955 1015.7185 264.648 1012.6313 256.0723 1009.1642 260.3165 1009.3163 263.6433 1001.9811 267.2794 997.0959 261.1657 990.5828 264.5039 987.2494 259.2657 979.2645 252.8237 974.2483 255.6998 967.7844 249.8891 960.689 254.3551 957.6601 250.7296 957.3597 242.6895 955.5362 236.9598 956.4837 231.7126 951.1758 227.1273 949.8684 223.6266 941.1106 215.7431 947.0068 209.1371 939.4009 196.146 938.4138 189.5246 949.9449 189.9371 949.9534 192.8004 955.7016 197.1119 963.8162 196.1924 965.6268 191.8908 961.3148 187.1014 967.2681 184.1973 965.8 174.88 968.7308 171.6261 968.2635 163.4488 971.5226 162.1673 975.8156 164.6009 982.7816 164.978 985.0687 163.4299 990.2679 166.0247 1011.4124 166.0965 1019.3266 177.7202 1022.5344 172.4914 1025.1075 171.8827 1023.8178 161.1035 1027.2447 153.6311 1033.8122 154.7898 1037.5371 158.608 1042.7087 159.5065 1050.8044 157.09 1048.8379 154.1787 1051.1661 147.9212 1055.8481 148.6921 1058.2768 146.3937 1063.3528 146.6964 1069.9037 143.3695 1076.9511 151.5926 1079.7307 160.8733 1082.903 165.6667 1089.27 167.8451 1093.0485 167.1234 1097.7516 171.2331 1094.7445 176.5642 1098.1853 179.7586 1098.6605 190.822 1104.632 196.9883 1107.5987 204.6004 1110.7312 203.4318 1118.1063 207.1969 1121.6559 205.7622 1124.3443 212.3319 1124.6343 217.1419 1129.2018 220.0703 1133.7282 228.6388 1133.5886 239.6362 1139.9066 241.3914 1138.6386 244.3275 1144.9116 245.7974 1147.944 250.4016 1155.7597 258.0509 1166.5152 263.3911 1176.6719 270.2464 1177.3539 277.5039 1179.4607 279.0943 1182.362 292.0343 1181.5673 297.2049 1182.8809 303.27 Z" fill="#f768a1"/>
    <path d="M 941.1106 215.7431 949.8684 223.6266 951.1758 227.1273 956.4837 231.7126 955.5362 236.9598 957.3597 242.6895 957.6601 250.7296 960.689 254.3551 967.7844 249.8891 974.2483 255.6998 979.2645 252.8237 987.2494 259.2657 990.5828 264.5039 997.0959 261.1657 1001.9811 267.2794 1009.3163 263.6433 1009.1642 260.3165 1012.6313 256.0723 1015.7185 264.648 1019.961 264.955 1024.0511 254.5563 1029.5366 252.8735 1038.2808 254.6733 1042.4273 259.1838 1041.6453 263.8401 1051.2084 269.8329 1049.9814 277.0817 1041.3383 277.9054 1033.9922 283.5248 1042.0807 289.4277 1046.3962 298.068 1044.3624 300.5069 1049.5909 309.1047 1048.3962 315.4079 1051.7409 320.805 1047.6526 322.5509 1041.3404 327.1584 1041.0303 330.4675 1034.1793 327.5222 1032.3633 323.5118 1018.1984 323.4701 1009.3765 326.3281 1007.1675 320.3425 1002.9449 320.076 1003.7072 312.6481 994.1321 316.3294 994.2572 321.7193 990.1161 323.283 993.2628 327.9695 985.125 335.6506 980.8952 331.4055 980.1341 327.2027 968.3637 324.9541 966.849 331.8126 964.2949 334.7936 958.4601 337.1198 952.9432 344.6735 949.4047 344.8053 943.2971 341.4375 938.2663 345.467 932.0873 343.8657 926.1113 351.1768 913.0621 350.9144 910.096 344.9932 903.3128 342.0236 900.2127 345.2612 899.9738 350.51 891.454 353.7587 886.6968 350.026 882.0201 352.4985 877.5536 338.6189 873.5217 338.3029 870.2656 340.9889 863.7297 342.0201 857.2158 340.9905 851.1181 341.7851 852.8656 352.5712 847.6991 352.6332 836.7365 337.405 838.4808 333.5787 837.3664 326.9044 838.3636 318.88 835.0178 317.2056 831.5629 311.0389 834.366 306.2469 831.9123 301.6223 837.2304 294.8645 837.5337 291.8699 845.3276 293.5765 842.9509 285.4389 839.874 281.5076 835.7164 280.7447 832.2695 272.919 832.1724 268.7167 829.1106 266.3027 826.8961 260.4365 816.0385 256.6534 816.342 250.6116 821.3162 245.3384 821.6669 239.3884 823.9205 233.6358 829.4012 226.555 834.5385 224.4907 838.2017 219.4217 831.5712 207.8465 835.3069 206.9303 841.3554 208.4527 846.5572 212.3693 851.1381 219.2222 855.8132 215.8887 862.6362 213.2665 869.506 213.0415 874.2001 216.2037 884.3355 211.1108 886.1292 212.9801 892.8285 209.035 903.1983 214.6752 906.8438 211.2405 925.6867 201.0846 930.3174 203.8324 941.1106 215.7431 Z" fill="#7a0177"/>
  </g>
</svg>
